<?xml version="1.0" encoding="UTF-8"?>
<svg id="Layer_2" data-name="Layer 2" xmlns="http://www.w3.org/2000/svg" xmlns:xlink="http://www.w3.org/1999/xlink" viewBox="-10 -10 235.89 69.33">
  <defs>
    <style>
      .cls-1 {
        filter: url(#drop-shadow-1);
      }

      .cls-2 {
        fill: #fff;
        stroke-width: 0px;
      }
    </style>
    <filter id="drop-shadow-1" filterUnits="userSpaceOnUse">
      <feOffset dx="-2.83" dy="2.83"/>
      <feGaussianBlur result="blur" stdDeviation="1.7"/>
      <feFlood flood-color="#264078" flood-opacity=".55"/>
      <feComposite in2="blur" operator="in"/>
      <feComposite in="SourceGraphic"/>
    </filter>
  </defs>
  <g id="logo">
    <g class="cls-1">
      <g>
        <g>
          <path class="cls-2" d="M25.95,48.95c-5.24.48-9.6-2.95-10.15-8.97-.57-6.22,2.71-10.65,8.9-11.21,4.71-.43,9.55,2.67,10.12,8.94.58,6.38-2.62,10.67-8.87,11.24ZM24.56,33.11c-2.62.24-3.81,2.62-3.51,5.86.37,4.07,2.11,5.88,5.01,5.61,2.4-.22,3.83-2.37,3.51-5.91-.38-4.21-2.05-5.83-5-5.56Z"/>
          <path class="cls-2" d="M52.33,46.96c-4.25.25-6.64-1.23-6.8-4l-.11-1.9h.14c1.28,1.15,3.83,1.73,6.04,1.6,2.46-.15,3.21-.78,3.13-2.07-.07-1.17-1.15-1.5-4.12-1.92-4.24-.59-5.96-2.03-6.13-4.96-.2-3.44,2.74-6.7,7.64-6.99,4.75-.28,6.7,1.76,6.82,3.75l.12,2.04h-.14c-1.36-1.2-3.72-1.62-5.73-1.5-2.63.16-3.48.91-3.42,2,.05.87.44,1.32,4.06,1.83,4.02.57,6.01,2.08,6.19,5.07.24,4-2.54,6.74-7.69,7.05Z"/>
          <path class="cls-2" d="M72.65,45.76l-1.26.05c-1.29.05-2.01-.4-2.86-1.6-3.26-4.61-6.09-11.14-7.32-17.57l2.97-.11c1.82-.07,2.93,1.2,3.2,2.34.57,2.47,2.02,6.59,3.63,9.7,1.44-3.25,2.84-8.52,3.3-12.43l2.69-.1c1.32-.05,2.41.75,2.46,2.12.03.73-.39,2.17-1.01,4.33-1.11,3.86-3.96,10.72-5.79,13.29Z"/>
          <path class="cls-2" d="M92.41,45.25l-2.18.04c-5.07.1-7.92-2.42-8.02-7.77l-.06-3.25c-.04-1.76.04-3.73.23-5.21.32-2.47,1.79-3.23,3.66-3.26l10.53-.21.02,1.26c.04,1.85-.92,3.1-3.16,3.14l-5.88.12c-.09.95-.15,2.36-.13,3.28l7.48-.15.04,1.93c.03,1.4-.99,2.2-2.87,2.24l-4.56.09v.7c.05,2.07.74,2.79,3.43,2.73l1.4-.03c1.6-.03,2.94-.2,4.5-.62l.04,2.04c.04,1.76-1.04,2.85-4.45,2.92ZM88.71,20.81c.88-.94,1.99-1.55,3.25-1.58,1.15-.02,1.81.69,1.82,1.62.02,1.15-.8,2.14-1.66,2.53-1,.44-2.45.67-4.19.7l-1.29.03v-.14c.45-1.16,1.24-2.27,2.06-3.15Z"/>
          <path class="cls-2" d="M112.61,28.58l-.04,5.12c2.74-3.82,3.56-4.88,5.48-6.82,1.1-1.11,1.8-1.28,3.4-1.26l3.89.03v.14c-2.45,2.31-5.73,6.15-7.71,8.74,1.3,1.86,2.58,3.83,4.13,5.49,1.39,1.49,1.89,1.92,3.29,2.24-.6,2.21-1.48,2.9-3.24,2.89-1.06,0-2.54-.55-3.35-1.45-2.28-2.54-3.88-4.9-5.91-7.99l-.07,9.18-2.13-.02c-2.3-.02-3.18-1.59-3.17-3.07l.12-16.27h1.88c2.3.03,3.43,1.55,3.42,3.06Z"/>
          <path class="cls-2" d="M135.44,45.71c-5.26-.15-9.18-4.07-9.01-10.12.18-6.24,3.96-10.25,10.18-10.07,4.73.14,9.16,3.79,8.98,10.09-.19,6.41-3.88,10.28-10.15,10.1ZM135.96,29.82c-2.63-.08-4.1,2.15-4.19,5.4-.12,4.09,1.39,6.09,4.3,6.17,2.41.07,4.09-1.9,4.19-5.45.12-4.23-1.34-6.03-4.3-6.12Z"/>
          <path class="cls-2" d="M164.79,33.31c-.92-1.31-3.28-2.16-5.41-2.27-3.13-.16-5.53,1.79-5.69,4.93-.2,3.94,2.11,5.94,5.24,6.1,2.07.11,4.4-.56,5.41-1.52h.14s-.1,1.99-.1,1.99c-.13,2.49-2.71,4.26-6.49,4.07-5.29-.27-9.85-4.31-9.54-10.41.29-5.62,4.47-10.09,10.9-9.77,3.78.19,5.92,2.18,5.78,4.89l-.1,1.99h-.14ZM158.96,21.6l5.14-1.73-.04.78c-.11,2.12-.87,2.73-2.76,3.59l-2.55,1.16-2.37-1.38c-1.85-1.08-2.54-1.78-2.43-4.02l.03-.64,4.99,2.24Z"/>
          <path class="cls-2" d="M183.69,34.65c-.89-1.33-3.24-2.23-5.36-2.38-3.13-.23-5.57,1.68-5.79,4.8-.28,3.94,1.98,5.98,5.11,6.21,2.07.15,4.41-.47,5.43-1.4h.14s-.14,1.99-.14,1.99c-.18,2.49-2.8,4.21-6.57,3.93-5.28-.38-9.75-4.52-9.31-10.61.41-5.61,4.68-9.99,11.1-9.53,3.77.27,5.87,2.3,5.67,5.01l-.14,1.98h-.14Z"/>
          <path class="cls-2" d="M195.81,49.26l-2.17-.21c-5.05-.48-7.59-3.31-7.09-8.63l.31-3.23c.17-1.76.46-3.7.83-5.15.59-2.42,2.14-3,4.01-2.83l10.48.99-.12,1.25c-.17,1.84-1.27,2.97-3.5,2.76l-5.85-.55c-.2.94-.42,2.32-.5,3.24l7.44.71-.18,1.92c-.13,1.39-1.24,2.08-3.11,1.9l-4.54-.43-.07.7c-.2,2.06.41,2.85,3.08,3.1l1.39.13c1.59.15,2.94.14,4.54-.11l-.19,2.04c-.17,1.76-1.35,2.71-4.75,2.39Z"/>
        </g>
        <g>
          <path class="cls-2" d="M5.34,35.93C.19,25.62-.93,13.54.68,11.8s9.77-1.69,26.58,5.13c-8.04-1.3-18.42-1.14-20.09.58-1.67,1.73-2.83,7.76-1.82,18.42"/>
          <path class="cls-2" d="M190.81,16.19c10.31-5.16,22.39-6.27,24.13-4.66,1.73,1.61,1.69,9.77-5.13,26.58,1.3-8.04,1.14-18.42-.58-20.09-1.73-1.67-7.76-2.83-18.42-1.82"/>
        </g>
      </g>
      <g>
        <path class="cls-2" d="M44.44,12.9c-.87,0-1.41-.38-1.68-.99l-.69-1.51c-.37-.8-.62-.96-1.23-1.03l-.41-.04v3.5h-.99c-1,0-1.58-.61-1.58-1.47V3.77c.65-.23,2.08-.41,2.8-.41h1.04c2,0,3.42,1.09,3.42,2.79,0,1.24-.81,2.3-1.7,2.5.45.2.68.54,1.03,1.28l.72,1.51c.27.55.51.97.65,1.13v.07c-.31.16-.82.24-1.38.24ZM41.34.96l2.43-.96v.38c0,1.03-.35,1.34-1.24,1.8l-1.2.62-1.18-.61c-.92-.47-1.27-.8-1.27-1.88v-.31l2.46.96ZM40.95,5.39c-.11,0-.32.03-.51.05v2.05c.31.04.64.04,1.03.04.73,0,1.1-.55,1.1-1.08,0-.68-.34-1.07-1.08-1.07h-.53Z"/>
        <path class="cls-2" d="M50.96,10.03h-1.11c.15.74.76,1.1,1.82,1.1,1.19,0,1.93-.19,2.35-.47h.09v.59c0,.95-.77,1.8-2.89,1.8-2.57,0-3.92-1.73-3.92-3.79,0-2.26,1.53-4.1,3.83-4.1,1.95,0,3.46,1.1,3.46,2.99,0,1.49-1.12,1.88-3.64,1.88ZM51.13,7.08c-.91,0-1.28.58-1.35,1.3h1c1.22,0,1.43-.19,1.43-.51,0-.38-.34-.78-1.08-.78Z"/>
        <path class="cls-2" d="M59.55,4.33v4.23c.61-.91,1.23-1.88,1.96-2.66.32-.35.58-.5,1.37-.5h1.8v.07c-.46.47-2.1,2.38-2.77,3.35.43.65.88,1.37,1.39,1.96.55.63.77.7,1.34.84-.09.82-.65,1.28-1.57,1.28-.38,0-1.01-.15-1.32-.51-.84-.97-1.49-2.03-2.19-3.1v3.54h-1.01c-.95,0-1.55-.62-1.55-1.51V2.83h.99c1.16,0,1.58.76,1.58,1.5Z"/>
        <path class="cls-2" d="M72.88,12.83c-1.14,0-1.49-.38-1.49-1.51v-2.61c0-1-.34-1.45-1.2-1.45-.74,0-1.15.5-1.15,1.41v4.16h-.87c-1.09,0-1.7-.43-1.7-1.51v-2.61c0-2.14,1.42-3.53,3.79-3.53,2.64,0,3.7,1.39,3.7,3.6v4.06h-1.08Z"/>
        <path class="cls-2" d="M79.94,10.03h-1.11c.15.74.76,1.1,1.83,1.1,1.19,0,1.93-.19,2.35-.47h.09v.59c0,.95-.77,1.8-2.89,1.8-2.57,0-3.92-1.73-3.92-3.79,0-2.26,1.53-4.1,3.83-4.1,1.95,0,3.46,1.1,3.46,2.99,0,1.49-1.12,1.88-3.64,1.88ZM80.13,2.81l2.43-.96v.38c0,1.03-.35,1.34-1.24,1.8l-1.2.62-1.18-.61c-.92-.47-1.27-.8-1.27-1.88v-.31l2.46.96ZM80.12,7.08c-.91,0-1.28.58-1.35,1.3h1c1.22,0,1.43-.19,1.43-.51,0-.38-.34-.78-1.08-.78Z"/>
        <path class="cls-2" d="M86.81,4.08c.34-.26.8-.5,1.34-.5h.27v1.81h2.18v.91c0,.64-.68,1.12-1.26,1.12h-.92v2.69c0,.5.31.8.81.8.61,0,.89-.05,1.16-.16h.07v1c0,.62-.57,1.19-1.91,1.19s-2.64-.61-2.64-2.65v-4.61c0-.68.39-1.22.89-1.59Z"/>
        <path class="cls-2" d="M96.04,10.03h-1.11c.15.74.76,1.1,1.83,1.1,1.19,0,1.93-.19,2.35-.47h.09v.59c0,.95-.77,1.8-2.89,1.8-2.57,0-3.92-1.73-3.92-3.79,0-2.26,1.53-4.1,3.83-4.1,1.95,0,3.46,1.1,3.46,2.99,0,1.49-1.12,1.88-3.64,1.88ZM96.21,7.08c-.91,0-1.28.58-1.35,1.3h1c1.22,0,1.43-.19,1.43-.51,0-.38-.34-.78-1.08-.78Z"/>
        <path class="cls-2" d="M112.55,12.83c-1.14,0-1.49-.38-1.49-1.51v-2.61c0-1-.34-1.45-1.2-1.45-.74,0-1.15.5-1.15,1.41v4.16h-.87c-1.1,0-1.7-.43-1.7-1.51v-2.61c0-2.14,1.42-3.53,3.79-3.53,2.64,0,3.7,1.39,3.7,3.6v4.06h-1.08Z"/>
        <path class="cls-2" d="M119.13,13.03c-1.43,0-3.18-.68-3.18-2.37s1.19-2.49,3.89-2.49h.36v-.31c0-.61-.47-.76-1.49-.76-1.39,0-1.91.32-2.43.81h-.07v-.91c0-.92.96-1.84,3.08-1.84s3.39,1.04,3.39,3.23v1.15c0,2.7-.87,3.47-3.57,3.47ZM119.23,2.73c.43-.45.97-.73,1.58-.73.55,0,.87.35.87.8,0,.55-.41,1.03-.83,1.2-.49.2-1.19.3-2.03.3h-.62v-.07c.23-.55.62-1.08,1.03-1.5ZM120.27,9.77h-.51c-.97,0-1.37.24-1.37.74,0,.47.3.72,1.01.72.46,0,.87-.23.87-.91v-.55Z"/>
        <path class="cls-2" d="M135.88,12.83c-1.37,0-1.68-.58-1.68-1.5v-2.74c0-.96-.32-1.31-1.07-1.31s-.96.53-.96,1.27v4.29h-.89c-1.04,0-1.59-.34-1.59-1.5v-2.81c0-.88-.34-1.24-1.01-1.24-.72,0-1,.37-1,1.28v4.27h-.89c-1.15,0-1.68-.55-1.68-1.5v-2.61c0-2.16,1.24-3.54,3.61-3.54,1.16,0,2.04.72,2.29,1.33.35-.57,1.26-1.33,2.33-1.33,2.16,0,3.45,1.28,3.45,3.61v4.04h-.89Z"/>
        <path class="cls-2" d="M149.86,12.83c-1.14,0-1.49-.38-1.49-1.51v-2.61c0-1-.34-1.45-1.2-1.45-.74,0-1.15.5-1.15,1.41v4.16h-.87c-1.09,0-1.7-.43-1.7-1.51v-2.61c0-2.14,1.42-3.53,3.79-3.53,2.64,0,3.7,1.39,3.7,3.6v4.06h-1.08Z"/>
        <path class="cls-2" d="M156.92,10.03h-1.11c.15.74.76,1.1,1.83,1.1,1.19,0,1.93-.19,2.35-.47h.09v.59c0,.95-.77,1.8-2.89,1.8-2.57,0-3.92-1.73-3.92-3.79,0-2.26,1.53-4.1,3.83-4.1,1.95,0,3.46,1.1,3.46,2.99,0,1.49-1.12,1.88-3.64,1.88ZM157.11,2.81l2.43-.96v.38c0,1.03-.35,1.34-1.24,1.8l-1.2.62-1.18-.61c-.92-.47-1.27-.8-1.27-1.88v-.31l2.46.96ZM157.1,7.08c-.91,0-1.28.58-1.35,1.3h1c1.22,0,1.43-.19,1.43-.51,0-.38-.34-.78-1.08-.78Z"/>
        <path class="cls-2" d="M168.85,7.83c-.23-.24-.93-.51-1.65-.51-1.26,0-1.96.63-1.96,1.68,0,1.27.7,1.87,1.84,1.87.8,0,1.35-.16,1.8-.42h.03v.77c0,.99-1.01,1.79-2.37,1.79-2.26,0-3.87-1.53-3.87-3.85,0-2.12,1.47-3.95,4.1-3.95,1.18,0,2.15.77,2.15,1.73v.91h-.07Z"/>
        <path class="cls-2" d="M174.92,5.19c2.03,0,3.85,1.54,3.85,3.84,0,2.43-1.47,4-4.04,4-2.12,0-3.85-1.57-3.85-3.76,0-2.46,1.7-4.08,4.04-4.08ZM174.76,7.22c-.7,0-1.34.74-1.34,1.76,0,1.43.57,2.05,1.47,2.05.81,0,1.34-.74,1.34-1.77,0-1.34-.58-2.04-1.47-2.04Z"/>
      </g>
    </g>
  </g>
</svg>