<?xml version="1.0" encoding="UTF-8"?>
<svg id="Layer_2" data-name="Layer 2" xmlns="http://www.w3.org/2000/svg" xmlns:xlink="http://www.w3.org/1999/xlink" viewBox="0 0 209.89 100.42">
  <defs>
    <style>
      .cls-1 {
        filter: url(#drop-shadow-1);
      }

      .cls-2 {
        fill: #fff;
        stroke-width: 0px;
      }
    </style>
    <filter id="drop-shadow-1" filterUnits="userSpaceOnUse">
      <feOffset dx="-2.83" dy="2.83"/>
      <feGaussianBlur result="blur" stdDeviation="1.7"/>
      <feFlood flood-color="#264078" flood-opacity=".55"/>
      <feComposite in2="blur" operator="in"/>
      <feComposite in="SourceGraphic"/>
    </filter>
  </defs>
  <g id="logo">
    <g class="cls-1">
      <g>
        <g>
          <path class="cls-2" d="M37.83,55.51c-1.15.08-2.21.09-3.08-.11l.6,8.1-2.88.21c-1.69.12-3.65-.92-3.85-3.74l-1.38-18.75c1.73-.54,4.67-1.33,6.91-1.5l2.61-.19c4.85-.36,8.81,2.08,9.17,6.96.38,5.09-3.25,8.66-8.1,9.02ZM36.55,44.66l-1.29.09c-.3.02-.98.17-1.28.26l.38,5.22c.73.18,1.55.19,2.46.12,2.03-.15,2.81-1.16,2.69-2.86-.18-2.44-1.31-2.97-2.97-2.85Z"/>
          <path class="cls-2" d="M66.47,61.84c-2.17.11-3.58-.78-4.33-2.27l-1.92-3.72c-1.01-1.96-1.68-2.33-3.22-2.43l-1.02-.05.43,8.8-2.48.12c-2.51.12-4.05-1.33-4.15-3.51l-.92-19.06c1.6-.66,5.18-1.27,6.98-1.36l2.62-.13c5.03-.24,8.73,2.33,8.93,6.58.15,3.12-1.76,5.87-3.97,6.49,1.15.46,1.76,1.28,2.74,3.1l1.98,3.72c.75,1.36,1.41,2.38,1.77,2.77v.17c-.75.45-2.04.71-3.43.78ZM56.79,43.41c-.27.01-.81.11-1.28.2l.25,5.16c.79.06,1.6.02,2.59-.02,1.83-.09,2.68-1.53,2.62-2.85-.08-1.7-.98-2.64-2.85-2.55l-1.33.06Z"/>
          <path class="cls-2" d="M82.86,61.73c-6.39.14-11.39-4.37-11.55-11.71-.17-7.58,4.17-12.68,11.72-12.85,5.75-.13,11.35,4.03,11.52,11.68.18,7.79-4.07,12.71-11.68,12.88ZM82.49,42.41c-3.2.07-4.83,2.86-4.75,6.81.11,4.96,2.07,7.3,5.6,7.22,2.92-.07,4.84-2.56,4.74-6.88-.12-5.13-2-7.23-5.6-7.15Z"/>
          <path class="cls-2" d="M118.49,61.29l-1.53-.02c-1.56-.02-2.41-.61-3.38-2.12-3.67-5.79-6.7-13.89-7.79-21.75l3.6.04c2.21.03,3.48,1.64,3.74,3.04.54,3.03,2.04,8.12,3.8,11.98,1.95-3.85,3.96-10.15,4.77-14.87l3.26.04c1.6.02,2.88,1.05,2.86,2.72,0,.88-.61,2.61-1.49,5.18-1.59,4.6-5.46,12.75-7.84,15.75Z"/>
          <path class="cls-2" d="M147.28,61.82c-2.35-.08-3.54-.81-3.88-2.93-.14-.86-.31-1.78-.55-2.78l-8.09-.29c-.57,1.68-1.06,4.04-1.38,5.5l-2.62-.09c-2.07-.07-2.95-1.26-2.89-2.99.12-3.4,5.03-16.15,9.26-20.26l2.51.09c2.28.08,3.73,1.29,4.47,2.61,2.11,3.82,5.32,13.22,6.09,21.24l-2.92-.1ZM139.31,43.92c-1.09,1.9-2.21,4.62-2.97,6.9l5.37.19c-.6-2.33-1.52-5.19-2.4-7.09Z"/>
          <path class="cls-2" d="M160.47,63.09c-5.16-.31-7.82-2.45-7.62-5.81l.14-2.31h.17c1.37,1.59,4.37,2.66,7.05,2.82,2.99.18,3.98-.48,4.07-2.04.08-1.43-1.18-1.98-4.7-2.91-5.03-1.33-6.89-3.31-6.67-6.87.25-4.17,4.28-7.68,10.22-7.32,5.77.35,7.82,3.09,7.67,5.5l-.15,2.48h-.17c-1.47-1.67-4.24-2.51-6.69-2.66-3.19-.19-4.33.59-4.41,1.91-.06,1.05.34,1.66,4.63,2.8,4.76,1.27,6.95,3.38,6.73,7.01-.29,4.85-4.04,7.76-10.29,7.38ZM163.32,32.78l6.25-2.04-.06.95c-.16,2.58-1.08,3.31-3.39,4.33l-3.11,1.38-2.86-1.7c-2.24-1.33-3.07-2.19-2.91-4.91l.05-.78,6.03,2.78Z"/>
          <path class="cls-2" d="M177.56,63.73c-1.46-.12-2.88-1.49-2.69-3.86l1.58-19.76,3.59.29c1.25.1,2.76,1.35,2.61,3.24l-1.62,20.37-3.46-.28Z"/>
        </g>
        <g>
          <path class="cls-2" d="M51.23,80.28l.33,6.21c3.05-4.83,3.96-6.17,6.15-8.67,1.25-1.43,2.09-1.68,4.03-1.78l4.72-.25v.17c-2.8,2.97-6.49,7.87-8.7,11.15,1.71,2.16,3.4,4.45,5.41,6.35,1.79,1.71,2.43,2.19,4.15,2.47-.57,2.72-1.58,3.62-3.72,3.74-1.29.07-3.12-.48-4.17-1.52-2.95-2.91-5.06-5.66-7.74-9.26l.58,11.14-2.58.14c-2.78.15-3.97-1.7-4.07-3.5l-1.04-19.73,2.28-.12c2.78-.15,4.27,1.61,4.37,3.45Z"/>
          <path class="cls-2" d="M80.05,99.45c-6.39.16-11.4-4.33-11.59-11.67-.19-7.58,4.13-12.69,11.67-12.88,5.74-.15,11.36,3.99,11.55,11.64.2,7.78-4.03,12.72-11.64,12.91ZM79.62,80.15c-3.19.08-4.82,2.88-4.72,6.82.13,4.96,2.09,7.29,5.62,7.2,2.92-.08,4.83-2.57,4.72-6.89-.13-5.13-2.02-7.22-5.62-7.13Z"/>
          <path class="cls-2" d="M114.71,82.54c-1.2-1.53-4.12-2.4-6.71-2.39-3.81.02-6.58,2.54-6.57,6.35.02,4.79,2.95,7.06,6.76,7.04,2.52,0,5.3-.97,6.45-2.2h.17s0,2.41,0,2.41c.01,3.03-3,5.35-7.59,5.37-6.42.03-12.22-4.57-12.25-11.99-.03-6.83,4.74-12.53,12.56-12.56,4.59-.02,7.32,2.25,7.33,5.55v2.41s-.16,0-.16,0ZM106.87,68.73l6.11-2.44v.95c.01,2.58-.87,3.37-3.11,4.53l-3.02,1.58-2.96-1.52c-2.32-1.18-3.2-1.99-3.21-4.71v-.78s6.19,2.39,6.19,2.39Z"/>
          <path class="cls-2" d="M126.04,79.02l-.15,6.22c3.41-4.58,4.43-5.84,6.8-8.17,1.36-1.33,2.21-1.51,4.15-1.46l4.73.12v.17c-3.03,2.75-7.09,7.34-9.55,10.45,1.54,2.28,3.05,4.7,4.9,6.75,1.66,1.84,2.26,2.37,3.95,2.78-.78,2.67-1.85,3.49-4,3.44-1.29-.03-3.08-.72-4.04-1.83-2.71-3.13-4.61-6.03-7-9.83l-.28,11.15-2.58-.06c-2.79-.07-3.83-2-3.79-3.8l.49-19.75,2.28.06c2.79.07,4.14,1.94,4.09,3.78Z"/>
          <path class="cls-2" d="M153.94,100.39c-6.01-.32-10.04-4.58-9.71-10.89l.72-13.61,2.75.14c2.07.11,3.64,1.42,3.47,4.64l-.47,8.96c-.21,3.97,1.12,5.33,4.14,5.49,2.55.13,3.89-1.4,4.07-4.89l.71-13.58,2.75.14c2.41.13,3.64,1.42,3.47,4.51l-.48,9.1c-.31,5.91-4.19,10.37-11.42,9.99Z"/>
        </g>
        <g>
          <path class="cls-2" d="M5.34,45.62C.19,35.31-.93,23.22.68,21.49c1.61-1.73,9.77-1.69,26.58,5.13-8.04-1.3-18.42-1.14-20.09.58-1.67,1.73-2.83,7.76-1.82,18.42"/>
          <path class="cls-2" d="M184.81,25.88c10.31-5.16,22.39-6.27,24.13-4.66,1.73,1.61,1.69,9.77-5.13,26.58,1.3-8.04,1.14-18.42-.58-20.09-1.73-1.67-7.76-2.83-18.42-1.82"/>
        </g>
      </g>
      <g>
        <path class="cls-2" d="M36.89,9.69h-.54c-.55,0-.85-.2-1.2-.73-1.32-2.03-2.42-4.87-2.84-7.64h1.27c.78,0,1.24.56,1.33,1.05.2,1.07.75,2.86,1.39,4.21.67-1.37,1.36-3.6,1.62-5.26h1.15c.56,0,1.02.36,1.02.95,0,.31-.2.92-.5,1.83-.54,1.63-1.87,4.52-2.7,5.59Z"/>
        <path class="cls-2" d="M46.69,7.86c-1.85,3.55-2.31,3.91-3.69,3.91-.73,0-1.34-.4-1.34-1.14v-.55l.98-.07c.6-.05.88-.29,1.12-.83-.95-1.42-2.16-4.41-2.42-6.18h1.19c.56,0,1.15.35,1.28.94.23,1.04.68,2.31,1.03,3.12.49-1,1.01-2.77,1.15-4.05h1.09c.66,0,.97.31.97.84,0,.7-.62,2.61-1.36,4.02Z"/>
        <path class="cls-2" d="M53.21,9.77c-2.25,0-3.36-1.24-3.36-3.18V.72h.55c1.26,0,1.65.37,1.65,1.44v1.55c.37-.48.78-.9,1.68-.9,1.8,0,3.09,1.25,3.09,3.39s-1.51,3.57-3.62,3.57ZM53.31,4.59c-.73,0-1.25.65-1.25,1.73,0,1.29.5,1.73,1.28,1.73.72,0,1.2-.59,1.2-1.61,0-1.33-.44-1.85-1.24-1.85Z"/>
        <path class="cls-2" d="M61.99,7.11h-.98c.13.66.67.97,1.62.97,1.05,0,1.71-.17,2.09-.42h.08v.53c0,.84-.68,1.59-2.57,1.59-2.28,0-3.48-1.54-3.48-3.36,0-2,1.35-3.63,3.39-3.63,1.73,0,3.07.97,3.07,2.65,0,1.32-1,1.67-3.23,1.67ZM62.14,4.5c-.8,0-1.14.52-1.2,1.15h.89c1.08,0,1.27-.17,1.27-.46,0-.33-.3-.7-.96-.7Z"/>
        <path class="cls-2" d="M71.29,4.7c-.29-.11-.5-.13-.8-.13-.55,0-.98.28-.98,1.08v3.95h-.62c-.98,0-1.58-.46-1.58-1.56v-2.87c0-1.33.9-2.39,2.4-2.39,1.14,0,1.67.47,1.67,1.08v.84h-.07Z"/>
        <path class="cls-2" d="M73.8,1.83c.3-.23.71-.44,1.19-.44h.24v1.61h1.93v.8c0,.56-.6,1-1.12,1h-.82v2.39c0,.44.28.71.72.71.54,0,.79-.05,1.03-.14h.06v.89c0,.55-.5,1.06-1.69,1.06s-2.34-.54-2.34-2.35V3.25c0-.6.35-1.08.79-1.42Z"/>
        <path class="cls-2" d="M81.98,7.11h-.98c.13.66.67.97,1.62.97,1.06,0,1.72-.17,2.09-.42h.08v.53c0,.84-.68,1.59-2.57,1.59-2.28,0-3.48-1.54-3.48-3.36,0-2,1.36-3.63,3.39-3.63,1.73,0,3.07.97,3.07,2.65,0,1.32-1,1.67-3.23,1.67ZM82.14,4.5c-.8,0-1.14.52-1.2,1.15h.89c1.08,0,1.27-.17,1.27-.46,0-.33-.3-.7-.96-.7Z"/>
        <path class="cls-2" d="M94.86,9.79c-.89,0-1.4-.41-1.69-.9v2.75h-.83c-.91,0-1.39-.48-1.39-1.6v-3.49c0-2.36,1.31-3.74,3.65-3.74,1.93,0,3.38,1.31,3.38,3.35,0,2.25-1.32,3.63-3.12,3.63ZM94.33,4.54c-.62,0-1.13.6-1.13,1.57,0,1.4.6,1.89,1.38,1.89.72,0,1.12-.63,1.12-1.62,0-1.42-.43-1.85-1.37-1.85Z"/>
        <path class="cls-2" d="M103.14,7.11h-.98c.13.66.67.97,1.62.97,1.06,0,1.72-.17,2.09-.42h.08v.53c0,.84-.68,1.59-2.57,1.59-2.28,0-3.48-1.54-3.48-3.36,0-2,1.36-3.63,3.39-3.63,1.73,0,3.07.97,3.07,2.65,0,1.32-1,1.67-3.23,1.67ZM103.29,4.5c-.8,0-1.14.52-1.2,1.15h.89c1.08,0,1.27-.17,1.27-.46,0-.33-.3-.7-.96-.7Z"/>
        <path class="cls-2" d="M112.44,4.7c-.29-.11-.5-.13-.8-.13-.55,0-.98.28-.98,1.08v3.95h-.62c-.98,0-1.58-.46-1.58-1.56v-2.87c0-1.33.9-2.39,2.4-2.39,1.14,0,1.67.47,1.67,1.08v.84h-.07Z"/>
        <path class="cls-2" d="M118.15,4.7c-.29-.11-.5-.13-.8-.13-.55,0-.98.28-.98,1.08v3.95h-.62c-.98,0-1.58-.46-1.58-1.56v-2.87c0-1.33.9-2.39,2.4-2.39,1.14,0,1.67.47,1.67,1.08v.84h-.07Z"/>
        <path class="cls-2" d="M123.86,4.7c-.29-.11-.5-.13-.8-.13-.55,0-.98.28-.98,1.08v3.95h-.62c-.98,0-1.58-.46-1.58-1.56v-2.87c0-1.33.9-2.39,2.4-2.39,1.14,0,1.67.47,1.67,1.08v.84h-.07Z"/>
        <path class="cls-2" d="M129.57,4.7c-.29-.11-.5-.13-.8-.13-.55,0-.98.28-.98,1.08v3.95h-.62c-.98,0-1.58-.46-1.58-1.56v-2.87c0-1.33.9-2.39,2.4-2.39,1.14,0,1.67.47,1.67,1.08v.84h-.07Z"/>
        <path class="cls-2" d="M134.74,5.82c0,.46-.35.86-.84.86h-2.88v-.61c0-.59.3-.9.96-.9h2.76v.65Z"/>
        <path class="cls-2" d="M141,2.37c-.25-.13-.72-.18-1.02-.18-.54,0-.91.31-.91.71v.78h1.51v.83c0,.44-.41.73-.98.73h-.53v4.35h-.7c-1.08,0-1.52-.42-1.52-1.42V3.63c0-2.38,1.43-3.03,2.67-3.03,1.12,0,1.54.56,1.54,1.25v.53h-.06Z"/>
        <path class="cls-2" d="M145.38,7.11h-.98c.13.66.67.97,1.62.97,1.05,0,1.71-.17,2.09-.42h.08v.53c0,.84-.68,1.59-2.57,1.59-2.28,0-3.48-1.54-3.48-3.36,0-2,1.35-3.63,3.39-3.63,1.73,0,3.07.97,3.07,2.65,0,1.32-1,1.67-3.23,1.67ZM145.53,4.5c-.8,0-1.14.52-1.2,1.15h.89c1.08,0,1.27-.17,1.27-.46,0-.33-.3-.7-.96-.7Z"/>
        <path class="cls-2" d="M153,2.05v3.75c.54-.8,1.09-1.67,1.74-2.36.29-.31.52-.44,1.21-.44h1.59v.06c-.41.42-1.86,2.11-2.46,2.97.38.58.78,1.21,1.24,1.74.49.56.68.62,1.19.74-.08.73-.58,1.14-1.39,1.14-.34,0-.9-.13-1.17-.46-.74-.86-1.32-1.8-1.94-2.75v3.14h-.9c-.84,0-1.38-.55-1.38-1.34V.72h.88c1.03,0,1.4.67,1.4,1.33Z"/>
        <path class="cls-2" d="M159.99,1.83c.3-.23.71-.44,1.19-.44h.24v1.61h1.93v.8c0,.56-.6,1-1.12,1h-.82v2.39c0,.44.28.71.72.71.54,0,.79-.05,1.03-.14h.06v.89c0,.55-.5,1.06-1.69,1.06s-2.34-.54-2.34-2.35V3.25c0-.6.35-1.08.79-1.42Z"/>
        <path class="cls-2" d="M170.77,9.59c-1.01,0-1.32-.34-1.32-1.34v-2.31c0-.89-.3-1.28-1.07-1.28-.66,0-1.02.44-1.02,1.25v3.69h-.77c-.97,0-1.51-.38-1.51-1.34v-2.31c0-1.89,1.26-3.13,3.36-3.13,2.34,0,3.29,1.24,3.29,3.19v3.6h-.96Z"/>
        <path class="cls-2" d="M175,.65c.38-.4.86-.65,1.4-.65.49,0,.77.31.77.71,0,.49-.36.91-.73,1.07-.43.18-1.05.26-1.8.26h-.55v-.06c.2-.49.55-.96.91-1.33ZM176.25,9.69c-1.21,0-2.16-.6-2.16-2.16V3.2h.56c1.3,0,1.71.37,1.71,1.57v2.42c0,.59.28.77.91.77h.28v.67c0,.79-.6,1.06-1.31,1.06Z"/>
        <path class="cls-2" d="M77.81,24.21c-2.13,0-3.3-1.04-3.3-3.15v-3.63h.89c1,0,1.43.34,1.43,1.34v2.35c0,.97.46,1.27,1.08,1.27.54,0,.97-.31.97-1.36v-3.61h.89c.91,0,1.42.38,1.42,1.34v2.35c0,2.11-1.34,3.09-3.37,3.09Z"/>
        <path class="cls-2" d="M92.95,24.02c-1.21,0-1.49-.52-1.49-1.33v-2.43c0-.85-.29-1.16-.95-1.16s-.85.47-.85,1.13v3.8h-.79c-.92,0-1.41-.3-1.41-1.33v-2.5c0-.78-.3-1.1-.9-1.1-.63,0-.89.32-.89,1.14v3.79h-.79c-1.02,0-1.49-.49-1.49-1.33v-2.32c0-1.92,1.1-3.14,3.2-3.14,1.03,0,1.81.64,2.03,1.17.31-.5,1.12-1.17,2.06-1.17,1.92,0,3.06,1.14,3.06,3.2v3.59h-.79Z"/>
        <path class="cls-2" d="M97.02,15.07c.38-.4.86-.65,1.4-.65.49,0,.77.31.77.71,0,.49-.36.91-.73,1.07-.43.18-1.05.26-1.8.26h-.55v-.06c.2-.49.55-.96.91-1.33ZM98.27,24.12c-1.21,0-2.16-.6-2.16-2.16v-4.33h.56c1.3,0,1.71.37,1.71,1.57v2.42c0,.59.28.77.91.77h.28v.67c0,.79-.6,1.05-1.31,1.05Z"/>
        <path class="cls-2" d="M103.77,24.21c-1.8,0-2.45-.66-2.45-1.62v-.66h.06c.43.32,1.09.58,2.03.58.83,0,1.09-.19,1.09-.52,0-.3-.16-.42-1.52-.61-1.19-.17-1.81-.71-1.81-1.76,0-1.58,1.5-2.39,3.01-2.39s2.35.59,2.35,1.57v.68h-.06c-.44-.32-1.14-.55-2.03-.55s-1.13.23-1.13.5c0,.25.14.34,1.52.56,1.1.18,1.85.78,1.85,1.89,0,1.42-1.1,2.31-2.91,2.31Z"/>
        <path class="cls-2" d="M109.6,16.26c.3-.23.71-.44,1.19-.44h.24v1.61h1.93v.8c0,.56-.6,1-1.12,1h-.82v2.39c0,.44.28.71.72.71.54,0,.79-.05,1.03-.14h.06v.89c0,.55-.5,1.05-1.69,1.05s-2.34-.54-2.34-2.35v-4.09c0-.6.35-1.08.79-1.42Z"/>
        <path class="cls-2" d="M117.78,21.54h-.98c.13.66.67.97,1.62.97,1.06,0,1.72-.17,2.09-.42h.08v.53c0,.84-.68,1.59-2.57,1.59-2.28,0-3.48-1.54-3.48-3.36,0-2,1.36-3.63,3.39-3.63,1.73,0,3.07.97,3.07,2.65,0,1.32-1,1.67-3.23,1.67ZM117.95,15.13l2.16-.85v.34c0,.91-.31,1.19-1.1,1.59l-1.07.55-1.04-.54c-.82-.42-1.13-.71-1.13-1.67v-.28l2.18.85ZM117.94,18.92c-.8,0-1.14.52-1.2,1.15h.89c1.08,0,1.27-.17,1.27-.46,0-.34-.3-.7-.96-.7Z"/>
        <path class="cls-2" d="M128.71,24.02c-1.01,0-1.32-.34-1.32-1.34v-2.31c0-.89-.3-1.28-1.07-1.28-.66,0-1.02.44-1.02,1.25v3.69h-.77c-.97,0-1.51-.38-1.51-1.34v-2.31c0-1.89,1.26-3.13,3.36-3.13,2.34,0,3.29,1.24,3.29,3.19v3.6h-.96Z"/>
        <path class="cls-2" d="M132.95,15.07c.38-.4.86-.65,1.4-.65.49,0,.77.31.77.71,0,.49-.36.91-.73,1.07-.43.18-1.05.26-1.8.26h-.55v-.06c.2-.49.55-.96.91-1.33ZM134.2,24.12c-1.21,0-2.16-.6-2.16-2.16v-4.33h.56c1.3,0,1.71.37,1.71,1.57v2.42c0,.59.28.77.91.77h.28v.67c0,.79-.6,1.05-1.31,1.05Z"/>
      </g>
    </g>
  </g>
</svg>