<?xml version="1.0" encoding="UTF-8"?>
<svg id="Layer_2" data-name="Layer 2" xmlns="http://www.w3.org/2000/svg" xmlns:xlink="http://www.w3.org/1999/xlink" viewBox="0 0 209.89 91.78">
  <defs>
    <style>
      .cls-1 {
        filter: url(#drop-shadow-1);
      }

      .cls-2 {
        fill: #fff;
        stroke-width: 0px;
      }
    </style>
    <filter id="drop-shadow-1" filterUnits="userSpaceOnUse">
      <feOffset dx="-2.83" dy="2.83"/>
      <feGaussianBlur result="blur" stdDeviation="1.7"/>
      <feFlood flood-color="#264078" flood-opacity=".55"/>
      <feComposite in2="blur" operator="in"/>
      <feComposite in="SourceGraphic"/>
    </filter>
  </defs>
  <g id="logo">
    <g class="cls-1">
      <g>
        <g>
          <path class="cls-2" d="M32.47,45.24l-3.32.28,1.54,17.99-2.81.24c-1.93.17-3.7-.57-3.91-3.04l-1.25-14.63-6.67.57-.19-2.24c-.12-1.42.99-3.22,3.36-3.43l16.39-1.4.19,2.24c.12,1.46-1.36,3.26-3.32,3.42Z"/>
          <path class="cls-2" d="M43.63,62.56c-1.46.1-3.07-1.06-3.23-3.43l-1.31-19.78,3.6-.24c1.25-.08,2.92.93,3.05,2.83l1.35,20.39-3.46.23Z"/>
          <path class="cls-2" d="M57.89,41.91l.28,6.22c3.08-4.8,4.01-6.14,6.21-8.62,1.26-1.42,2.1-1.66,4.04-1.75l4.72-.21v.17c-2.82,2.95-6.55,7.82-8.78,11.09,1.7,2.17,3.37,4.48,5.36,6.39,1.78,1.72,2.42,2.2,4.13,2.5-.59,2.72-1.61,3.61-3.75,3.71-1.29.06-3.12-.5-4.15-1.55-2.92-2.93-5.02-5.69-7.67-9.32l.5,11.14-2.58.12c-2.79.13-3.96-1.73-4.04-3.53l-.89-19.73,2.28-.1c2.79-.13,4.26,1.64,4.34,3.48Z"/>
          <path class="cls-2" d="M95.9,61.14c-6.39.06-11.33-4.52-11.4-11.86-.07-7.58,4.33-12.62,11.88-12.69,5.75-.05,11.29,4.18,11.37,11.83.07,7.79-4.23,12.65-11.85,12.73ZM95.79,41.83c-3.2.03-4.87,2.8-4.83,6.74.05,4.96,1.97,7.33,5.51,7.29,2.92-.03,4.87-2.49,4.83-6.81-.05-5.13-1.9-7.26-5.51-7.22Z"/>
          <path class="cls-2" d="M138.46,61.05c-2.24-.05-3.85-1.31-3.79-3.76.05-2.11-.03-8.13-.32-11.61l-3.45,9.79c-.51,1.42-1.55,3.91-2.46,5.35l-1.8-.04c-2.21-.05-3.91-1.75-5.26-6.54l-1.1-3.94c-.54-1.95-1.2-4.04-1.56-5.03-.5,4-.97,11.44-1.05,15.32l-2.41-.05c-1.97-.04-3.74-1.44-3.69-3.75.15-6.73,1.25-14.84,2.47-19.74l2.24.05c3.74.08,5.61,1.89,6.41,3.98l1.74,4.6c.74,1.99,1.67,4.7,2.13,6.68.55-1.72,1.31-3.78,2.06-5.46l2.36-5.32c.89-1.99,2.05-3.39,2.91-4.09l1.19.03c3.4.08,4.99,1.98,5.36,5.36.51,4.6.93,11.82.79,18.25l-2.75-.06Z"/>
          <path class="cls-2" d="M169.92,44.65l-3.33-.2-1.1,18.02-2.82-.17c-1.93-.12-3.58-1.1-3.43-3.58l.9-14.66-6.69-.41.14-2.24c.09-1.43,1.45-3.05,3.82-2.9l16.42,1-.14,2.24c-.09,1.46-1.82,3.02-3.79,2.9Z"/>
          <path class="cls-2" d="M187.02,64.45l-2.64-.23c-6.13-.53-9.25-3.94-8.69-10.41l.34-3.93c.18-2.13.53-4.49.95-6.27.7-2.94,2.57-3.67,4.84-3.47l12.74,1.1-.13,1.52c-.19,2.24-1.51,3.62-4.22,3.39l-7.11-.62c-.24,1.14-.48,2.82-.58,3.94l9.04.78-.2,2.34c-.15,1.69-1.48,2.53-3.75,2.34l-5.52-.48-.07.85c-.22,2.51.52,3.46,3.77,3.74l1.69.15c1.93.17,3.57.14,5.51-.17l-.21,2.47c-.19,2.13-1.62,3.31-5.75,2.95Z"/>
        </g>
        <g>
          <path class="cls-2" d="M49.15,90.78c-2.17.15-3.59-.71-4.38-2.19l-1.99-3.68c-1.05-1.94-1.73-2.3-3.26-2.37l-1.02-.03.6,8.79-2.48.17c-2.51.17-4.07-1.25-4.22-3.43l-1.3-19.03c1.59-.69,5.15-1.38,6.95-1.5l2.61-.18c5.02-.34,8.77,2.16,9.06,6.4.21,3.12-1.64,5.91-3.85,6.57,1.15.43,1.79,1.24,2.8,3.05l2.06,3.68c.77,1.34,1.46,2.35,1.82,2.74v.17c-.74.46-2.02.75-3.41.85ZM39.11,72.55c-.27.02-.81.12-1.28.22l.35,5.16c.79.05,1.6,0,2.59-.07,1.83-.13,2.65-1.58,2.56-2.9-.12-1.7-1.03-2.62-2.9-2.49l-1.32.09Z"/>
          <path class="cls-2" d="M58.64,90.11c-1.46.07-3.05-1.11-3.17-3.49l-.97-19.8,3.6-.18c1.26-.06,2.91.98,3,2.88l1,20.41-3.46.17Z"/>
          <path class="cls-2" d="M85.41,73.12c-1.24-1.49-4.19-2.29-6.77-2.21-3.81.12-6.52,2.72-6.4,6.52.15,4.79,3.14,6.98,6.94,6.86,2.51-.08,5.27-1.11,6.39-2.37h.17s.07,2.41.07,2.41c.09,3.03-2.86,5.43-7.45,5.57-6.42.2-12.34-4.25-12.57-11.66-.21-6.83,4.41-12.65,12.23-12.89,4.59-.14,7.38,2.05,7.48,5.35l.07,2.41h-.17Z"/>
          <path class="cls-2" d="M107.84,88.96c-1.77,0-3.68-1.24-3.69-3.62l-.03-5.95-7.62.04.05,9.59h-2.86c-1.77.02-3.64-1.23-3.66-3.61l-.1-19.82,3.33-.02c1.7,0,3.13,1.24,3.14,3.01l.03,5.68,7.65-.04-.04-8.7,3.16-.02c1.53,0,3.3,1.11,3.31,3.01l.1,20.43h-2.79Z"/>
          <path class="cls-2" d="M130.32,71.22l-3.33-.06-.34,18.05-2.82-.05c-1.94-.04-3.62-.95-3.57-3.43l.28-14.69-6.7-.13.04-2.24c.03-1.43,1.32-3.1,3.7-3.06l16.46.31-.04,2.24c-.03,1.46-1.69,3.1-3.66,3.06Z"/>
          <path class="cls-2" d="M148.23,90.25l-2.65-.11c-6.15-.25-9.42-3.52-9.15-10.01l.16-3.94c.09-2.14.32-4.51.67-6.3.57-2.97,2.4-3.78,4.68-3.69l12.77.53-.06,1.53c-.09,2.24-1.34,3.69-4.06,3.58l-7.13-.29c-.18,1.15-.36,2.84-.4,3.96l9.07.38-.1,2.34c-.07,1.7-1.37,2.6-3.64,2.5l-5.54-.23-.03.85c-.1,2.51.67,3.43,3.94,3.57l1.7.07c1.94.08,3.57-.02,5.5-.42l-.1,2.48c-.09,2.14-1.47,3.38-5.61,3.2Z"/>
          <path class="cls-2" d="M175.95,91.61c-2.65-.18-4.74-1.48-6.58-5.42l-3.48-7.46c-.58-.93-.97-1.77-1.02-2.01l-.96,14.08-2.65-.18c-1.76-.12-3.55-1.47-3.39-3.84l1.35-19.81,3.12.21c3.43.23,5.59,2.05,6.97,5.31l3.77,8.77.9-13.3,2.85.19c1.53.1,3.18,1.34,3.05,3.24l-1.38,20.39-2.54-.17Z"/>
        </g>
        <g>
          <path class="cls-2" d="M5.34,49.75C.19,39.44-.93,27.35.68,25.62c1.61-1.73,9.77-1.69,26.58,5.13-8.04-1.3-18.42-1.14-20.09.58-1.67,1.73-2.83,7.76-1.82,18.42"/>
          <path class="cls-2" d="M184.81,30.01c10.31-5.16,22.39-6.27,24.13-4.66,1.73,1.61,1.69,9.77-5.13,26.58,1.3-8.04,1.14-18.42-.58-20.09-1.73-1.67-7.76-2.83-18.42-1.82"/>
        </g>
      </g>
      <g>
        <path class="cls-2" d="M36.03,2.82h-2.21v1.55h2.91v.71c0,.62-.44,1.03-.98,1.03h-1.88v3.12h-1.1c-.72,0-1.21-.36-1.21-1.13V2.45c0-1.02.56-1.5,1.67-1.5h4.01v.8c0,.48-.4,1.07-1.2,1.07Z"/>
        <path class="cls-2" d="M40.14,2.25c-.66,0-1.2-.5-1.2-1.13s.54-1.13,1.2-1.13,1.19.5,1.19,1.13-.53,1.13-1.19,1.13ZM41.22,9.32c-1.21,0-2.16-.6-2.16-2.16V2.83h.56c1.29,0,1.71.37,1.71,1.57v2.42c0,.59.28.77.91.77h.28v.67c0,.79-.6,1.06-1.31,1.06Z"/>
        <path class="cls-2" d="M49.92,9.22c-1.01,0-1.32-.33-1.32-1.34v-2.31c0-.89-.3-1.28-1.07-1.28-.66,0-1.02.44-1.02,1.25v3.69h-.77c-.97,0-1.51-.38-1.51-1.34v-2.31c0-1.9,1.26-3.13,3.36-3.13,2.34,0,3.29,1.24,3.29,3.19v3.6h-.96Z"/>
        <path class="cls-2" d="M56.38,9.42c-1.94,0-3.44-1.6-3.44-3.38,0-2.22,1.37-3.6,3.12-3.6.84,0,1.46.37,1.7.89V.35h.82c.91,0,1.4.48,1.4,1.59v3.83c0,2.39-.97,3.65-3.6,3.65ZM56.34,4.2c-.61,0-1.13.63-1.13,1.64,0,1.29.6,1.82,1.43,1.82.71,0,1.08-.55,1.08-1.58,0-1.48-.56-1.88-1.38-1.88Z"/>
        <path class="cls-2" d="M65.29,6.74h-.98c.13.66.67.97,1.62.97,1.06,0,1.72-.17,2.09-.42h.08v.53c0,.84-.68,1.6-2.57,1.6-2.28,0-3.48-1.54-3.48-3.36,0-2,1.36-3.63,3.39-3.63,1.73,0,3.07.97,3.07,2.65,0,1.32-1,1.67-3.23,1.67ZM65.44,4.13c-.8,0-1.14.52-1.2,1.15h.89c1.08,0,1.27-.17,1.27-.46,0-.34-.3-.7-.96-.7Z"/>
        <path class="cls-2" d="M76.71,9.42c-1.8,0-2.45-.66-2.45-1.62v-.66h.06c.43.32,1.09.58,2.03.58.83,0,1.09-.19,1.09-.52,0-.3-.16-.42-1.52-.61-1.19-.17-1.81-.71-1.81-1.76,0-1.58,1.5-2.39,3.01-2.39s2.35.59,2.35,1.57v.68h-.06c-.44-.32-1.14-.55-2.03-.55s-1.13.23-1.13.5c0,.25.14.34,1.52.56,1.1.18,1.85.78,1.85,1.9,0,1.42-1.1,2.31-2.91,2.31Z"/>
        <path class="cls-2" d="M87.03,4.79c-.2-.22-.83-.46-1.46-.46-1.12,0-1.74.56-1.74,1.49,0,1.13.62,1.65,1.63,1.65.71,0,1.2-.14,1.59-.37h.02v.68c0,.88-.9,1.58-2.1,1.58-2,0-3.43-1.35-3.43-3.42,0-1.88,1.31-3.5,3.63-3.5,1.04,0,1.91.68,1.91,1.54v.8h-.06Z"/>
        <path class="cls-2" d="M94.84,9.22c-1.2,0-1.4-.56-1.4-1.38v-2.21c0-.94-.34-1.35-.98-1.35-.89,0-1.1.47-1.1,1.4v3.54h-.77c-1.09,0-1.51-.46-1.51-1.38V.35h.73c.95,0,1.49.46,1.49,1.31v1.7c.34-.53.89-.92,1.93-.92,1.33,0,2.5,1.03,2.5,2.82v3.97h-.88Z"/>
        <path class="cls-2" d="M103.61,9.22c-1.01,0-1.32-.33-1.32-1.34v-2.31c0-.89-.3-1.28-1.07-1.28-.66,0-1.02.44-1.02,1.25v3.69h-.77c-.97,0-1.51-.38-1.51-1.34v-2.31c0-1.9,1.26-3.13,3.36-3.13,2.34,0,3.29,1.24,3.29,3.19v3.6h-.96Z"/>
        <path class="cls-2" d="M110.08,9.42c-2.13,0-3.3-1.04-3.3-3.15v-3.63h.89c1,0,1.43.34,1.43,1.34v2.35c0,.97.46,1.27,1.08,1.27.54,0,.97-.31.97-1.36v-3.61h.89c.91,0,1.42.38,1.42,1.34v2.35c0,2.11-1.34,3.09-3.37,3.09Z"/>
        <path class="cls-2" d="M119.72,4.33c-.29-.11-.5-.13-.8-.13-.55,0-.98.28-.98,1.08v3.95h-.62c-.98,0-1.58-.46-1.58-1.56v-2.87c0-1.33.9-2.39,2.4-2.39,1.14,0,1.67.47,1.67,1.08v.84h-.07Z"/>
        <path class="cls-2" d="M125.43,4.33c-.29-.11-.5-.13-.8-.13-.55,0-.98.28-.98,1.08v3.95h-.62c-.98,0-1.58-.46-1.58-1.56v-2.87c0-1.33.9-2.39,2.4-2.39,1.14,0,1.67.47,1.67,1.08v.84h-.07Z"/>
        <path class="cls-2" d="M131.14,4.33c-.29-.11-.5-.13-.8-.13-.55,0-.98.28-.98,1.08v3.95h-.62c-.98,0-1.58-.46-1.58-1.56v-2.87c0-1.33.9-2.39,2.4-2.39,1.14,0,1.67.47,1.67,1.08v.84h-.07Z"/>
        <path class="cls-2" d="M136.31,5.45c0,.46-.35.86-.84.86h-2.88v-.61c0-.59.3-.9.96-.9h2.76v.65Z"/>
        <path class="cls-2" d="M140.82,9.42c-1.8,0-2.45-.66-2.45-1.62v-.66h.06c.43.32,1.09.58,2.03.58.83,0,1.09-.19,1.09-.52,0-.3-.16-.42-1.52-.61-1.19-.17-1.81-.71-1.81-1.76,0-1.58,1.5-2.39,3.01-2.39s2.35.59,2.35,1.57v.68h-.06c-.44-.32-1.14-.55-2.03-.55s-1.13.23-1.13.5c0,.25.14.34,1.52.56,1.1.18,1.85.78,1.85,1.9,0,1.42-1.1,2.31-2.91,2.31Z"/>
        <path class="cls-2" d="M146.65,1.46c.3-.23.71-.44,1.19-.44h.24v1.61h1.93v.8c0,.56-.6,1-1.12,1h-.82v2.39c0,.44.28.71.72.71.54,0,.79-.05,1.03-.14h.06v.89c0,.55-.5,1.06-1.69,1.06s-2.34-.54-2.34-2.35V2.88c0-.6.35-1.08.79-1.42Z"/>
        <path class="cls-2" d="M155.79,4.33c-.29-.11-.5-.13-.8-.13-.55,0-.98.28-.98,1.08v3.95h-.62c-.98,0-1.58-.46-1.58-1.56v-2.87c0-1.33.9-2.39,2.4-2.39,1.14,0,1.67.47,1.67,1.08v.84h-.07Z"/>
        <path class="cls-2" d="M160.12,9.4c-1.27,0-2.82-.6-2.82-2.1s1.06-2.21,3.45-2.21h.32v-.28c0-.54-.42-.67-1.32-.67-1.23,0-1.69.29-2.16.72h-.06v-.8c0-.82.85-1.63,2.73-1.63s3.01.92,3.01,2.87v1.02c0,2.4-.77,3.08-3.17,3.08ZM161.13,6.51h-.46c-.86,0-1.21.22-1.21.66,0,.42.26.64.9.64.41,0,.77-.2.77-.8v-.49Z"/>
        <path class="cls-2" d="M167.79,1.68v3.75c.54-.8,1.09-1.67,1.74-2.36.29-.31.52-.44,1.21-.44h1.6v.06c-.41.42-1.86,2.11-2.46,2.97.38.58.78,1.21,1.24,1.74.49.56.68.62,1.19.74-.08.73-.58,1.14-1.39,1.14-.34,0-.9-.13-1.17-.46-.74-.86-1.32-1.8-1.94-2.75v3.14h-.9c-.84,0-1.38-.55-1.38-1.34V.35h.88c1.03,0,1.4.67,1.4,1.33Z"/>
        <path class="cls-2" d="M176.16,9.42c-1.8,0-2.45-.66-2.45-1.62v-.66h.06c.43.32,1.09.58,2.03.58.83,0,1.09-.19,1.09-.52,0-.3-.16-.42-1.52-.61-1.19-.17-1.81-.71-1.81-1.76,0-1.58,1.5-2.39,3.01-2.39s2.35.59,2.35,1.57v.68h-.06c-.44-.32-1.14-.55-2.03-.55s-1.13.23-1.13.5c0,.25.14.34,1.52.56,1.1.18,1.85.78,1.85,1.9,0,1.42-1.1,2.31-2.91,2.31Z"/>
        <path class="cls-2" d="M45.48,23.84c-1.94,0-3.44-1.6-3.44-3.38,0-2.22,1.37-3.6,3.12-3.6.84,0,1.46.37,1.7.89v-2.97h.82c.91,0,1.4.48,1.4,1.59v3.83c0,2.39-.97,3.65-3.6,3.65ZM45.43,18.62c-.61,0-1.13.63-1.13,1.64,0,1.29.6,1.82,1.43,1.82.71,0,1.08-.55,1.08-1.58,0-1.48-.56-1.88-1.38-1.88Z"/>
        <path class="cls-2" d="M54.38,21.17h-.98c.13.66.67.97,1.62.97,1.06,0,1.71-.17,2.09-.42h.08v.53c0,.84-.68,1.6-2.57,1.6-2.28,0-3.48-1.54-3.48-3.36,0-2,1.36-3.63,3.39-3.63,1.73,0,3.07.97,3.07,2.65,0,1.32-1,1.67-3.23,1.67ZM54.54,18.55c-.8,0-1.14.52-1.2,1.15h.89c1.08,0,1.27-.17,1.27-.46,0-.34-.3-.7-.96-.7Z"/>
        <path class="cls-2" d="M65.31,23.65c-1.01,0-1.32-.34-1.32-1.34v-2.31c0-.89-.3-1.28-1.07-1.28-.66,0-1.02.44-1.02,1.25v3.69h-.77c-.97,0-1.51-.38-1.51-1.34v-2.31c0-1.9,1.26-3.13,3.36-3.13,2.34,0,3.29,1.24,3.29,3.19v3.6h-.96Z"/>
        <path class="cls-2" d="M76.11,23.84c-.89,0-1.4-.41-1.69-.9v2.75h-.83c-.91,0-1.39-.48-1.39-1.59v-3.49c0-2.36,1.31-3.74,3.65-3.74,1.93,0,3.38,1.31,3.38,3.35,0,2.25-1.32,3.63-3.12,3.63ZM75.58,18.6c-.62,0-1.13.6-1.13,1.57,0,1.4.6,1.89,1.38,1.89.72,0,1.12-.63,1.12-1.62,0-1.42-.43-1.85-1.37-1.85Z"/>
        <path class="cls-2" d="M84.39,21.17h-.98c.13.66.67.97,1.62.97,1.06,0,1.71-.17,2.09-.42h.08v.53c0,.84-.68,1.6-2.57,1.6-2.28,0-3.48-1.54-3.48-3.36,0-2,1.36-3.63,3.39-3.63,1.73,0,3.07.97,3.07,2.65,0,1.32-1,1.67-3.23,1.67ZM84.55,18.55c-.8,0-1.14.52-1.2,1.15h.89c1.08,0,1.27-.17,1.27-.46,0-.34-.3-.7-.96-.7Z"/>
        <path class="cls-2" d="M93.69,18.76c-.29-.11-.5-.13-.8-.13-.55,0-.98.28-.98,1.08v3.95h-.62c-.98,0-1.58-.46-1.58-1.56v-2.87c0-1.33.9-2.39,2.4-2.39,1.14,0,1.67.47,1.67,1.08v.84h-.07Z"/>
        <path class="cls-2" d="M99.56,16.43c-.25-.13-.72-.18-1.02-.18-.54,0-.91.31-.91.71v.78h1.51v.83c0,.44-.41.73-.98.73h-.53v4.35h-.7c-1.08,0-1.52-.42-1.52-1.42v-4.54c0-2.38,1.43-3.04,2.67-3.04,1.12,0,1.54.56,1.54,1.25v.53h-.06Z"/>
        <path class="cls-2" d="M103.94,21.17h-.98c.13.66.67.97,1.62.97,1.06,0,1.72-.17,2.09-.42h.08v.53c0,.84-.68,1.6-2.57,1.6-2.28,0-3.48-1.54-3.48-3.36,0-2,1.36-3.63,3.39-3.63,1.73,0,3.07.97,3.07,2.65,0,1.32-1,1.67-3.23,1.67ZM104.1,18.55c-.8,0-1.14.52-1.2,1.15h.89c1.08,0,1.27-.17,1.27-.46,0-.34-.3-.7-.96-.7Z"/>
        <path class="cls-2" d="M111.56,16.1v3.75c.54-.8,1.09-1.67,1.74-2.36.29-.31.52-.44,1.21-.44h1.6v.06c-.41.42-1.86,2.11-2.46,2.97.38.58.78,1.21,1.23,1.74.49.56.68.62,1.19.74-.08.73-.58,1.14-1.39,1.14-.34,0-.9-.13-1.18-.46-.74-.86-1.32-1.8-1.94-2.75v3.14h-.9c-.84,0-1.38-.55-1.38-1.34v-7.53h.88c1.03,0,1.4.67,1.4,1.33Z"/>
        <path class="cls-2" d="M118.56,15.89c.3-.23.71-.44,1.19-.44h.24v1.61h1.93v.8c0,.56-.6,1-1.12,1h-.82v2.39c0,.44.28.71.72.71.54,0,.79-.05,1.03-.14h.06v.89c0,.55-.5,1.06-1.69,1.06s-2.34-.54-2.34-2.35v-4.09c0-.6.35-1.08.79-1.42Z"/>
        <path class="cls-2" d="M126.74,21.17h-.98c.13.66.67.97,1.62.97,1.05,0,1.71-.17,2.09-.42h.08v.53c0,.84-.68,1.6-2.57,1.6-2.28,0-3.48-1.54-3.48-3.36,0-2,1.35-3.63,3.39-3.63,1.73,0,3.07.97,3.07,2.65,0,1.32-1,1.67-3.23,1.67ZM126.89,18.55c-.8,0-1.14.52-1.2,1.15h.89c1.08,0,1.27-.17,1.27-.46,0-.34-.3-.7-.96-.7Z"/>
        <path class="cls-2" d="M137.67,23.65c-1.01,0-1.32-.34-1.32-1.34v-2.31c0-.89-.3-1.28-1.07-1.28-.66,0-1.02.44-1.02,1.25v3.69h-.77c-.97,0-1.51-.38-1.51-1.34v-2.31c0-1.9,1.26-3.13,3.36-3.13,2.34,0,3.29,1.24,3.29,3.19v3.6h-.96Z"/>
        <path class="cls-2" d="M148.4,23.84c-2.25,0-3.98-1.63-3.98-4.22s1.57-4.44,4.23-4.44c2.03,0,3.97,1.51,3.97,4.21s-1.54,4.45-4.22,4.45ZM148.42,17.03c-1.13,0-1.73.97-1.73,2.36,0,1.75.67,2.59,1.92,2.59,1.03,0,1.73-.86,1.73-2.39,0-1.81-.65-2.57-1.92-2.57Z"/>
        <path class="cls-2" d="M158.74,18.76c-.29-.11-.5-.13-.8-.13-.55,0-.98.28-.98,1.08v3.95h-.62c-.98,0-1.58-.46-1.58-1.56v-2.87c0-1.33.9-2.39,2.4-2.39,1.14,0,1.67.47,1.67,1.08v.84h-.07Z"/>
        <path class="cls-2" d="M161.25,15.89c.3-.23.71-.44,1.19-.44h.24v1.61h1.93v.8c0,.56-.6,1-1.12,1h-.81v2.39c0,.44.28.71.72.71.54,0,.79-.05,1.03-.14h.06v.89c0,.55-.5,1.06-1.69,1.06s-2.34-.54-2.34-2.35v-4.09c0-.6.35-1.08.79-1.42Z"/>
      </g>
    </g>
  </g>
</svg>