<?xml version="1.0" encoding="UTF-8"?>
<svg id="Layer_2" data-name="Layer 2" xmlns="http://www.w3.org/2000/svg" xmlns:xlink="http://www.w3.org/1999/xlink" viewBox="-10 -10 235.89 66.05">
  <defs>
    <style>
      .cls-1 {
        filter: url(#drop-shadow-1);
      }

      .cls-2 {
        fill: #fff;
        stroke-width: 0px;
      }
    </style>
    <filter id="drop-shadow-1" filterUnits="userSpaceOnUse">
      <feOffset dx="-2.83" dy="2.83"/>
      <feGaussianBlur result="blur" stdDeviation="1.7"/>
      <feFlood flood-color="#264078" flood-opacity=".55"/>
      <feComposite in2="blur" operator="in"/>
      <feComposite in="SourceGraphic"/>
    </filter>
  </defs>
  <g id="logo">
    <g class="cls-1">
      <g>
        <g>
          <path class="cls-2" d="M27.45,46.01c-5.43.48-9.94-3.07-10.5-9.31-.58-6.44,2.83-11.02,9.24-11.6,4.88-.44,9.88,2.79,10.46,9.29.59,6.62-2.74,11.05-9.21,11.62ZM26.04,29.6c-2.71.24-3.95,2.71-3.65,6.06.38,4.22,2.17,6.09,5.18,5.83,2.48-.22,3.97-2.45,3.65-6.12-.39-4.36-2.11-6.04-5.17-5.77Z"/>
          <path class="cls-2" d="M49.95,44.07l-1.3.08c-1.33.09-2.09-.36-3.01-1.58-3.5-4.69-6.6-11.38-8.05-18l3.07-.2c1.88-.12,3.07,1.17,3.38,2.34.66,2.54,2.27,6.77,4.01,9.94,1.41-3.4,2.71-8.89,3.09-12.96l2.78-.18c1.36-.09,2.52.71,2.61,2.13.05.75-.35,2.26-.93,4.51-1.05,4.02-3.81,11.2-5.65,13.91Z"/>
          <path class="cls-2" d="M70.38,43.05l-2.26.1c-5.25.23-8.26-2.31-8.5-7.85l-.15-3.36c-.08-1.83-.05-3.86.11-5.4.27-2.57,1.77-3.39,3.71-3.47l10.9-.47.06,1.3c.08,1.91-.88,3.23-3.19,3.33l-6.09.26c-.07.99-.1,2.44-.06,3.4l7.74-.33.09,2c.06,1.45-.97,2.31-2.92,2.39l-4.72.2.03.72c.09,2.14.82,2.87,3.6,2.75l1.45-.06c1.65-.07,3.04-.28,4.64-.75l.09,2.12c.08,1.83-1,2.98-4.54,3.13Z"/>
          <path class="cls-2" d="M92.54,42.3c-1.86.04-3.03-.74-3.64-2.04l-1.55-3.21c-.82-1.69-1.38-2.03-2.69-2.14l-.87-.07.17,7.51-2.12.05c-2.15.05-3.42-1.23-3.46-3.08l-.37-16.26c1.38-.52,4.45-.97,5.98-1.01l2.23-.05c4.29-.1,7.39,2.18,7.47,5.81.06,2.67-1.63,4.97-3.53,5.45.97.41,1.48,1.13,2.27,2.7l1.61,3.21c.61,1.17,1.15,2.06,1.45,2.4v.15c-.66.36-1.75.56-2.94.59ZM84.69,26.38c-.23,0-.69.07-1.1.14l.1,4.41c.67.07,1.36.06,2.21.04,1.57-.04,2.32-1.24,2.3-2.37-.03-1.45-.78-2.27-2.37-2.24l-1.13.03Z"/>
          <path class="cls-2" d="M107.96,42.33c-2.73-.01-4.35-1.29-4.34-3.06v-2.32s.18,0,.18,0c.67.55,1.48.91,3.04.91,1.54,0,2.12-.89,2.13-2.17l.06-13.66h1.94c2.03.02,3.56,1.18,3.55,3.18l-.04,10.56c-.02,4.09-2.12,6.58-6.53,6.56Z"/>
          <path class="cls-2" d="M128.99,42.53l-2.26-.04c-5.25-.1-8.1-2.82-8-8.35l.06-3.36c.03-1.83.19-3.85.45-5.39.42-2.54,1.97-3.27,3.92-3.23l10.9.2-.02,1.3c-.04,1.91-1.07,3.17-3.39,3.13l-6.09-.11c-.13.98-.25,2.43-.27,3.39l7.74.14-.04,2c-.03,1.45-1.11,2.24-3.06,2.21l-4.72-.09v.72c-.05,2.15.63,2.91,3.41,2.96l1.45.03c1.65.03,3.05-.09,4.68-.46l-.04,2.12c-.03,1.83-1.18,2.91-4.72,2.84Z"/>
          <path class="cls-2" d="M150.59,26.09l-.25,5.3c3-3.84,3.89-4.9,5.95-6.83,1.18-1.11,1.92-1.25,3.57-1.17l4.03.19v.15c-2.64,2.29-6.19,6.12-8.34,8.72,1.27,1.98,2.51,4.07,4.05,5.85,1.38,1.6,1.88,2.06,3.31,2.45-.71,2.26-1.65,2.94-3.47,2.86-1.1-.05-2.61-.67-3.41-1.64-2.25-2.72-3.82-5.23-5.78-8.51l-.45,9.5-2.2-.1c-2.37-.11-3.23-1.78-3.15-3.31l.79-16.83,1.94.09c2.38.11,3.49,1.73,3.42,3.29Z"/>
          <path class="cls-2" d="M181.06,44.84c-2-.14-3-.79-3.22-2.61-.09-.73-.21-1.53-.38-2.38l-6.89-.49c-.54,1.42-1.03,3.42-1.35,4.64l-2.23-.16c-1.76-.13-2.47-1.17-2.37-2.64.21-2.89,4.78-13.62,8.51-16.99l2.14.15c1.94.14,3.14,1.21,3.73,2.36,1.68,3.32,4.13,11.43,4.54,18.29l-2.49-.18ZM174.81,29.34c-.99,1.59-2.02,3.87-2.74,5.79l4.57.33c-.44-2.01-1.13-4.47-1.83-6.12Z"/>
          <path class="cls-2" d="M198.45,30.96l-2.83-.26-1.43,15.33-2.4-.22c-1.65-.15-3.02-1.04-2.82-3.15l1.16-12.47-5.69-.53.18-1.91c.11-1.21,1.31-2.56,3.34-2.37l13.97,1.3-.18,1.91c-.12,1.24-1.63,2.53-3.31,2.37Z"/>
        </g>
        <g>
          <path class="cls-2" d="M5.34,33.1C.19,22.79-.93,10.71.68,8.98s9.77-1.69,26.58,5.13c-8.04-1.3-18.42-1.14-20.09.58-1.67,1.73-2.83,7.76-1.82,18.42"/>
          <path class="cls-2" d="M190.81,13.37c10.31-5.16,22.39-6.27,24.13-4.66,1.73,1.61,1.69,9.77-5.13,26.58,1.3-8.04,1.14-18.42-.58-20.09-1.73-1.67-7.76-2.83-18.42-1.82"/>
        </g>
      </g>
      <g>
        <path class="cls-2" d="M73.8,10.11h-.61c-.62,0-.96-.23-1.35-.83-1.49-2.28-2.73-5.49-3.2-8.61h1.43c.88,0,1.39.64,1.5,1.19.23,1.2.85,3.22,1.57,4.75.76-1.54,1.53-4.06,1.83-5.94h1.3c.63,0,1.15.41,1.15,1.07,0,.35-.23,1.04-.57,2.07-.61,1.84-2.11,5.1-3.04,6.3Z"/>
        <path class="cls-2" d="M82.48,7.21h-1.11c.15.74.76,1.1,1.83,1.1,1.19,0,1.93-.19,2.35-.47h.09v.59c0,.95-.77,1.8-2.89,1.8-2.57,0-3.92-1.73-3.92-3.79,0-2.26,1.53-4.1,3.83-4.1,1.95,0,3.46,1.09,3.46,2.99,0,1.49-1.12,1.88-3.64,1.88ZM82.66,4.26c-.91,0-1.29.58-1.35,1.3h1c1.22,0,1.43-.19,1.43-.51,0-.38-.34-.78-1.08-.78Z"/>
        <path class="cls-2" d="M92.96,4.49c-.32-.12-.57-.15-.91-.15-.62,0-1.11.31-1.11,1.22v4.45h-.7c-1.11,0-1.79-.51-1.79-1.76v-3.23c0-1.5,1.01-2.69,2.7-2.69,1.28,0,1.88.53,1.88,1.22v.95h-.08Z"/>
        <path class="cls-2" d="M95.79,1.26c.34-.26.8-.5,1.34-.5h.27v1.81h2.18v.91c0,.63-.68,1.12-1.26,1.12h-.92v2.69c0,.5.31.8.81.8.61,0,.89-.05,1.16-.16h.07v1c0,.62-.57,1.19-1.91,1.19s-2.64-.61-2.64-2.65V2.85c0-.68.39-1.22.89-1.6Z"/>
        <path class="cls-2" d="M105.02,7.21h-1.11c.15.74.76,1.1,1.83,1.1,1.19,0,1.93-.19,2.35-.47h.1v.59c0,.95-.77,1.8-2.89,1.8-2.57,0-3.92-1.73-3.92-3.79,0-2.26,1.53-4.1,3.83-4.1,1.95,0,3.46,1.09,3.46,2.99,0,1.49-1.12,1.88-3.64,1.88ZM105.19,4.26c-.91,0-1.28.58-1.35,1.3h1c1.22,0,1.43-.19,1.43-.51,0-.38-.34-.78-1.08-.78Z"/>
        <path class="cls-2" d="M113.54,10.11c-1.37,0-2.54-.81-2.54-2.57V0h.91c1.12,0,1.66.51,1.66,1.77v5.39c0,.66.36.87,1.08.87h.57v.89c0,.91-.87,1.19-1.68,1.19Z"/>
        <path class="cls-2" d="M125.11,2.37c2.03,0,3.85,1.54,3.85,3.84,0,2.43-1.47,4-4.04,4-2.12,0-3.85-1.57-3.85-3.76,0-2.46,1.7-4.08,4.04-4.08ZM124.95,4.39c-.7,0-1.34.74-1.34,1.76,0,1.43.57,2.05,1.47,2.05.81,0,1.34-.74,1.34-1.77,0-1.34-.58-2.04-1.47-2.04Z"/>
        <path class="cls-2" d="M137.7,10c-1.14,0-1.49-.38-1.49-1.51v-2.61c0-1-.34-1.45-1.2-1.45-.74,0-1.15.5-1.15,1.41v4.16h-.87c-1.09,0-1.7-.43-1.7-1.51v-2.61c0-2.14,1.42-3.53,3.79-3.53,2.64,0,3.71,1.39,3.71,3.6v4.06h-1.08Z"/>
        <path class="cls-2" d="M144.05,10.22c-2.03,0-2.76-.74-2.76-1.83v-.74h.07c.49.36,1.23.65,2.28.65.93,0,1.23-.22,1.23-.58,0-.34-.18-.47-1.72-.69-1.34-.19-2.04-.8-2.04-1.99,0-1.79,1.69-2.69,3.39-2.69s2.65.66,2.65,1.77v.77h-.07c-.5-.36-1.28-.62-2.28-.62s-1.27.26-1.27.57c0,.28.16.38,1.72.63,1.24.2,2.08.88,2.08,2.14,0,1.6-1.24,2.61-3.29,2.61Z"/>
      </g>
    </g>
  </g>
</svg>