<svg width="309" height="77" viewBox="-10 -10 329 97" fill="none" xmlns="http://www.w3.org/2000/svg">
<g filter="url(#filter0_d_34_2156)">
<path d="M48.9387 38.8111C49.1202 40.4198 47.5314 42.4556 45.3616 42.7005L41.6953 43.1144L43.9376 62.9798L40.8324 63.3303C38.7 63.571 36.7196 62.8094 36.4114 60.0784L34.5871 43.9167L27.2171 44.7486L26.9384 42.2795C26.761 40.7082 27.9341 38.6814 30.5529 38.3858L48.66 36.3419L48.9387 38.8111Z" fill="white"/>
<path d="M75.2173 60.033L71.9921 60.318C69.4044 60.5467 67.988 59.9159 67.3325 57.6305C67.0622 56.7095 66.7477 55.7169 66.3516 54.6558L57.4259 55.4445C57.0291 57.3694 56.811 60.0343 56.6535 61.6735L53.7658 61.9286C51.4781 62.1308 50.3529 60.9452 50.1839 59.0325C49.8525 55.2823 53.506 40.5971 57.592 35.5116L60.3672 35.2663C62.8799 35.0443 64.6427 36.1736 65.6312 37.5224C68.4709 41.429 73.276 51.3226 75.2173 60.033ZM64.3952 49.1971C63.4197 46.7132 62.0196 43.6999 60.7873 41.7301C59.8511 43.9671 58.9944 47.1043 58.4697 49.7207L64.3952 49.1971Z" fill="white"/>
<path d="M97.0702 40.6928C97.4297 46.3287 93.3789 50.2464 88.006 50.5892C86.7286 50.6707 85.559 50.6698 84.6005 50.4292L85.1734 59.409L81.9797 59.6127C80.1011 59.7326 77.9507 58.5493 77.7518 55.4308L76.4264 34.6532C78.3514 34.0777 81.617 33.2281 84.0968 33.0699L86.9899 32.8853C92.3627 32.5426 96.725 35.2824 97.0702 40.6928ZM89.9697 41.7493C89.7972 39.0441 88.5517 38.4445 86.7107 38.562L85.2829 38.653C84.9448 38.6746 84.2005 38.8353 83.8671 38.932L84.2362 44.7181C85.042 44.9308 85.9486 44.9484 86.963 44.8837C89.2174 44.7399 90.0896 43.628 89.9697 41.7493Z" fill="white"/>
<path d="M130.328 33.8704C130.382 35.4884 128.638 37.3924 126.455 37.4652L122.768 37.5882L123.434 57.5686L120.311 57.6728C118.166 57.7443 116.252 56.8287 116.16 54.0819L115.618 37.8266L108.206 38.0738L108.123 35.5904C108.07 34.01 109.4 32.0822 112.033 31.9943L130.245 31.387L130.328 33.8704Z" fill="white"/>
<path d="M158.048 43.6186C158.145 52.2397 153.386 57.6393 144.953 57.7335C137.875 57.8126 132.397 52.7532 132.306 44.6216C132.212 36.2264 137.082 30.6372 145.44 30.5439C151.802 30.4728 157.954 35.1482 158.048 43.6186ZM150.903 44.3385C150.839 38.6539 148.78 36.3049 144.789 36.3494C141.25 36.389 139.402 39.4594 139.451 43.8264C139.512 49.3228 141.65 51.9345 145.565 51.8907C148.803 51.8546 150.956 49.1196 150.903 44.3385Z" fill="white"/>
<path d="M192.409 39.5691C192.299 45.2153 187.936 48.7827 182.553 48.6775C181.274 48.6524 180.108 48.5543 179.173 48.2348L178.997 57.2312L175.798 57.1686C173.916 57.1318 171.871 55.7739 171.932 52.6496L172.339 31.8338C174.305 31.4204 177.63 30.8452 180.115 30.8938L183.013 30.9504C188.396 31.0557 192.515 34.1487 192.409 39.5691ZM185.245 40.0315C185.298 37.3213 184.107 36.6202 182.263 36.5842L180.832 36.5562C180.494 36.5496 179.738 36.6478 179.398 36.7165L179.285 42.5133C180.07 42.7922 180.972 42.8852 181.988 42.905C184.247 42.9492 185.209 41.9136 185.245 40.0315Z" fill="white"/>
<path d="M213.68 54.3444C213.576 56.9778 211.931 58.5707 207.83 58.4088L204.821 58.2901C198.237 58.0303 195.546 54.6084 195.805 48.0626L196.452 31.6604L199.462 31.7792C202.283 31.8906 203.542 33.4097 203.426 36.344L202.972 47.8556C202.838 51.2414 203.701 52.2927 206.936 52.4204L208.065 52.4649C210.134 52.5466 212.517 52.3016 213.589 51.8917L213.777 51.8991L213.68 54.3444Z" fill="white"/>
<path d="M240.347 59.9586L237.115 59.757C234.522 59.5953 233.217 58.7594 232.911 56.4015C232.782 55.4504 232.62 54.4218 232.387 53.3133L223.444 52.7554C222.763 54.599 222.148 57.2012 221.747 58.7982L218.853 58.6177C216.561 58.4747 215.626 57.1338 215.746 55.2175C215.98 51.4599 221.794 37.4882 226.596 33.0725L229.376 33.246C231.894 33.4031 233.468 34.7838 234.243 36.2656C236.465 40.5536 239.733 51.0557 240.347 59.9586ZM231.271 47.6231C230.679 45.0211 229.746 41.832 228.823 39.6997C227.562 41.7711 226.245 44.7445 225.334 47.2527L231.271 47.6231Z" fill="white"/>
<path d="M265.411 44.3363L265.223 44.3199C264.058 42.5178 260.917 41.2615 258.067 41.0131C253.866 40.6471 250.548 43.1546 250.182 47.3553C249.722 52.6438 252.728 55.4378 256.929 55.8039C259.704 56.0457 262.872 55.2635 264.264 54.0244L264.452 54.0407L264.22 56.7037C263.929 60.0418 260.369 62.3014 255.305 61.8602C248.216 61.2425 242.285 55.586 242.997 47.4095C243.654 39.8706 249.488 34.0678 258.115 34.8195C263.178 35.2607 265.96 38.0352 265.643 41.6733L265.411 44.3363Z" fill="white"/>
<path d="M287.551 61.192C287.282 63.5487 285.661 64.8039 281.098 64.2839L278.18 63.9515C271.409 63.1801 268.061 59.3125 268.875 52.1677L269.369 47.8286C269.638 45.4719 270.086 42.8705 270.611 40.922C271.472 37.6856 273.566 36.9389 276.072 37.2245L290.137 38.827L289.945 40.5103C289.664 42.9791 288.167 44.4759 285.174 44.1349L277.319 43.2399C277.024 44.4947 276.699 46.3522 276.558 47.5867L286.546 48.7246L286.252 51.3057C286.039 53.176 284.535 54.0657 282.029 53.7802L275.932 53.0855L275.825 54.0207C275.51 56.7888 276.297 57.8636 279.888 58.2728L281.758 58.4859C283.891 58.7288 285.707 58.7463 287.862 58.4613L287.551 61.192Z" fill="white"/>
<path d="M14.4151 47.5653C8.22034 35.1878 6.88774 20.6853 8.82061 18.5963C10.7535 16.5194 20.5499 16.5674 40.7309 24.7551C31.0786 23.1944 18.617 23.3865 16.6121 25.4514C14.6072 27.5283 13.2146 34.7676 14.4271 47.5653" fill="white"/>
<path d="M277.885 23.8787C290.263 17.6839 304.765 16.3513 306.854 18.2842C308.931 20.217 308.883 30.0134 300.695 50.1945C302.256 40.5421 302.064 28.0806 299.999 26.0757C297.922 24.0708 290.683 22.6781 277.885 23.8907" fill="white"/>
<path d="M74.6675 6.88792C74.6675 7.53717 74.1319 8.3325 73.0444 8.3325H70.0578V10.4263H74.002V11.384C74.002 12.228 73.4015 12.7799 72.6711 12.7799H70.1227V17H68.6295C67.6556 17 66.9901 16.5131 66.9901 15.4743V7.82933C66.9901 6.44967 67.753 5.80042 69.2463 5.80042H74.6675V6.88792ZM78.9698 17H77.3142C76.6163 17 75.8859 16.3994 75.8859 15.2633V5.80042H77.6064C78.2069 5.80042 78.9698 6.33605 78.9698 7.245V17ZM91.0634 17H89.846C88.58 17 87.5412 16.4481 86.5348 14.6302L84.6358 11.1892C84.3274 10.7672 84.1164 10.3776 84.0839 10.264V17H82.8179C81.9739 17 81.0811 16.4157 81.0811 15.2795V5.80042H82.5744C84.2138 5.80042 85.3013 6.59575 86.0641 8.10526L88.1417 12.1631V5.80042H89.5052C90.2356 5.80042 91.0634 6.33605 91.0634 7.245V17ZM102.906 11.2217C102.906 14.6302 100.698 17.1461 97.4846 17.1461H96.3809C94.3682 17.1461 92.8425 16.3832 92.8425 14.4355V6.17374C93.6703 5.86535 95.1635 5.63811 96.04 5.63811H97.2087C99.9518 5.63811 102.906 7.40732 102.906 11.2217ZM99.8219 11.4651C99.8219 9.24145 98.5883 8.12149 97.0626 8.12149H96.4133C96.2997 8.12149 96.0887 8.15396 95.9264 8.18642V13.9323C95.9264 14.3218 96.1699 14.6627 96.5757 14.6627H97.0788C98.8643 14.6627 99.8219 13.3804 99.8219 11.4651ZM117.046 6.88792C117.046 7.58586 116.267 8.38119 115.326 8.38119H113.735V17H112.388C111.463 17 110.651 16.578 110.651 15.3931V8.38119H107.454V7.30993C107.454 6.62822 108.054 5.81665 109.191 5.81665H117.046V6.88792ZM128.008 17H126.677C125.833 17 124.924 16.3994 124.924 15.2633V12.4228H121.288V17H119.925C119.081 17 118.188 16.3994 118.188 15.2633V5.80042H119.779C120.59 5.80042 121.272 6.40098 121.272 7.245V9.95563H124.924V5.80042H126.433C127.164 5.80042 128.008 6.33605 128.008 7.245V17ZM138.308 15.5067C138.308 16.5293 137.675 17.1461 135.695 17.1461H134.429C131.491 17.1461 129.868 15.6528 129.868 12.5526V10.6698C129.868 9.64723 129.933 8.51104 130.063 7.65079C130.274 6.22243 131.134 5.80042 132.222 5.80042H138.325V6.53083C138.325 7.60209 137.757 8.31627 136.458 8.31627H133.049C132.985 8.86813 132.936 9.6797 132.936 10.2153H137.27V11.3353C137.27 12.1468 136.669 12.6013 135.582 12.6013H132.936V13.0071C132.936 14.2082 133.325 14.6302 134.884 14.6302H135.695C136.62 14.6302 137.399 14.5491 138.308 14.3218V15.5067ZM152.25 9.27391C152.25 11.7086 150.399 13.283 148.078 13.283C147.526 13.283 147.023 13.2506 146.617 13.1207V17H145.238C144.426 17 143.534 16.4319 143.534 15.0847V6.10882C144.378 5.91404 145.806 5.63811 146.877 5.63811H148.127C150.448 5.63811 152.25 6.93661 152.25 9.27391ZM149.166 9.53361C149.166 8.36496 148.646 8.0728 147.851 8.0728H147.234C147.088 8.0728 146.764 8.12149 146.617 8.15396V10.6536C146.958 10.7672 147.348 10.7997 147.786 10.7997C148.76 10.7997 149.166 10.3452 149.166 9.53361ZM163.489 12.2118C163.489 15.036 161.752 17.2597 158.295 17.2597C155.422 17.2597 153.393 15.3282 153.393 12.3092V5.80042H154.707C155.698 5.80042 156.477 6.38475 156.477 7.92672V12.2118C156.477 14.1108 157.142 14.7276 158.587 14.7276C159.804 14.7276 160.405 13.9648 160.405 12.2929V5.80042H161.719C162.872 5.80042 163.489 6.38475 163.489 7.86179V12.2118ZM174.983 16.789C174.61 16.9838 173.993 17.0812 173.328 17.0812C172.289 17.0812 171.64 16.6267 171.315 15.8963L170.487 14.0784C170.049 13.1207 169.741 12.926 169.01 12.8448L168.523 12.7961V17H167.338C166.137 17 165.439 16.2696 165.439 15.2308V6.12505C166.218 5.84911 167.939 5.63811 168.799 5.63811H170.049C172.451 5.63811 174.156 6.95284 174.156 8.98175C174.156 10.475 173.182 11.7411 172.11 11.9845C172.646 12.228 172.922 12.6338 173.344 13.5265L174.204 15.3444C174.529 16.0099 174.821 16.5131 174.983 16.7078V16.789ZM169.773 8.0728H169.14C169.01 8.0728 168.751 8.10526 168.523 8.13772V10.6049C168.897 10.6536 169.286 10.6536 169.757 10.6536C170.633 10.6536 171.072 9.98809 171.072 9.35507C171.072 8.54351 170.666 8.0728 169.773 8.0728ZM183.816 6.88792C183.816 7.53717 183.281 8.3325 182.193 8.3325H179.207V10.4263H183.151V11.384C183.151 12.228 182.55 12.7799 181.82 12.7799H179.272V17H177.778C176.805 17 176.139 16.5131 176.139 15.4743V7.82933C176.139 6.44967 176.902 5.80042 178.395 5.80042H183.816V6.88792ZM193.232 15.5067C193.232 16.5293 192.599 17.1461 190.618 17.1461H189.352C186.414 17.1461 184.791 15.6528 184.791 12.5526V10.6698C184.791 9.64723 184.856 8.51104 184.986 7.65079C185.197 6.22243 186.057 5.80042 187.145 5.80042H193.248V6.53083C193.248 7.60209 192.68 8.31627 191.381 8.31627H187.973C187.908 8.86813 187.859 9.6797 187.859 10.2153H192.193V11.3353C192.193 12.1468 191.592 12.6013 190.505 12.6013H187.859V13.0071C187.859 14.2082 188.249 14.6302 189.807 14.6302H190.618C191.544 14.6302 192.323 14.5491 193.232 14.3218V15.5067ZM203.903 9.35507H203.822C203.254 8.62466 201.858 8.20265 200.624 8.20265C198.806 8.20265 197.475 9.40376 197.475 11.2217C197.475 13.5103 198.871 14.5978 200.689 14.5978C201.89 14.5978 203.221 14.1433 203.773 13.559H203.854V14.7114C203.854 16.156 202.41 17.2597 200.218 17.2597C197.151 17.2597 194.391 15.0522 194.391 11.5138C194.391 8.25134 196.68 5.54072 200.413 5.54072C202.604 5.54072 203.903 6.62822 203.903 8.20265V9.35507ZM214.387 6.88792C214.387 7.58586 213.607 8.38119 212.666 8.38119H211.075V17H209.728C208.803 17 207.991 16.578 207.991 15.3931V8.38119H204.794V7.30993C204.794 6.62822 205.394 5.81665 206.531 5.81665H214.387V6.88792ZM227.677 13.4454C227.677 15.7664 225.972 17.2597 222.986 17.2597C220.519 17.2597 219.188 16.3183 219.188 14.7114V13.6077H219.269C219.967 14.3218 221.428 14.7439 222.71 14.7439C224.138 14.7439 224.593 14.403 224.593 13.6564C224.593 12.9746 223.976 12.7474 222.272 12.4065C219.837 11.9196 218.896 11.0269 218.896 9.32261C218.896 7.32616 220.713 5.54072 223.554 5.54072C226.313 5.54072 227.368 6.79053 227.368 7.94295V9.12783H227.287C226.54 8.38119 225.193 8.05657 224.025 8.05657C222.499 8.05657 221.979 8.46235 221.979 9.09537C221.979 9.59854 222.191 9.87447 224.268 10.2965C226.573 10.7672 227.677 11.7086 227.677 13.4454ZM237.987 9.27391C237.987 11.7086 236.137 13.283 233.816 13.283C233.264 13.283 232.76 13.2506 232.355 13.1207V17H230.975C230.163 17 229.271 16.4319 229.271 15.0847V6.10882C230.115 5.91404 231.543 5.63811 232.614 5.63811H233.864C236.185 5.63811 237.987 6.93661 237.987 9.27391ZM234.903 9.53361C234.903 8.36496 234.384 8.0728 233.588 8.0728H232.971C232.825 8.0728 232.501 8.12149 232.355 8.15396V10.6536C232.696 10.7672 233.085 10.7997 233.523 10.7997C234.497 10.7997 234.903 10.3452 234.903 9.53361ZM249.908 11.2379C249.908 14.9549 247.83 17.2597 244.194 17.2597C241.143 17.2597 238.805 15.0522 238.805 11.5463C238.805 7.92672 240.932 5.54072 244.535 5.54072C247.278 5.54072 249.908 7.58586 249.908 11.2379ZM246.824 11.5138C246.824 9.06291 245.947 8.04034 244.227 8.04034C242.701 8.04034 241.889 9.35507 241.889 11.2379C241.889 13.6077 242.798 14.7439 244.486 14.7439C245.882 14.7439 246.824 13.5752 246.824 11.5138ZM260.148 6.88792C260.148 7.58586 259.369 8.38119 258.427 8.38119H256.837V17H255.49C254.564 17 253.753 16.578 253.753 15.3931V8.38119H250.555V7.30993C250.555 6.62822 251.156 5.81665 252.292 5.81665H260.148V6.88792Z" fill="white"/>
</g>
<defs>
<filter id="filter0_d_34_2156" x="0.520648" y="4.8564" width="308.164" height="67.5973" filterUnits="userSpaceOnUse" color-interpolation-filters="sRGB">
<feFlood flood-opacity="0" result="BackgroundImageFix"/>
<feColorMatrix in="SourceAlpha" type="matrix" values="0 0 0 0 0 0 0 0 0 0 0 0 0 0 0 0 0 0 127 0" result="hardAlpha"/>
<feOffset dx="-3.39752" dy="3.39752"/>
<feGaussianBlur stdDeviation="2.04091"/>
<feColorMatrix type="matrix" values="0 0 0 0 0.14902 0 0 0 0 0.25098 0 0 0 0 0.470588 0 0 0 0.55 0"/>
<feBlend mode="normal" in2="BackgroundImageFix" result="effect1_dropShadow_34_2156"/>
<feBlend mode="normal" in="SourceGraphic" in2="effect1_dropShadow_34_2156" result="shape"/>
</filter>
</defs>
</svg>
