<svg width="204" height="61" viewBox="0 0 204 61" fill="none" xmlns="http://www.w3.org/2000/svg">
<g filter="url(#filter0_d_34_2254)">
<path d="M45.1556 30.2931C45.2904 32.1069 41.304 38.9755 39.4721 41.4072L40.1437 50.4453L37.548 50.6382C35.9218 50.7591 34.1181 49.7611 33.9554 47.5719L33.5278 41.8175C30.7934 38.8761 27.6951 34.4208 25.8117 29.8123L28.814 29.5892C30.753 29.4451 32.0424 30.2927 32.5163 31.1694C33.572 33.1036 35.0888 35.3179 36.4386 36.9786C37.6416 34.9709 39.2034 31.8675 39.9475 28.7619L42.7621 28.5527C44.1382 28.4504 45.0859 29.3548 45.1556 30.2931Z" fill="white"/>
<path d="M68.6096 37.7027C68.9654 44.8753 65.1769 49.5218 58.1609 49.8699C52.2724 50.162 47.5508 46.126 47.2152 39.3606C46.8687 32.3759 50.7434 27.5681 57.6968 27.2232C62.9901 26.9606 68.26 30.6554 68.6096 37.7027ZM62.6849 38.5304C62.4503 33.8008 60.661 31.9115 57.3409 32.0762C54.3967 32.2222 52.9565 34.837 53.1367 38.4703C53.3636 43.0432 55.2264 45.1487 58.4838 44.9871C61.1775 44.8535 62.8822 42.5082 62.6849 38.5304Z" fill="white"/>
<path d="M91.8878 38.993C92.0173 44.4481 88.7647 48.8229 82.0869 48.9814C76.5378 49.1131 72.5303 45.4754 72.3919 39.6441L72.0934 27.0722L74.6329 27.012C76.5453 26.9666 78.0769 28.0595 78.1476 31.0378L78.3441 39.3145C78.4312 42.9826 79.7449 44.1435 82.5352 44.0772C84.8865 44.0214 86.0115 42.5203 85.9348 39.2912L85.6371 26.7507L88.1766 26.6904C90.4025 26.6376 91.6206 27.7379 91.6884 30.5909L91.8878 38.993Z" fill="white"/>
<path d="M114.953 47.7607C114.233 48.1399 113.042 48.3329 111.757 48.338C109.75 48.3461 108.492 47.4731 107.859 46.0644L106.245 42.5585C105.391 40.7117 104.794 40.3378 103.382 40.1866L102.441 40.0963L102.473 48.2185L100.184 48.2277C97.8636 48.237 96.5095 46.8312 96.5014 44.8242L96.4308 27.2314C97.9339 26.6922 101.256 26.2712 102.918 26.2645L105.333 26.2548C109.974 26.2362 113.277 28.7631 113.293 32.6831C113.305 35.5682 111.433 38.0218 109.365 38.5005C110.402 38.9668 110.938 39.7486 111.76 41.4701L113.437 44.9757C114.069 46.259 114.637 47.2289 114.952 47.6039L114.953 47.7607ZM104.819 30.9609L103.596 30.9659C103.345 30.9669 102.844 31.0316 102.405 31.0961L102.424 35.8628C103.146 35.9539 103.898 35.9509 104.808 35.9473C106.501 35.9405 107.343 34.6513 107.338 33.4283C107.331 31.8603 106.544 30.954 104.819 30.9609Z" fill="white"/>
<path d="M143.548 34.1407L143.391 34.136C142.336 32.6927 139.665 31.7972 137.282 31.7261C133.772 31.6213 131.132 33.8641 131.027 37.3749C130.895 41.7947 133.528 43.9753 137.039 44.0802C139.359 44.1494 141.955 43.3485 143.055 42.2518L143.211 42.2565L143.145 44.4821C143.062 47.2719 140.208 49.3201 135.977 49.1938C130.052 49.0169 124.851 44.5948 125.055 37.7613C125.243 31.4608 129.819 26.3579 137.028 26.5732C141.26 26.6995 143.705 28.8745 143.614 31.9151L143.548 34.1407Z" fill="white"/>
<path d="M165.707 50.0832L163.014 49.9388C160.853 49.8229 159.759 49.1361 159.487 47.1744C159.373 46.3832 159.23 45.5276 159.029 44.606L151.576 44.2063C151.022 45.7469 150.529 47.9188 150.206 49.2519L147.795 49.1225C145.884 49.0201 145.096 47.91 145.182 46.313C145.35 43.1815 150.09 31.5018 154.058 27.7889L156.375 27.9132C158.473 28.0258 159.794 29.1644 160.45 30.393C162.332 33.9485 165.131 42.6721 165.707 50.0832ZM158.057 39.8746C157.545 37.7116 156.745 35.062 155.961 33.2927C154.926 35.0273 153.85 37.5134 153.11 39.6092L158.057 39.8746Z" fill="white"/>
<path d="M184.98 31.9605C184.878 33.3051 183.261 34.724 181.448 34.587L178.383 34.3555L177.129 50.9604L174.533 50.7643C172.751 50.6296 171.249 49.6985 171.421 47.4157L172.442 33.9067L166.281 33.4413L166.437 31.3774C166.536 30.0641 167.812 28.5879 170.001 28.7533L185.136 29.8966L184.98 31.9605Z" fill="white"/>
<path d="M12.3435 39.6199C7.18352 29.3099 6.07354 17.2299 7.68354 15.4899C9.29354 13.7499 17.4535 13.7999 34.2635 20.6199C26.2235 19.3199 15.8435 19.4799 14.1735 21.1999C12.5035 22.9299 11.3435 28.9599 12.3535 39.6199" fill="white"/>
<path d="M177.804 19.8899C188.114 14.7299 200.194 13.6199 201.934 15.2299C203.664 16.8399 203.624 24.9999 196.804 41.8099C198.104 33.7699 197.944 23.3899 196.224 21.7199C194.494 20.0499 188.464 18.8899 177.804 19.8999" fill="white"/>
<path d="M55.5786 6.57704C55.5786 7.1584 54.9297 7.82088 54.1455 7.82088H52.8206V15H51.6984C50.9278 15 50.2518 14.6485 50.2518 13.6615V7.82088H47.5883V6.92856C47.5883 6.36072 48.0886 5.68472 49.035 5.68472H55.5786V6.57704ZM63.2282 13.7562C63.2282 14.6079 62.7009 15.1217 61.0515 15.1217H59.9969C57.5498 15.1217 56.1978 13.8778 56.1978 11.2955V9.7272C56.1978 8.87544 56.2519 7.92904 56.3601 7.21248C56.5358 6.02272 57.2524 5.6712 58.1582 5.6712H63.2417V6.2796C63.2417 7.17192 62.7685 7.7668 61.6869 7.7668H58.8477C58.7937 8.22648 58.7531 8.90248 58.7531 9.34864H62.3629V10.2815C62.3629 10.9575 61.8627 11.3361 60.9569 11.3361H58.7531V11.6741C58.7531 12.6746 59.0776 13.0261 60.3755 13.0261H61.0515C61.8221 13.0261 62.4711 12.9585 63.2282 12.7692V13.7562ZM71.1029 13.5669C71.1029 14.5133 70.535 15.1082 69.0614 15.1082H67.9798C65.6138 15.1082 64.5998 13.9184 64.5998 11.5659V5.6712H65.6814C66.6954 5.6712 67.1686 6.19848 67.1686 7.25304V11.3902C67.1686 12.607 67.493 12.972 68.6558 12.972H69.0614C69.805 12.972 70.6567 12.8503 71.0353 12.6881H71.1029V13.5669ZM78.6155 13.5669C78.6155 14.5133 78.0476 15.1082 76.5739 15.1082H75.4923C73.1263 15.1082 72.1123 13.9184 72.1123 11.5659V5.6712H73.1939C74.2079 5.6712 74.6811 6.19848 74.6811 7.25304V11.3902C74.6811 12.607 75.0056 12.972 76.1683 12.972H76.5739C77.3175 12.972 78.1693 12.8503 78.5479 12.6881H78.6155V13.5669ZM91.0151 11.0116C91.0151 13.3641 89.5685 15.2163 86.6887 15.2163C84.2957 15.2163 82.6057 13.6074 82.6057 11.0927V5.6712H83.7008C84.5255 5.6712 85.1745 6.15792 85.1745 7.44232V11.0116C85.1745 12.5934 85.7288 13.1072 86.9321 13.1072C87.9461 13.1072 88.4463 12.4718 88.4463 11.0792V5.6712H89.5414C90.5013 5.6712 91.0151 6.15792 91.0151 7.38824V11.0116ZM99.6434 12.0391C99.6434 13.9725 98.2238 15.2163 95.7361 15.2163C93.6811 15.2163 92.5724 14.4322 92.5724 13.0937V12.1743H92.64C93.2214 12.7692 94.4382 13.1207 95.5063 13.1207C96.696 13.1207 97.0746 12.8368 97.0746 12.2149C97.0746 11.647 96.5608 11.4578 95.1412 11.1738C93.1132 10.7682 92.3291 10.0246 92.3291 8.60504C92.3291 6.94208 93.8433 5.45488 96.2093 5.45488C98.5077 5.45488 99.3865 6.49592 99.3865 7.45584V8.4428H99.3189C98.697 7.82088 97.5748 7.55048 96.6014 7.55048C95.3305 7.55048 94.8979 7.88848 94.8979 8.41576C94.8979 8.83488 95.0736 9.06472 96.8042 9.41624C98.724 9.80832 99.6434 10.5925 99.6434 12.0391ZM112.267 15H111.104C110.171 15 109.684 14.7296 109.522 13.8914C109.455 13.5534 109.373 13.1883 109.265 12.7962H106.048C105.845 13.4722 105.683 14.4186 105.574 15H104.533C103.709 15 103.344 14.5403 103.344 13.8508C103.344 12.4988 105.115 7.3612 106.737 5.6712H107.738C108.643 5.6712 109.238 6.13088 109.549 6.64464C110.442 8.13184 111.848 11.8228 112.267 15ZM108.738 10.7818C108.468 9.8624 108.062 8.74024 107.683 7.99664C107.278 8.76728 106.872 9.8624 106.602 10.7818H108.738ZM120.756 12.1202C120.756 14.1347 118.999 15.1082 117.173 15.1082H116.159C114.28 15.1082 113.144 14.3105 113.144 12.7151V6.0092C113.834 5.77936 115.213 5.536 116.024 5.536H117.16C119.053 5.536 120.594 6.49592 120.594 8.18592C120.594 9.0512 119.837 9.90296 119.066 10.1058C119.972 10.3762 120.756 11.309 120.756 12.1202ZM118.052 8.40224C118.052 7.8344 117.647 7.60456 116.903 7.60456H116.335C116.186 7.60456 115.876 7.6316 115.7 7.65864V9.3216H116.835C117.701 9.3216 118.052 8.99712 118.052 8.40224ZM118.187 12.0526C118.187 11.309 117.863 11.0657 116.903 11.0657H115.713V12.5123C115.713 12.7827 115.876 12.9179 116.173 12.9179H116.998C117.863 12.9179 118.187 12.5799 118.187 12.0526ZM131.087 10.2004C131.087 13.2965 129.356 15.2163 126.328 15.2163C123.786 15.2163 121.839 13.3776 121.839 10.4573C121.839 7.44232 123.61 5.45488 126.612 5.45488C128.896 5.45488 131.087 7.1584 131.087 10.2004ZM128.518 10.4302C128.518 8.38872 127.788 7.53696 126.355 7.53696C125.084 7.53696 124.408 8.63208 124.408 10.2004C124.408 12.1743 125.165 13.1207 126.571 13.1207C127.734 13.1207 128.518 12.1473 128.518 10.4302ZM140.844 11.0116C140.844 13.3641 139.397 15.2163 136.517 15.2163C134.124 15.2163 132.434 13.6074 132.434 11.0927V5.6712H133.529C134.354 5.6712 135.003 6.15792 135.003 7.44232V11.0116C135.003 12.5934 135.557 13.1072 136.761 13.1072C137.775 13.1072 138.275 12.4718 138.275 11.0792V5.6712H139.37C140.33 5.6712 140.844 6.15792 140.844 7.38824V11.0116ZM149.783 6.57704C149.783 7.1584 149.134 7.82088 148.35 7.82088H147.025V15H145.903C145.132 15 144.456 14.6485 144.456 13.6615V7.82088H141.793V6.92856C141.793 6.36072 142.293 5.68472 143.239 5.68472H149.783V6.57704Z" fill="white"/>
</g>
<defs>
<filter id="filter0_d_34_2254" x="0.77" y="4.88483" width="202.688" height="52.7873" filterUnits="userSpaceOnUse" color-interpolation-filters="sRGB">
<feFlood flood-opacity="0" result="BackgroundImageFix"/>
<feColorMatrix in="SourceAlpha" type="matrix" values="0 0 0 0 0 0 0 0 0 0 0 0 0 0 0 0 0 0 127 0" result="hardAlpha"/>
<feOffset dx="-2.83" dy="2.83"/>
<feGaussianBlur stdDeviation="1.7"/>
<feColorMatrix type="matrix" values="0 0 0 0 0.14902 0 0 0 0 0.25098 0 0 0 0 0.470588 0 0 0 0.55 0"/>
<feBlend mode="normal" in2="BackgroundImageFix" result="effect1_dropShadow_34_2254"/>
<feBlend mode="normal" in="SourceGraphic" in2="effect1_dropShadow_34_2254" result="shape"/>
</filter>
</defs>
</svg>
