<?xml version="1.0" encoding="UTF-8"?>
<svg id="Layer_2" data-name="Layer 2" xmlns="http://www.w3.org/2000/svg" xmlns:xlink="http://www.w3.org/1999/xlink" viewBox="0 0 215.89 46.71">
  <defs>
    <style>
      .cls-1 {
        filter: url(#drop-shadow-1);
      }

      .cls-2 {
        fill: #fff;
        stroke-width: 0px;
      }
    </style>
    <filter id="drop-shadow-1" filterUnits="userSpaceOnUse">
      <feOffset dx="-2.83" dy="2.83"/>
      <feGaussianBlur result="blur" stdDeviation="1.7"/>
      <feFlood flood-color="#264078" flood-opacity=".55"/>
      <feComposite in2="blur" operator="in"/>
      <feComposite in="SourceGraphic"/>
    </filter>
  </defs>
  <g id="logo">
    <g class="cls-1">
      <g>
        <g>
          <path class="cls-2" d="M24.56,27.49l.51,5.83c2.71-4.64,3.53-5.93,5.5-8.35,1.13-1.38,1.91-1.64,3.73-1.8l4.43-.39v.16c-2.53,2.89-5.84,7.61-7.82,10.77,1.68,1.97,3.34,4.08,5.29,5.8,1.74,1.55,2.36,1.98,3.98,2.19-.45,2.58-1.37,3.46-3.38,3.63-1.21.11-2.95-.35-3.97-1.29-2.86-2.64-4.95-5.16-7.58-8.46l.91,10.46-2.42.21c-2.61.23-3.79-1.47-3.94-3.16l-1.61-18.52,2.14-.19c2.61-.23,4.07,1.38,4.22,3.1Z"/>
          <path class="cls-2" d="M60.63,43.59c-2.2.13-3.39-.44-3.89-2.4-.21-.79-.45-1.64-.76-2.55l-7.6.45c-.38,1.62-.64,3.88-.81,5.27l-2.46.14c-1.95.12-2.88-.92-2.97-2.55-.19-3.19,3.28-15.58,6.87-19.8l2.36-.14c2.14-.13,3.61.88,4.42,2.05,2.32,3.39,6.15,11.91,7.59,19.36l-2.75.16ZM51.57,27.52c-.85,1.88-1.65,4.52-2.17,6.73l5.05-.3c-.77-2.13-1.88-4.73-2.88-6.43Z"/>
          <path class="cls-2" d="M77.61,25.9l-3.13.12.64,16.98-2.65.1c-1.82.07-3.45-.7-3.54-3.04l-.52-13.82-6.3.24-.08-2.11c-.05-1.34,1.07-2.99,3.31-3.07l15.48-.58.08,2.11c.05,1.38-1.42,3-3.28,3.07Z"/>
          <path class="cls-2" d="M98.95,42.46l-12.16.19c-1.02.02-2.86-1.01-2.89-2.93-.03-1.63.47-2.95,3.27-6.1l5.06-5.75c.85-.94,1.29-1.72,1.56-2.23l-10.05.16-.03-1.82c-.03-2.08,1.26-3.38,3.92-3.42l10.08-.16c2.21-.04,3.73,1.12,3.76,2.98.03,1.7-.3,3.01-2.16,5.19l-5.03,5.94c-1.04,1.2-1.86,2.08-2.45,2.98l10.24-.16.04,2.18c.03,1.63-1.33,2.93-3.15,2.96Z"/>
          <path class="cls-2" d="M116.85,42.76h-2.5c-5.79-.04-8.98-3-8.94-9.12l.02-3.71c.01-2.02.15-4.26.42-5.95.43-2.81,2.13-3.64,4.28-3.62l12.03.06v1.44c-.02,2.11-1.15,3.51-3.71,3.5l-6.72-.04c-.13,1.09-.24,2.69-.24,3.74l8.54.04v2.21c-.02,1.6-1.21,2.49-3.35,2.48l-5.21-.03v.8c-.02,2.37.75,3.2,3.82,3.22h1.6c1.82.02,3.36-.13,5.15-.57v2.34c-.02,2.02-1.28,3.23-5.18,3.21Z"/>
          <path class="cls-2" d="M144.01,43.36l-1.44-.05c-1.47-.05-2.25-.62-3.13-2.07-3.32-5.53-6-13.22-6.85-20.64l3.39.12c2.08.07,3.24,1.62,3.45,2.94.44,2.87,1.74,7.68,3.31,11.36,1.92-3.58,3.96-9.47,4.82-13.89l3.07.11c1.5.05,2.68,1.06,2.63,2.62-.03.83-.63,2.44-1.52,4.85-1.59,4.3-5.42,11.88-7.73,14.65Z"/>
          <path class="cls-2" d="M164.77,44.64c-6-.37-10.34-4.99-9.92-11.89.44-7.12,4.91-11.56,12-11.13,5.4.33,10.32,4.67,9.88,11.86-.45,7.31-4.81,11.6-11.97,11.16ZM165.94,26.5c-3-.18-4.76,2.3-4.98,6.01-.29,4.66,1.37,7.01,4.69,7.21,2.75.17,4.74-2.02,4.99-6.07.29-4.82-1.31-6.94-4.69-7.15Z"/>
          <path class="cls-2" d="M195.28,46.66c-2.04-.18-3.24-1.19-3.75-2.68l-1.31-3.71c-.69-1.96-1.27-2.39-2.69-2.68l-.95-.18-.74,8.26-2.33-.21c-2.36-.21-3.6-1.77-3.42-3.81l1.59-17.88c1.58-.41,4.99-.52,6.68-.37l2.45.22c4.72.42,7.83,3.3,7.48,7.29-.26,2.93-2.39,5.25-4.54,5.54,1.01.57,1.48,1.42,2.15,3.24l1.37,3.72c.52,1.36,1.01,2.4,1.29,2.81v.16c-.78.32-2.01.4-3.32.28ZM188.64,28.24c-.26-.02-.77,0-1.22.02l-.43,4.84c.72.16,1.49.23,2.41.31,1.72.15,2.7-1.08,2.81-2.32.14-1.59-.57-2.59-2.33-2.75l-1.24-.11Z"/>
        </g>
        <g>
          <path class="cls-2" d="M5.34,33.5C.19,23.19-.93,11.1.68,9.37s9.77-1.69,26.58,5.13c-8.04-1.3-18.42-1.14-20.09.58-1.67,1.73-2.83,7.76-1.82,18.42"/>
          <path class="cls-2" d="M190.81,13.76c10.31-5.16,22.39-6.27,24.13-4.66,1.73,1.61,1.69,9.77-5.13,26.58,1.3-8.04,1.14-18.42-.58-20.09-1.73-1.67-7.76-2.83-18.42-1.82"/>
        </g>
      </g>
      <g>
        <path class="cls-2" d="M52.85,10.61c-2.05,0-3.16-.78-3.16-2.12v-.92h.07c.58.59,1.8.95,2.87.95,1.19,0,1.57-.28,1.57-.91,0-.57-.51-.76-1.93-1.04-2.03-.41-2.81-1.15-2.81-2.57,0-1.66,1.51-3.15,3.88-3.15s3.18,1.04,3.18,2v.99h-.07c-.62-.62-1.74-.89-2.72-.89-1.27,0-1.7.34-1.7.87,0,.42.18.65,1.91,1,1.92.39,2.84,1.18,2.84,2.62,0,1.93-1.42,3.18-3.91,3.18Z"/>
        <path class="cls-2" d="M60.02,1.65c.34-.26.8-.5,1.34-.5h.27v1.81h2.18v.91c0,.64-.68,1.12-1.26,1.12h-.92v2.69c0,.5.31.8.81.8.61,0,.89-.05,1.16-.16h.07v1c0,.62-.57,1.19-1.91,1.19-1.27,0-2.64-.61-2.64-2.65V3.24c0-.68.39-1.22.89-1.6Z"/>
        <path class="cls-2" d="M69.24,7.6h-1.11c.15.74.76,1.09,1.82,1.09,1.19,0,1.93-.19,2.35-.47h.09v.6c0,.95-.77,1.8-2.89,1.8-2.57,0-3.92-1.73-3.92-3.79,0-2.26,1.53-4.1,3.83-4.1,1.95,0,3.46,1.09,3.46,2.99,0,1.49-1.12,1.88-3.64,1.88ZM69.42,4.65c-.91,0-1.28.58-1.35,1.3h1c1.22,0,1.43-.19,1.43-.51,0-.38-.34-.78-1.08-.78Z"/>
        <path class="cls-2" d="M77.76,10.5c-1.37,0-2.54-.81-2.54-2.57V.39h.91c1.12,0,1.66.51,1.66,1.77v5.39c0,.66.36.87,1.08.87h.57v.89c0,.91-.87,1.19-1.68,1.19Z"/>
        <path class="cls-2" d="M83.88,10.5c-1.37,0-2.54-.81-2.54-2.57V.39h.91c1.12,0,1.66.51,1.66,1.77v5.39c0,.66.36.87,1.08.87h.57v.89c0,.91-.87,1.19-1.68,1.19Z"/>
        <path class="cls-2" d="M95.29,10.61c-2.41,0-3.72-1.18-3.72-3.56V2.96h1c1.12,0,1.61.38,1.61,1.51v2.65c0,1.09.51,1.43,1.22,1.43.61,0,1.1-.35,1.1-1.53V2.96h1c1.03,0,1.6.43,1.6,1.51v2.65c0,2.38-1.51,3.49-3.8,3.49Z"/>
        <path class="cls-2" d="M107.99,10.4c-1.14,0-1.49-.38-1.49-1.51v-2.61c0-1-.34-1.45-1.2-1.45-.74,0-1.15.5-1.15,1.41v4.16h-.87c-1.09,0-1.7-.43-1.7-1.51v-2.61c0-2.14,1.42-3.53,3.79-3.53,2.64,0,3.7,1.39,3.7,3.6v4.06h-1.08Z"/>
        <path class="cls-2" d="M114.33,10.61c-2.03,0-2.76-.74-2.76-1.83v-.74h.07c.49.37,1.23.65,2.29.65.93,0,1.23-.22,1.23-.58,0-.34-.18-.47-1.72-.69-1.34-.19-2.04-.8-2.04-1.99,0-1.78,1.69-2.69,3.39-2.69s2.65.66,2.65,1.77v.77h-.07c-.5-.37-1.29-.62-2.29-.62s-1.27.26-1.27.57c0,.28.16.38,1.72.64,1.24.2,2.08.88,2.08,2.14,0,1.59-1.24,2.61-3.29,2.61Z"/>
        <path class="cls-2" d="M127.86,10.61c-2.19,0-3.88-1.8-3.88-3.81,0-2.5,1.54-4.06,3.52-4.06.95,0,1.65.42,1.92,1V.39h.92c1.03,0,1.58.54,1.58,1.8v4.31c0,2.69-1.09,4.11-4.05,4.11ZM127.8,4.73c-.69,0-1.27.72-1.27,1.85,0,1.46.68,2.06,1.61,2.06.8,0,1.22-.62,1.22-1.79,0-1.66-.63-2.12-1.55-2.12Z"/>
        <path class="cls-2" d="M137.89,7.6h-1.11c.15.74.76,1.09,1.83,1.09,1.19,0,1.93-.19,2.35-.47h.09v.6c0,.95-.77,1.8-2.89,1.8-2.57,0-3.92-1.73-3.92-3.79,0-2.26,1.53-4.1,3.83-4.1,1.95,0,3.46,1.09,3.46,2.99,0,1.49-1.12,1.88-3.64,1.88ZM138.07,4.65c-.91,0-1.29.58-1.35,1.3h1c1.22,0,1.43-.19,1.43-.51,0-.38-.34-.78-1.08-.78Z"/>
        <path class="cls-2" d="M145.22,2.54c-.74,0-1.35-.57-1.35-1.27s.61-1.27,1.35-1.27,1.34.57,1.34,1.27-.59,1.27-1.34,1.27ZM146.44,10.5c-1.37,0-2.43-.68-2.43-2.43V3.19h.64c1.46,0,1.93.42,1.93,1.77v2.73c0,.66.31.87,1.03.87h.31v.76c0,.89-.68,1.19-1.47,1.19Z"/>
        <path class="cls-2" d="M156.25,10.4c-1.14,0-1.49-.38-1.49-1.51v-2.61c0-1-.34-1.45-1.2-1.45-.74,0-1.15.5-1.15,1.41v4.16h-.87c-1.1,0-1.7-.43-1.7-1.51v-2.61c0-2.14,1.42-3.53,3.79-3.53,2.64,0,3.7,1.39,3.7,3.6v4.06h-1.08Z"/>
        <path class="cls-2" d="M163.31,7.6h-1.11c.15.74.76,1.09,1.83,1.09,1.19,0,1.93-.19,2.35-.47h.09v.6c0,.95-.77,1.8-2.89,1.8-2.57,0-3.92-1.73-3.92-3.79,0-2.26,1.53-4.1,3.83-4.1,1.95,0,3.46,1.09,3.46,2.99,0,1.49-1.12,1.88-3.64,1.88ZM163.48,4.65c-.91,0-1.29.58-1.35,1.3h1c1.22,0,1.43-.19,1.43-.51,0-.38-.34-.78-1.08-.78Z"/>
      </g>
    </g>
  </g>
</svg>