<?xml version="1.0" encoding="UTF-8"?>
<svg id="Layer_2" data-name="Layer 2" xmlns="http://www.w3.org/2000/svg" xmlns:xlink="http://www.w3.org/1999/xlink" viewBox="-10 -10 229.89 112.35">
  <defs>
    <style>
      .cls-1 {
        filter: url(#drop-shadow-1);
      }

      .cls-2 {
        fill: #fff;
        stroke-width: 0px;
      }
    </style>
    <filter id="drop-shadow-1" filterUnits="userSpaceOnUse">
      <feOffset dx="-2.83" dy="2.83"/>
      <feGaussianBlur result="blur" stdDeviation="1.7"/>
      <feFlood flood-color="#264078" flood-opacity=".55"/>
      <feComposite in2="blur" operator="in"/>
      <feComposite in="SourceGraphic"/>
    </filter>
  </defs>
  <g id="logo">
    <g class="cls-1">
      <g>
        <g>
          <path class="cls-2" d="M28.18,43.38l-2.83.26,1.38,15.34-2.4.22c-1.65.15-3.16-.47-3.35-2.58l-1.13-12.48-5.69.51-.17-1.91c-.11-1.21.83-2.75,2.85-2.94l13.98-1.26.17,1.91c.11,1.24-1.15,2.78-2.82,2.93Z"/>
          <path class="cls-2" d="M37.83,58.1c-1.24.09-2.62-.88-2.77-2.91l-1.23-16.86,3.06-.22c1.07-.08,2.5.78,2.62,2.4l1.27,17.38-2.95.21Z"/>
          <path class="cls-2" d="M52.89,50.48c-.98.05-1.88.05-2.62-.14l.39,6.92-2.46.14c-1.45.08-3.1-.84-3.23-3.25l-.9-16.02c1.49-.43,4.01-1.07,5.92-1.18l2.23-.13c4.14-.23,7.49,1.9,7.72,6.07.25,4.34-2.9,7.34-7.04,7.57ZM51.96,41.2l-1.1.06c-.26.01-.84.13-1.09.21l.25,4.46c.62.17,1.32.19,2.1.14,1.74-.1,2.42-.95,2.33-2.4-.12-2.08-1.07-2.55-2.49-2.47Z"/>
          <path class="cls-2" d="M71.08,49.65c-.99.04-1.89.01-2.62-.19l.25,6.92-2.46.09c-1.45.05-3.08-.9-3.17-3.31l-.58-16.02c1.49-.4,4.03-.99,5.94-1.06l2.23-.08c4.14-.15,7.44,2.05,7.6,6.22.16,4.35-3.04,7.28-7.19,7.43ZM70.33,40.37l-1.1.04c-.26,0-.84.12-1.1.19l.16,4.46c.62.18,1.31.21,2.1.19,1.74-.06,2.43-.9,2.38-2.35-.08-2.09-1.02-2.57-2.44-2.52Z"/>
          <path class="cls-2" d="M91.58,56.04l-2.26.04c-5.25.09-8.19-2.53-8.29-8.06l-.06-3.36c-.03-1.83.05-3.86.25-5.4.33-2.56,1.86-3.34,3.8-3.37l10.9-.19.02,1.3c.03,1.91-.96,3.21-3.28,3.25l-6.09.11c-.1.99-.16,2.44-.14,3.39l7.74-.13.04,2c.02,1.45-1.03,2.28-2.98,2.31l-4.73.08v.73c.05,2.15.76,2.89,3.54,2.84l1.45-.03c1.65-.03,3.04-.2,4.66-.63l.04,2.12c.03,1.83-1.08,2.95-4.62,3.01Z"/>
          <path class="cls-2" d="M115.32,55.73c-2.26,0-4.11-1-5.9-4.26l-3.37-6.16c-.55-.76-.92-1.45-.98-1.66l-.05,12.04h-2.26c-1.51-.02-3.1-1.07-3.09-3.1l.07-16.94h2.67c2.93.02,4.87,1.45,6.22,4.16l3.68,7.27.05-11.37h2.44c1.31.02,2.78.98,2.77,2.6l-.07,17.43h-2.18Z"/>
          <path class="cls-2" d="M141.28,56.35l-11.02-.35c-.93-.03-2.55-1.04-2.49-2.78.05-1.48.55-2.65,3.22-5.38l4.83-4.98c.81-.82,1.24-1.5,1.51-1.95l-9.1-.29.05-1.65c.06-1.88,1.29-3.01,3.69-2.93l9.13.29c2,.06,3.33,1.18,3.28,2.86-.05,1.54-.41,2.71-2.18,4.6l-4.81,5.16c-.99,1.04-1.77,1.8-2.35,2.59l9.28.3-.06,1.97c-.05,1.48-1.33,2.6-2.98,2.54Z"/>
          <path class="cls-2" d="M155.96,57.51c-5.13-.28-8.56-3.92-8.27-9.31l.63-11.61,2.35.13c1.77.1,3.1,1.21,2.95,3.97l-.41,7.65c-.18,3.39.94,4.55,3.52,4.69,2.17.12,3.32-1.19,3.48-4.17l.63-11.58,2.35.13c2.06.11,3.1,1.21,2.96,3.85l-.42,7.76c-.27,5.04-3.59,8.84-9.76,8.5Z"/>
          <path class="cls-2" d="M191.88,59.68c-1.91-.16-3.21-1.32-3.03-3.4.15-1.79.41-6.92.34-9.9l-3.45,8.15c-.51,1.18-1.53,3.25-2.38,4.43l-1.53-.13c-1.88-.16-3.23-1.7-4.13-5.85l-.73-3.41c-.35-1.69-.81-3.5-1.06-4.37-.63,3.38-1.43,9.69-1.71,12.98l-2.05-.17c-1.68-.14-3.11-1.43-2.94-3.39.48-5.72,1.85-12.56,3.16-16.67l1.91.16c3.18.27,4.67,1.91,5.24,3.73l1.23,4c.52,1.73,1.17,4.09,1.46,5.8.56-1.44,1.31-3.15,2.04-4.54l2.29-4.4c.87-1.64,1.92-2.78,2.7-3.32l1.01.08c2.89.24,4.14,1.95,4.28,4.84.19,3.95.16,10.11-.3,15.58l-2.34-.2Z"/>
        </g>
        <g>
          <path class="cls-2" d="M23.99,90.65c-2.13.21-3.3-.29-3.86-2.17-.23-.76-.5-1.57-.84-2.44l-7.34.73c-.31,1.59-.46,3.79-.58,5.14l-2.38.24c-1.88.19-2.82-.78-2.98-2.35-.31-3.09,2.56-15.21,5.88-19.44l2.28-.23c2.07-.21,3.53.71,4.36,1.81,2.38,3.19,6.43,11.29,8.11,18.45l-2.65.26ZM14.59,75.45c-.75,1.85-1.43,4.44-1.83,6.6l4.88-.49c-.83-2.04-2.01-4.5-3.04-6.12Z"/>
          <path class="cls-2" d="M38.07,90.04c-5.47.4-9.6-3-10.02-8.75l-.9-12.4,2.5-.18c1.89-.14,3.45.87,3.66,3.81l.59,8.16c.26,3.62,1.62,4.7,4.37,4.5,2.32-.17,3.36-1.7,3.12-4.89l-.9-12.37,2.5-.18c2.2-.16,3.45.87,3.65,3.68l.6,8.29c.39,5.38-2.61,9.85-9.2,10.33Z"/>
          <path class="cls-2" d="M59.25,88.75c-4.71.22-7.33-1.45-7.48-4.51l-.1-2.11h.15c1.4,1.29,4.22,1.96,6.67,1.85,2.72-.13,3.56-.82,3.49-2.25-.06-1.3-1.26-1.68-4.54-2.17-4.69-.71-6.57-2.32-6.72-5.58-.18-3.81,3.12-7.38,8.54-7.64,5.26-.25,7.39,2.04,7.5,4.23l.11,2.26h-.16c-1.49-1.35-4.09-1.85-6.32-1.74-2.91.14-3.86.96-3.81,2.17.05.96.47,1.47,4.48,2.08,4.44.69,6.63,2.38,6.79,5.7.21,4.43-2.9,7.43-8.6,7.7Z"/>
          <path class="cls-2" d="M93.41,87.43l-1.61.03c-.68.01-1.8-.18-2.67-1.56-1.35-2.11-2.84-5.62-3.82-9.07-.74,3.27-2.62,8.18-4.36,10.85l-1.61.03c-.65.01-1.86-.18-2.73-1.56-3.59-5.69-5.96-12.12-7.17-19.88l3.41-.07c1.74-.04,3.06.9,3.44,2.78.56,2.93,1.39,5.92,2.96,9.58,1.44-3.69,2.74-8.52,3.26-11.82l2.04-.04c2.08-.04,3.64.82,4.22,3.23.68,2.87,1.41,4.99,2.93,8.37,1.41-3.78,2.5-7.8,3.09-12.56l2.97-.06c1.52-.03,2.66.97,2.69,2.58,0,.31-.02.62-.07.96-1.04,5.14-3.97,13.32-6.97,18.19Z"/>
          <path class="cls-2" d="M119.03,87.22c-2.14-.01-3.25-.64-3.61-2.57-.15-.78-.33-1.62-.57-2.52l-7.38-.05c-.47,1.55-.86,3.71-1.12,5.05l-2.39-.02c-1.89-.01-2.72-1.07-2.71-2.65.02-3.1,4.16-14.86,7.9-18.71h2.29c2.08.03,3.43,1.09,4.14,2.27,2.02,3.42,5.19,11.91,6.11,19.2l-2.67-.02ZM107.61,64.2c-1.49,0-2.69-1.29-2.68-2.78,0-1.49,1.23-2.6,2.71-2.59,1.49,0,2.72,1.13,2.71,2.62,0,1.49-1.26,2.75-2.75,2.74ZM111.28,71.11c-.94,1.76-1.89,4.27-2.52,6.37l4.9.03c-.61-2.11-1.52-4.69-2.38-6.4ZM115.14,64.25c-1.49,0-2.69-1.29-2.68-2.78s1.23-2.6,2.71-2.59,2.72,1.13,2.71,2.62-1.26,2.75-2.75,2.74Z"/>
          <path class="cls-2" d="M140.37,87.77c-1.61-.05-3.31-1.25-3.25-3.42l.16-5.42-6.94-.21-.26,8.74-2.6-.08c-1.61-.05-3.28-1.25-3.22-3.41l.53-18.07,3.04.09c1.55.05,2.82,1.23,2.77,2.84l-.15,5.18,6.97.21.23-7.93,2.88.08c1.39.04,2.98,1.11,2.92,2.85l-.55,18.63-2.54-.08Z"/>
          <path class="cls-2" d="M157.74,88.84l-2.48-.13c-5.42-.28-7.6-3.12-7.32-8.51l.7-13.5,2.48.13c2.32.12,3.34,1.38,3.22,3.8l-.49,9.47c-.14,2.79.55,3.66,3.22,3.8l.93.05c1.7.09,3.67-.09,4.55-.42h.16s-.1,2.02-.1,2.02c-.11,2.17-1.48,3.46-4.86,3.29Z"/>
          <path class="cls-2" d="M175.87,90.08l-2.41-.18c-5.59-.41-8.48-3.48-8.05-9.38l.26-3.59c.14-1.95.42-4.1.79-5.72.6-2.69,2.3-3.38,4.37-3.22l11.62.85-.1,1.39c-.15,2.04-1.33,3.32-3.8,3.14l-6.49-.47c-.2,1.04-.41,2.58-.48,3.6l8.25.6-.16,2.13c-.11,1.55-1.32,2.33-3.39,2.18l-5.04-.37-.06.77c-.17,2.29.52,3.15,3.48,3.36l1.54.11c1.76.13,3.26.08,5.02-.22l-.17,2.26c-.14,1.95-1.43,3.03-5.21,2.76Z"/>
          <path class="cls-2" d="M201.11,92.12c-2.41-.24-4.28-1.49-5.84-5.13l-2.96-6.9c-.51-.86-.83-1.64-.87-1.86l-1.28,12.8-2.41-.24c-1.6-.16-3.19-1.44-2.97-3.6l1.8-18.02,2.84.28c3.12.31,5.03,2.03,6.2,5.04l3.18,8.11,1.21-12.09,2.59.26c1.39.14,2.86,1.31,2.69,3.04l-1.85,18.54-2.31-.23Z"/>
        </g>
        <g>
          <path class="cls-2" d="M5.34,49.75C.19,39.44-.93,27.35.68,25.62c1.61-1.73,9.77-1.69,26.58,5.13-8.04-1.3-18.42-1.14-20.09.58-1.67,1.73-2.83,7.76-1.82,18.42"/>
          <path class="cls-2" d="M184.81,30.01c10.31-5.16,22.39-6.27,24.13-4.66,1.73,1.61,1.69,9.77-5.13,26.58,1.3-8.04,1.14-18.42-.58-20.09-1.73-1.67-7.76-2.83-18.42-1.82"/>
        </g>
      </g>
      <g>
        <path class="cls-2" d="M36.03,2.82h-2.21v1.55h2.91v.71c0,.62-.44,1.03-.98,1.03h-1.88v3.12h-1.1c-.72,0-1.21-.36-1.21-1.13V2.45c0-1.02.56-1.5,1.67-1.5h4.01v.8c0,.48-.4,1.07-1.2,1.07Z"/>
        <path class="cls-2" d="M40.14,2.25c-.66,0-1.2-.5-1.2-1.13s.54-1.13,1.2-1.13,1.19.5,1.19,1.13-.53,1.13-1.19,1.13ZM41.22,9.32c-1.21,0-2.16-.6-2.16-2.16V2.83h.56c1.29,0,1.71.37,1.71,1.57v2.42c0,.59.28.77.91.77h.28v.67c0,.79-.6,1.06-1.31,1.06Z"/>
        <path class="cls-2" d="M49.92,9.22c-1.01,0-1.32-.33-1.32-1.34v-2.31c0-.89-.3-1.28-1.07-1.28-.66,0-1.02.44-1.02,1.25v3.69h-.77c-.97,0-1.51-.38-1.51-1.34v-2.31c0-1.9,1.26-3.13,3.36-3.13,2.34,0,3.29,1.24,3.29,3.19v3.6h-.96Z"/>
        <path class="cls-2" d="M56.38,9.42c-1.94,0-3.44-1.6-3.44-3.38,0-2.22,1.37-3.6,3.12-3.6.84,0,1.46.37,1.7.89V.35h.82c.91,0,1.4.48,1.4,1.59v3.83c0,2.39-.97,3.65-3.6,3.65ZM56.34,4.2c-.61,0-1.13.63-1.13,1.64,0,1.29.6,1.82,1.43,1.82.71,0,1.08-.55,1.08-1.58,0-1.48-.56-1.88-1.38-1.88Z"/>
        <path class="cls-2" d="M65.29,6.74h-.98c.13.66.67.97,1.62.97,1.06,0,1.72-.17,2.09-.42h.08v.53c0,.84-.68,1.6-2.57,1.6-2.28,0-3.48-1.54-3.48-3.36,0-2,1.36-3.63,3.39-3.63,1.73,0,3.07.97,3.07,2.65,0,1.32-1,1.67-3.23,1.67ZM65.44,4.13c-.8,0-1.14.52-1.2,1.15h.89c1.08,0,1.27-.17,1.27-.46,0-.34-.3-.7-.96-.7Z"/>
        <path class="cls-2" d="M76.71,9.42c-1.8,0-2.45-.66-2.45-1.62v-.66h.06c.43.32,1.09.58,2.03.58.83,0,1.09-.19,1.09-.52,0-.3-.16-.42-1.52-.61-1.19-.17-1.81-.71-1.81-1.76,0-1.58,1.5-2.39,3.01-2.39s2.35.59,2.35,1.57v.68h-.06c-.44-.32-1.14-.55-2.03-.55s-1.13.23-1.13.5c0,.25.14.34,1.52.56,1.1.18,1.85.78,1.85,1.9,0,1.42-1.1,2.31-2.91,2.31Z"/>
        <path class="cls-2" d="M87.03,4.79c-.2-.22-.83-.46-1.46-.46-1.12,0-1.74.56-1.74,1.49,0,1.13.62,1.65,1.63,1.65.71,0,1.2-.14,1.59-.37h.02v.68c0,.88-.9,1.58-2.1,1.58-2,0-3.43-1.35-3.43-3.42,0-1.88,1.31-3.5,3.63-3.5,1.04,0,1.91.68,1.91,1.54v.8h-.06Z"/>
        <path class="cls-2" d="M94.84,9.22c-1.2,0-1.4-.56-1.4-1.38v-2.21c0-.94-.34-1.35-.98-1.35-.89,0-1.1.47-1.1,1.4v3.54h-.77c-1.09,0-1.51-.46-1.51-1.38V.35h.73c.95,0,1.49.46,1.49,1.31v1.7c.34-.53.89-.92,1.93-.92,1.33,0,2.5,1.03,2.5,2.82v3.97h-.88Z"/>
        <path class="cls-2" d="M103.61,9.22c-1.01,0-1.32-.33-1.32-1.34v-2.31c0-.89-.3-1.28-1.07-1.28-.66,0-1.02.44-1.02,1.25v3.69h-.77c-.97,0-1.51-.38-1.51-1.34v-2.31c0-1.9,1.26-3.13,3.36-3.13,2.34,0,3.29,1.24,3.29,3.19v3.6h-.96Z"/>
        <path class="cls-2" d="M110.08,9.42c-2.13,0-3.3-1.04-3.3-3.15v-3.63h.89c1,0,1.43.34,1.43,1.34v2.35c0,.97.46,1.27,1.08,1.27.54,0,.97-.31.97-1.36v-3.61h.89c.91,0,1.42.38,1.42,1.34v2.35c0,2.11-1.34,3.09-3.37,3.09Z"/>
        <path class="cls-2" d="M119.72,4.33c-.29-.11-.5-.13-.8-.13-.55,0-.98.28-.98,1.08v3.95h-.62c-.98,0-1.58-.46-1.58-1.56v-2.87c0-1.33.9-2.39,2.4-2.39,1.14,0,1.67.47,1.67,1.08v.84h-.07Z"/>
        <path class="cls-2" d="M125.43,4.33c-.29-.11-.5-.13-.8-.13-.55,0-.98.28-.98,1.08v3.95h-.62c-.98,0-1.58-.46-1.58-1.56v-2.87c0-1.33.9-2.39,2.4-2.39,1.14,0,1.67.47,1.67,1.08v.84h-.07Z"/>
        <path class="cls-2" d="M131.14,4.33c-.29-.11-.5-.13-.8-.13-.55,0-.98.28-.98,1.08v3.95h-.62c-.98,0-1.58-.46-1.58-1.56v-2.87c0-1.33.9-2.39,2.4-2.39,1.14,0,1.67.47,1.67,1.08v.84h-.07Z"/>
        <path class="cls-2" d="M136.31,5.45c0,.46-.35.86-.84.86h-2.88v-.61c0-.59.3-.9.96-.9h2.76v.65Z"/>
        <path class="cls-2" d="M140.82,9.42c-1.8,0-2.45-.66-2.45-1.62v-.66h.06c.43.32,1.09.58,2.03.58.83,0,1.09-.19,1.09-.52,0-.3-.16-.42-1.52-.61-1.19-.17-1.81-.71-1.81-1.76,0-1.58,1.5-2.39,3.01-2.39s2.35.59,2.35,1.57v.68h-.06c-.44-.32-1.14-.55-2.03-.55s-1.13.23-1.13.5c0,.25.14.34,1.52.56,1.1.18,1.85.78,1.85,1.9,0,1.42-1.1,2.31-2.91,2.31Z"/>
        <path class="cls-2" d="M146.65,1.46c.3-.23.71-.44,1.19-.44h.24v1.61h1.93v.8c0,.56-.6,1-1.12,1h-.82v2.39c0,.44.28.71.72.71.54,0,.79-.05,1.03-.14h.06v.89c0,.55-.5,1.06-1.69,1.06s-2.34-.54-2.34-2.35V2.88c0-.6.35-1.08.79-1.42Z"/>
        <path class="cls-2" d="M155.79,4.33c-.29-.11-.5-.13-.8-.13-.55,0-.98.28-.98,1.08v3.95h-.62c-.98,0-1.58-.46-1.58-1.56v-2.87c0-1.33.9-2.39,2.4-2.39,1.14,0,1.67.47,1.67,1.08v.84h-.07Z"/>
        <path class="cls-2" d="M160.12,9.4c-1.27,0-2.82-.6-2.82-2.1s1.06-2.21,3.45-2.21h.32v-.28c0-.54-.42-.67-1.32-.67-1.23,0-1.69.29-2.16.72h-.06v-.8c0-.82.85-1.63,2.73-1.63s3.01.92,3.01,2.87v1.02c0,2.4-.77,3.08-3.17,3.08ZM161.13,6.51h-.46c-.86,0-1.21.22-1.21.66,0,.42.26.64.9.64.41,0,.77-.2.77-.8v-.49Z"/>
        <path class="cls-2" d="M167.79,1.68v3.75c.54-.8,1.09-1.67,1.74-2.36.29-.31.52-.44,1.21-.44h1.6v.06c-.41.42-1.86,2.11-2.46,2.97.38.58.78,1.21,1.24,1.74.49.56.68.62,1.19.74-.08.73-.58,1.14-1.39,1.14-.34,0-.9-.13-1.17-.46-.74-.86-1.32-1.8-1.94-2.75v3.14h-.9c-.84,0-1.38-.55-1.38-1.34V.35h.88c1.03,0,1.4.67,1.4,1.33Z"/>
        <path class="cls-2" d="M176.16,9.42c-1.8,0-2.45-.66-2.45-1.62v-.66h.06c.43.32,1.09.58,2.03.58.83,0,1.09-.19,1.09-.52,0-.3-.16-.42-1.52-.61-1.19-.17-1.81-.71-1.81-1.76,0-1.58,1.5-2.39,3.01-2.39s2.35.59,2.35,1.57v.68h-.06c-.44-.32-1.14-.55-2.03-.55s-1.13.23-1.13.5c0,.25.14.34,1.52.56,1.1.18,1.85.78,1.85,1.9,0,1.42-1.1,2.31-2.91,2.31Z"/>
        <path class="cls-2" d="M45.48,23.84c-1.94,0-3.44-1.6-3.44-3.38,0-2.22,1.37-3.6,3.12-3.6.84,0,1.46.37,1.7.89v-2.97h.82c.91,0,1.4.48,1.4,1.59v3.83c0,2.39-.97,3.65-3.6,3.65ZM45.43,18.62c-.61,0-1.13.63-1.13,1.64,0,1.29.6,1.82,1.43,1.82.71,0,1.08-.55,1.08-1.58,0-1.48-.56-1.88-1.38-1.88Z"/>
        <path class="cls-2" d="M54.38,21.17h-.98c.13.66.67.97,1.62.97,1.06,0,1.71-.17,2.09-.42h.08v.53c0,.84-.68,1.6-2.57,1.6-2.28,0-3.48-1.54-3.48-3.36,0-2,1.36-3.63,3.39-3.63,1.73,0,3.07.97,3.07,2.65,0,1.32-1,1.67-3.23,1.67ZM54.54,18.55c-.8,0-1.14.52-1.2,1.15h.89c1.08,0,1.27-.17,1.27-.46,0-.34-.3-.7-.96-.7Z"/>
        <path class="cls-2" d="M65.31,23.65c-1.01,0-1.32-.34-1.32-1.34v-2.31c0-.89-.3-1.28-1.07-1.28-.66,0-1.02.44-1.02,1.25v3.69h-.77c-.97,0-1.51-.38-1.51-1.34v-2.31c0-1.9,1.26-3.13,3.36-3.13,2.34,0,3.29,1.24,3.29,3.19v3.6h-.96Z"/>
        <path class="cls-2" d="M76.11,23.84c-.89,0-1.4-.41-1.69-.9v2.75h-.83c-.91,0-1.39-.48-1.39-1.59v-3.49c0-2.36,1.31-3.74,3.65-3.74,1.93,0,3.38,1.31,3.38,3.35,0,2.25-1.32,3.63-3.12,3.63ZM75.58,18.6c-.62,0-1.13.6-1.13,1.57,0,1.4.6,1.89,1.38,1.89.72,0,1.12-.63,1.12-1.62,0-1.42-.43-1.85-1.37-1.85Z"/>
        <path class="cls-2" d="M84.39,21.17h-.98c.13.66.67.97,1.62.97,1.06,0,1.71-.17,2.09-.42h.08v.53c0,.84-.68,1.6-2.57,1.6-2.28,0-3.48-1.54-3.48-3.36,0-2,1.36-3.63,3.39-3.63,1.73,0,3.07.97,3.07,2.65,0,1.32-1,1.67-3.23,1.67ZM84.55,18.55c-.8,0-1.14.52-1.2,1.15h.89c1.08,0,1.27-.17,1.27-.46,0-.34-.3-.7-.96-.7Z"/>
        <path class="cls-2" d="M93.69,18.76c-.29-.11-.5-.13-.8-.13-.55,0-.98.28-.98,1.08v3.95h-.62c-.98,0-1.58-.46-1.58-1.56v-2.87c0-1.33.9-2.39,2.4-2.39,1.14,0,1.67.47,1.67,1.08v.84h-.07Z"/>
        <path class="cls-2" d="M99.56,16.43c-.25-.13-.72-.18-1.02-.18-.54,0-.91.31-.91.71v.78h1.51v.83c0,.44-.41.73-.98.73h-.53v4.35h-.7c-1.08,0-1.52-.42-1.52-1.42v-4.54c0-2.38,1.43-3.04,2.67-3.04,1.12,0,1.54.56,1.54,1.25v.53h-.06Z"/>
        <path class="cls-2" d="M103.94,21.17h-.98c.13.66.67.97,1.62.97,1.06,0,1.72-.17,2.09-.42h.08v.53c0,.84-.68,1.6-2.57,1.6-2.28,0-3.48-1.54-3.48-3.36,0-2,1.36-3.63,3.39-3.63,1.73,0,3.07.97,3.07,2.65,0,1.32-1,1.67-3.23,1.67ZM104.1,18.55c-.8,0-1.14.52-1.2,1.15h.89c1.08,0,1.27-.17,1.27-.46,0-.34-.3-.7-.96-.7Z"/>
        <path class="cls-2" d="M111.56,16.1v3.75c.54-.8,1.09-1.67,1.74-2.36.29-.31.52-.44,1.21-.44h1.6v.06c-.41.42-1.86,2.11-2.46,2.97.38.58.78,1.21,1.23,1.74.49.56.68.62,1.19.74-.08.73-.58,1.14-1.39,1.14-.34,0-.9-.13-1.18-.46-.74-.86-1.32-1.8-1.94-2.75v3.14h-.9c-.84,0-1.38-.55-1.38-1.34v-7.53h.88c1.03,0,1.4.67,1.4,1.33Z"/>
        <path class="cls-2" d="M118.56,15.89c.3-.23.71-.44,1.19-.44h.24v1.61h1.93v.8c0,.56-.6,1-1.12,1h-.82v2.39c0,.44.28.71.72.71.54,0,.79-.05,1.03-.14h.06v.89c0,.55-.5,1.06-1.69,1.06s-2.34-.54-2.34-2.35v-4.09c0-.6.35-1.08.79-1.42Z"/>
        <path class="cls-2" d="M126.74,21.17h-.98c.13.66.67.97,1.62.97,1.05,0,1.71-.17,2.09-.42h.08v.53c0,.84-.68,1.6-2.57,1.6-2.28,0-3.48-1.54-3.48-3.36,0-2,1.35-3.63,3.39-3.63,1.73,0,3.07.97,3.07,2.65,0,1.32-1,1.67-3.23,1.67ZM126.89,18.55c-.8,0-1.14.52-1.2,1.15h.89c1.08,0,1.27-.17,1.27-.46,0-.34-.3-.7-.96-.7Z"/>
        <path class="cls-2" d="M137.67,23.65c-1.01,0-1.32-.34-1.32-1.34v-2.31c0-.89-.3-1.28-1.07-1.28-.66,0-1.02.44-1.02,1.25v3.69h-.77c-.97,0-1.51-.38-1.51-1.34v-2.31c0-1.9,1.26-3.13,3.36-3.13,2.34,0,3.29,1.24,3.29,3.19v3.6h-.96Z"/>
        <path class="cls-2" d="M148.4,23.84c-2.25,0-3.98-1.63-3.98-4.22s1.57-4.44,4.23-4.44c2.03,0,3.97,1.51,3.97,4.21s-1.54,4.45-4.22,4.45ZM148.42,17.03c-1.13,0-1.73.97-1.73,2.36,0,1.75.67,2.59,1.92,2.59,1.03,0,1.73-.86,1.73-2.39,0-1.81-.65-2.57-1.92-2.57Z"/>
        <path class="cls-2" d="M158.74,18.76c-.29-.11-.5-.13-.8-.13-.55,0-.98.28-.98,1.08v3.95h-.62c-.98,0-1.58-.46-1.58-1.56v-2.87c0-1.33.9-2.39,2.4-2.39,1.14,0,1.67.47,1.67,1.08v.84h-.07Z"/>
        <path class="cls-2" d="M161.25,15.89c.3-.23.71-.44,1.19-.44h.24v1.61h1.93v.8c0,.56-.6,1-1.12,1h-.81v2.39c0,.44.28.71.72.71.54,0,.79-.05,1.03-.14h.06v.89c0,.55-.5,1.06-1.69,1.06s-2.34-.54-2.34-2.35v-4.09c0-.6.35-1.08.79-1.42Z"/>
      </g>
    </g>
  </g>
</svg>