<?xml version="1.0" encoding="UTF-8"?>
<svg id="Layer_2" data-name="Layer 2" xmlns="http://www.w3.org/2000/svg" xmlns:xlink="http://www.w3.org/1999/xlink" viewBox="-10 -10 235.89 65.45">
  <defs>
    <style>
      .cls-1 {
        filter: url(#drop-shadow-1);
      }

      .cls-2 {
        fill: #fff;
        stroke-width: 0px;
      }
    </style>
    <filter id="drop-shadow-1" filterUnits="userSpaceOnUse">
      <feOffset dx="-2.83" dy="2.83"/>
      <feGaussianBlur result="blur" stdDeviation="1.7"/>
      <feFlood flood-color="#264078" flood-opacity=".55"/>
      <feComposite in2="blur" operator="in"/>
      <feComposite in="SourceGraphic"/>
    </filter>
  </defs>
  <g id="logo">
    <g class="cls-1">
      <g>
        <g>
          <path class="cls-2" d="M32.07,27.95l-3.06.27,1.48,16.58-2.59.23c-1.78.16-3.41-.51-3.62-2.79l-1.21-13.49-6.15.55-.18-2.06c-.12-1.31.9-2.98,3.08-3.17l15.12-1.35.18,2.06c.12,1.34-1.24,3.01-3.05,3.17Z"/>
          <path class="cls-2" d="M48.99,43.94c-5.54.35-9.69-3.12-10.06-8.95l-.8-12.55,2.54-.16c1.91-.12,3.48.91,3.67,3.88l.52,8.26c.23,3.66,1.59,4.77,4.38,4.59,2.35-.15,3.41-1.69,3.21-4.92l-.79-12.52,2.54-.16c2.22-.14,3.48.91,3.66,3.76l.53,8.39c.35,5.45-2.73,9.95-9.4,10.37Z"/>
          <path class="cls-2" d="M72.88,42.74c-5.89.21-10.56-3.88-10.81-10.65-.25-6.99,3.68-11.75,10.64-12,5.3-.19,10.52,3.57,10.78,10.62.26,7.18-3.59,11.77-10.61,12.03ZM72.29,24.94c-2.95.11-4.42,2.7-4.29,6.34.17,4.58,2,6.71,5.26,6.59,2.7-.1,4.43-2.42,4.29-6.4-.17-4.73-1.94-6.65-5.26-6.52Z"/>
          <path class="cls-2" d="M105.95,42.09c-6.11.02-11.27-4.31-11.3-11.02-.03-6.43,4.6-11.59,12.21-11.62,4.27-.02,6.44,2.17,6.45,4.58v2.16s-.15,0-.15,0c-1.13-1.03-3.11-1.9-6.44-1.89-3.23.01-6.14,2.16-6.12,6.23.02,4.67,2.6,6.7,5.83,6.69,1.72,0,1.85-.57,1.84-1.36v-2.41c-.01-.91-.21-2.32-.43-2.98h3.04c1.91-.02,2.92,1.23,2.93,2.86v2.88c.03,3.58-2.19,5.84-7.87,5.86Z"/>
          <path class="cls-2" d="M134.24,41.91c-2.16-.04-3.28-.69-3.62-2.64-.14-.79-.31-1.64-.55-2.55l-7.46-.14c-.5,1.56-.92,3.75-1.19,5.09l-2.42-.05c-1.91-.04-2.74-1.12-2.71-2.72.06-3.14,4.39-14.97,8.23-18.82l2.32.04c2.1.04,3.46,1.13,4.16,2.34,2,3.49,5.1,12.11,5.94,19.5l-2.7-.05ZM126.61,25.51c-.97,1.77-1.96,4.29-2.63,6.41l4.96.09c-.59-2.14-1.48-4.76-2.32-6.51Z"/>
          <path class="cls-2" d="M152.17,25.92l-3.07-.12-.66,16.63-2.6-.1c-1.79-.07-3.32-.95-3.23-3.23l.53-13.53-6.17-.24.08-2.07c.05-1.32,1.27-2.84,3.47-2.75l15.16.6-.08,2.07c-.05,1.35-1.62,2.82-3.44,2.75Z"/>
          <path class="cls-2" d="M172.96,27.1l-3.07-.19-1.03,16.62-2.6-.16c-1.78-.11-3.3-1.02-3.16-3.31l.84-13.52-6.17-.38.13-2.07c.08-1.31,1.34-2.81,3.53-2.67l15.15.94-.13,2.07c-.08,1.35-1.68,2.79-3.5,2.67Z"/>
          <path class="cls-2" d="M186.73,45.39c-5.87-.51-10-5.16-9.41-11.9.61-6.97,5.1-11.2,12.04-10.59,5.28.46,9.99,4.84,9.38,11.87-.63,7.15-5.01,11.24-12.01,10.63ZM188.34,27.66c-2.94-.26-4.72,2.14-5.04,5.76-.4,4.56,1.16,6.9,4.41,7.18,2.69.23,4.7-1.86,5.04-5.82.41-4.72-1.1-6.83-4.41-7.12Z"/>
        </g>
        <g>
          <path class="cls-2" d="M5.34,32.65C.19,22.33-.93,10.25.68,8.52s9.77-1.69,26.58,5.13c-8.04-1.3-18.42-1.14-20.09.58-1.67,1.73-2.83,7.76-1.82,18.42"/>
          <path class="cls-2" d="M190.81,12.91c10.31-5.16,22.39-6.27,24.13-4.66,1.73,1.61,1.69,9.77-5.13,26.58,1.3-8.04,1.14-18.42-.58-20.09-1.73-1.67-7.76-2.83-18.42-1.82"/>
        </g>
      </g>
      <g>
        <path class="cls-2" d="M65.15,6.45c-.46,0-.88-.03-1.22-.14v3.23h-1.15c-.68,0-1.42-.47-1.42-1.6V.47c.7-.16,1.89-.39,2.79-.39h1.04c1.93,0,3.43,1.08,3.43,3.03s-1.54,3.34-3.47,3.34ZM64.96,2.11h-.51c-.12,0-.39.04-.51.07v2.08c.28.09.61.12.97.12.81,0,1.15-.38,1.15-1.05,0-.97-.43-1.22-1.09-1.22Z"/>
        <path class="cls-2" d="M77.4,9.54c-.93,0-1.42-.27-1.58-1.11-.07-.34-.15-.7-.26-1.09h-3.22c-.2.68-.37,1.62-.47,2.2h-1.04c-.83,0-1.19-.46-1.19-1.15,0-1.35,1.77-6.49,3.39-8.18h1c.91,0,1.5.46,1.81.97.89,1.49,2.3,5.18,2.72,8.36h-1.16ZM73.98,2.54c-.41.77-.81,1.87-1.08,2.78h2.14c-.27-.92-.68-2.04-1.05-2.78Z"/>
        <path class="cls-2" d="M87.1,9.61c-.87,0-1.41-.38-1.68-.99l-.69-1.51c-.37-.8-.62-.96-1.23-1.03l-.4-.04v3.5h-.99c-1,0-1.58-.61-1.58-1.47V.49c.65-.23,2.08-.41,2.8-.41h1.04c2,0,3.42,1.09,3.42,2.79,0,1.24-.81,2.3-1.7,2.5.45.2.68.54,1.03,1.28l.72,1.51c.27.55.51.97.65,1.13v.07c-.31.16-.83.24-1.38.24ZM83.61,2.11c-.11,0-.32.03-.51.05v2.05c.31.04.63.04,1.03.04.73,0,1.09-.55,1.09-1.08,0-.68-.34-1.07-1.08-1.07h-.53Z"/>
        <path class="cls-2" d="M95.11,9.65h-1.08c-2.37,0-3.38-1.19-3.38-3.54V.22h1.08c1.01,0,1.49.53,1.49,1.58v4.14c0,1.22.32,1.58,1.49,1.58h.41c.74,0,1.6-.12,1.97-.28h.07v.88c0,.95-.57,1.54-2.04,1.54Z"/>
        <path class="cls-2" d="M106.26,9.54c-.93,0-1.42-.27-1.58-1.11-.07-.34-.15-.7-.26-1.09h-3.22c-.2.68-.37,1.62-.47,2.2h-1.04c-.83,0-1.19-.46-1.19-1.15,0-1.35,1.77-6.49,3.39-8.18h1c.91,0,1.5.46,1.81.97.89,1.49,2.3,5.18,2.72,8.36h-1.16ZM102.84,2.54c-.4.77-.81,1.87-1.08,2.78h2.14c-.27-.92-.68-2.04-1.05-2.78Z"/>
        <path class="cls-2" d="M116.98,3.18c-.47-.61-1.64-.96-2.66-.96-1.51,0-2.62,1-2.62,2.52,0,1.91,1.16,2.81,2.68,2.81,1,0,2.11-.38,2.57-.87h.07v.96c0,1.2-1.2,2.12-3.03,2.12-2.55,0-4.85-1.84-4.85-4.79,0-2.72,1.91-4.97,5.02-4.97,1.83,0,2.91.91,2.91,2.22v.96h-.07Z"/>
        <path class="cls-2" d="M120.6,9.54c-.58,0-1.19-.5-1.19-1.45V.22h1.43c.5,0,1.14.45,1.14,1.2v8.12h-1.38Z"/>
        <path class="cls-2" d="M132.88,9.67h-.92c-1.68,0-2.95-.63-2.95-2.26V.53c.69-.26,1.93-.45,2.66-.45h.97c2.28,0,4.74,1.47,4.74,4.65,0,2.84-1.84,4.93-4.51,4.93ZM132.53,2.15h-.54c-.1,0-.27.03-.41.05v4.79c0,.33.2.61.54.61h.42c1.49,0,2.28-1.07,2.28-2.66,0-1.85-1.03-2.79-2.3-2.79Z"/>
        <path class="cls-2" d="M144.62,9.67h-1.05c-2.45,0-3.8-1.24-3.8-3.83v-1.57c0-.85.05-1.8.16-2.51.18-1.19.89-1.54,1.8-1.54h5.08v.61c0,.89-.47,1.49-1.55,1.49h-2.84c-.05.46-.09,1.14-.09,1.58h3.61v.93c0,.68-.5,1.05-1.41,1.05h-2.2v.34c0,1,.32,1.35,1.62,1.35h.68c.77,0,1.42-.07,2.18-.26v.99c0,.85-.53,1.37-2.18,1.37Z"/>
        <path class="cls-2" d="M153.71,9.65h-1.08c-2.37,0-3.38-1.19-3.38-3.54V.22h1.08c1.01,0,1.49.53,1.49,1.58v4.14c0,1.22.32,1.58,1.49,1.58h.41c.74,0,1.59-.12,1.97-.28h.07v.88c0,.95-.57,1.54-2.04,1.54Z"/>
      </g>
    </g>
  </g>
</svg>