<?xml version="1.0" encoding="UTF-8"?>
<svg id="Layer_2" data-name="Layer 2" xmlns="http://www.w3.org/2000/svg" xmlns:xlink="http://www.w3.org/1999/xlink" viewBox="0 0 217.07 93.53">
  <defs>
    <style>
      .cls-1 {
        filter: url(#drop-shadow-1);
      }

      .cls-2 {
        fill: #fff;
        stroke-width: 0px;
      }
    </style>
    <filter id="drop-shadow-1" filterUnits="userSpaceOnUse">
      <feOffset dx="-2.83" dy="2.83"/>
      <feGaussianBlur result="blur" stdDeviation="1.7"/>
      <feFlood flood-color="#264078" flood-opacity=".55"/>
      <feComposite in2="blur" operator="in"/>
      <feComposite in="SourceGraphic"/>
    </filter>
  </defs>
  <g id="logo">
    <g class="cls-1">
      <g>
        <g>
          <path class="cls-2" d="M34.87,42.12l-3.06.26,1.42,16.58-2.59.22c-1.78.15-3.41-.53-3.61-2.81l-1.15-13.49-6.15.53-.18-2.06c-.11-1.31.91-2.97,3.1-3.16l15.12-1.29.18,2.06c.11,1.34-1.25,3-3.07,3.16Z"/>
          <path class="cls-2" d="M51.18,58.19c-5.88.36-10.65-3.63-11.06-10.39-.42-6.98,3.4-11.83,10.35-12.25,5.29-.32,10.6,3.32,11.02,10.36.43,7.17-3.3,11.85-10.31,12.28ZM50.17,40.41c-2.94.18-4.35,2.81-4.13,6.44.28,4.57,2.16,6.65,5.42,6.46,2.69-.16,4.37-2.53,4.13-6.5-.29-4.73-2.09-6.6-5.41-6.39Z"/>
          <path class="cls-2" d="M82.64,41.51c-1.15-1.37-3.87-2.09-6.25-2.01-3.51.12-6,2.54-5.87,6.05.16,4.42,2.93,6.42,6.44,6.3,2.32-.08,4.86-1.05,5.88-2.22h.16s.08,2.22.08,2.22c.1,2.79-2.62,5.02-6.85,5.17-5.92.21-11.4-3.86-11.65-10.69-.22-6.3,4.01-11.69,11.22-11.95,4.23-.15,6.81,1.86,6.92,4.9l.08,2.22h-.16Z"/>
          <path class="cls-2" d="M103.87,41.21c-1.12-1.4-3.82-2.18-6.21-2.14-3.51.05-6.05,2.4-6.01,5.91.06,4.42,2.78,6.49,6.29,6.44,2.32-.03,4.88-.94,5.93-2.08h.16s.03,2.22.03,2.22c.04,2.79-2.73,4.96-6.96,5.01-5.93.08-11.31-4.12-11.4-10.95-.08-6.3,4.27-11.6,11.48-11.69,4.23-.06,6.77,2.01,6.81,5.05l.03,2.23h-.16Z"/>
          <path class="cls-2" d="M124.18,56.13c-2.16-.02-3.29-.66-3.65-2.61-.15-.79-.33-1.63-.57-2.54l-7.46-.07c-.48,1.56-.88,3.75-1.14,5.1l-2.41-.02c-1.91-.02-2.75-1.09-2.73-2.69.03-3.14,4.25-15.01,8.04-18.9l2.32.02c2.1.02,3.47,1.1,4.18,2.3,2.04,3.47,5.22,12.06,6.12,19.44l-2.7-.02ZM116.4,39.81c-.96,1.78-1.92,4.31-2.57,6.44l4.95.05c-.61-2.14-1.52-4.75-2.39-6.48Z"/>
          <path class="cls-2" d="M146.3,49.6c-1.07-.04-2.04-.14-2.81-.42l-.29,7.49-2.66-.1c-1.57-.06-3.25-1.22-3.15-3.82l.68-17.32c1.64-.31,4.42-.74,6.49-.66l2.41.09c4.48.17,7.86,2.82,7.68,7.33-.18,4.7-3.87,7.6-8.35,7.42ZM146.25,39.53l-1.19-.05c-.28-.01-.91.06-1.2.11l-.19,4.82c.65.25,1.4.34,2.24.37,1.88.07,2.7-.77,2.76-2.34.09-2.26-.89-2.86-2.43-2.92Z"/>
          <path class="cls-2" d="M167.85,58.2l-2.44-.15c-5.66-.35-8.62-3.42-8.25-9.39l.22-3.63c.12-1.97.38-4.15.73-5.8.58-2.73,2.28-3.44,4.38-3.31l11.77.72-.08,1.41c-.13,2.07-1.31,3.38-3.81,3.22l-6.57-.4c-.19,1.06-.38,2.62-.44,3.65l8.36.51-.13,2.16c-.1,1.56-1.31,2.37-3.4,2.24l-5.1-.31-.05.78c-.14,2.32.56,3.17,3.56,3.36l1.57.1c1.78.11,3.3.04,5.08-.29l-.14,2.29c-.12,1.97-1.41,3.09-5.23,2.85Z"/>
          <path class="cls-2" d="M191.73,59.94c-2-.17-3.17-1.15-3.68-2.61l-1.29-3.63c-.69-1.92-1.25-2.34-2.64-2.62l-.93-.17-.69,8.09-2.28-.2c-2.31-.2-3.53-1.72-3.36-3.72l1.5-17.52c1.54-.4,4.89-.53,6.55-.38l2.4.21c4.62.39,7.69,3.21,7.35,7.11-.25,2.87-2.33,5.15-4.43,5.44.99.56,1.46,1.38,2.12,3.17l1.36,3.64c.51,1.33.99,2.35,1.27,2.75v.16c-.76.31-1.97.4-3.25.29ZM185.15,41.92c-.25-.02-.76,0-1.2.02l-.41,4.75c.71.16,1.46.22,2.37.3,1.69.14,2.64-1.06,2.74-2.28.13-1.56-.57-2.53-2.29-2.68l-1.22-.1Z"/>
        </g>
        <g>
          <path class="cls-2" d="M10.27,85.42c-1.06.12-2.03.17-2.84,0l.83,7.45-2.65.3c-1.56.18-3.39-.72-3.68-3.31l-1.93-17.23c1.58-.56,4.26-1.39,6.32-1.62l2.4-.27c4.46-.5,8.19,1.61,8.7,6.09.52,4.67-2.69,8.09-7.14,8.59ZM8.71,75.46l-1.18.13c-.28.03-.89.2-1.17.29l.54,4.8c.68.14,1.43.12,2.27.03,1.87-.21,2.55-1.17,2.38-2.73-.25-2.24-1.31-2.69-2.84-2.52Z"/>
          <path class="cls-2" d="M31.67,91.06c-5.88.49-10.73-3.38-11.29-10.13-.58-6.97,3.13-11.91,10.07-12.48,5.28-.44,10.67,3.07,11.26,10.11.6,7.16-3.03,11.93-10.03,12.51ZM30.25,73.3c-2.94.25-4.29,2.91-3.99,6.53.38,4.56,2.31,6.6,5.56,6.33,2.69-.22,4.31-2.62,3.98-6.59-.39-4.72-2.25-6.55-5.56-6.27Z"/>
          <path class="cls-2" d="M53.31,89.53c-4.76.27-7.43-1.39-7.61-4.49l-.12-2.13h.16c1.42,1.29,4.29,1.94,6.76,1.8,2.75-.16,3.59-.87,3.51-2.31-.08-1.32-1.29-1.69-4.62-2.15-4.75-.67-6.67-2.29-6.86-5.57-.22-3.85,3.09-7.5,8.57-7.81,5.32-.31,7.5,1.99,7.62,4.21l.13,2.29h-.16c-1.52-1.35-4.16-1.83-6.41-1.7-2.94.17-3.9,1.01-3.83,2.23.06.97.49,1.48,4.55,2.06,4.5.65,6.73,2.35,6.92,5.7.26,4.48-2.86,7.55-8.63,7.88Z"/>
          <path class="cls-2" d="M69.07,88.25c-1.35.05-2.8-1.05-2.89-3.24l-.74-18.26,3.32-.13c1.16-.05,2.67.93,2.74,2.68l.76,18.83-3.2.13Z"/>
          <path class="cls-2" d="M90.8,87.6l-11.91.28c-1,.02-2.81-.97-2.86-2.85-.04-1.6.43-2.89,3.15-6l4.92-5.67c.83-.93,1.25-1.69,1.52-2.2l-9.84.23-.04-1.79c-.05-2.04,1.21-3.32,3.81-3.38l9.87-.23c2.16-.05,3.66,1.08,3.71,2.89.04,1.66-.28,2.95-2.08,5.1l-4.88,5.85c-1.01,1.18-1.8,2.05-2.38,2.94l10.03-.23.05,2.13c.04,1.6-1.28,2.88-3.07,2.92Z"/>
          <path class="cls-2" d="M100.56,87.5c-1.35,0-2.77-1.14-2.78-3.33l-.13-18.28,3.32-.02c1.16,0,2.64,1.02,2.65,2.77l.14,18.85-3.2.02Z"/>
          <path class="cls-2" d="M117.99,88.03c-5.9-.06-10.37-4.38-10.29-11.15.08-6.99,4.23-11.56,11.19-11.48,5.3.06,10.34,4.06,10.26,11.12-.08,7.18-4.14,11.59-11.16,11.52ZM118.24,70.22c-2.95-.03-4.54,2.49-4.58,6.13-.05,4.58,1.68,6.79,4.94,6.83,2.7.03,4.54-2.21,4.58-6.19.05-4.73-1.62-6.73-4.95-6.76Z"/>
          <path class="cls-2" d="M149.67,88.36c-2.44-.09-4.41-1.23-6.23-4.81l-3.43-6.78c-.57-.84-.95-1.6-1-1.83l-.47,13.01-2.45-.09c-1.63-.06-3.31-1.25-3.23-3.44l.66-18.3,2.88.1c3.17.11,5.21,1.73,6.58,4.69l3.73,7.98.44-12.29,2.63.09c1.41.05,2.97,1.14,2.91,2.9l-.68,18.84-2.35-.08Z"/>
          <path class="cls-2" d="M172.6,89.67c-2.16-.13-3.25-.83-3.5-2.79-.11-.79-.24-1.65-.44-2.57l-7.45-.46c-.57,1.54-1.08,3.7-1.41,5.03l-2.41-.15c-1.91-.12-2.69-1.23-2.59-2.83.19-3.13,5.02-14.77,9.02-18.45l2.32.14c2.1.13,3.41,1.28,4.06,2.51,1.85,3.57,4.58,12.31,5.1,19.73l-2.69-.17ZM165.67,72.97c-1.05,1.73-2.14,4.2-2.9,6.29l4.94.3c-.5-2.17-1.27-4.82-2.04-6.6Z"/>
          <path class="cls-2" d="M192.92,91.51c-2-.17-3.17-1.16-3.67-2.62l-1.29-3.64c-.68-1.92-1.24-2.34-2.64-2.62l-.93-.18-.7,8.09-2.28-.2c-2.31-.2-3.53-1.72-3.36-3.72l1.52-17.52c1.54-.4,4.89-.52,6.55-.38l2.4.21c4.62.4,7.68,3.22,7.34,7.12-.25,2.87-2.34,5.15-4.44,5.44.99.56,1.45,1.38,2.12,3.17l1.35,3.64c.51,1.33.99,2.35,1.27,2.75v.16c-.76.31-1.97.4-3.25.29ZM186.37,73.48c-.25-.02-.75,0-1.2.02l-.41,4.75c.71.16,1.46.22,2.37.3,1.69.15,2.64-1.06,2.75-2.28.14-1.56-.57-2.54-2.28-2.68l-1.22-.11Z"/>
          <path class="cls-2" d="M209.56,93.43l-2.43-.27c-5.64-.64-8.43-3.86-7.76-9.81l.41-3.61c.22-1.96.59-4.13,1.03-5.75.72-2.7,2.46-3.32,4.55-3.08l11.72,1.33-.16,1.4c-.23,2.06-1.48,3.3-3.97,3.02l-6.54-.74c-.24,1.04-.51,2.59-.63,3.62l8.32.94-.24,2.15c-.18,1.56-1.43,2.3-3.52,2.06l-5.08-.57-.09.78c-.26,2.3.39,3.2,3.39,3.54l1.56.18c1.78.2,3.29.21,5.08-.03l-.26,2.28c-.22,1.96-1.57,3.01-5.37,2.58Z"/>
        </g>
        <g>
          <path class="cls-2" d="M7.83,50.07C2.67,39.76,1.55,27.68,3.16,25.95c1.61-1.73,9.77-1.69,26.58,5.13-8.04-1.3-18.42-1.14-20.09.58-1.67,1.73-2.83,7.76-1.82,18.42"/>
          <path class="cls-2" d="M187.29,30.34c10.31-5.16,22.39-6.27,24.13-4.66,1.73,1.61,1.69,9.77-5.13,26.58,1.3-8.04,1.14-18.42-.58-20.09-1.73-1.67-7.76-2.83-18.42-1.82"/>
        </g>
      </g>
      <g>
        <path class="cls-2" d="M53.13,2.37h-1.33v7.18h-1.12c-.77,0-1.45-.35-1.45-1.34V2.37h-2.66v-.89c0-.57.5-1.24,1.45-1.24h6.54v.89c0,.58-.65,1.24-1.43,1.24Z"/>
        <path class="cls-2" d="M63.17,9.61c-.87,0-1.41-.38-1.68-.99l-.69-1.51c-.37-.8-.62-.96-1.23-1.03l-.41-.04v3.5h-.99c-1,0-1.58-.61-1.58-1.47V.49c.65-.23,2.08-.41,2.8-.41h1.04c2,0,3.42,1.09,3.42,2.79,0,1.24-.81,2.3-1.7,2.5.45.2.68.54,1.03,1.29l.72,1.51c.27.55.51.97.65,1.14v.07c-.31.16-.82.24-1.38.24ZM59.68,2.11c-.11,0-.33.03-.51.05v2.05c.31.04.64.04,1.03.04.73,0,1.09-.55,1.09-1.08,0-.68-.34-1.07-1.08-1.07h-.53Z"/>
        <path class="cls-2" d="M70.79,9.76c-2.54,0-4.49-1.84-4.49-4.76s1.77-5,4.77-5c2.28,0,4.48,1.7,4.48,4.75s-1.73,5.02-4.76,5.02ZM70.82,2.08c-1.27,0-1.95,1.1-1.95,2.66,0,1.97.76,2.92,2.16,2.92,1.16,0,1.95-.97,1.95-2.69,0-2.04-.73-2.89-2.16-2.89Z"/>
        <path class="cls-2" d="M82.34,9.65h-.61c-.62,0-.96-.23-1.35-.83-1.49-2.28-2.73-5.49-3.2-8.61h1.43c.88,0,1.39.64,1.5,1.19.23,1.2.85,3.22,1.57,4.75.76-1.54,1.53-4.06,1.83-5.94h1.3c.64,0,1.15.41,1.15,1.07,0,.35-.23,1.04-.57,2.07-.61,1.84-2.11,5.1-3.04,6.3Z"/>
        <path class="cls-2" d="M94.66,9.54c-.93,0-1.42-.27-1.58-1.11-.07-.34-.15-.7-.26-1.09h-3.22c-.2.68-.37,1.62-.47,2.2h-1.04c-.83,0-1.19-.46-1.19-1.15,0-1.35,1.77-6.49,3.39-8.18h1c.91,0,1.5.46,1.81.97.89,1.49,2.3,5.18,2.72,8.35h-1.16ZM91.24,2.54c-.4.77-.81,1.87-1.08,2.79h2.14c-.27-.92-.68-2.04-1.05-2.79Z"/>
        <path class="cls-2" d="M103.31,9.54c-.58,0-1.19-.5-1.19-1.45V.22h1.43c.5,0,1.14.45,1.14,1.2v8.12h-1.38Z"/>
        <path class="cls-2" d="M112.12,9.65h-1.08c-2.37,0-3.38-1.19-3.38-3.54V.22h1.08c1.01,0,1.49.53,1.49,1.58v4.14c0,1.22.32,1.58,1.49,1.58h.41c.74,0,1.6-.12,1.97-.28h.07v.88c0,.95-.57,1.54-2.04,1.54Z"/>
        <path class="cls-2" d="M124.11,6.45c-.46,0-.88-.03-1.22-.13v3.23h-1.15c-.68,0-1.42-.47-1.42-1.59V.47c.7-.16,1.89-.39,2.79-.39h1.04c1.93,0,3.43,1.08,3.43,3.03s-1.54,3.34-3.47,3.34ZM123.92,2.11h-.51c-.12,0-.39.04-.51.07v2.08c.28.09.61.12.97.12.81,0,1.15-.38,1.15-1.05,0-.97-.43-1.22-1.09-1.22Z"/>
        <path class="cls-2" d="M133.83,9.76c-2.54,0-4.49-1.84-4.49-4.76s1.77-5,4.77-5c2.28,0,4.48,1.7,4.48,4.75s-1.73,5.02-4.76,5.02ZM133.86,2.08c-1.27,0-1.95,1.1-1.95,2.66,0,1.97.76,2.92,2.16,2.92,1.16,0,1.95-.97,1.95-2.69,0-2.04-.73-2.89-2.16-2.89Z"/>
        <path class="cls-2" d="M144.12,9.76c-2.05,0-3.16-.78-3.16-2.12v-.92h.07c.58.59,1.8.95,2.87.95,1.19,0,1.57-.28,1.57-.91,0-.57-.51-.76-1.93-1.04-2.03-.41-2.81-1.15-2.81-2.57,0-1.66,1.51-3.15,3.88-3.15s3.18,1.04,3.18,2v.99h-.07c-.62-.62-1.74-.89-2.72-.89-1.27,0-1.7.34-1.7.87,0,.42.18.65,1.91,1,1.92.39,2.84,1.18,2.84,2.62,0,1.93-1.42,3.18-3.91,3.18Z"/>
        <path class="cls-2" d="M156.32,2.37h-1.32v7.18h-1.12c-.77,0-1.45-.35-1.45-1.34V2.37h-2.66v-.89c0-.57.5-1.24,1.45-1.24h6.54v.89c0,.58-.65,1.24-1.43,1.24Z"/>
        <path class="cls-2" d="M163.6,9.76c-2.54,0-4.49-1.84-4.49-4.76s1.77-5,4.77-5c2.29,0,4.48,1.7,4.48,4.75s-1.73,5.02-4.76,5.02ZM163.63,2.08c-1.27,0-1.95,1.1-1.95,2.66,0,1.97.76,2.92,2.16,2.92,1.16,0,1.95-.97,1.95-2.69,0-2.04-.73-2.89-2.16-2.89Z"/>
        <path class="cls-2" d="M61.71,20.88c-.46,0-.88-.03-1.22-.13v3.23h-1.15c-.68,0-1.42-.47-1.42-1.59v-7.48c.7-.16,1.89-.39,2.79-.39h1.04c1.93,0,3.43,1.08,3.43,3.03s-1.54,3.34-3.47,3.34ZM61.52,16.54h-.51c-.12,0-.39.04-.51.07v2.08c.28.09.61.12.97.12.81,0,1.15-.38,1.15-1.05,0-.97-.43-1.22-1.09-1.22Z"/>
        <path class="cls-2" d="M72,24.09h-1.05c-2.45,0-3.8-1.24-3.8-3.83v-1.57c0-.85.05-1.8.16-2.52.18-1.19.89-1.54,1.8-1.54h5.08v.61c0,.89-.47,1.49-1.55,1.49h-2.84c-.05.46-.1,1.14-.1,1.58h3.61v.93c0,.68-.5,1.05-1.41,1.05h-2.2v.34c0,1,.32,1.35,1.62,1.35h.68c.77,0,1.42-.07,2.18-.26v.99c0,.85-.53,1.37-2.18,1.37Z"/>
        <path class="cls-2" d="M83.07,24.04c-.87,0-1.41-.38-1.68-.99l-.69-1.51c-.36-.8-.62-.96-1.23-1.03l-.41-.04v3.5h-.99c-1,0-1.58-.61-1.58-1.47v-7.58c.65-.23,2.08-.41,2.8-.41h1.04c2,0,3.42,1.09,3.42,2.79,0,1.24-.81,2.3-1.7,2.5.45.2.68.54,1.03,1.28l.72,1.51c.27.55.51.97.65,1.14v.07c-.31.16-.82.24-1.38.24ZM79.58,16.54c-.11,0-.32.03-.51.05v2.05c.31.04.63.04,1.03.04.73,0,1.1-.55,1.1-1.08,0-.68-.34-1.07-1.08-1.07h-.53Z"/>
        <path class="cls-2" d="M93.05,24.04c-.87,0-1.41-.38-1.68-.99l-.69-1.51c-.37-.8-.62-.96-1.23-1.03l-.41-.04v3.5h-.99c-1,0-1.58-.61-1.58-1.47v-7.58c.65-.23,2.08-.41,2.8-.41h1.04c2,0,3.42,1.09,3.42,2.79,0,1.24-.81,2.3-1.7,2.5.45.2.68.54,1.03,1.28l.72,1.51c.27.55.51.97.65,1.14v.07c-.31.16-.82.24-1.38.24ZM89.56,16.54c-.11,0-.32.03-.51.05v2.05c.31.04.64.04,1.03.04.73,0,1.1-.55,1.1-1.08,0-.68-.34-1.07-1.08-1.07h-.53Z"/>
        <path class="cls-2" d="M103.03,24.04c-.87,0-1.41-.38-1.68-.99l-.69-1.51c-.37-.8-.62-.96-1.23-1.03l-.41-.04v3.5h-.99c-1,0-1.58-.61-1.58-1.47v-7.58c.65-.23,2.08-.41,2.8-.41h1.04c2,0,3.42,1.09,3.42,2.79,0,1.24-.81,2.3-1.7,2.5.45.2.68.54,1.03,1.28l.72,1.51c.27.55.51.97.65,1.14v.07c-.31.16-.82.24-1.38.24ZM99.54,16.54c-.11,0-.33.03-.51.05v2.05c.31.04.64.04,1.03.04.73,0,1.09-.55,1.09-1.08,0-.68-.34-1.07-1.08-1.07h-.53Z"/>
        <path class="cls-2" d="M110.29,19.71c0,.51-.39.97-.95.97h-3.25v-.69c0-.66.34-1.01,1.08-1.01h3.11v.73Z"/>
        <path class="cls-2" d="M117.76,16.75h-2.49v1.74h3.29v.8c0,.7-.5,1.16-1.11,1.16h-2.12v3.51h-1.24c-.81,0-1.37-.41-1.37-1.27v-6.37c0-1.15.64-1.69,1.88-1.69h4.51v.91c0,.54-.45,1.2-1.35,1.2Z"/>
        <path class="cls-2" d="M125.86,24.09h-1.05c-2.45,0-3.8-1.24-3.8-3.83v-1.57c0-.85.05-1.8.16-2.52.18-1.19.89-1.54,1.8-1.54h5.08v.61c0,.89-.47,1.49-1.55,1.49h-2.84c-.05.46-.09,1.14-.09,1.58h3.61v.93c0,.68-.5,1.05-1.41,1.05h-2.2v.34c0,1,.32,1.35,1.62,1.35h.68c.77,0,1.42-.07,2.18-.26v.99c0,.85-.53,1.37-2.18,1.37Z"/>
        <path class="cls-2" d="M136.1,16.79h-1.33v7.18h-1.12c-.77,0-1.45-.35-1.45-1.34v-5.84h-2.66v-.89c0-.57.5-1.24,1.45-1.24h6.54v.89c0,.58-.65,1.24-1.43,1.24Z"/>
        <path class="cls-2" d="M145.64,16.79h-1.32v7.18h-1.12c-.77,0-1.45-.35-1.45-1.34v-5.84h-2.66v-.89c0-.57.5-1.24,1.45-1.24h6.54v.89c0,.58-.65,1.24-1.43,1.24Z"/>
        <path class="cls-2" d="M152.92,24.19c-2.54,0-4.49-1.84-4.49-4.76s1.77-5,4.77-5c2.29,0,4.48,1.7,4.48,4.75s-1.73,5.02-4.76,5.02ZM152.95,16.51c-1.27,0-1.95,1.09-1.95,2.66,0,1.97.76,2.92,2.16,2.92,1.16,0,1.95-.97,1.95-2.69,0-2.04-.73-2.89-2.16-2.89Z"/>
      </g>
    </g>
  </g>
</svg>