<?xml version="1.0" encoding="UTF-8"?>
<svg id="Layer_2" data-name="Layer 2" xmlns="http://www.w3.org/2000/svg" xmlns:xlink="http://www.w3.org/1999/xlink" viewBox="0 0 209.89 90.31">
  <defs>
    <style>
      .cls-1 {
        filter: url(#drop-shadow-1);
      }

      .cls-2 {
        fill: #fff;
        stroke-width: 0px;
      }
    </style>
    <filter id="drop-shadow-1" filterUnits="userSpaceOnUse">
      <feOffset dx="-2.83" dy="2.83"/>
      <feGaussianBlur result="blur" stdDeviation="1.7"/>
      <feFlood flood-color="#264078" flood-opacity=".55"/>
      <feComposite in2="blur" operator="in"/>
      <feComposite in="SourceGraphic"/>
    </filter>
  </defs>
  <g id="logo">
    <g class="cls-1">
      <g>
        <g>
          <path class="cls-2" d="M29.12,59.62c-4.39.37-6.9-1.11-7.14-3.97l-.16-1.96h.14c1.35,1.16,4.01,1.69,6.29,1.5,2.54-.21,3.3-.89,3.19-2.22-.1-1.21-1.23-1.53-4.32-1.88-4.41-.5-6.22-1.95-6.47-4.99-.3-3.55,2.67-7,7.73-7.42,4.91-.41,6.98,1.66,7.15,3.71l.18,2.11h-.14c-1.44-1.21-3.89-1.58-5.97-1.41-2.72.23-3.58,1.03-3.49,2.15.08.9.49,1.36,4.25,1.8,4.17.5,6.28,2.01,6.54,5.1.35,4.13-2.47,7.04-7.79,7.49Z"/>
          <path class="cls-2" d="M52.39,42.08l-2.84.17.95,15.37-2.4.15c-1.65.1-3.14-.56-3.27-2.67l-.77-12.5-5.7.35-.12-1.91c-.07-1.22.91-2.73,2.93-2.85l14.01-.86.12,1.91c.08,1.25-1.22,2.75-2.9,2.85Z"/>
          <path class="cls-2" d="M67.68,57.26c-5.13.2-8.88-3.11-9.09-8.5l-.45-11.62,2.35-.09c1.77-.07,3.2.92,3.31,3.67l.3,7.65c.13,3.39,1.36,4.45,3.94,4.34,2.17-.08,3.19-1.49,3.08-4.47l-.45-11.59,2.35-.09c2.06-.08,3.2.92,3.3,3.56l.3,7.77c.2,5.04-2.75,9.13-8.92,9.37Z"/>
          <path class="cls-2" d="M86.46,39.36l.09,5.31c2.75-4.02,3.57-5.13,5.51-7.19,1.11-1.18,1.83-1.36,3.49-1.39l4.03-.07v.14c-2.48,2.45-5.78,6.5-7.76,9.23,1.39,1.89,2.76,3.9,4.41,5.58,1.47,1.51,2,1.94,3.46,2.23-.57,2.3-1.46,3.04-3.29,3.07-1.1.02-2.65-.51-3.5-1.42-2.42-2.57-4.14-4.98-6.31-8.13l.16,9.51-2.2.04c-2.38.04-3.33-1.57-3.36-3.11l-.28-16.84,1.94-.03c2.38-.04,3.59,1.51,3.62,3.07Z"/>
          <path class="cls-2" d="M117.96,56.12c-2.26-.01-4.11-1.01-5.89-4.27l-3.36-6.17c-.55-.76-.92-1.46-.98-1.66l-.07,12.04h-2.26c-1.51-.02-3.1-1.08-3.09-3.11l.1-16.94,2.67.02c2.93.02,4.87,1.45,6.21,4.16l3.67,7.27.07-11.37h2.44c1.31.02,2.78.99,2.77,2.61l-.1,17.43h-2.18Z"/>
          <path class="cls-2" d="M126.98,56.31c-1.25-.03-2.53-1.13-2.48-3.16l.38-16.9,3.07.07c1.07.03,2.41,1.01,2.38,2.64l-.39,17.42-2.96-.07Z"/>
          <path class="cls-2" d="M136.84,56.87c-2.72-.1-4.3-1.43-4.24-3.2l.08-2.32h.17c.65.58,1.45.96,3.01,1.01,1.54.05,2.15-.82,2.19-2.1l.48-13.65,1.94.07c2.03.07,3.52,1.28,3.45,3.28l-.37,10.55c-.14,4.09-2.32,6.5-6.72,6.35Z"/>
          <path class="cls-2" d="M163.41,58.08l-2.17-.13c-4.02-.25-6.35-2.11-6.14-5.52l.88-14.36c1.51-.4,4.49-.74,6.23-.63l2.43.15c4.05.25,7.23,2.51,7,6.13-.11,1.85-1.85,3.58-3.52,3.91,1.9.7,3.46,2.8,3.35,4.54-.27,4.31-4.16,6.17-8.07,5.92ZM163.37,49.39l-2.55-.16-.19,3.1c-.04.58.29.89.93.93l1.77.11c1.85.11,2.59-.57,2.66-1.7.1-1.59-.56-2.16-2.62-2.28ZM163.82,41.98l-1.22-.08c-.32-.02-.99,0-1.37.03l-.22,3.56,2.43.15c1.85.11,2.65-.53,2.73-1.81.08-1.22-.76-1.76-2.35-1.86Z"/>
          <path class="cls-2" d="M184.75,51.04l-.7,8.35-2.4-.2c-1.5-.13-3.01-1.3-2.84-3.32l.45-5.32c-2.07-3.08-4.25-7.6-5.3-12.09l2.77.23c1.79.15,2.85,1.11,3.15,1.98.68,1.92,1.75,4.16,2.74,5.88,1.39-1.66,3.27-4.27,4.4-6.99l2.6.22c1.27.11,2,1.07,1.93,1.94-.14,1.68-4.78,7.37-6.81,9.32Z"/>
        </g>
        <g>
          <path class="cls-2" d="M43.21,90.02c-5.12.34-8.96-2.86-9.32-8.24l-.77-11.6,2.34-.16c1.76-.12,3.22.83,3.4,3.58l.51,7.64c.22,3.38,1.48,4.41,4.06,4.23,2.17-.14,3.15-1.58,2.95-4.55l-.77-11.57,2.34-.16c2.05-.14,3.22.83,3.4,3.46l.52,7.75c.33,5.03-2.5,9.2-8.66,9.61Z"/>
          <path class="cls-2" d="M79.13,87.82c-1.91.07-3.34-.92-3.42-3-.07-1.8-.44-6.92-.87-9.86l-2.43,8.51c-.36,1.23-1.12,3.41-1.83,4.68l-1.54.06c-1.88.07-3.42-1.29-4.81-5.3l-1.14-3.29c-.56-1.63-1.23-3.38-1.58-4.21-.22,3.43-.24,9.79-.11,13.09l-2.06.08c-1.68.06-3.26-1.04-3.33-3.01-.22-5.74.3-12.69,1.1-16.93l1.91-.07c3.19-.12,4.87,1.33,5.66,3.06l1.71,3.82c.73,1.66,1.66,3.91,2.16,5.58.38-1.49.92-3.28,1.47-4.76l1.74-4.65c.66-1.74,1.57-2.99,2.27-3.63l1.01-.04c2.9-.11,4.35,1.43,4.83,4.29.67,3.89,1.39,10.02,1.6,15.49l-2.35.09Z"/>
          <path class="cls-2" d="M88.11,87.67c-1.25.02-2.57-1.03-2.61-3.06l-.29-16.9,3.07-.05c1.07-.02,2.45.91,2.48,2.54l.3,17.42-2.96.05Z"/>
          <path class="cls-2" d="M105.71,87.77h-2.26c-5.25.03-8.16-2.62-8.19-8.17v-3.36c-.02-1.83.08-3.86.31-5.4.37-2.55,1.9-3.31,3.84-3.32l10.91-.05v1.31c.01,1.92-1,3.2-3.32,3.21l-6.09.03c-.11.99-.19,2.44-.19,3.39l7.75-.03v2c.01,1.45-1.06,2.27-3,2.27l-4.73.02v.72c.01,2.15.71,2.9,3.5,2.89h1.45c1.65-.01,3.04-.16,4.67-.58v2.12c.02,1.83-1.11,2.93-4.65,2.95Z"/>
          <path class="cls-2" d="M120.13,88.1c-4.41-.07-6.76-1.79-6.71-4.66l.03-1.97h.14c1.23,1.3,3.82,2.09,6.11,2.13,2.55.04,3.37-.56,3.39-1.89.02-1.22-1.08-1.64-4.11-2.3-4.33-.94-5.99-2.56-5.94-5.6.06-3.57,3.35-6.7,8.43-6.62,4.93.08,6.78,2.34,6.75,4.4l-.03,2.12h-.15c-1.31-1.36-3.71-1.97-5.8-2.01-2.72-.04-3.66.67-3.68,1.8-.01.9.36,1.4,4.05,2.21,4.1.91,6.05,2.62,6,5.72-.06,4.15-3.15,6.76-8.49,6.68ZM120.65,62.53c.94-.94,2.11-1.53,3.42-1.51,1.19.02,1.84.78,1.83,1.74-.02,1.19-.9,2.19-1.81,2.55-1.05.42-2.56.6-4.36.57l-1.33-.02v-.14c.51-1.18,1.37-2.3,2.26-3.18Z"/>
          <path class="cls-2" d="M148.38,74.79c-.97-1.34-3.43-2.18-5.63-2.26-3.25-.12-5.7,1.94-5.81,5.19-.15,4.08,2.28,6.12,5.52,6.23,2.14.08,4.55-.65,5.57-1.66h.15s-.07,2.06-.07,2.06c-.09,2.58-2.74,4.46-6.65,4.32-5.48-.2-10.26-4.31-10.04-10.63.21-5.82,4.47-10.52,11.13-10.28,3.91.14,6.16,2.16,6.06,4.97l-.07,2.06h-.15Z"/>
          <path class="cls-2" d="M154.2,88.78c-1.24-.06-2.49-1.2-2.39-3.23l.88-16.88,3.07.16c1.07.06,2.38,1.08,2.3,2.7l-.91,17.41-2.96-.15Z"/>
          <path class="cls-2" d="M178.41,76.63c-.92-1.37-3.36-2.29-5.56-2.45-3.24-.22-5.76,1.75-5.98,4.99-.28,4.08,2.07,6.19,5.31,6.41,2.14.15,4.57-.5,5.62-1.47h.15s-.14,2.06-.14,2.06c-.18,2.58-2.89,4.36-6.79,4.09-5.47-.38-10.11-4.65-9.68-10.96.4-5.82,4.81-10.37,11.47-9.91,3.91.27,6.09,2.37,5.89,5.17l-.14,2.05h-.14ZM172.22,64.72c.99-.89,2.19-1.42,3.49-1.33,1.19.08,1.8.88,1.73,1.83-.08,1.19-1.02,2.14-1.94,2.45-1.07.36-2.59.46-4.38.34l-1.33-.09v-.14c.58-1.15,1.5-2.22,2.43-3.06Z"/>
        </g>
        <g>
          <path class="cls-2" d="M5.34,50.12C.19,39.81-.93,27.73.68,26c1.61-1.73,9.77-1.69,26.58,5.13-8.04-1.3-18.42-1.14-20.09.58-1.67,1.73-2.83,7.76-1.82,18.42"/>
          <path class="cls-2" d="M184.81,30.39c10.31-5.16,22.39-6.27,24.13-4.66,1.73,1.61,1.69,9.77-5.13,26.58,1.3-8.04,1.14-18.42-.58-20.09-1.73-1.67-7.76-2.83-18.42-1.82"/>
        </g>
      </g>
      <g>
        <path class="cls-2" d="M37.46,9.59h-4.56c-.38,0-1.07-.4-1.07-1.12,0-.61.19-1.1,1.26-2.27l1.93-2.12c.32-.35.49-.64.6-.83h-3.77v-.68c0-.78.49-1.26,1.49-1.26h3.78c.83,0,1.39.44,1.39,1.14,0,.64-.13,1.13-.84,1.93l-1.92,2.19c-.4.44-.71.77-.94,1.1h3.84v.82c0,.61-.52,1.09-1.2,1.09Z"/>
        <path class="cls-2" d="M46.37,9.59c-1.01,0-1.32-.34-1.32-1.34v-2.31c0-.89-.3-1.28-1.07-1.28-.66,0-1.02.44-1.02,1.25v3.69h-.77c-.97,0-1.51-.38-1.51-1.34v-2.31c0-1.89,1.26-3.13,3.36-3.13,2.34,0,3.29,1.24,3.29,3.19v3.6h-.96Z"/>
        <path class="cls-2" d="M52.21,9.77c-1.27,0-2.82-.6-2.82-2.1s1.06-2.21,3.45-2.21h.32v-.28c0-.54-.42-.67-1.32-.67-1.24,0-1.69.29-2.16.72h-.06v-.8c0-.82.85-1.63,2.73-1.63s3.01.92,3.01,2.87v1.02c0,2.4-.77,3.08-3.17,3.08ZM53.22,6.88h-.46c-.86,0-1.21.22-1.21.66,0,.42.26.63.9.63.41,0,.77-.2.77-.8v-.49Z"/>
        <path class="cls-2" d="M57.33,11.85c-.65,0-1.16-.35-1.16-.9v-.67h.25c.94-.06,1.4-.31,1.4-1.42V3.2h.67c1.14,0,1.57.65,1.57,1.52v4.23c0,1.73-.9,2.89-2.73,2.89ZM58.9,2.63c-.66,0-1.2-.5-1.2-1.13s.54-1.13,1.2-1.13,1.2.5,1.2,1.13-.54,1.13-1.2,1.13Z"/>
        <path class="cls-2" d="M65.67,9.79c-1.94,0-3.44-1.59-3.44-3.38,0-2.22,1.37-3.6,3.12-3.6.84,0,1.46.37,1.7.89V.72h.82c.91,0,1.4.48,1.4,1.59v3.83c0,2.39-.97,3.65-3.6,3.65ZM65.62,4.57c-.61,0-1.13.64-1.13,1.64,0,1.3.6,1.82,1.43,1.82.71,0,1.08-.55,1.08-1.58,0-1.47-.56-1.88-1.38-1.88Z"/>
        <path class="cls-2" d="M76.08,9.59h-3.53c-.68,0-1.33-.29-1.33-1.12,0-.4.24-.89.8-1.44l1.97-1.92c.1-.1.28-.32.32-.43h-3.11v-.64c0-.71.66-1.06,1.21-1.06h3.33c.78,0,1.32.47,1.32,1.21,0,.47-.42,1.07-.98,1.62l-1.63,1.58c-.08.08-.24.29-.31.44h3.03v.82c0,.48-.48.92-1.1.92ZM73.76.65c.38-.4.86-.65,1.4-.65.49,0,.77.31.77.71,0,.49-.36.91-.73,1.07-.43.18-1.05.26-1.8.26h-.55v-.06c.2-.49.55-.96.91-1.33Z"/>
        <path class="cls-2" d="M86.76,9.79c-.89,0-1.4-.41-1.69-.9v2.75h-.83c-.91,0-1.39-.48-1.39-1.6v-3.49c0-2.36,1.31-3.74,3.65-3.74,1.93,0,3.38,1.31,3.38,3.35,0,2.25-1.32,3.63-3.12,3.63ZM86.23,4.54c-.62,0-1.13.6-1.13,1.57,0,1.4.6,1.89,1.38,1.89.72,0,1.12-.63,1.12-1.62,0-1.42-.43-1.85-1.37-1.85Z"/>
        <path class="cls-2" d="M95.04,7.11h-.98c.13.66.67.97,1.62.97,1.05,0,1.71-.17,2.09-.42h.08v.53c0,.84-.68,1.59-2.57,1.59-2.28,0-3.48-1.54-3.48-3.36,0-2,1.35-3.63,3.39-3.63,1.73,0,3.07.97,3.07,2.65,0,1.32-1,1.67-3.23,1.67ZM95.2,4.5c-.8,0-1.14.52-1.2,1.15h.89c1.08,0,1.27-.17,1.27-.46,0-.33-.3-.7-.96-.7Z"/>
        <path class="cls-2" d="M104.34,4.7c-.29-.11-.5-.13-.8-.13-.55,0-.98.28-.98,1.08v3.95h-.62c-.98,0-1.58-.46-1.58-1.56v-2.87c0-1.33.9-2.39,2.4-2.39,1.14,0,1.67.47,1.67,1.08v.84h-.07Z"/>
        <path class="cls-2" d="M110.05,4.7c-.29-.11-.5-.13-.8-.13-.55,0-.98.28-.98,1.08v3.95h-.62c-.98,0-1.58-.46-1.58-1.56v-2.87c0-1.33.9-2.39,2.4-2.39,1.14,0,1.67.47,1.67,1.08v.84h-.07Z"/>
        <path class="cls-2" d="M115.76,4.7c-.29-.11-.5-.13-.8-.13-.55,0-.98.28-.98,1.08v3.95h-.62c-.98,0-1.58-.46-1.58-1.56v-2.87c0-1.33.9-2.39,2.4-2.39,1.14,0,1.67.47,1.67,1.08v.84h-.07Z"/>
        <path class="cls-2" d="M121.63,2.37c-.25-.13-.72-.18-1.02-.18-.54,0-.91.31-.91.71v.78h1.51v.83c0,.44-.41.73-.98.73h-.53v4.35h-.7c-1.08,0-1.52-.42-1.52-1.42V3.63c0-2.38,1.43-3.03,2.67-3.03,1.12,0,1.54.56,1.54,1.25v.53h-.06Z"/>
        <path class="cls-2" d="M126.01,7.11h-.98c.13.66.67.97,1.62.97,1.06,0,1.72-.17,2.09-.42h.08v.53c0,.84-.68,1.59-2.57,1.59-2.28,0-3.48-1.54-3.48-3.36,0-2,1.36-3.63,3.39-3.63,1.73,0,3.07.97,3.07,2.65,0,1.32-1,1.67-3.23,1.67ZM126.17,4.5c-.8,0-1.14.52-1.2,1.15h.89c1.08,0,1.27-.17,1.27-.46,0-.33-.3-.7-.96-.7Z"/>
        <path class="cls-2" d="M133.63,2.05v3.75c.54-.8,1.09-1.67,1.74-2.36.29-.31.52-.44,1.21-.44h1.6v.06c-.41.42-1.86,2.11-2.46,2.97.38.58.78,1.21,1.23,1.74.49.56.68.62,1.19.74-.08.73-.58,1.14-1.39,1.14-.34,0-.9-.13-1.18-.46-.74-.86-1.32-1.8-1.94-2.75v3.14h-.9c-.84,0-1.38-.55-1.38-1.34V.72h.88c1.03,0,1.4.67,1.4,1.33Z"/>
        <path class="cls-2" d="M144.88,5.16c-.2-.22-.83-.46-1.46-.46-1.12,0-1.74.56-1.74,1.49,0,1.13.62,1.66,1.63,1.66.71,0,1.2-.14,1.6-.37h.02v.68c0,.88-.9,1.58-2.1,1.58-2,0-3.43-1.36-3.43-3.42,0-1.88,1.31-3.5,3.63-3.5,1.04,0,1.91.68,1.91,1.54v.8h-.06Z"/>
        <path class="cls-2" d="M151.66,7.86c-1.85,3.55-2.31,3.91-3.69,3.91-.73,0-1.34-.4-1.34-1.14v-.55l.98-.07c.6-.05.88-.29,1.12-.83-.95-1.42-2.16-4.41-2.42-6.18h1.19c.56,0,1.15.35,1.28.94.23,1.04.68,2.31,1.03,3.12.49-1,1.01-2.77,1.15-4.05h1.09c.66,0,.97.31.97.84,0,.7-.62,2.61-1.36,4.02Z"/>
        <path class="cls-2" d="M154.6,11.85c-.65,0-1.16-.35-1.16-.9v-.67h.25c.94-.06,1.4-.31,1.4-1.42V3.2h.67c1.14,0,1.57.65,1.57,1.52v4.23c0,1.73-.9,2.89-2.73,2.89ZM156.17,2.63c-.66,0-1.2-.5-1.2-1.13s.54-1.13,1.2-1.13,1.2.5,1.2,1.13-.54,1.13-1.2,1.13Z"/>
        <path class="cls-2" d="M165.32,9.59c-1.01,0-1.32-.34-1.32-1.34v-2.31c0-.89-.3-1.28-1.07-1.28-.66,0-1.02.44-1.02,1.25v3.69h-.77c-.97,0-1.51-.38-1.51-1.34v-2.31c0-1.89,1.26-3.13,3.36-3.13,2.34,0,3.29,1.24,3.29,3.19v3.6h-.96Z"/>
        <path class="cls-2" d="M171.59,7.11h-.98c.13.66.67.97,1.62.97,1.05,0,1.71-.17,2.09-.42h.08v.53c0,.84-.68,1.59-2.57,1.59-2.28,0-3.48-1.54-3.48-3.36,0-2,1.35-3.63,3.39-3.63,1.73,0,3.07.97,3.07,2.65,0,1.32-1,1.67-3.23,1.67ZM171.74,4.5c-.8,0-1.14.52-1.2,1.15h.89c1.08,0,1.27-.17,1.27-.46,0-.33-.3-.7-.96-.7Z"/>
        <path class="cls-2" d="M84.19,24.02c-1.21,0-1.49-.52-1.49-1.33v-2.43c0-.85-.29-1.16-.95-1.16s-.85.47-.85,1.13v3.8h-.79c-.92,0-1.42-.3-1.42-1.33v-2.5c0-.78-.3-1.1-.9-1.1-.64,0-.89.32-.89,1.14v3.79h-.79c-1.02,0-1.49-.49-1.49-1.33v-2.32c0-1.92,1.1-3.14,3.2-3.14,1.03,0,1.81.64,2.03,1.17.31-.5,1.12-1.17,2.06-1.17,1.92,0,3.06,1.14,3.06,3.2v3.59h-.79Z"/>
        <path class="cls-2" d="M88.45,17.05c-.66,0-1.2-.5-1.2-1.13s.54-1.13,1.2-1.13,1.19.5,1.19,1.13-.53,1.13-1.19,1.13ZM89.53,24.12c-1.21,0-2.16-.6-2.16-2.16v-4.33h.56c1.29,0,1.71.37,1.71,1.57v2.42c0,.59.28.77.91.77h.28v.67c0,.79-.6,1.05-1.31,1.05Z"/>
        <path class="cls-2" d="M95.64,21.54h-.98c.13.66.67.97,1.62.97,1.06,0,1.72-.17,2.09-.42h.08v.53c0,.84-.68,1.59-2.57,1.59-2.28,0-3.48-1.54-3.48-3.36,0-2,1.36-3.63,3.39-3.63,1.73,0,3.07.97,3.07,2.65,0,1.32-1,1.67-3.23,1.67ZM95.8,18.92c-.8,0-1.14.52-1.2,1.15h.89c1.08,0,1.27-.17,1.27-.46,0-.34-.3-.7-.96-.7Z"/>
        <path class="cls-2" d="M100.71,26.28c-.65,0-1.16-.35-1.16-.9v-.67h.25c.94-.06,1.4-.31,1.4-1.42v-5.66h.67c1.14,0,1.57.65,1.57,1.52v4.23c0,1.73-.9,2.89-2.73,2.89ZM102.28,17.05c-.66,0-1.2-.5-1.2-1.13s.54-1.13,1.2-1.13,1.2.5,1.2,1.13-.54,1.13-1.2,1.13Z"/>
        <path class="cls-2" d="M108.2,24.21c-1.8,0-2.45-.66-2.45-1.62v-.66h.06c.43.32,1.09.58,2.03.58.83,0,1.09-.19,1.09-.52,0-.3-.16-.42-1.52-.61-1.19-.17-1.81-.71-1.81-1.76,0-1.58,1.5-2.39,3.01-2.39s2.35.59,2.35,1.57v.68h-.06c-.44-.32-1.14-.55-2.03-.55s-1.13.23-1.13.5c0,.25.14.34,1.52.56,1.1.18,1.85.78,1.85,1.89,0,1.42-1.1,2.31-2.91,2.31Z"/>
        <path class="cls-2" d="M118.52,19.58c-.21-.22-.83-.46-1.46-.46-1.12,0-1.74.56-1.74,1.49,0,1.13.62,1.66,1.63,1.66.71,0,1.2-.14,1.6-.37h.02v.68c0,.88-.9,1.58-2.1,1.58-2,0-3.43-1.36-3.43-3.42,0-1.88,1.31-3.5,3.63-3.5,1.04,0,1.91.68,1.91,1.54v.8h-.06Z"/>
        <path class="cls-2" d="M123.56,21.54h-.98c.13.66.67.97,1.62.97,1.06,0,1.71-.17,2.09-.42h.08v.53c0,.84-.68,1.59-2.57,1.59-2.28,0-3.48-1.54-3.48-3.36,0-2,1.36-3.63,3.39-3.63,1.73,0,3.07.97,3.07,2.65,0,1.32-1,1.67-3.23,1.67ZM123.72,18.92c-.8,0-1.14.52-1.2,1.15h.89c1.08,0,1.27-.17,1.27-.46,0-.34-.3-.7-.96-.7Z"/>
        <path class="cls-2" d="M130.24,17.42c.71,0,1.28.58,1.28,1.28s-.58,1.28-1.28,1.28-1.28-.58-1.28-1.28.58-1.28,1.28-1.28ZM130.24,21.45c.71,0,1.28.58,1.28,1.28s-.58,1.28-1.28,1.28-1.28-.58-1.28-1.28.58-1.28,1.28-1.28Z"/>
      </g>
    </g>
  </g>
</svg>