<?xml version="1.0" encoding="UTF-8"?>
<svg id="Layer_2" data-name="Layer 2" xmlns="http://www.w3.org/2000/svg" xmlns:xlink="http://www.w3.org/1999/xlink" viewBox="0 0 189.72 38.38">
  <defs>
    <style>
      .cls-1 {
        filter: url(#drop-shadow-1);
      }

      .cls-2 {
        fill: #fff;
        stroke-width: 0px;
      }
    </style>
    <filter id="drop-shadow-1" filterUnits="userSpaceOnUse">
      <feOffset dx="-2.83" dy="2.83"/>
      <feGaussianBlur result="blur" stdDeviation="1.7"/>
      <feFlood flood-color="#264078" flood-opacity=".55"/>
      <feComposite in2="blur" operator="in"/>
      <feComposite in="SourceGraphic"/>
    </filter>
  </defs>
  <g id="logo">
    <g class="cls-1">
      <g>
        <g>
          <path class="cls-2" d="M22.32,38.31c-3.33.26-5.23-.87-5.4-3.04l-.12-1.49h.11c1.02.88,3.04,1.3,4.77,1.16,1.93-.15,2.51-.66,2.43-1.67-.07-.92-.93-1.16-3.27-1.44-3.34-.4-4.71-1.5-4.89-3.81-.21-2.7,2.05-5.3,5.89-5.6,3.73-.29,5.29,1.28,5.41,2.84l.12,1.6h-.11c-1.09-.92-2.94-1.22-4.52-1.09-2.06.16-2.72.77-2.65,1.62.05.68.37,1.03,3.22,1.38,3.16.39,4.75,1.55,4.94,3.89.25,3.14-1.9,5.33-5.93,5.65Z"/>
          <path class="cls-2" d="M46.59,36.54l-1.14.06c-.48.03-1.28-.08-1.93-1.04-1.01-1.46-2.16-3.91-2.94-6.33-.44,2.34-1.65,5.87-2.82,7.8l-1.14.07c-.46.03-1.33-.08-1.98-1.03-2.69-3.94-4.53-8.44-5.59-13.91l2.41-.14c1.23-.07,2.19.56,2.51,1.88.47,2.07,1.14,4.17,2.34,6.72.93-2.65,1.72-6.11,2.01-8.46l1.45-.08c1.47-.08,2.61.49,3.08,2.18.56,2.02,1.12,3.5,2.29,5.86.9-2.72,1.58-5.6,1.87-8.98l2.11-.12c1.08-.06,1.91.62,1.97,1.76.01.22,0,.44-.03.68-.61,3.67-2.47,9.55-4.48,13.08Z"/>
          <path class="cls-2" d="M60.49,36.13c-4.13.15-7.41-2.73-7.57-7.48-.17-4.9,2.59-8.24,7.47-8.41,3.72-.13,7.38,2.51,7.55,7.46.18,5.04-2.53,8.26-7.45,8.43ZM60.1,23.64c-2.07.07-3.1,1.89-3.01,4.44.11,3.21,1.4,4.71,3.69,4.62,1.89-.07,3.11-1.7,3.01-4.49-.12-3.32-1.35-4.66-3.68-4.58Z"/>
          <path class="cls-2" d="M72.98,35.42c-.95.02-1.95-.77-1.99-2.31l-.28-12.82,2.33-.05c.81-.02,1.86.68,1.89,1.92l.29,13.21-2.24.05Z"/>
          <path class="cls-2" d="M95.85,35.14c-1.45,0-2.51-.78-2.52-2.36,0-1.36-.17-5.26-.43-7.5l-2.05,6.39c-.3.93-.93,2.56-1.49,3.51h-1.17c-1.43.02-2.56-1.05-3.53-4.13l-.79-2.52c-.38-1.25-.85-2.59-1.1-3.23-.25,2.6-.41,7.42-.39,9.93h-1.56c-1.28.02-2.45-.85-2.46-2.35-.03-4.36.53-9.62,1.23-12.81h1.45c2.42-.03,3.66,1.11,4.22,2.45l1.21,2.94c.52,1.27,1.17,3.01,1.5,4.28.32-1.12.78-2.47,1.23-3.57l1.43-3.49c.54-1.3,1.26-2.23,1.81-2.7h.77c2.2-.02,3.26,1.18,3.57,3.36.42,2.97.82,7.63.85,11.79h-1.78Z"/>
          <path class="cls-2" d="M110.65,22.5l-.08,4.03c2.19-2.97,2.84-3.8,4.37-5.31.87-.86,1.43-.99,2.68-.96l3.06.06v.11c-1.95,1.79-4.56,4.78-6.14,6.8,1.01,1.47,1.99,3.03,3.2,4.35,1.08,1.19,1.47,1.52,2.56,1.79-.5,1.73-1.19,2.27-2.57,2.24-.84-.02-1.99-.46-2.62-1.17-1.77-2.01-3.01-3.89-4.57-6.34l-.14,7.22-1.67-.03c-1.8-.03-2.48-1.28-2.46-2.45l.24-12.78,1.47.03c1.8.03,2.68,1.24,2.66,2.43Z"/>
          <path class="cls-2" d="M128.51,36.13c-4.13-.15-7.19-3.25-7.02-8,.18-4.9,3.17-8.03,8.06-7.86,3.72.13,7.18,3.03,7,7.98-.18,5.04-3.11,8.06-8.03,7.88ZM129.01,23.64c-2.07-.08-3.23,1.67-3.32,4.22-.12,3.21,1.06,4.79,3.35,4.88,1.89.07,3.22-1.47,3.32-4.26.12-3.32-1.02-4.75-3.35-4.83Z"/>
          <path class="cls-2" d="M151.62,26.49c-.72-1.03-2.58-1.7-4.25-1.79-2.46-.13-4.35,1.4-4.48,3.86-.17,3.1,1.64,4.67,4.11,4.8,1.63.09,3.46-.43,4.25-1.18h.11s-.08,1.57-.08,1.57c-.1,1.96-2.14,3.35-5.11,3.19-4.15-.22-7.73-3.41-7.47-8.2.24-4.42,3.53-7.92,8.58-7.65,2.97.16,4.65,1.72,4.53,3.86l-.08,1.56h-.11Z"/>
          <path class="cls-2" d="M155.91,37.16c-.95-.06-1.88-.94-1.78-2.48l.84-12.8,2.33.15c.81.05,1.8.85,1.72,2.08l-.87,13.2-2.24-.15Z"/>
          <path class="cls-2" d="M169.22,38.35l-1.71-.14c-3.97-.31-6-2.51-5.67-6.69l.2-2.54c.11-1.38.32-2.91.59-4.06.44-1.91,1.65-2.38,3.12-2.27l8.24.65-.08.99c-.12,1.45-.96,2.35-2.71,2.21l-4.61-.37c-.15.74-.3,1.83-.36,2.55l5.85.46-.12,1.51c-.09,1.1-.95,1.65-2.42,1.53l-3.57-.28-.04.55c-.13,1.62.35,2.23,2.46,2.4l1.1.09c1.25.1,2.31.07,3.56-.14l-.13,1.6c-.11,1.38-1.03,2.15-3.71,1.94Z"/>
        </g>
        <g>
          <path class="cls-2" d="M5.34,28.13C.19,17.82-.93,5.74.68,4.01s9.77-1.69,26.58,5.13c-8.04-1.3-18.42-1.14-20.09.58-1.67,1.73-2.83,7.76-1.82,18.42"/>
          <path class="cls-2" d="M164.64,8.85c10.31-5.16,22.39-6.27,24.13-4.66,1.73,1.61,1.69,9.77-5.13,26.58,1.3-8.04,1.14-18.42-.58-20.09-1.73-1.67-7.76-2.83-18.42-1.82"/>
        </g>
      </g>
      <g>
        <path class="cls-2" d="M44.77,9.41c-2.25,0-3.98-1.63-3.98-4.22s1.57-4.44,4.23-4.44c2.03,0,3.97,1.51,3.97,4.21s-1.54,4.45-4.22,4.45ZM44.79,2.6c-1.13,0-1.73.97-1.73,2.36,0,1.75.67,2.59,1.92,2.59,1.03,0,1.73-.86,1.73-2.39,0-1.81-.65-2.57-1.92-2.57Z"/>
        <path class="cls-2" d="M54.97,9.41c-.89,0-1.4-.41-1.69-.9v2.75h-.83c-.91,0-1.39-.48-1.39-1.6v-3.49c0-2.36,1.31-3.74,3.65-3.74,1.93,0,3.38,1.31,3.38,3.35,0,2.25-1.32,3.63-3.12,3.63ZM54.44,4.17c-.62,0-1.13.6-1.13,1.57,0,1.4.6,1.89,1.38,1.89.72,0,1.12-.63,1.12-1.62,0-1.42-.43-1.85-1.37-1.85Z"/>
        <path class="cls-2" d="M63.6,2.45c1.8,0,3.42,1.37,3.42,3.41,0,2.16-1.31,3.55-3.59,3.55-1.88,0-3.42-1.39-3.42-3.33,0-2.18,1.51-3.62,3.59-3.62ZM63.45,4.25c-.62,0-1.19.66-1.19,1.56,0,1.27.5,1.82,1.31,1.82.72,0,1.19-.66,1.19-1.57,0-1.19-.52-1.81-1.31-1.81Z"/>
        <path class="cls-2" d="M78.59,4.95c-.4,1.28-1.24,3.37-1.98,4.37h-.64c-.56,0-.85-.19-1.02-.46-.41-.62-.9-1.86-1.18-2.71-.26.97-.91,2.46-1.47,3.17h-.56c-.53,0-.81-.08-1.05-.46-.91-1.4-1.86-3.97-2.17-6.24h1.21c.75,0,1.16.52,1.23.94.17.91.43,1.83.83,2.81.48-1.12.84-2.29,1.1-3.47h.89c.58,0,1.14.47,1.26.98.13.61.52,1.72.86,2.48.36-.83.77-2.28.98-3.74h1.07c.71,0,1,.44,1,.83,0,.29-.22,1.04-.36,1.5Z"/>
        <path class="cls-2" d="M81.92,2.25c-.66,0-1.2-.5-1.2-1.13s.54-1.13,1.2-1.13,1.19.5,1.19,1.13-.53,1.13-1.19,1.13ZM83,9.32c-1.21,0-2.16-.6-2.16-2.16V2.83h.56c1.3,0,1.72.37,1.72,1.57v2.42c0,.59.28.77.91.77h.28v.67c0,.79-.6,1.06-1.31,1.06Z"/>
        <path class="cls-2" d="M89.11,6.74h-.98c.13.66.67.97,1.62.97,1.05,0,1.71-.17,2.09-.42h.08v.53c0,.84-.68,1.59-2.57,1.59-2.28,0-3.48-1.54-3.48-3.36,0-2,1.35-3.63,3.39-3.63,1.73,0,3.07.97,3.07,2.65,0,1.32-1,1.67-3.23,1.67ZM89.26,4.12c-.8,0-1.14.52-1.2,1.15h.89c1.08,0,1.27-.17,1.27-.46,0-.33-.3-.7-.96-.7Z"/>
        <path class="cls-2" d="M97.65,9.41c-1.94,0-3.44-1.59-3.44-3.38,0-2.22,1.37-3.6,3.12-3.6.84,0,1.46.37,1.7.89V.35h.82c.91,0,1.4.48,1.4,1.59v3.83c0,2.39-.97,3.65-3.6,3.65ZM97.6,4.2c-.61,0-1.13.64-1.13,1.64,0,1.3.6,1.82,1.43,1.82.71,0,1.08-.55,1.08-1.58,0-1.47-.56-1.88-1.38-1.88Z"/>
        <path class="cls-2" d="M108.07,9.22h-3.53c-.68,0-1.33-.29-1.33-1.12,0-.4.24-.89.8-1.44l1.97-1.92c.1-.1.28-.32.32-.43h-3.11v-.64c0-.71.66-1.06,1.21-1.06h3.33c.78,0,1.32.47,1.32,1.21,0,.47-.42,1.07-.98,1.62l-1.63,1.58c-.08.08-.24.29-.31.44h3.03v.82c0,.48-.48.92-1.1.92Z"/>
        <path class="cls-2" d="M120.52,9.22c-1.01,0-1.32-.34-1.32-1.34v-2.31c0-.89-.3-1.28-1.07-1.28-.66,0-1.02.44-1.02,1.25v3.69h-.77c-.97,0-1.51-.38-1.51-1.34v-2.31c0-1.89,1.26-3.13,3.36-3.13,2.34,0,3.29,1.24,3.29,3.19v3.6h-.96Z"/>
        <path class="cls-2" d="M126.37,9.4c-1.27,0-2.82-.6-2.82-2.1s1.06-2.21,3.45-2.21h.32v-.28c0-.54-.42-.67-1.32-.67-1.23,0-1.69.29-2.16.72h-.06v-.8c0-.82.85-1.63,2.73-1.63s3.01.92,3.01,2.87v1.02c0,2.4-.77,3.08-3.17,3.08ZM127.38,6.51h-.46c-.86,0-1.21.22-1.21.66,0,.42.26.63.9.63.41,0,.77-.2.77-.8v-.49Z"/>
        <path class="cls-2" d="M141.22,9.22c-1.21,0-1.49-.52-1.49-1.33v-2.43c0-.85-.29-1.16-.95-1.16s-.85.47-.85,1.13v3.8h-.79c-.92,0-1.42-.3-1.42-1.33v-2.49c0-.78-.3-1.1-.9-1.1-.64,0-.89.32-.89,1.14v3.79h-.79c-1.02,0-1.49-.49-1.49-1.33v-2.31c0-1.92,1.1-3.14,3.2-3.14,1.03,0,1.81.64,2.03,1.18.31-.5,1.12-1.18,2.06-1.18,1.92,0,3.06,1.14,3.06,3.2v3.59h-.79Z"/>
        <path class="cls-2" d="M151.39,2.45c1.8,0,3.42,1.37,3.42,3.41,0,2.16-1.31,3.55-3.59,3.55-1.88,0-3.42-1.39-3.42-3.33,0-2.18,1.51-3.62,3.59-3.62ZM151.25,4.25c-.62,0-1.19.66-1.19,1.56,0,1.27.5,1.82,1.31,1.82.72,0,1.19-.66,1.19-1.57,0-1.19-.52-1.81-1.31-1.81Z"/>
      </g>
    </g>
  </g>
</svg>