<?xml version="1.0" encoding="UTF-8"?>
<svg id="Layer_2" data-name="Layer 2" xmlns="http://www.w3.org/2000/svg" xmlns:xlink="http://www.w3.org/1999/xlink" viewBox="0 0 189.72 45.22">
  <defs>
    <style>
      .cls-1 {
        filter: url(#drop-shadow-1);
      }

      .cls-2 {
        fill: #fff;
        stroke-width: 0px;
      }
    </style>
    <filter id="drop-shadow-1" filterUnits="userSpaceOnUse">
      <feOffset dx="-2.83" dy="2.83"/>
      <feGaussianBlur result="blur" stdDeviation="1.7"/>
      <feFlood flood-color="#264078" flood-opacity=".55"/>
      <feComposite in2="blur" operator="in"/>
      <feComposite in="SourceGraphic"/>
    </filter>
  </defs>
  <g id="logo">
    <g class="cls-1">
      <g>
        <g>
          <path class="cls-2" d="M24.55,45.17c-4.85.37-7.61-1.28-7.85-4.44l-.17-2.17h.16c1.48,1.29,4.41,1.9,6.93,1.71,2.81-.21,3.65-.95,3.54-2.42-.1-1.34-1.35-1.7-4.75-2.11-4.86-.59-6.84-2.21-7.1-5.56-.3-3.92,3.01-7.71,8.59-8.13,5.42-.41,7.69,1.89,7.86,4.15l.18,2.33h-.16c-1.58-1.34-4.28-1.78-6.57-1.61-3,.23-3.96,1.1-3.87,2.35.08.99.53,1.5,4.68,2.02,4.6.58,6.91,2.27,7.17,5.68.35,4.56-2.78,7.75-8.65,8.2Z"/>
          <path class="cls-2" d="M48.73,43.43l-2.49.13c-5.78.3-9.13-2.47-9.45-8.57l-.19-3.71c-.11-2.01-.1-4.26.07-5.96.27-2.83,1.92-3.75,4.06-3.87l12.01-.63.08,1.44c.11,2.11-.93,3.57-3.49,3.71l-6.71.35c-.07,1.09-.08,2.7-.03,3.75l8.53-.45.12,2.21c.08,1.6-1.05,2.55-3.19,2.67l-5.21.27.04.8c.12,2.37.93,3.16,4,2.99l1.6-.08c1.82-.1,3.35-.34,5.11-.88l.12,2.33c.11,2.01-1.08,3.29-4.97,3.5Z"/>
          <path class="cls-2" d="M67,42.96c-5.66.16-9.77-3.53-9.94-9.48l-.37-12.82,2.59-.07c1.95-.06,3.52,1.05,3.61,4.09l.24,8.44c.11,3.74,1.45,4.92,4.3,4.84,2.4-.07,3.54-1.61,3.45-4.9l-.37-12.79,2.59-.07c2.27-.07,3.52,1.05,3.6,3.96l.25,8.57c.16,5.57-3.14,10.04-9.95,10.24Z"/>
          <path class="cls-2" d="M100.38,42.58c-6.24-.03-11.47-4.5-11.44-11.34.03-6.56,4.79-11.79,12.56-11.75,4.35.02,6.55,2.27,6.54,4.73v2.21s-.17,0-.17,0c-1.15-1.06-3.16-1.96-6.55-1.98-3.29-.01-6.28,2.15-6.3,6.31-.02,4.77,2.6,6.86,5.89,6.87,1.76,0,1.89-.57,1.89-1.37v-2.46c.01-.93-.17-2.37-.39-3.04h3.1c1.95.02,2.97,1.31,2.96,2.97v2.94c-.03,3.65-2.31,5.94-8.1,5.92Z"/>
          <path class="cls-2" d="M129.19,42.63c-2.21-.06-3.34-.73-3.67-2.73-.14-.8-.31-1.67-.54-2.61l-7.61-.21c-.52,1.59-.97,3.81-1.26,5.18l-2.46-.07c-1.95-.05-2.78-1.17-2.74-2.8.09-3.2,4.61-15.24,8.56-19.13l2.37.07c2.14.06,3.52,1.19,4.22,2.42,2.01,3.58,5.1,12.4,5.88,19.94l-2.75-.08ZM121.56,25.84c-1.01,1.8-2.04,4.36-2.74,6.52l5.05.14c-.58-2.19-1.47-4.87-2.31-6.66Z"/>
          <path class="cls-2" d="M147.66,26.48l-3.13-.15-.83,16.97-2.65-.13c-1.82-.09-3.38-1-3.27-3.33l.67-13.81-6.3-.31.1-2.11c.07-1.34,1.33-2.88,3.56-2.77l15.47.75-.1,2.11c-.07,1.38-1.68,2.87-3.53,2.78Z"/>
          <path class="cls-2" d="M161.95,44.96c-6-.44-10.27-5.12-9.77-12.01.52-7.12,5.05-11.5,12.13-10.98,5.39.4,10.27,4.8,9.74,11.98-.54,7.31-4.96,11.54-12.1,11.01ZM163.35,26.84c-3-.22-4.78,2.25-5.06,5.95-.34,4.66,1.28,7.02,4.6,7.27,2.74.2,4.76-1.96,5.06-6.01.35-4.82-1.22-6.95-4.6-7.2Z"/>
        </g>
        <g>
          <path class="cls-2" d="M5.34,28.92C.19,18.6-.93,6.52.68,4.79s9.77-1.69,26.58,5.13c-8.04-1.3-18.42-1.14-20.09.58-1.67,1.73-2.83,7.76-1.82,18.42"/>
          <path class="cls-2" d="M164.64,9.63c10.31-5.16,22.39-6.27,24.13-4.66,1.73,1.61,1.69,9.77-5.13,26.58,1.3-8.04,1.14-18.42-.58-20.09-1.73-1.67-7.76-2.83-18.42-1.82"/>
        </g>
      </g>
      <g>
        <path class="cls-2" d="M53.02,2.79h-2.49v1.74h3.29v.8c0,.7-.5,1.16-1.11,1.16h-2.12v3.51h-1.24c-.81,0-1.37-.41-1.37-1.27V2.37c0-1.15.64-1.69,1.88-1.69h4.51v.91c0,.54-.45,1.2-1.35,1.2Z"/>
        <path class="cls-2" d="M59.11,10.21c-1.43,0-3.18-.68-3.18-2.37s1.19-2.49,3.89-2.49h.36v-.31c0-.61-.47-.76-1.49-.76-1.39,0-1.91.33-2.43.81h-.07v-.91c0-.92.96-1.84,3.08-1.84s3.39,1.04,3.39,3.23v1.15c0,2.7-.87,3.47-3.57,3.47ZM60.25,6.95h-.51c-.97,0-1.37.24-1.37.74,0,.47.3.72,1.01.72.46,0,.87-.23.87-.91v-.55Z"/>
        <path class="cls-2" d="M67.69,10.11c-1.37,0-2.54-.81-2.54-2.57V0h.91c1.12,0,1.66.51,1.66,1.77v5.39c0,.66.36.87,1.08.87h.57v.89c0,.91-.87,1.19-1.68,1.19Z"/>
        <path class="cls-2" d="M74.68,7.21h-1.11c.15.74.76,1.09,1.83,1.09,1.19,0,1.93-.19,2.35-.47h.09v.6c0,.95-.77,1.8-2.89,1.8-2.57,0-3.92-1.73-3.92-3.79,0-2.26,1.53-4.1,3.83-4.1,1.95,0,3.46,1.09,3.46,2.99,0,1.49-1.12,1.88-3.64,1.88ZM74.85,4.26c-.91,0-1.28.58-1.35,1.3h1c1.22,0,1.43-.19,1.43-.51,0-.38-.34-.78-1.08-.78Z"/>
        <path class="cls-2" d="M84.55,5.75c0,.51-.39.97-.95.97h-3.25v-.69c0-.66.34-1.01,1.08-1.01h3.11v.73Z"/>
        <path class="cls-2" d="M93.26,10c-1.13,0-1.49-.38-1.49-1.51v-2.61c0-1-.34-1.45-1.2-1.45-.74,0-1.15.5-1.15,1.41v4.16h-.87c-1.09,0-1.7-.43-1.7-1.51v-2.61c0-2.14,1.42-3.53,3.79-3.53,2.64,0,3.71,1.39,3.71,3.6v4.06h-1.08Z"/>
        <path class="cls-2" d="M100.71,2.37c2.03,0,3.85,1.54,3.85,3.84,0,2.43-1.47,4-4.04,4-2.12,0-3.85-1.57-3.85-3.76,0-2.46,1.7-4.08,4.04-4.08ZM100.55,4.39c-.7,0-1.34.74-1.34,1.76,0,1.43.57,2.05,1.47,2.05.81,0,1.34-.74,1.34-1.77,0-1.34-.58-2.04-1.47-2.04Z"/>
        <path class="cls-2" d="M109.67,10.22c-2.03,0-2.76-.74-2.76-1.83v-.74h.07c.49.37,1.23.65,2.28.65.93,0,1.23-.22,1.23-.58,0-.34-.18-.47-1.72-.69-1.34-.19-2.04-.8-2.04-1.99,0-1.78,1.69-2.69,3.39-2.69s2.65.66,2.65,1.77v.77h-.07c-.5-.37-1.28-.62-2.28-.62s-1.27.26-1.27.57c0,.28.16.38,1.72.64,1.24.2,2.08.88,2.08,2.14,0,1.59-1.24,2.61-3.29,2.61Z"/>
        <path class="cls-2" d="M123.19,10.22c-2.19,0-3.88-1.8-3.88-3.81,0-2.5,1.54-4.06,3.51-4.06.95,0,1.65.42,1.92,1V0h.92c1.03,0,1.58.54,1.58,1.8v4.31c0,2.69-1.1,4.11-4.06,4.11ZM123.14,4.34c-.69,0-1.27.72-1.27,1.85,0,1.46.68,2.06,1.61,2.06.8,0,1.22-.62,1.22-1.79,0-1.66-.64-2.12-1.55-2.12Z"/>
        <path class="cls-2" d="M133.62,2.37c2.03,0,3.85,1.54,3.85,3.84,0,2.43-1.47,4-4.04,4-2.12,0-3.85-1.57-3.85-3.76,0-2.46,1.7-4.08,4.04-4.08ZM133.45,4.39c-.7,0-1.34.74-1.34,1.76,0,1.43.57,2.05,1.47,2.05.81,0,1.34-.74,1.34-1.77,0-1.34-.58-2.04-1.47-2.04Z"/>
      </g>
    </g>
  </g>
</svg>