<?xml version="1.0" encoding="UTF-8"?>
<svg id="Layer_2" data-name="Layer 2" xmlns="http://www.w3.org/2000/svg" viewBox="0 0 209.89 88.04">
  <defs>
    <style>
      .cls-1 {
        fill: #fff;
        stroke-width: 0px;
      }
    </style>
  </defs>
  <g id="logo">
    <g>
      <g>
        <g>
          <path class="cls-1" d="M33.15,42.96l-3.12.26,1.39,16.93-2.65.22c-1.82.15-3.48-.55-3.67-2.88l-1.13-13.78-6.28.52-.17-2.11c-.11-1.34.94-3.03,3.17-3.21l15.43-1.27.17,2.1c.11,1.37-1.29,3.06-3.14,3.21Z"/>
          <path class="cls-1" d="M49.74,59.43c-6.01.34-10.86-3.74-11.25-10.64-.4-7.12,3.51-12.06,10.61-12.46,5.4-.31,10.8,3.42,11.21,10.61.42,7.32-3.42,12.09-10.57,12.49ZM48.77,41.28c-3,.17-4.45,2.85-4.24,6.56.26,4.67,2.18,6.8,5.5,6.61,2.75-.16,4.47-2.56,4.24-6.62-.27-4.82-2.11-6.74-5.5-6.55Z"/>
          <path class="cls-1" d="M72.55,58.35c-5-1.2-8.88-4.83-9.06-11-.19-6.43,3.04-11.87,11.13-12.11,4.99-.15,10.51,3.56,10.72,10.82.17,5.79-2.63,8.46-5.48,9.54,1.33.44,4.7.82,7.06.75l.06,1.95c.04,1.47-.86,2.46-2.04,2.49-4.16.12-8.54-.9-12.4-2.45ZM74,40.25c-3.23.1-4.55,2.92-4.46,6.28.15,5.08,2.26,7.26,5.53,7.17,2.27-.07,4.35-2.4,4.21-6.85-.15-5.18-2.09-6.69-5.29-6.6Z"/>
          <path class="cls-1" d="M99.14,57.94c-5.66.02-9.68-3.77-9.71-9.72l-.06-12.83h2.59c1.95-.02,3.49,1.13,3.51,4.17l.04,8.45c.02,3.74,1.33,4.95,4.18,4.94,2.4,0,3.58-1.52,3.56-4.81l-.05-12.8h2.59c2.27-.02,3.49,1.12,3.5,4.04l.04,8.58c.02,5.57-3.38,9.97-10.2,10Z"/>
          <path class="cls-1" d="M125.14,57.95l-2.5-.05c-5.79-.11-8.94-3.12-8.82-9.23l.07-3.71c.04-2.02.21-4.25.5-5.94.47-2.81,2.18-3.61,4.32-3.57l12.03.23-.03,1.44c-.04,2.11-1.19,3.5-3.75,3.45l-6.72-.13c-.15,1.09-.28,2.68-.29,3.74l8.54.16-.04,2.21c-.03,1.6-1.23,2.47-3.38,2.43l-5.22-.1-.02.8c-.04,2.37.71,3.21,3.78,3.27l1.6.03c1.82.03,3.36-.1,5.16-.51l-.04,2.34c-.04,2.02-1.31,3.21-5.21,3.13Z"/>
          <path class="cls-1" d="M158.92,59.02c-2.49-.13-4.48-1.32-6.28-5l-3.39-6.96c-.56-.86-.94-1.65-.99-1.88l-.68,13.26-2.49-.13c-1.66-.08-3.36-1.32-3.25-3.56l.95-18.66,2.94.15c3.23.17,5.29,1.84,6.64,4.89l3.68,8.2.64-12.52,2.68.14c1.44.07,3.01,1.21,2.92,3l-.98,19.2-2.4-.12Z"/>
          <path class="cls-1" d="M175.47,60.71c-6-.48-10.25-5.18-9.7-12.07.57-7.12,5.12-11.47,12.2-10.91,5.39.43,10.24,4.86,9.67,12.04-.58,7.31-5.02,11.51-12.17,10.95ZM176.98,42.59c-3-.24-4.8,2.22-5.09,5.92-.37,4.66,1.24,7.03,4.56,7.3,2.74.22,4.78-1.93,5.1-5.98.38-4.82-1.18-6.96-4.56-7.23Z"/>
        </g>
        <g>
          <path class="cls-1" d="M77.98,87.9l-2.34.08c-5.43.17-8.51-2.49-8.7-8.21l-.11-3.48c-.06-1.89,0-3.99.18-5.59.3-2.65,1.87-3.48,3.88-3.55l11.27-.36.04,1.35c.06,1.98-.94,3.33-3.34,3.41l-6.3.2c-.09,1.02-.13,2.53-.1,3.52l8.01-.26.07,2.07c.05,1.5-1.04,2.37-3.04,2.44l-4.89.16.02.75c.07,2.22.81,2.98,3.69,2.88l1.5-.05c1.71-.05,3.14-.25,4.81-.72l.07,2.19c.06,1.89-1.07,3.07-4.73,3.18Z"/>
          <path class="cls-1" d="M102.42,73.09c-1.07-1.34-3.65-2.09-5.93-2.06-3.36.04-5.79,2.29-5.75,5.65.05,4.23,2.65,6.21,6.01,6.17,2.22-.03,4.67-.89,5.68-1.99h.15s.03,2.13.03,2.13c.03,2.67-2.62,4.74-6.66,4.79-5.67.07-10.82-3.95-10.89-10.49-.07-6.03,4.1-11.09,11-11.17,4.05-.05,6.47,1.94,6.51,4.84l.03,2.13h-.15Z"/>
          <path class="cls-1" d="M120.9,87.51c-1.92-.02-3.11-.87-3.7-2.23l-1.5-3.38c-.79-1.78-1.36-2.14-2.71-2.31l-.9-.1-.08,7.77-2.19-.02c-2.22-.02-3.5-1.38-3.48-3.3l.16-16.83c1.44-.5,4.63-.86,6.22-.84l2.31.02c4.44.04,7.57,2.5,7.53,6.25-.03,2.76-1.85,5.08-3.83,5.51.98.46,1.49,1.21,2.25,2.87l1.56,3.38c.59,1.24,1.12,2.17,1.42,2.53v.15c-.7.35-1.84.52-3.07.51ZM113.32,70.79c-.24,0-.72.05-1.14.11l-.04,4.56c.69.1,1.41.1,2.28.11,1.62.02,2.44-1.21,2.45-2.38.01-1.5-.73-2.38-2.38-2.39h-1.17Z"/>
          <path class="cls-1" d="M142.77,87.96c-2.07-.07-3.13-.7-3.43-2.57-.13-.75-.28-1.57-.49-2.45l-7.14-.23c-.5,1.49-.92,3.57-1.2,4.85l-2.31-.07c-1.83-.06-2.61-1.1-2.56-2.63.09-3,4.38-14.27,8.1-17.9l2.22.07c2.01.06,3.3,1.12,3.95,2.29,1.88,3.36,4.74,11.64,5.44,18.72l-2.58-.08ZM138.24,66.06c-1.23-.04-1.91-.36-2.58-.92-.99-.81-1.32-1-1.83-1.02-.54-.02-1.06.39-1.09,1.14l-.02.63-.66-.02c-1.05-.03-2.1-1.12-2.05-2.5.05-1.53,1.2-2.81,3.12-2.75.99.03,1.88.39,2.55.92.88.69,1.26.97,1.74.99.66.02,1.15-.26,1.17-1.04l.02-.69.6.02c1.05.03,2.16.88,2.11,2.71-.04,1.32-1.13,2.61-3.08,2.54ZM135.68,72.19c-.95,1.68-1.93,4.08-2.59,6.1l4.74.15c-.54-2.06-1.36-4.57-2.14-6.25Z"/>
        </g>
        <g>
          <path class="cls-1" d="M5.34,49.86C.19,39.54-.93,27.46.68,25.73c1.61-1.73,9.77-1.69,26.58,5.13-8.04-1.3-18.42-1.14-20.09.58-1.67,1.73-2.83,7.76-1.82,18.42"/>
          <path class="cls-1" d="M184.81,30.12c10.31-5.16,22.39-6.27,24.13-4.66,1.73,1.61,1.69,9.77-5.13,26.58,1.3-8.04,1.14-18.42-.58-20.09-1.73-1.67-7.76-2.83-18.42-1.82"/>
        </g>
      </g>
      <g>
        <path class="cls-1" d="M67.08,9.45h-1.05c-2.45,0-3.8-1.24-3.8-3.83v-1.57c0-.85.05-1.8.16-2.51.18-1.19.89-1.54,1.8-1.54h5.08v.61c0,.89-.47,1.49-1.55,1.49h-2.84c-.05.46-.09,1.14-.09,1.58h3.61v.93c0,.68-.5,1.05-1.41,1.05h-2.2v.34c0,1,.32,1.35,1.62,1.35h.68c.77,0,1.42-.07,2.18-.26v.99c0,.85-.53,1.37-2.18,1.37Z"/>
        <path class="cls-1" d="M77.88,9.33c-1.14,0-1.49-.38-1.49-1.51v-2.61c0-1-.34-1.45-1.2-1.45-.74,0-1.15.5-1.15,1.41v4.16h-.87c-1.09,0-1.7-.43-1.7-1.51v-2.61c0-2.14,1.42-3.53,3.79-3.53,2.64,0,3.71,1.39,3.71,3.6v4.06h-1.08Z"/>
        <path class="cls-1" d="M87.46,4.33c-.23-.24-.93-.51-1.65-.51-1.26,0-1.96.64-1.96,1.68,0,1.27.7,1.87,1.84,1.87.8,0,1.35-.16,1.8-.42h.03v.77c0,.99-1.01,1.78-2.37,1.78-2.26,0-3.87-1.53-3.87-3.85,0-2.12,1.47-3.95,4.1-3.95,1.18,0,2.15.77,2.15,1.73v.91h-.07Z"/>
        <path class="cls-1" d="M93.54,1.69c2.03,0,3.85,1.54,3.85,3.84,0,2.43-1.47,4-4.04,4-2.12,0-3.85-1.57-3.85-3.76,0-2.46,1.7-4.08,4.04-4.08ZM93.38,3.72c-.7,0-1.34.74-1.34,1.76,0,1.43.57,2.05,1.47,2.05.81,0,1.34-.74,1.34-1.77,0-1.34-.58-2.04-1.47-2.04Z"/>
        <path class="cls-1" d="M106.13,9.33c-1.14,0-1.49-.38-1.49-1.51v-2.61c0-1-.34-1.45-1.2-1.45-.74,0-1.15.5-1.15,1.41v4.16h-.87c-1.09,0-1.7-.43-1.7-1.51v-2.61c0-2.14,1.42-3.53,3.79-3.53,2.64,0,3.71,1.39,3.71,3.6v4.06h-1.08Z"/>
        <path class="cls-1" d="M110.66.58c.34-.26.8-.5,1.34-.5h.27v1.81h2.18v.91c0,.63-.68,1.12-1.26,1.12h-.92v2.69c0,.5.31.8.81.8.61,0,.89-.05,1.16-.16h.07v1c0,.62-.57,1.19-1.91,1.19s-2.64-.61-2.64-2.65V2.18c0-.68.39-1.22.89-1.6Z"/>
        <path class="cls-1" d="M120.96,3.81c-.32-.12-.57-.15-.91-.15-.62,0-1.11.31-1.11,1.22v4.45h-.7c-1.11,0-1.79-.51-1.79-1.76v-3.23c0-1.5,1.01-2.69,2.71-2.69,1.28,0,1.88.53,1.88,1.22v.95h-.08Z"/>
        <path class="cls-1" d="M126.32,6.53h-1.11c.15.74.76,1.1,1.83,1.1,1.19,0,1.93-.19,2.35-.47h.09v.59c0,.95-.77,1.8-2.89,1.8-2.57,0-3.92-1.73-3.92-3.79,0-2.26,1.53-4.1,3.83-4.1,1.95,0,3.46,1.09,3.46,2.99,0,1.49-1.12,1.88-3.64,1.88ZM126.5,3.58c-.91,0-1.29.58-1.35,1.3h1c1.22,0,1.43-.19,1.43-.51,0-.38-.34-.78-1.08-.78Z"/>
        <path class="cls-1" d="M140.3,1.69c2.03,0,3.85,1.54,3.85,3.84,0,2.43-1.47,4-4.04,4-2.12,0-3.85-1.57-3.85-3.76,0-2.46,1.7-4.08,4.04-4.08ZM140.14,3.72c-.7,0-1.34.74-1.34,1.76,0,1.43.57,2.05,1.47,2.05.81,0,1.34-.74,1.34-1.77,0-1.34-.58-2.04-1.47-2.04Z"/>
        <path class="cls-1" d="M43.22,23.86c-1.37,0-2.54-.81-2.54-2.57v-7.54h.91c1.12,0,1.66.51,1.66,1.77v5.39c0,.66.36.87,1.08.87h.57v.89c0,.91-.87,1.19-1.68,1.19Z"/>
        <path class="cls-1" d="M50.6,16.12c2.03,0,3.85,1.54,3.85,3.84,0,2.43-1.47,4-4.04,4-2.12,0-3.85-1.57-3.85-3.76,0-2.46,1.7-4.08,4.04-4.08ZM50.44,18.14c-.7,0-1.34.74-1.34,1.76,0,1.43.57,2.05,1.47,2.05.81,0,1.34-.74,1.34-1.77,0-1.34-.58-2.04-1.47-2.04Z"/>
        <path class="cls-1" d="M62.8,18.75c-.23-.24-.93-.51-1.65-.51-1.26,0-1.96.64-1.96,1.68,0,1.27.7,1.87,1.84,1.87.8,0,1.35-.16,1.8-.42h.03v.77c0,.99-1.01,1.78-2.37,1.78-2.26,0-3.87-1.53-3.87-3.85,0-2.12,1.47-3.95,4.1-3.95,1.18,0,2.15.77,2.15,1.73v.91h-.07Z"/>
        <path class="cls-1" d="M68.01,23.96c-1.43,0-3.18-.68-3.18-2.37s1.19-2.49,3.89-2.49h.37v-.31c0-.61-.47-.76-1.49-.76-1.39,0-1.91.33-2.43.81h-.07v-.91c0-.92.96-1.84,3.08-1.84s3.39,1.04,3.39,3.23v1.15c0,2.7-.87,3.47-3.57,3.47ZM69.15,20.7h-.51c-.97,0-1.37.24-1.37.74,0,.47.3.72,1.01.72.46,0,.87-.23.87-.91v-.55Z"/>
        <path class="cls-1" d="M76.58,23.86c-1.37,0-2.54-.81-2.54-2.57v-7.54h.91c1.12,0,1.66.51,1.66,1.77v5.39c0,.66.37.87,1.08.87h.57v.89c0,.91-.87,1.19-1.68,1.19Z"/>
        <path class="cls-1" d="M88.69,23.97c-1,0-1.58-.46-1.91-1.01v3.1h-.93c-1.03,0-1.57-.54-1.57-1.8v-3.93c0-2.66,1.47-4.22,4.11-4.22,2.18,0,3.81,1.47,3.81,3.77,0,2.54-1.49,4.1-3.52,4.1ZM88.09,18.06c-.7,0-1.27.68-1.27,1.77,0,1.58.68,2.14,1.55,2.14.81,0,1.26-.72,1.26-1.83,0-1.59-.49-2.08-1.54-2.08Z"/>
        <path class="cls-1" d="M98.02,20.96h-1.11c.15.74.76,1.09,1.82,1.09,1.19,0,1.93-.19,2.35-.47h.09v.59c0,.95-.77,1.8-2.89,1.8-2.57,0-3.92-1.73-3.92-3.79,0-2.26,1.53-4.1,3.83-4.1,1.95,0,3.46,1.09,3.46,2.99,0,1.49-1.12,1.88-3.64,1.88ZM98.2,18.01c-.91,0-1.28.58-1.35,1.3h1c1.22,0,1.43-.19,1.43-.51,0-.38-.34-.78-1.08-.78Z"/>
        <path class="cls-1" d="M108.5,18.24c-.32-.12-.57-.15-.91-.15-.62,0-1.11.31-1.11,1.22v4.45h-.7c-1.11,0-1.78-.51-1.78-1.76v-3.23c0-1.5,1.01-2.69,2.7-2.69,1.28,0,1.88.53,1.88,1.22v.95h-.08Z"/>
        <path class="cls-1" d="M114.94,18.24c-.32-.12-.57-.15-.91-.15-.62,0-1.11.31-1.11,1.22v4.45h-.7c-1.11,0-1.78-.51-1.78-1.76v-3.23c0-1.5,1.01-2.69,2.7-2.69,1.28,0,1.88.53,1.88,1.22v.95h-.08Z"/>
        <path class="cls-1" d="M121.38,18.24c-.32-.12-.57-.15-.91-.15-.62,0-1.11.31-1.11,1.22v4.45h-.7c-1.11,0-1.78-.51-1.78-1.76v-3.23c0-1.5,1.01-2.69,2.7-2.69,1.29,0,1.88.53,1.88,1.22v.95h-.08Z"/>
        <path class="cls-1" d="M127.82,18.24c-.32-.12-.57-.15-.91-.15-.62,0-1.11.31-1.11,1.22v4.45h-.7c-1.11,0-1.78-.51-1.78-1.76v-3.23c0-1.5,1.01-2.69,2.7-2.69,1.29,0,1.88.53,1.88,1.22v.95h-.08Z"/>
        <path class="cls-1" d="M134.43,15.62c-.28-.15-.81-.2-1.15-.2-.61,0-1.03.35-1.03.8v.88h1.7v.93c0,.5-.46.82-1.11.82h-.6v4.91h-.78c-1.22,0-1.72-.47-1.72-1.59v-5.12c0-2.68,1.61-3.42,3.01-3.42,1.26,0,1.73.63,1.73,1.41v.59h-.07Z"/>
        <path class="cls-1" d="M139.36,20.96h-1.11c.15.74.76,1.09,1.82,1.09,1.19,0,1.93-.19,2.35-.47h.09v.59c0,.95-.77,1.8-2.89,1.8-2.57,0-3.92-1.73-3.92-3.79,0-2.26,1.53-4.1,3.83-4.1,1.95,0,3.46,1.09,3.46,2.99,0,1.49-1.12,1.88-3.64,1.88ZM139.54,18.01c-.91,0-1.28.58-1.35,1.3h1c1.22,0,1.43-.19,1.43-.51,0-.38-.34-.78-1.08-.78Z"/>
        <path class="cls-1" d="M146.7,15.9c-.74,0-1.35-.57-1.35-1.27s.61-1.27,1.35-1.27,1.34.57,1.34,1.27-.59,1.27-1.34,1.27ZM147.91,23.86c-1.37,0-2.43-.68-2.43-2.43v-4.88h.63c1.46,0,1.93.42,1.93,1.77v2.73c0,.66.31.87,1.03.87h.31v.76c0,.89-.68,1.19-1.47,1.19Z"/>
        <path class="cls-1" d="M152.27,15.01c.34-.26.8-.5,1.34-.5h.27v1.81h2.18v.91c0,.63-.68,1.12-1.26,1.12h-.92v2.69c0,.5.31.8.81.8.61,0,.89-.05,1.16-.16h.07v1c0,.62-.57,1.19-1.91,1.19s-2.64-.61-2.64-2.65v-4.61c0-.68.39-1.22.89-1.59Z"/>
        <path class="cls-1" d="M161.88,16.12c2.03,0,3.85,1.54,3.85,3.84,0,2.43-1.47,4-4.04,4-2.12,0-3.85-1.57-3.85-3.76,0-2.46,1.7-4.08,4.04-4.08ZM161.72,18.14c-.7,0-1.34.74-1.34,1.76,0,1.43.57,2.05,1.47,2.05.81,0,1.34-.74,1.34-1.77,0-1.34-.58-2.04-1.47-2.04Z"/>
      </g>
    </g>
  </g>
</svg>