<?xml version="1.0" encoding="UTF-8"?>
<svg id="Layer_2" data-name="Layer 2" xmlns="http://www.w3.org/2000/svg" xmlns:xlink="http://www.w3.org/1999/xlink" viewBox="-10 -10 229.89 120.58">
  <defs>
    <style>
      .cls-1 {
        filter: url(#drop-shadow-1);
      }

      .cls-2 {
        fill: #fff;
        stroke-width: 0px;
      }
    </style>
    <filter id="drop-shadow-1" filterUnits="userSpaceOnUse">
      <feOffset dx="-2.83" dy="2.83"/>
      <feGaussianBlur result="blur" stdDeviation="1.7"/>
      <feFlood flood-color="#264078" flood-opacity=".55"/>
      <feComposite in2="blur" operator="in"/>
      <feComposite in="SourceGraphic"/>
    </filter>
  </defs>
  <g id="logo">
    <g class="cls-1">
      <g>
        <g>
          <path class="cls-2" d="M33.67,55.82c-1.15.09-2.2.1-3.07-.1l.64,8.1-2.87.23c-1.69.13-3.64-.91-3.86-3.72l-1.48-18.74c1.72-.54,4.65-1.35,6.88-1.53l2.6-.21c4.83-.38,8.79,2.04,9.17,6.92.4,5.08-3.19,8.67-8.02,9.05ZM32.34,44.98l-1.28.1c-.3.02-.97.18-1.27.27l.41,5.22c.73.18,1.54.19,2.46.11,2.03-.16,2.8-1.17,2.66-2.87-.19-2.44-1.32-2.96-2.97-2.83Z"/>
          <path class="cls-2" d="M62.24,62.02c-2.16.12-3.57-.76-4.33-2.25l-1.93-3.71c-1.02-1.95-1.68-2.33-3.22-2.42l-1.02-.05.47,8.79-2.47.13c-2.5.13-4.04-1.32-4.15-3.49l-1.01-19.05c1.59-.66,5.16-1.29,6.95-1.39l2.6-.14c5.01-.27,8.7,2.29,8.93,6.54.17,3.12-1.72,5.88-3.93,6.51,1.14.45,1.76,1.27,2.74,3.09l1.99,3.71c.75,1.36,1.42,2.38,1.78,2.77v.17c-.75.45-2.02.72-3.41.79ZM52.51,43.64c-.27.01-.81.11-1.28.2l.27,5.16c.78.06,1.6.02,2.58-.04,1.83-.1,2.67-1.54,2.6-2.86-.09-1.7-.99-2.64-2.85-2.54l-1.32.07Z"/>
          <path class="cls-2" d="M80.32,61.54l-2.64.08c-6.13.18-9.61-2.84-9.8-9.33l-.12-3.94c-.06-2.14,0-4.52.22-6.33.35-3,2.12-3.94,4.39-4.01l12.73-.38.05,1.53c.07,2.24-1.07,3.77-3.78,3.85l-7.11.21c-.1,1.16-.15,2.86-.12,3.98l9.04-.27.07,2.34c.05,1.7-1.17,2.69-3.44,2.76l-5.52.16.03.85c.07,2.51.91,3.37,4.16,3.28l1.69-.05c1.93-.06,3.55-.28,5.43-.81l.07,2.48c.06,2.14-1.22,3.47-5.35,3.59Z"/>
          <path class="cls-2" d="M109.03,61.21h-1.52c-1.56-.01-2.4-.59-3.38-2.09-3.7-5.76-6.79-13.83-7.94-21.69h3.59c2.2.02,3.48,1.63,3.75,3.02.56,3.03,2.1,8.1,3.88,11.95,1.91-3.87,3.87-10.18,4.63-14.91h3.25c1.59.02,2.88,1.04,2.87,2.71,0,.88-.59,2.62-1.44,5.2-1.54,4.62-5.34,12.8-7.69,15.81Z"/>
          <path class="cls-2" d="M137.74,61.46c-2.34-.06-3.54-.77-3.89-2.89-.15-.85-.33-1.78-.57-2.77l-8.06-.21c-.55,1.69-1.02,4.06-1.33,5.51l-2.61-.07c-2.07-.05-2.95-1.23-2.91-2.97.09-3.4,4.85-16.21,9.02-20.35l2.51.06c2.27.06,3.73,1.25,4.47,2.56,2.14,3.8,5.42,13.17,6.27,21.18l-2.91-.07ZM129.63,43.62c-1.07,1.91-2.15,4.64-2.89,6.93l5.35.14c-.62-2.33-1.56-5.18-2.46-7.07Z"/>
          <path class="cls-2" d="M150.91,62.58c-5.14-.25-7.82-2.36-7.65-5.73l.11-2.31h.17c1.38,1.58,4.38,2.61,7.05,2.74,2.98.15,3.96-.52,4.04-2.08.07-1.43-1.19-1.97-4.71-2.86-5.02-1.27-6.89-3.24-6.72-6.8.21-4.18,4.18-7.73,10.1-7.43,5.75.29,7.82,3.01,7.7,5.42l-.12,2.48h-.17c-1.48-1.65-4.25-2.47-6.69-2.59-3.18-.16-4.3.64-4.37,1.96-.05,1.05.36,1.65,4.65,2.75,4.75,1.22,6.96,3.31,6.78,6.94-.24,4.86-3.95,7.81-10.17,7.5ZM153.42,32.23l6.21-2.11-.05.95c-.13,2.58-1.05,3.32-3.34,4.36l-3.09,1.41-2.87-1.67c-2.24-1.3-3.08-2.16-2.95-4.88l.04-.78,6.04,2.72Z"/>
          <path class="cls-2" d="M174.65,64.05c-5.98-.46-9.89-4.81-9.41-11.12l1.04-13.6,2.74.21c2.06.16,3.59,1.5,3.34,4.72l-.68,8.95c-.3,3.97.98,5.36,3.99,5.59,2.53.19,3.91-1.3,4.17-4.8l1.04-13.56,2.74.21c2.4.18,3.59,1.5,3.35,4.59l-.7,9.09c-.45,5.9-4.42,10.27-11.62,9.72Z"/>
        </g>
        <g>
          <path class="cls-2" d="M69.11,99.17c-2.23.11-3.92-1.03-4.04-3.47-.11-2.1-.61-8.1-1.16-11.55l-2.71,10.01c-.4,1.45-1.25,4.01-2.06,5.52l-1.79.09c-2.2.11-4.01-1.46-5.71-6.14l-1.38-3.84c-.67-1.91-1.49-3.94-1.91-4.91-.2,4.03-.13,11.48.07,15.35l-2.4.12c-1.96.1-3.82-1.17-3.94-3.48-.34-6.72.16-14.88,1.03-19.86l2.23-.11c3.72-.19,5.71,1.48,6.66,3.51l2.06,4.46c.88,1.93,2,4.56,2.6,6.51.42-1.76,1.03-3.87,1.65-5.6l1.96-5.48c.74-2.05,1.79-3.53,2.6-4.29l1.18-.06c3.38-.17,5.1,1.61,5.71,4.95.84,4.55,1.78,11.72,2.11,18.14l-2.74.14Z"/>
          <path class="cls-2" d="M93.98,98.62c-2.34.05-3.57-.61-4.02-2.71-.19-.85-.41-1.76-.7-2.74l-8.06.16c-.47,1.71-.83,4.1-1.08,5.57l-2.61.05c-2.07.04-3-1.1-3.04-2.83-.07-3.4,4.12-16.41,8.1-20.74l2.51-.05c2.27-.04,3.78,1.08,4.59,2.36,2.31,3.7,6.02,12.91,7.22,20.87l-2.91.06ZM85.07,81.18c-.98,1.96-1.94,4.73-2.57,7.06l5.35-.11c-.72-2.3-1.79-5.1-2.78-6.95Z"/>
          <path class="cls-2" d="M118.06,82.62c-1.18-1.54-4.09-2.43-6.66-2.44-3.79-.01-6.58,2.49-6.6,6.3-.02,4.79,2.88,7.08,6.68,7.1,2.51.01,5.29-.93,6.45-2.15h.17v2.41c-.02,3.03-3.05,5.33-7.62,5.31-6.4-.03-12.14-4.67-12.11-12.08.03-6.83,4.83-12.49,12.62-12.46,4.57.02,7.27,2.31,7.26,5.6v2.41h-.18ZM110.36,68.76l6.11-2.39v.95c-.01,2.58-.9,3.36-3.14,4.51l-3.02,1.55-2.94-1.54c-2.3-1.2-3.18-2.02-3.17-4.74v-.78s6.16,2.44,6.16,2.44Z"/>
          <path class="cls-2" d="M129.29,79.1l-.18,6.22c3.42-4.56,4.44-5.83,6.8-8.14,1.36-1.32,2.21-1.5,4.14-1.45l4.71.13v.17c-3.03,2.74-7.09,7.31-9.55,10.41,1.53,2.29,3.02,4.71,4.86,6.77,1.64,1.85,2.24,2.38,3.92,2.8-.79,2.66-1.86,3.48-3.99,3.42-1.29-.04-3.06-.73-4.01-1.85-2.69-3.14-4.57-6.05-6.94-9.86l-.31,11.15-2.57-.07c-2.78-.08-3.81-2.01-3.75-3.81l.56-19.74,2.27.06c2.78.08,4.11,1.95,4.06,3.79Z"/>
          <path class="cls-2" d="M157,100.56c-5.99-.33-9.99-4.61-9.64-10.93l.76-13.62,2.74.15c2.06.12,3.62,1.43,3.44,4.65l-.5,8.96c-.22,3.97,1.09,5.34,4.1,5.51,2.54.14,3.88-1.38,4.07-4.88l.76-13.58,2.74.15c2.4.13,3.62,1.43,3.45,4.52l-.51,9.1c-.33,5.91-4.21,10.36-11.41,9.95Z"/>
        </g>
        <g>
          <path class="cls-2" d="M5.34,45.62C.19,35.31-.93,23.23.68,21.49c1.61-1.73,9.77-1.69,26.58,5.13-8.04-1.3-18.42-1.14-20.09.58-1.67,1.73-2.83,7.76-1.82,18.42"/>
          <path class="cls-2" d="M184.81,25.88c10.31-5.16,22.39-6.27,24.13-4.66,1.73,1.61,1.69,9.77-5.13,26.58,1.3-8.04,1.14-18.42-.58-20.09-1.73-1.67-7.76-2.83-18.42-1.82"/>
        </g>
      </g>
      <g>
        <path class="cls-2" d="M35.65,9.69h-.54c-.55,0-.85-.2-1.2-.73-1.32-2.03-2.42-4.87-2.83-7.64h1.27c.78,0,1.23.56,1.33,1.06.2,1.07.75,2.85,1.39,4.21.67-1.37,1.35-3.6,1.62-5.27h1.15c.56,0,1.02.36,1.02.95,0,.31-.2.92-.5,1.83-.54,1.63-1.87,4.52-2.69,5.59Z"/>
        <path class="cls-2" d="M45.42,7.86c-1.84,3.55-2.31,3.91-3.68,3.91-.73,0-1.34-.4-1.34-1.14v-.55l.98-.07c.6-.05.87-.29,1.11-.83-.95-1.42-2.15-4.41-2.42-6.18h1.18c.56,0,1.15.35,1.28.94.23,1.04.68,2.32,1.03,3.12.49-1,1-2.77,1.15-4.05h1.09c.66,0,.97.31.97.84,0,.7-.62,2.62-1.35,4.02Z"/>
        <path class="cls-2" d="M51.91,9.78c-2.25,0-3.35-1.24-3.35-3.18V.72h.55c1.26,0,1.65.37,1.65,1.44v1.55c.37-.48.78-.9,1.67-.9,1.79,0,3.09,1.25,3.09,3.39s-1.51,3.57-3.61,3.57ZM52.02,4.59c-.73,0-1.24.65-1.24,1.73,0,1.3.5,1.73,1.28,1.73.72,0,1.2-.59,1.2-1.61,0-1.33-.44-1.85-1.23-1.85Z"/>
        <path class="cls-2" d="M60.66,7.11h-.98c.13.66.67.97,1.62.97,1.05,0,1.71-.17,2.08-.42h.08v.53c0,.84-.68,1.6-2.56,1.6-2.27,0-3.47-1.54-3.47-3.36,0-2,1.35-3.63,3.39-3.63,1.72,0,3.06.97,3.06,2.65,0,1.32-.99,1.67-3.22,1.67ZM60.82,4.5c-.8,0-1.14.52-1.2,1.15h.88c1.08,0,1.27-.17,1.27-.46,0-.34-.3-.7-.96-.7Z"/>
        <path class="cls-2" d="M69.93,4.7c-.29-.11-.5-.13-.8-.13-.55,0-.98.28-.98,1.08v3.95h-.62c-.98,0-1.58-.46-1.58-1.56v-2.87c0-1.33.9-2.39,2.39-2.39,1.14,0,1.66.47,1.66,1.08v.84h-.07Z"/>
        <path class="cls-2" d="M72.42,1.83c.3-.23.71-.44,1.18-.44h.24v1.61h1.93v.8c0,.56-.6,1-1.11,1h-.81v2.39c0,.44.28.71.72.71.54,0,.79-.05,1.03-.14h.06v.89c0,.55-.5,1.06-1.69,1.06s-2.33-.54-2.33-2.35V3.25c0-.6.35-1.08.79-1.42Z"/>
        <path class="cls-2" d="M80.58,7.11h-.98c.13.66.67.97,1.62.97,1.05,0,1.71-.17,2.08-.42h.08v.53c0,.84-.68,1.6-2.56,1.6-2.27,0-3.47-1.54-3.47-3.36,0-2,1.35-3.63,3.39-3.63,1.72,0,3.06.97,3.06,2.65,0,1.32-.99,1.67-3.22,1.67ZM80.74,4.5c-.8,0-1.14.52-1.2,1.15h.88c1.08,0,1.27-.17,1.27-.46,0-.34-.3-.7-.96-.7Z"/>
        <path class="cls-2" d="M93.41,9.79c-.88,0-1.4-.41-1.69-.9v2.75h-.83c-.91,0-1.39-.48-1.39-1.59v-3.49c0-2.36,1.3-3.74,3.64-3.74,1.93,0,3.37,1.31,3.37,3.35,0,2.26-1.32,3.63-3.11,3.63ZM92.88,4.55c-.62,0-1.12.6-1.12,1.57,0,1.4.6,1.89,1.38,1.89.72,0,1.11-.64,1.11-1.62,0-1.42-.43-1.85-1.36-1.85Z"/>
        <path class="cls-2" d="M101.66,7.11h-.98c.13.66.67.97,1.62.97,1.05,0,1.71-.17,2.08-.42h.08v.53c0,.84-.68,1.6-2.56,1.6-2.27,0-3.47-1.54-3.47-3.36,0-2,1.35-3.63,3.39-3.63,1.72,0,3.06.97,3.06,2.65,0,1.32-.99,1.67-3.22,1.67ZM101.81,4.5c-.8,0-1.14.52-1.2,1.15h.88c1.08,0,1.27-.17,1.27-.46,0-.34-.3-.7-.96-.7Z"/>
        <path class="cls-2" d="M110.92,4.7c-.29-.11-.5-.13-.8-.13-.55,0-.98.28-.98,1.08v3.95h-.62c-.98,0-1.58-.46-1.58-1.56v-2.87c0-1.33.9-2.39,2.39-2.39,1.14,0,1.66.47,1.66,1.08v.84h-.07Z"/>
        <path class="cls-2" d="M116.62,4.7c-.29-.11-.5-.13-.8-.13-.55,0-.98.28-.98,1.08v3.95h-.62c-.98,0-1.58-.46-1.58-1.56v-2.87c0-1.33.9-2.39,2.39-2.39,1.14,0,1.66.47,1.66,1.08v.84h-.07Z"/>
        <path class="cls-2" d="M122.31,4.7c-.29-.11-.5-.13-.8-.13-.55,0-.98.28-.98,1.08v3.95h-.62c-.98,0-1.58-.46-1.58-1.56v-2.87c0-1.33.9-2.39,2.39-2.39,1.14,0,1.66.47,1.66,1.08v.84h-.07Z"/>
        <path class="cls-2" d="M128,4.7c-.29-.11-.5-.13-.8-.13-.55,0-.98.28-.98,1.08v3.95h-.62c-.98,0-1.58-.46-1.58-1.56v-2.87c0-1.33.9-2.39,2.39-2.39,1.14,0,1.66.47,1.66,1.08v.84h-.07Z"/>
        <path class="cls-2" d="M133.15,5.82c0,.46-.35.86-.84.86h-2.87v-.61c0-.59.3-.9.96-.9h2.75v.65Z"/>
        <path class="cls-2" d="M139.38,2.38c-.25-.13-.72-.18-1.02-.18-.54,0-.91.31-.91.71v.78h1.51v.83c0,.44-.41.73-.98.73h-.53v4.35h-.69c-1.08,0-1.52-.42-1.52-1.42V3.63c0-2.38,1.42-3.04,2.67-3.04,1.11,0,1.53.56,1.53,1.25v.53h-.06Z"/>
        <path class="cls-2" d="M143.74,7.11h-.98c.13.66.67.97,1.62.97,1.05,0,1.71-.17,2.08-.42h.08v.53c0,.84-.68,1.6-2.56,1.6-2.27,0-3.47-1.54-3.47-3.36,0-2,1.35-3.63,3.39-3.63,1.72,0,3.06.97,3.06,2.65,0,1.32-.99,1.67-3.22,1.67ZM143.9,4.5c-.8,0-1.14.52-1.2,1.15h.88c1.08,0,1.27-.17,1.27-.46,0-.34-.3-.7-.96-.7Z"/>
        <path class="cls-2" d="M151.34,2.05v3.75c.54-.8,1.09-1.67,1.73-2.36.29-.31.51-.44,1.21-.44h1.59v.06c-.41.42-1.85,2.11-2.45,2.97.38.58.78,1.21,1.23,1.74.49.56.68.62,1.18.74-.08.73-.57,1.14-1.39,1.14-.33,0-.9-.13-1.17-.46-.74-.86-1.32-1.8-1.94-2.75v3.14h-.9c-.84,0-1.38-.55-1.38-1.34V.72h.87c1.03,0,1.4.67,1.4,1.33Z"/>
        <path class="cls-2" d="M158.31,1.83c.3-.23.71-.44,1.18-.44h.24v1.61h1.93v.8c0,.56-.6,1-1.11,1h-.81v2.39c0,.44.28.71.72.71.54,0,.79-.05,1.03-.14h.06v.89c0,.55-.5,1.06-1.69,1.06s-2.33-.54-2.33-2.35V3.25c0-.6.35-1.08.79-1.42Z"/>
        <path class="cls-2" d="M169.05,9.59c-1.01,0-1.32-.33-1.32-1.34v-2.31c0-.89-.3-1.28-1.06-1.28-.66,0-1.02.44-1.02,1.25v3.69h-.77c-.97,0-1.51-.38-1.51-1.34v-2.31c0-1.9,1.26-3.13,3.35-3.13,2.33,0,3.28,1.24,3.28,3.19v3.6h-.96Z"/>
        <path class="cls-2" d="M175.28,7.11h-.98c.13.66.67.97,1.62.97,1.05,0,1.71-.17,2.08-.42h.08v.53c0,.84-.68,1.6-2.56,1.6-2.27,0-3.47-1.54-3.47-3.36,0-2,1.35-3.63,3.38-3.63,1.72,0,3.06.97,3.06,2.65,0,1.32-.99,1.67-3.22,1.67ZM175.44,4.5c-.8,0-1.14.52-1.2,1.15h.89c1.08,0,1.27-.17,1.27-.46,0-.34-.3-.7-.96-.7ZM175.2.65c.38-.4.86-.65,1.4-.65.49,0,.77.31.77.71,0,.49-.36.91-.73,1.07-.43.18-1.05.26-1.79.26h-.55v-.06c.2-.49.55-.96.91-1.33Z"/>
        <path class="cls-2" d="M65.19,24.21c-2.13,0-3.29-1.04-3.29-3.15v-3.63h.88c.99,0,1.42.34,1.42,1.34v2.35c0,.97.46,1.27,1.08,1.27.54,0,.97-.31.97-1.35v-3.61h.89c.91,0,1.41.38,1.41,1.34v2.35c0,2.11-1.34,3.09-3.36,3.09Z"/>
        <path class="cls-2" d="M80.28,24.02c-1.21,0-1.48-.52-1.48-1.33v-2.43c0-.85-.29-1.16-.95-1.16s-.85.47-.85,1.13v3.8h-.79c-.92,0-1.41-.3-1.41-1.33v-2.49c0-.78-.3-1.1-.9-1.1-.63,0-.88.32-.88,1.14v3.79h-.79c-1.02,0-1.48-.49-1.48-1.33v-2.31c0-1.92,1.1-3.14,3.19-3.14,1.03,0,1.81.64,2.02,1.18.31-.5,1.11-1.18,2.06-1.18,1.91,0,3.05,1.14,3.05,3.2v3.59h-.79Z"/>
        <path class="cls-2" d="M84.52,17.05c-.66,0-1.2-.5-1.2-1.13s.54-1.13,1.2-1.13,1.18.5,1.18,1.13-.53,1.13-1.18,1.13ZM85.59,24.12c-1.21,0-2.15-.6-2.15-2.16v-4.33h.56c1.29,0,1.71.37,1.71,1.57v2.42c0,.59.28.77.91.77h.27v.67c0,.79-.6,1.06-1.3,1.06Z"/>
        <path class="cls-2" d="M91.68,21.54h-.98c.13.66.67.97,1.62.97,1.05,0,1.71-.17,2.08-.42h.08v.53c0,.84-.68,1.6-2.56,1.6-2.27,0-3.47-1.54-3.47-3.36,0-2,1.35-3.63,3.39-3.63,1.72,0,3.06.97,3.06,2.65,0,1.32-.99,1.67-3.22,1.67ZM91.84,18.92c-.8,0-1.14.52-1.2,1.15h.88c1.08,0,1.27-.17,1.27-.46,0-.34-.3-.7-.96-.7Z"/>
        <path class="cls-2" d="M99.36,24.21c-1.79,0-2.44-.66-2.44-1.62v-.66h.06c.43.32,1.09.58,2.02.58.83,0,1.09-.19,1.09-.52,0-.3-.16-.42-1.52-.61-1.18-.17-1.81-.71-1.81-1.76,0-1.58,1.5-2.39,3-2.39s2.34.59,2.34,1.57v.68h-.06c-.44-.32-1.14-.55-2.02-.55s-1.12.23-1.12.5c0,.25.14.34,1.52.56,1.1.18,1.84.78,1.84,1.9,0,1.42-1.1,2.31-2.91,2.31Z"/>
        <path class="cls-2" d="M105.17,16.26c.3-.23.71-.44,1.18-.44h.24v1.61h1.93v.8c0,.56-.6,1-1.11,1h-.81v2.39c0,.44.28.71.72.71.54,0,.79-.05,1.03-.14h.06v.89c0,.55-.5,1.06-1.69,1.06s-2.33-.54-2.33-2.35v-4.09c0-.6.35-1.08.79-1.42Z"/>
        <path class="cls-2" d="M115.91,24.02c-1.01,0-1.32-.34-1.32-1.34v-2.31c0-.89-.3-1.28-1.06-1.28-.66,0-1.02.44-1.02,1.25v3.69h-.77c-.97,0-1.51-.38-1.51-1.34v-2.31c0-1.9,1.26-3.13,3.35-3.13,2.33,0,3.28,1.24,3.28,3.19v3.6h-.96Z"/>
        <path class="cls-2" d="M122.14,21.54h-.98c.13.66.67.97,1.62.97,1.05,0,1.71-.17,2.08-.42h.08v.53c0,.84-.68,1.6-2.56,1.6-2.27,0-3.47-1.54-3.47-3.36,0-2,1.35-3.63,3.38-3.63,1.72,0,3.06.97,3.06,2.65,0,1.32-.99,1.67-3.22,1.67ZM122.3,18.92c-.8,0-1.14.52-1.2,1.15h.89c1.08,0,1.27-.17,1.27-.46,0-.34-.3-.7-.96-.7Z"/>
        <path class="cls-2" d="M133.04,24.02c-1,0-1.32-.34-1.32-1.34v-2.31c0-.89-.3-1.28-1.06-1.28-.66,0-1.02.44-1.02,1.25v3.69h-.77c-.97,0-1.51-.38-1.51-1.34v-2.31c0-1.9,1.26-3.13,3.35-3.13,2.33,0,3.28,1.24,3.28,3.19v3.6h-.96Z"/>
        <path class="cls-2" d="M137.45,17.05c-.66,0-1.2-.5-1.2-1.13s.54-1.13,1.2-1.13,1.18.5,1.18,1.13-.53,1.13-1.18,1.13ZM138.52,24.12c-1.21,0-2.15-.6-2.15-2.16v-4.33h.56c1.29,0,1.71.37,1.71,1.57v2.42c0,.59.28.77.91.77h.28v.67c0,.79-.6,1.06-1.3,1.06Z"/>
        <path class="cls-2" d="M144.61,21.54h-.98c.13.66.67.97,1.61.97,1.05,0,1.71-.17,2.08-.42h.08v.53c0,.84-.68,1.6-2.56,1.6-2.27,0-3.47-1.54-3.47-3.36,0-2,1.35-3.63,3.39-3.63,1.72,0,3.06.97,3.06,2.65,0,1.32-.99,1.67-3.22,1.67ZM144.77,18.92c-.8,0-1.14.52-1.2,1.15h.89c1.08,0,1.27-.17,1.27-.46,0-.34-.3-.7-.96-.7Z"/>
      </g>
    </g>
  </g>
</svg>