<?xml version="1.0" encoding="UTF-8"?>
<svg id="Layer_2" data-name="Layer 2" xmlns="http://www.w3.org/2000/svg" xmlns:xlink="http://www.w3.org/1999/xlink" viewBox="0 0 215.89 38.79">
  <defs>
    <style>
      .cls-1 {
        filter: url(#drop-shadow-1);
      }

      .cls-2 {
        fill: #fff;
        stroke-width: 0px;
      }
    </style>
    <filter id="drop-shadow-1" filterUnits="userSpaceOnUse">
      <feOffset dx="-2.83" dy="2.83"/>
      <feGaussianBlur result="blur" stdDeviation="1.7"/>
      <feFlood flood-color="#264078" flood-opacity=".55"/>
      <feComposite in2="blur" operator="in"/>
      <feComposite in="SourceGraphic"/>
    </filter>
  </defs>
  <g id="logo">
    <g class="cls-1">
      <g>
        <g>
          <path class="cls-2" d="M18.86,38.64c-3.48.34-5.49-.8-5.71-3.07l-.15-1.56h.12c1.08.9,3.2,1.29,5.01,1.11,2.01-.2,2.61-.74,2.5-1.8-.09-.96-1-1.2-3.45-1.44-3.5-.35-4.95-1.48-5.19-3.88-.28-2.82,2.04-5.59,6.04-5.98,3.89-.38,5.55,1.23,5.71,2.86l.17,1.67h-.11c-1.16-.94-3.1-1.21-4.75-1.04-2.15.21-2.83.86-2.74,1.75.07.71.41,1.07,3.39,1.38,3.32.34,5,1.52,5.24,3.97.32,3.27-1.87,5.62-6.08,6.03Z"/>
          <path class="cls-2" d="M37.06,36.86l-1.03.08c-1.05.08-1.66-.26-2.4-1.22-2.83-3.68-5.36-8.95-6.57-14.19l2.43-.19c1.49-.12,2.45.89,2.7,1.82.55,2.01,1.87,5.35,3.29,7.84,1.08-2.71,2.05-7.08,2.31-10.31l2.2-.17c1.08-.08,2,.54,2.09,1.66.05.6-.25,1.8-.69,3.58-.79,3.2-2.91,8.92-4.33,11.09Z"/>
          <path class="cls-2" d="M53.6,35.94c-4.32.25-7.8-2.69-8.09-7.65-.29-5.12,2.52-8.67,7.62-8.96,3.88-.22,7.77,2.46,8.06,7.63.3,5.26-2.45,8.69-7.6,8.98ZM52.9,22.89c-2.16.12-3.2,2.05-3.05,4.71.19,3.35,1.57,4.89,3.96,4.75,1.97-.11,3.21-1.84,3.04-4.76-.2-3.47-1.52-4.84-3.96-4.71Z"/>
          <path class="cls-2" d="M67.95,35.1c-2.16.08-3.49-.88-3.54-2.28l-.07-1.84h.14c.55.41,1.2.66,2.44.61,1.22-.05,1.65-.78,1.61-1.79l-.42-10.82,1.54-.06c1.61-.06,2.86.81,2.92,2.39l.33,8.36c.13,3.24-1.45,5.28-4.94,5.42Z"/>
          <path class="cls-2" d="M85.97,34.5l-1.79.04c-4.16.1-6.51-1.96-6.62-6.35l-.07-2.67c-.04-1.45.02-3.06.17-4.28.25-2.03,1.45-2.66,2.99-2.7l8.65-.21.03,1.04c.04,1.52-.74,2.55-2.58,2.59l-4.83.12c-.07.78-.11,1.94-.1,2.69l6.14-.15.04,1.59c.03,1.15-.81,1.81-2.35,1.85l-3.75.09v.58c.05,1.7.62,2.29,2.83,2.23l1.15-.03c1.31-.03,2.41-.17,3.69-.53l.04,1.68c.04,1.45-.84,2.34-3.65,2.41Z"/>
          <path class="cls-2" d="M96.31,34.36c-2.16.02-3.46-.98-3.47-2.38l-.02-1.84h.14c.53.43,1.18.7,2.42.69,1.22-.01,1.67-.73,1.66-1.74l-.1-10.83h1.54c1.61-.03,2.84.88,2.85,2.47l.08,8.37c.03,3.24-1.61,5.24-5.1,5.27Z"/>
          <path class="cls-2" d="M131.47,34.34c-1.52-.03-2.61-.87-2.58-2.53.02-1.43-.05-5.5-.26-7.85l-2.29,6.63c-.34.96-1.03,2.65-1.65,3.63l-1.22-.02c-1.5-.03-2.65-1.17-3.58-4.41l-.76-2.66c-.37-1.32-.83-2.73-1.07-3.4-.32,2.71-.61,7.74-.66,10.36l-1.63-.03c-1.33-.02-2.54-.96-2.51-2.53.07-4.55.79-10.04,1.6-13.36l1.52.02c2.53.04,3.8,1.26,4.35,2.67l1.19,3.1c.51,1.34,1.14,3.17,1.47,4.51.36-1.17.87-2.56,1.37-3.7l1.58-3.61c.6-1.35,1.37-2.3,1.96-2.77h.8c2.3.05,3.38,1.33,3.64,3.62.36,3.11.67,7.99.6,12.34l-1.86-.03Z"/>
          <path class="cls-2" d="M149.66,34.99c-1.58-.06-2.39-.55-2.62-1.99-.09-.58-.21-1.21-.37-1.88l-5.47-.21c-.39,1.14-.73,2.73-.95,3.71l-1.77-.07c-1.4-.05-1.99-.86-1.95-2.03.09-2.3,3.44-10.91,6.3-13.68l1.7.07c1.54.06,2.52.88,3.02,1.77,1.42,2.59,3.57,8.95,4.07,14.38l-1.98-.08ZM144.3,22.86c-.74,1.28-1.5,3.12-2.02,4.66l3.63.14c-.4-1.58-1.02-3.51-1.61-4.8Z"/>
          <path class="cls-2" d="M168.4,25.17c-.74-1.08-2.68-1.79-4.43-1.89-2.57-.15-4.55,1.44-4.7,4.01-.19,3.24,1.7,4.89,4.27,5.04,1.7.1,3.62-.44,4.45-1.22h.12s-.09,1.64-.09,1.64c-.12,2.04-2.25,3.49-5.35,3.31-4.34-.25-8.06-3.6-7.77-8.61.27-4.62,3.73-8.26,9.01-7.96,3.1.18,4.85,1.82,4.72,4.05l-.09,1.63h-.12ZM163.69,15.52l4.23-1.39-.04.64c-.1,1.75-.73,2.24-2.29,2.93l-2.11.94-1.94-1.15c-1.52-.89-2.08-1.48-1.97-3.32l.03-.53,4.08,1.87Z"/>
          <path class="cls-2" d="M177.23,23.25l-.33,4.2c2.47-2.97,3.2-3.79,4.89-5.27.97-.85,1.55-.94,2.86-.84l3.19.25v.12c-2.15,1.75-5.06,4.71-6.83,6.71.96,1.6,1.89,3.29,3.07,4.74,1.05,1.3,1.44,1.68,2.56,2.02-.62,1.78-1.38,2.29-2.82,2.18-.87-.07-2.05-.6-2.66-1.38-1.72-2.21-2.9-4.24-4.38-6.89l-.59,7.52-1.74-.14c-1.88-.15-2.51-1.49-2.42-2.7l1.04-13.32,1.54.12c1.88.15,2.72,1.46,2.63,2.7Z"/>
          <path class="cls-2" d="M197.87,38.73l-1.79-.18c-4.14-.41-6.22-2.74-5.79-7.12l.26-2.66c.14-1.44.39-3.04.7-4.23.5-1.99,1.77-2.46,3.3-2.31l8.61.86-.1,1.03c-.15,1.51-1.05,2.44-2.88,2.26l-4.81-.48c-.17.77-.35,1.91-.43,2.66l6.11.61-.16,1.58c-.11,1.14-1.02,1.7-2.56,1.55l-3.73-.37-.06.57c-.17,1.69.32,2.34,2.52,2.56l1.14.11c1.3.13,2.41.12,3.73-.07l-.17,1.67c-.14,1.44-1.12,2.22-3.92,1.95Z"/>
        </g>
        <g>
          <path class="cls-2" d="M5.34,32.84C.19,22.53-.93,10.44.68,8.71s9.77-1.69,26.58,5.13c-8.04-1.3-18.42-1.14-20.09.58-1.67,1.73-2.83,7.76-1.82,18.42"/>
          <path class="cls-2" d="M190.81,13.1c10.31-5.16,22.39-6.27,24.13-4.66,1.73,1.61,1.69,9.77-5.13,26.58,1.3-8.04,1.14-18.42-.58-20.09-1.73-1.67-7.76-2.83-18.42-1.82"/>
        </g>
      </g>
      <g>
        <path class="cls-2" d="M36.42,6.99c-.41,0-.78-.02-1.08-.12v2.87h-1.02c-.6,0-1.26-.42-1.26-1.42V1.69c.62-.14,1.68-.35,2.47-.35h.92c1.71,0,3.05.96,3.05,2.69s-1.37,2.96-3.08,2.96ZM36.25,3.14h-.46c-.11,0-.35.04-.46.06v1.85c.25.08.54.11.86.11.72,0,1.02-.34,1.02-.94,0-.86-.38-1.08-.97-1.08Z"/>
        <path class="cls-2" d="M44.53,2.96c1.8,0,3.42,1.37,3.42,3.41,0,2.16-1.31,3.55-3.59,3.55-1.88,0-3.42-1.39-3.42-3.33,0-2.18,1.51-3.62,3.59-3.62ZM44.39,4.76c-.62,0-1.19.66-1.19,1.56,0,1.27.5,1.82,1.31,1.82.72,0,1.19-.66,1.19-1.57,0-1.19-.52-1.81-1.31-1.81Z"/>
        <path class="cls-2" d="M53.66,9.83h-.61c-.76,0-1.12-.36-1.5-.96-.89-1.38-1.81-3.8-2.1-5.73h1.19c.74,0,1.21.53,1.29.95.2,1.06.79,2.61,1.09,3.18.42-.78,1.01-2.65,1.25-4.13h1.09c.58,0,.92.35.92.9,0,.48-.16.96-.31,1.42-.43,1.26-1.52,3.5-2.32,4.38Z"/>
        <path class="cls-2" d="M61.09,7.26h-.98c.13.66.67.97,1.62.97,1.06,0,1.71-.17,2.09-.42h.08v.53c0,.84-.68,1.59-2.57,1.59-2.28,0-3.48-1.54-3.48-3.36,0-2,1.36-3.63,3.39-3.63,1.73,0,3.07.97,3.07,2.65,0,1.32-1,1.67-3.23,1.67ZM61.25,4.64c-.8,0-1.14.52-1.2,1.15h.89c1.08,0,1.27-.17,1.27-.46,0-.33-.3-.7-.96-.7Z"/>
        <path class="cls-2" d="M69.64,9.93c-1.94,0-3.44-1.59-3.44-3.38,0-2.22,1.37-3.6,3.12-3.6.84,0,1.46.37,1.7.89V.86h.82c.91,0,1.4.48,1.4,1.59v3.83c0,2.39-.97,3.65-3.6,3.65ZM69.59,4.71c-.61,0-1.13.64-1.13,1.64,0,1.3.6,1.82,1.43,1.82.71,0,1.08-.55,1.08-1.58,0-1.47-.56-1.88-1.38-1.88Z"/>
        <path class="cls-2" d="M80.05,9.74h-3.53c-.68,0-1.33-.29-1.33-1.12,0-.4.24-.89.8-1.44l1.97-1.92c.1-.1.28-.32.32-.43h-3.11v-.64c0-.71.66-1.06,1.21-1.06h3.33c.78,0,1.32.47,1.32,1.21,0,.47-.42,1.07-.98,1.62l-1.63,1.58c-.08.08-.24.29-.31.44h3.03v.82c0,.48-.48.92-1.1.92Z"/>
        <path class="cls-2" d="M83.95,1.98c.3-.23.71-.44,1.19-.44h.24v1.61h1.93v.8c0,.56-.6,1-1.12,1h-.82v2.39c0,.44.28.71.72.71.54,0,.79-.05,1.03-.14h.06v.89c0,.55-.5,1.06-1.69,1.06s-2.34-.54-2.34-2.35V3.39c0-.6.35-1.08.79-1.42Z"/>
        <path class="cls-2" d="M92.14,7.26h-.98c.13.66.67.97,1.62.97,1.06,0,1.72-.17,2.09-.42h.08v.53c0,.84-.68,1.59-2.57,1.59-2.28,0-3.48-1.54-3.48-3.36,0-2,1.36-3.63,3.39-3.63,1.73,0,3.07.97,3.07,2.65,0,1.32-1,1.67-3.23,1.67ZM92.29,4.64c-.8,0-1.14.52-1.2,1.15h.89c1.08,0,1.27-.17,1.27-.46,0-.33-.3-.7-.96-.7Z"/>
        <path class="cls-2" d="M106.79,9.74c-1.01,0-1.32-.34-1.32-1.34v-2.31c0-.89-.3-1.28-1.07-1.28-.66,0-1.02.44-1.02,1.25v3.69h-.77c-.97,0-1.51-.38-1.51-1.34v-2.31c0-1.89,1.26-3.13,3.36-3.13,2.34,0,3.29,1.24,3.29,3.19v3.6h-.96Z"/>
        <path class="cls-2" d="M112.63,9.92c-1.27,0-2.82-.6-2.82-2.1s1.05-2.21,3.45-2.21h.32v-.28c0-.54-.42-.67-1.32-.67-1.24,0-1.69.29-2.16.72h-.06v-.8c0-.82.85-1.63,2.73-1.63s3.01.92,3.01,2.87v1.02c0,2.4-.77,3.08-3.17,3.08ZM112.72.78c.38-.4.86-.65,1.4-.65.49,0,.77.31.77.71,0,.49-.36.91-.73,1.07-.43.18-1.06.26-1.8.26h-.55v-.06c.2-.49.55-.96.91-1.33ZM113.64,7.03h-.46c-.86,0-1.21.22-1.21.66,0,.42.26.63.9.63.41,0,.77-.2.77-.8v-.49Z"/>
        <path class="cls-2" d="M127.48,9.74c-1.21,0-1.49-.52-1.49-1.33v-2.43c0-.85-.29-1.16-.95-1.16s-.85.47-.85,1.13v3.8h-.79c-.92,0-1.41-.3-1.41-1.33v-2.49c0-.78-.3-1.1-.9-1.1-.63,0-.89.32-.89,1.14v3.79h-.79c-1.02,0-1.49-.49-1.49-1.33v-2.31c0-1.92,1.1-3.14,3.2-3.14,1.03,0,1.81.64,2.03,1.18.31-.5,1.12-1.18,2.06-1.18,1.92,0,3.06,1.14,3.06,3.2v3.59h-.79Z"/>
        <path class="cls-2" d="M139.89,9.74c-1.01,0-1.32-.34-1.32-1.34v-2.31c0-.89-.3-1.28-1.07-1.28-.66,0-1.02.44-1.02,1.25v3.69h-.77c-.97,0-1.51-.38-1.51-1.34v-2.31c0-1.89,1.26-3.13,3.36-3.13,2.34,0,3.29,1.24,3.29,3.19v3.6h-.96Z"/>
        <path class="cls-2" d="M144.32,2.77c-.66,0-1.2-.5-1.2-1.13s.54-1.13,1.2-1.13,1.19.5,1.19,1.13-.53,1.13-1.19,1.13ZM145.4,9.83c-1.21,0-2.16-.6-2.16-2.16V3.35h.56c1.3,0,1.72.37,1.72,1.57v2.42c0,.59.28.77.91.77h.28v.67c0,.79-.6,1.06-1.31,1.06Z"/>
        <path class="cls-2" d="M151.51,7.26h-.98c.13.66.67.97,1.62.97,1.06,0,1.72-.17,2.09-.42h.08v.53c0,.84-.68,1.59-2.57,1.59-2.28,0-3.48-1.54-3.48-3.36,0-2,1.36-3.63,3.39-3.63,1.73,0,3.07.97,3.07,2.65,0,1.32-1,1.67-3.23,1.67ZM151.67,4.64c-.8,0-1.14.52-1.2,1.15h.89c1.08,0,1.27-.17,1.27-.46,0-.33-.3-.7-.96-.7Z"/>
        <path class="cls-2" d="M162.1,5.3c-.2-.22-.83-.46-1.46-.46-1.12,0-1.74.56-1.74,1.49,0,1.13.62,1.66,1.63,1.66.71,0,1.2-.14,1.6-.37h.02v.68c0,.88-.9,1.58-2.1,1.58-2,0-3.43-1.36-3.43-3.42,0-1.88,1.31-3.5,3.63-3.5,1.04,0,1.91.68,1.91,1.54v.8h-.06ZM160.02.85l2.16-.85v.33c0,.91-.31,1.19-1.1,1.6l-1.07.55-1.04-.54c-.82-.42-1.13-.71-1.13-1.67v-.28l2.18.85Z"/>
        <path class="cls-2" d="M167.48,2.96c1.8,0,3.42,1.37,3.42,3.41,0,2.16-1.31,3.55-3.59,3.55-1.88,0-3.42-1.39-3.42-3.33,0-2.18,1.51-3.62,3.59-3.62ZM167.34,4.76c-.62,0-1.19.66-1.19,1.56,0,1.27.5,1.82,1.31,1.82.72,0,1.19-.66,1.19-1.57,0-1.19-.52-1.81-1.31-1.81Z"/>
        <path class="cls-2" d="M180.13,2.96c1.8,0,3.42,1.37,3.42,3.41,0,2.16-1.31,3.55-3.59,3.55-1.88,0-3.42-1.39-3.42-3.33,0-2.18,1.51-3.62,3.59-3.62ZM179.99,4.76c-.62,0-1.19.66-1.19,1.56,0,1.27.5,1.82,1.31,1.82.72,0,1.19-.66,1.19-1.57,0-1.19-.52-1.81-1.31-1.81Z"/>
      </g>
    </g>
  </g>
</svg>