<?xml version="1.0" encoding="UTF-8"?>
<svg id="Layer_2" data-name="Layer 2" xmlns="http://www.w3.org/2000/svg" xmlns:xlink="http://www.w3.org/1999/xlink" viewBox="0 0 215.89 47.21">
  <defs>
    <style>
      .cls-1 {
        filter: url(#drop-shadow-1);
      }

      .cls-2 {
        fill: #fff;
        stroke-width: 0px;
      }
    </style>
    <filter id="drop-shadow-1" filterUnits="userSpaceOnUse">
      <feOffset dx="-2.83" dy="2.83"/>
      <feGaussianBlur result="blur" stdDeviation="1.7"/>
      <feFlood flood-color="#264078" flood-opacity=".55"/>
      <feComposite in2="blur" operator="in"/>
      <feComposite in="SourceGraphic"/>
    </filter>
  </defs>
  <g id="logo">
    <g class="cls-1">
      <g>
        <g>
          <path class="cls-2" d="M24.33,46.94l-2.17.2c-3.95.37-7.08-.85-7.44-4.68l-1.51-16.22c1.57-.76,4.46-1.47,6.18-1.63l2.29-.21c5.38-.5,11.51,2.43,12.2,9.92.62,6.69-3.25,12.03-9.56,12.62ZM21.86,29.31l-1.27.12c-.22.02-.63.12-.94.22l1.05,11.28c.07.76.61,1.39,1.41,1.32l.99-.09c3.5-.33,5.15-3.02,4.8-6.78-.41-4.36-3.03-6.34-6.03-6.06Z"/>
          <path class="cls-2" d="M49.89,44.94l-2.49.17c-5.78.39-9.17-2.34-9.57-8.43l-.25-3.7c-.13-2.01-.16-4.25-.01-5.96.23-2.84,1.86-3.78,4-3.92l12-.8.1,1.44c.14,2.11-.88,3.59-3.44,3.76l-6.7.45c-.06,1.09-.04,2.7.03,3.75l8.52-.57.15,2.2c.11,1.6-1.01,2.57-3.15,2.71l-5.2.35.05.8c.16,2.36.98,3.14,4.04,2.94l1.6-.11c1.82-.12,3.34-.38,5.1-.95l.16,2.33c.13,2.01-1.03,3.31-4.92,3.57Z"/>
          <path class="cls-2" d="M79.7,26.28l-3.13.11.6,16.98-2.65.09c-1.82.06-3.45-.71-3.53-3.04l-.49-13.82-6.3.22-.08-2.11c-.05-1.34,1.08-2.98,3.32-3.06l15.48-.55.07,2.11c.05,1.38-1.43,3-3.29,3.06Z"/>
          <path class="cls-2" d="M96.08,43.46c-5.66.07-9.71-3.69-9.79-9.64l-.16-12.83,2.59-.03c1.95-.02,3.5,1.11,3.54,4.15l.11,8.45c.05,3.74,1.37,4.94,4.22,4.91,2.4-.03,3.56-1.55,3.52-4.84l-.16-12.8,2.59-.03c2.27-.03,3.5,1.11,3.54,4.02l.11,8.58c.07,5.57-3.3,9.99-10.12,10.08Z"/>
          <path class="cls-2" d="M129.46,43.62c-6.24-.13-11.4-4.68-11.26-11.53.13-6.56,4.98-11.71,12.75-11.55,4.35.09,6.51,2.38,6.46,4.84l-.04,2.21h-.16c-1.13-1.08-3.13-2.02-6.52-2.09-3.3-.07-6.32,2.05-6.4,6.21-.1,4.77,2.48,6.9,5.78,6.97,1.76.04,1.9-.54,1.92-1.34l.05-2.46c.02-.93-.14-2.37-.35-3.05l3.1.06c1.95.04,2.95,1.34,2.92,3l-.06,2.94c-.07,3.65-2.39,5.91-8.19,5.79Z"/>
          <path class="cls-2" d="M158.27,44.15c-2.21-.1-3.33-.79-3.62-2.79-.12-.81-.28-1.68-.49-2.62l-7.61-.34c-.55,1.58-1.03,3.8-1.35,5.16l-2.46-.11c-1.95-.09-2.77-1.21-2.69-2.84.14-3.2,4.87-15.16,8.88-18.98l2.37.11c2.14.1,3.5,1.24,4.18,2.49,1.95,3.61,4.89,12.48,5.55,20.04l-2.75-.12ZM150.92,27.23c-1.04,1.78-2.11,4.33-2.85,6.47l5.05.22c-.54-2.2-1.38-4.9-2.2-6.7Z"/>
          <path class="cls-2" d="M177,28.32l-3.13-.21-1.13,16.96-2.65-.18c-1.82-.12-3.36-1.06-3.21-3.39l.92-13.8-6.29-.42.14-2.11c.09-1.34,1.38-2.86,3.61-2.71l15.46,1.03-.14,2.11c-.09,1.37-1.73,2.84-3.58,2.71Z"/>
          <path class="cls-2" d="M190.96,47.07c-5.99-.56-10.18-5.32-9.54-12.2.66-7.1,5.27-11.4,12.34-10.74,5.38.5,10.17,4.99,9.51,12.16-.68,7.3-5.18,11.44-12.31,10.78ZM192.7,28.98c-2.99-.28-4.83,2.15-5.17,5.85-.43,4.65,1.14,7.05,4.46,7.36,2.74.25,4.8-1.87,5.18-5.91.45-4.81-1.09-6.98-4.46-7.29Z"/>
        </g>
        <g>
          <path class="cls-2" d="M5.34,33.93C.19,23.62-.93,11.53.68,9.8s9.77-1.69,26.58,5.13c-8.04-1.3-18.42-1.14-20.09.58-1.67,1.73-2.83,7.76-1.82,18.42"/>
          <path class="cls-2" d="M190.81,14.19c10.31-5.16,22.39-6.27,24.13-4.66,1.73,1.61,1.69,9.77-5.13,26.58,1.3-8.04,1.14-18.42-.58-20.09-1.73-1.67-7.76-2.83-18.42-1.82"/>
        </g>
      </g>
      <g>
        <path class="cls-2" d="M79.8,10.83c-.7,0-1.46-.5-1.46-1.45v-2.37h-3.03v3.81h-1.14c-.7,0-1.45-.5-1.45-1.45V1.5h1.32c.68,0,1.24.5,1.24,1.2v2.26h3.04V1.5h1.26c.61,0,1.31.45,1.31,1.2v8.12h-1.11Z"/>
        <path class="cls-2" d="M86.52,11.03c-1.43,0-3.18-.68-3.18-2.37s1.19-2.49,3.89-2.49h.37v-.31c0-.61-.47-.76-1.49-.76-1.39,0-1.91.32-2.43.81h-.07v-.91c0-.92.96-1.84,3.08-1.84s3.39,1.04,3.39,3.23v1.15c0,2.7-.87,3.47-3.57,3.47ZM86.62.73c.43-.45.97-.73,1.58-.73.55,0,.87.35.87.8,0,.55-.41,1.03-.83,1.2-.49.2-1.19.3-2.03.3h-.62v-.07c.23-.55.62-1.08,1.03-1.5ZM87.66,7.77h-.51c-.97,0-1.37.24-1.37.74,0,.47.3.72,1.01.72.46,0,.87-.23.87-.91v-.55Z"/>
        <path class="cls-2" d="M96.31,11.03c-2.54,0-3.79-1.39-3.79-3.58V.82h.62c1.42,0,1.87.42,1.87,1.62v1.74c.42-.54.88-1.01,1.89-1.01,2.03,0,3.49,1.41,3.49,3.83s-1.7,4.03-4.08,4.03ZM96.43,5.19c-.82,0-1.41.73-1.41,1.95,0,1.46.57,1.95,1.45,1.95.81,0,1.35-.66,1.35-1.81,0-1.5-.5-2.08-1.39-2.08Z"/>
        <path class="cls-2" d="M105.33,10.94c-1.37,0-2.54-.81-2.54-2.57V.82h.91c1.12,0,1.66.51,1.66,1.77v5.39c0,.66.37.87,1.08.87h.57v.89c0,.91-.87,1.19-1.68,1.19Z"/>
        <path class="cls-2" d="M111.85,11.03c-1.43,0-3.18-.68-3.18-2.37s1.19-2.49,3.89-2.49h.37v-.31c0-.61-.47-.76-1.49-.76-1.39,0-1.91.32-2.43.81h-.07v-.91c0-.92.96-1.84,3.08-1.84s3.39,1.04,3.39,3.23v1.15c0,2.7-.87,3.47-3.57,3.47ZM112.99,7.77h-.51c-.97,0-1.37.24-1.37.74,0,.47.3.72,1.01.72.46,0,.87-.23.87-.91v-.55Z"/>
        <path class="cls-2" d="M124.23,10.83c-1.14,0-1.49-.38-1.49-1.51v-2.61c0-1-.34-1.45-1.2-1.45-.74,0-1.15.5-1.15,1.41v4.16h-.87c-1.09,0-1.7-.43-1.7-1.51v-2.61c0-2.14,1.42-3.53,3.79-3.53,2.64,0,3.71,1.39,3.71,3.6v4.06h-1.08Z"/>
        <path class="cls-2" d="M131.68,3.19c2.03,0,3.85,1.54,3.85,3.84,0,2.43-1.47,4-4.04,4-2.12,0-3.85-1.57-3.85-3.76,0-2.46,1.7-4.08,4.04-4.08ZM131.52,5.22c-.7,0-1.34.74-1.34,1.76,0,1.43.57,2.06,1.47,2.06.81,0,1.34-.74,1.34-1.77,0-1.34-.58-2.04-1.47-2.04Z"/>
        <path class="cls-2" d="M140.63,11.04c-2.03,0-2.76-.74-2.76-1.83v-.74h.07c.49.37,1.23.65,2.28.65.93,0,1.23-.22,1.23-.58,0-.34-.18-.47-1.72-.69-1.34-.19-2.04-.8-2.04-1.99,0-1.78,1.69-2.69,3.39-2.69s2.65.66,2.65,1.77v.77h-.07c-.5-.37-1.28-.62-2.28-.62s-1.27.26-1.27.57c0,.28.16.38,1.72.64,1.24.2,2.08.88,2.08,2.14,0,1.6-1.24,2.61-3.29,2.61Z"/>
      </g>
    </g>
  </g>
</svg>