<?xml version="1.0" encoding="UTF-8"?>
<svg id="Layer_2" data-name="Layer 2" xmlns="http://www.w3.org/2000/svg" xmlns:xlink="http://www.w3.org/1999/xlink" viewBox="-10 -10 229.89 109.65">
  <defs>
    <style>
      .cls-1 {
        filter: url(#drop-shadow-1);
      }

      .cls-2 {
        fill: #fff;
        stroke-width: 0px;
      }
    </style>
    <filter id="drop-shadow-1" filterUnits="userSpaceOnUse">
      <feOffset dx="-2.83" dy="2.83"/>
      <feGaussianBlur result="blur" stdDeviation="1.7"/>
      <feFlood flood-color="#264078" flood-opacity=".55"/>
      <feComposite in2="blur" operator="in"/>
      <feComposite in="SourceGraphic"/>
    </filter>
  </defs>
  <g id="logo">
    <g class="cls-1">
      <g>
        <g>
          <path class="cls-2" d="M32.03,42.79l-3.03.26,1.41,16.4-2.56.22c-1.76.15-3.37-.52-3.57-2.77l-1.15-13.34-6.08.52-.17-2.04c-.11-1.3.9-2.94,3.06-3.12l14.95-1.29.17,2.04c.11,1.33-1.24,2.97-3.03,3.12Z"/>
          <path class="cls-2" d="M48.16,58.68c-5.82.35-10.53-3.59-10.93-10.27-.42-6.9,3.36-11.7,10.23-12.11,5.23-.32,10.48,3.28,10.9,10.24.43,7.09-3.27,11.72-10.2,12.14ZM47.16,41.1c-2.91.18-4.3,2.78-4.09,6.37.27,4.52,2.14,6.58,5.36,6.38,2.66-.16,4.32-2.5,4.08-6.43-.28-4.67-2.07-6.52-5.35-6.32Z"/>
          <path class="cls-2" d="M79.31,42.18c-1.13-1.36-3.83-2.06-6.18-1.98-3.47.12-5.93,2.51-5.8,5.98.16,4.37,2.9,6.35,6.37,6.22,2.29-.08,4.8-1.04,5.81-2.19h.16s.08,2.19.08,2.19c.1,2.76-2.58,4.96-6.76,5.11-5.85.21-11.27-3.81-11.51-10.57-.22-6.23,3.96-11.56,11.08-11.81,4.18-.15,6.73,1.84,6.84,4.84l.08,2.2h-.16Z"/>
          <path class="cls-2" d="M99.73,56.46c-2.14.03-3.26-.58-3.66-2.49-.17-.77-.36-1.61-.62-2.5l-7.38.1c-.44,1.56-.79,3.73-1.02,5.07l-2.39.03c-1.89.03-2.74-1.02-2.76-2.6-.04-3.1,3.86-14.93,7.53-18.85l2.29-.03c2.08-.03,3.45,1.01,4.18,2.18,2.09,3.38,5.43,11.8,6.48,19.07l-2.67.04ZM91.68,40.51c-.91,1.78-1.8,4.3-2.39,6.42l4.9-.06c-.65-2.1-1.61-4.66-2.5-6.35Z"/>
          <path class="cls-2" d="M121.4,49.51c-1.05-.02-2.01-.09-2.78-.35l-.11,7.41-2.63-.04c-1.55-.02-3.24-1.13-3.2-3.71l.26-17.14c1.62-.35,4.35-.83,6.4-.8l2.39.04c4.43.07,7.83,2.6,7.77,7.06-.07,4.65-3.65,7.6-8.08,7.53ZM121.12,39.55l-1.18-.02c-.28,0-.9.08-1.18.14l-.07,4.77c.65.23,1.39.3,2.23.31,1.86.03,2.65-.83,2.67-2.38.03-2.23-.95-2.8-2.47-2.83Z"/>
          <path class="cls-2" d="M147.42,57.38c-2.14-.08-3.23-.74-3.53-2.67-.13-.78-.28-1.62-.5-2.53l-7.37-.27c-.52,1.53-.97,3.69-1.27,5.01l-2.38-.09c-1.89-.07-2.69-1.15-2.63-2.73.11-3.1,4.6-14.72,8.46-18.46l2.29.08c2.08.08,3.4,1.18,4.07,2.38,1.92,3.48,4.83,12.06,5.53,19.37l-2.66-.1ZM140.17,41.04c-.99,1.73-2.01,4.21-2.71,6.29l4.89.18c-.54-2.13-1.38-4.73-2.18-6.47Z"/>
          <path class="cls-2" d="M167.59,58.66c-1.98-.12-3.17-1.06-3.7-2.49l-1.37-3.56c-.73-1.88-1.29-2.28-2.68-2.52l-.92-.15-.48,8.01-2.26-.13c-2.29-.14-3.54-1.61-3.42-3.59l1.04-17.36c1.52-.44,4.82-.64,6.46-.55l2.38.14c4.58.27,7.68,2.97,7.45,6.84-.17,2.85-2.17,5.15-4.24,5.49.99.52,1.47,1.33,2.18,3.08l1.43,3.56c.54,1.31,1.04,2.3,1.33,2.69v.16c-.74.33-1.93.44-3.2.37ZM160.63,41.01c-.25-.01-.75.02-1.18.05l-.28,4.7c.71.14,1.45.18,2.35.23,1.67.1,2.58-1.12,2.65-2.33.09-1.55-.63-2.49-2.33-2.59l-1.21-.07Z"/>
          <path class="cls-2" d="M190.11,60.32c-2.13-.18-3.19-.89-3.4-2.84-.09-.79-.2-1.63-.37-2.55l-7.35-.63c-.6,1.5-1.15,3.63-1.51,4.94l-2.38-.2c-1.88-.16-2.63-1.28-2.49-2.86.26-3.09,5.31-14.48,9.35-18.02l2.29.2c2.07.18,3.34,1.34,3.95,2.58,1.75,3.57,4.24,12.28,4.58,19.62l-2.66-.23ZM183.66,43.65c-1.08,1.68-2.22,4.1-3.01,6.15l4.88.42c-.44-2.15-1.14-4.79-1.87-6.57Z"/>
        </g>
        <g>
          <path class="cls-2" d="M57.31,89.63c-4.71.24-7.34-1.43-7.49-4.5l-.11-2.1h.16c1.4,1.29,4.23,1.95,6.67,1.83,2.72-.14,3.56-.83,3.49-2.25-.06-1.3-1.26-1.67-4.55-2.16-4.69-.7-6.57-2.31-6.74-5.56-.19-3.81,3.1-7.39,8.52-7.66,5.26-.26,7.4,2.02,7.51,4.22l.11,2.26h-.16c-1.5-1.34-4.1-1.83-6.33-1.72-2.91.15-3.86.97-3.8,2.18.05.96.48,1.47,4.48,2.07,4.44.68,6.64,2.37,6.8,5.68.22,4.43-2.89,7.44-8.58,7.73Z"/>
          <path class="cls-2" d="M72.88,88.47c-1.33.04-2.76-1.05-2.84-3.22l-.61-18.06,3.28-.11c1.15-.04,2.64.94,2.7,2.67l.62,18.62-3.16.11Z"/>
          <path class="cls-2" d="M93.56,71.53l-3.04.05.29,16.46-2.57.04c-1.77.03-3.33-.75-3.37-3.01l-.24-13.39-6.11.11-.04-2.04c-.02-1.3,1.1-2.87,3.27-2.91l15-.27.04,2.04c.02,1.33-1.44,2.88-3.23,2.91Z"/>
          <path class="cls-2" d="M109.14,88.44c-5.49-.02-9.35-3.73-9.32-9.5l.05-12.43h2.51c1.89.02,3.38,1.14,3.36,4.09l-.04,8.19c-.02,3.63,1.25,4.81,4.01,4.82,2.33.01,3.48-1.44,3.49-4.64l.05-12.4h2.51c2.2.02,3.38,1.14,3.36,3.96l-.04,8.31c-.02,5.4-3.36,9.63-9.96,9.6Z"/>
          <path class="cls-2" d="M139.13,88.5c-2.14-.06-3.24-.71-3.55-2.64-.13-.78-.3-1.62-.52-2.53l-7.38-.2c-.51,1.54-.94,3.7-1.22,5.02l-2.39-.07c-1.89-.05-2.7-1.13-2.65-2.71.08-3.1,4.47-14.76,8.29-18.54l2.29.06c2.08.06,3.41,1.15,4.09,2.35,1.95,3.47,4.94,12.01,5.7,19.32l-2.67-.07ZM131.73,72.23c-.98,1.74-1.98,4.23-2.66,6.32l4.9.14c-.56-2.12-1.42-4.72-2.24-6.45Z"/>
          <path class="cls-2" d="M159.29,89.6c-1.98-.1-3.18-1.03-3.73-2.45l-1.4-3.55c-.74-1.87-1.31-2.27-2.7-2.5l-.92-.14-.4,8.02-2.26-.11c-2.29-.12-3.55-1.58-3.45-3.56l.87-17.37c1.51-.45,4.81-.69,6.46-.61l2.38.12c4.58.23,7.71,2.9,7.51,6.77-.14,2.85-2.12,5.17-4.19,5.53,1,.52,1.49,1.32,2.21,3.06l1.47,3.55c.55,1.3,1.06,2.29,1.36,2.67v.16c-.74.34-1.92.46-3.19.4ZM152.17,72.01c-.25-.01-.75.03-1.18.07l-.24,4.71c.71.13,1.45.17,2.35.21,1.67.08,2.57-1.14,2.63-2.35.08-1.55-.65-2.49-2.35-2.57l-1.21-.06Z"/>
        </g>
        <g>
          <path class="cls-2" d="M5.34,50.53C.19,40.22-.93,28.14.68,26.41c1.61-1.73,9.77-1.69,26.58,5.13-8.04-1.3-18.42-1.14-20.09.58-1.67,1.73-2.83,7.76-1.82,18.42"/>
          <path class="cls-2" d="M184.81,30.8c10.31-5.16,22.39-6.27,24.13-4.66,1.73,1.61,1.69,9.77-5.13,26.58,1.3-8.04,1.14-18.42-.58-20.09-1.73-1.67-7.76-2.83-18.42-1.82"/>
        </g>
      </g>
      <g>
        <path class="cls-2" d="M59.89,10.13h-1.05c-2.45,0-3.8-1.24-3.8-3.83v-1.57c0-.85.05-1.8.16-2.51.18-1.19.89-1.54,1.8-1.54h5.08v.61c0,.89-.47,1.49-1.55,1.49h-2.84c-.05.46-.09,1.14-.09,1.58h3.61v.93c0,.68-.5,1.05-1.41,1.05h-2.2v.34c0,1,.32,1.35,1.62,1.35h.68c.77,0,1.42-.07,2.18-.26v.99c0,.85-.53,1.37-2.18,1.37Z"/>
        <path class="cls-2" d="M70.69,10c-1.14,0-1.49-.38-1.49-1.51v-2.61c0-1-.34-1.45-1.2-1.45-.74,0-1.15.5-1.15,1.41v4.16h-.87c-1.09,0-1.7-.43-1.7-1.51v-2.61c0-2.14,1.42-3.53,3.79-3.53,2.64,0,3.71,1.39,3.71,3.6v4.06h-1.08Z"/>
        <path class="cls-2" d="M80.28,5c-.23-.24-.93-.51-1.65-.51-1.26,0-1.96.64-1.96,1.68,0,1.27.7,1.87,1.84,1.87.8,0,1.35-.16,1.8-.42h.03v.77c0,.99-1.01,1.79-2.37,1.79-2.26,0-3.87-1.53-3.87-3.85,0-2.12,1.47-3.95,4.1-3.95,1.18,0,2.15.77,2.15,1.73v.91h-.07Z"/>
        <path class="cls-2" d="M86.19,10.22c-2.41,0-3.72-1.18-3.72-3.56V2.57h1c1.12,0,1.61.38,1.61,1.51v2.65c0,1.09.51,1.43,1.22,1.43.61,0,1.1-.35,1.1-1.53V2.57h1c1.03,0,1.6.43,1.6,1.51v2.65c0,2.38-1.51,3.49-3.8,3.49Z"/>
        <path class="cls-2" d="M95.96,7.21h-1.11c.15.74.76,1.09,1.83,1.09,1.19,0,1.93-.19,2.35-.47h.1v.6c0,.95-.77,1.8-2.89,1.8-2.57,0-3.92-1.73-3.92-3.79,0-2.26,1.53-4.1,3.83-4.1,1.95,0,3.46,1.09,3.46,2.99,0,1.49-1.12,1.88-3.64,1.88ZM96.14,4.26c-.91,0-1.28.58-1.35,1.3h1c1.22,0,1.43-.19,1.43-.51,0-.38-.34-.78-1.08-.78Z"/>
        <path class="cls-2" d="M108.28,10c-1.14,0-1.49-.38-1.49-1.51v-2.61c0-1-.34-1.45-1.2-1.45-.74,0-1.15.5-1.15,1.41v4.16h-.87c-1.1,0-1.7-.43-1.7-1.51v-2.61c0-2.14,1.42-3.53,3.79-3.53,2.64,0,3.7,1.39,3.7,3.6v4.06h-1.08Z"/>
        <path class="cls-2" d="M112.82,1.26c.34-.26.8-.5,1.34-.5h.27v1.81h2.18v.91c0,.64-.68,1.12-1.26,1.12h-.92v2.69c0,.5.31.8.81.8.61,0,.89-.05,1.16-.16h.07v1c0,.62-.57,1.19-1.91,1.19-1.27,0-2.64-.61-2.64-2.65V2.85c0-.68.39-1.22.89-1.6Z"/>
        <path class="cls-2" d="M123.12,4.49c-.32-.12-.57-.15-.91-.15-.62,0-1.11.31-1.11,1.22v4.45h-.7c-1.11,0-1.79-.51-1.79-1.76v-3.23c0-1.5,1.01-2.69,2.71-2.69,1.28,0,1.88.53,1.88,1.22v.95h-.08Z"/>
        <path class="cls-2" d="M128,10.21c-1.43,0-3.18-.68-3.18-2.37s1.19-2.49,3.89-2.49h.37v-.31c0-.61-.47-.76-1.49-.76-1.39,0-1.91.33-2.43.81h-.07v-.91c0-.92.96-1.84,3.08-1.84s3.39,1.04,3.39,3.23v1.15c0,2.7-.87,3.47-3.57,3.47ZM129.14,6.95h-.51c-.97,0-1.37.24-1.37.74,0,.47.3.72,1.01.72.46,0,.87-.23.87-.91v-.55Z"/>
        <path class="cls-2" d="M141.65,7.21h-1.11c.15.74.76,1.09,1.83,1.09,1.19,0,1.93-.19,2.35-.47h.1v.6c0,.95-.77,1.8-2.89,1.8-2.57,0-3.92-1.73-3.92-3.79,0-2.26,1.53-4.1,3.83-4.1,1.95,0,3.46,1.09,3.46,2.99,0,1.49-1.12,1.88-3.64,1.88ZM141.83,4.26c-.91,0-1.28.58-1.35,1.3h1c1.22,0,1.43-.19,1.43-.51,0-.38-.34-.78-1.08-.78Z"/>
        <path class="cls-2" d="M150.17,10.11c-1.37,0-2.54-.81-2.54-2.57V0h.91c1.12,0,1.66.51,1.66,1.77v5.39c0,.66.36.87,1.08.87h.57v.89c0,.91-.87,1.19-1.68,1.19Z"/>
        <path class="cls-2" d="M40.97,24.54c-1.37,0-2.54-.81-2.54-2.57v-7.54h.91c1.12,0,1.66.51,1.66,1.77v5.39c0,.66.36.87,1.08.87h.57v.89c0,.91-.87,1.19-1.68,1.19Z"/>
        <path class="cls-2" d="M48.2,24.65c-2.41,0-3.72-1.18-3.72-3.56v-4.1h1c1.12,0,1.61.38,1.61,1.51v2.65c0,1.1.51,1.43,1.22,1.43.61,0,1.1-.35,1.1-1.53v-4.07h1c1.03,0,1.6.43,1.6,1.51v2.65c0,2.38-1.51,3.49-3.8,3.49Z"/>
        <path class="cls-2" d="M61.8,22.88c.01.23.01.49.01.76,0,1.81-1.54,3.26-3.89,3.26-2.12,0-2.95-.95-2.95-1.89v-.8h.08c.46.42,1.33.66,2.53.66,1.08,0,1.66-.59,1.66-1.39,0-.12-.03-.3-.03-.43v-.26c-.16.47-.76.93-1.5.93-1.88,0-3.39-.95-3.39-3.26,0-2.04,1.61-3.68,4.14-3.68,2.26,0,3.31,1.31,3.31,3.34v1.96c0,.18.01.45.03.8ZM56.88,20.21c0,1.11.51,1.51,1.28,1.51.72,0,1.11-.55,1.11-1.39,0-1.09-.41-1.49-1.18-1.49s-1.22.5-1.22,1.37Z"/>
        <path class="cls-2" d="M67.32,24.63c-1.43,0-3.18-.68-3.18-2.37s1.19-2.49,3.89-2.49h.37v-.31c0-.61-.47-.76-1.49-.76-1.39,0-1.91.32-2.43.81h-.07v-.91c0-.92.96-1.84,3.08-1.84s3.39,1.04,3.39,3.23v1.15c0,2.7-.87,3.47-3.57,3.47ZM68.46,21.38h-.51c-.97,0-1.37.24-1.37.74,0,.47.3.72,1.01.72.46,0,.87-.23.87-.91v-.55Z"/>
        <path class="cls-2" d="M77.85,18.91c-.32-.12-.57-.15-.91-.15-.62,0-1.11.31-1.11,1.22v4.45h-.7c-1.11,0-1.79-.51-1.79-1.76v-3.23c0-1.5,1.01-2.69,2.71-2.69,1.28,0,1.88.53,1.88,1.22v.95h-.08Z"/>
        <path class="cls-2" d="M88.32,24.65c-1,0-1.58-.46-1.91-1.01v3.1h-.93c-1.03,0-1.57-.54-1.57-1.8v-3.93c0-2.66,1.47-4.22,4.11-4.22,2.18,0,3.81,1.47,3.81,3.77,0,2.54-1.49,4.1-3.51,4.1ZM87.73,18.74c-.7,0-1.27.68-1.27,1.77,0,1.58.68,2.14,1.55,2.14.81,0,1.26-.72,1.26-1.83,0-1.59-.49-2.08-1.54-2.08Z"/>
        <path class="cls-2" d="M97.89,24.65c-2.41,0-3.72-1.18-3.72-3.56v-4.1h1c1.12,0,1.61.38,1.61,1.51v2.65c0,1.1.51,1.43,1.22,1.43.61,0,1.09-.35,1.09-1.53v-4.07h1c1.03,0,1.59.43,1.59,1.51v2.65c0,2.38-1.51,3.49-3.8,3.49Z"/>
        <path class="cls-2" d="M108.75,18.91c-.32-.12-.57-.15-.91-.15-.62,0-1.11.31-1.11,1.22v4.45h-.7c-1.11,0-1.78-.51-1.78-1.76v-3.23c0-1.5,1.01-2.69,2.7-2.69,1.29,0,1.88.53,1.88,1.22v.95h-.08Z"/>
        <path class="cls-2" d="M115.18,18.91c-.32-.12-.57-.15-.91-.15-.62,0-1.11.31-1.11,1.22v4.45h-.7c-1.11,0-1.78-.51-1.78-1.76v-3.23c0-1.5,1.01-2.69,2.7-2.69,1.29,0,1.88.53,1.88,1.22v.95h-.08Z"/>
        <path class="cls-2" d="M121.62,18.91c-.32-.12-.57-.15-.91-.15-.62,0-1.11.31-1.11,1.22v4.45h-.7c-1.11,0-1.78-.51-1.78-1.76v-3.23c0-1.5,1.01-2.69,2.7-2.69,1.29,0,1.88.53,1.88,1.22v.95h-.08Z"/>
        <path class="cls-2" d="M127.45,20.17c0,.51-.39.97-.95.97h-3.25v-.69c0-.66.34-1.01,1.08-1.01h3.11v.73Z"/>
        <path class="cls-2" d="M134.5,16.29c-.28-.15-.81-.2-1.15-.2-.61,0-1.03.35-1.03.8v.88h1.7v.93c0,.5-.46.82-1.11.82h-.6v4.91h-.78c-1.22,0-1.72-.47-1.72-1.6v-5.12c0-2.68,1.61-3.42,3.01-3.42,1.26,0,1.73.63,1.73,1.41v.6h-.07Z"/>
        <path class="cls-2" d="M139.43,21.63h-1.11c.15.74.76,1.09,1.83,1.09,1.19,0,1.93-.19,2.35-.47h.09v.59c0,.95-.77,1.8-2.89,1.8-2.57,0-3.92-1.73-3.92-3.79,0-2.26,1.53-4.1,3.83-4.1,1.95,0,3.46,1.1,3.46,2.99,0,1.49-1.12,1.88-3.64,1.88ZM139.61,18.68c-.91,0-1.28.58-1.35,1.3h1c1.22,0,1.43-.19,1.43-.51,0-.38-.34-.78-1.08-.78Z"/>
        <path class="cls-2" d="M151.36,19.43c-.23-.24-.93-.51-1.65-.51-1.26,0-1.96.64-1.96,1.68,0,1.27.7,1.87,1.84,1.87.8,0,1.35-.16,1.8-.42h.03v.77c0,.99-1.01,1.79-2.37,1.79-2.26,0-3.87-1.53-3.87-3.85,0-2.12,1.47-3.95,4.1-3.95,1.18,0,2.15.77,2.15,1.73v.91h-.07Z"/>
        <path class="cls-2" d="M154.51,15.68c.34-.26.8-.5,1.34-.5h.27v1.81h2.18v.91c0,.64-.68,1.12-1.26,1.12h-.92v2.69c0,.5.31.8.81.8.61,0,.89-.05,1.16-.16h.07v1c0,.62-.57,1.19-1.91,1.19s-2.64-.61-2.64-2.65v-4.61c0-.68.39-1.22.89-1.6Z"/>
        <path class="cls-2" d="M164.13,16.79c2.03,0,3.85,1.54,3.85,3.84,0,2.43-1.47,4-4.04,4-2.12,0-3.85-1.57-3.85-3.76,0-2.46,1.7-4.08,4.04-4.08ZM163.97,18.82c-.7,0-1.34.74-1.34,1.76,0,1.43.57,2.05,1.47,2.05.81,0,1.34-.74,1.34-1.77,0-1.34-.58-2.04-1.47-2.04Z"/>
      </g>
    </g>
  </g>
</svg>