<svg width="22" height="22" viewBox="0 0 22 22" fill="none" xmlns="http://www.w3.org/2000/svg">
<mask id="mask0_34_2184" style="mask-type:alpha" maskUnits="userSpaceOnUse" x="0" y="0" width="22" height="22">
<circle cx="11" cy="11" r="11" fill="white"/>
</mask>
<g mask="url(#mask0_34_2184)">
<path d="M21 16.0511C21 18.9741 16.8874 21 14.1642 21C12.9315 21 13.1598 17.748 11.7549 16.0511C10.0563 13.9994 11.755 13.3207 11.755 11.7209C11.755 8.79788 14.5787 10.4836 17.3018 10.4836C20.025 10.4836 21 13.1281 21 16.0511Z" fill="#254079"/>
<path d="M6.11242 11.8909C6.11242 14.2535 2.77611 15.8909 0.566966 15.8909C-0.433055 15.8909 -0.247878 13.2624 -1.38758 11.8909C-2.76559 10.2326 -1.38748 9.684 -1.38748 8.39092C-1.38748 6.02836 0.903166 7.39091 3.1123 7.39091C5.32144 7.39091 6.11242 9.52836 6.11242 11.8909Z" fill="#254079"/>
<path d="M21 6.6C21 9.19881 17.2285 11 14.7312 11C13.6008 11 13.8101 8.10868 12.5217 6.6C10.964 4.77586 8 4.34138 8 2.91899C8 0.320181 11.7201 0 14.2174 0C16.7147 0 21 4.00119 21 6.6Z" fill="#D8006E"/>
</g>
</svg>
