<svg version="1.1" id="Layer_1" xmlns="http://www.w3.org/2000/svg" xmlns:xlink="http://www.w3.org/1999/xlink" x="0px" y="0px"
	 width="100%" viewBox="0 0 767 768" enable-background="new 0 0 767 768" xml:space="preserve">
<path fill="#D8006D" opacity="1.000000" stroke="none" 
	d="
M768.000000,348.000000 
	C768.000000,371.354218 768.000000,394.708466 767.701294,418.748901 
	C767.299744,420.866943 767.196899,422.298737 767.061829,424.172852 
	C766.694397,427.688110 766.446106,430.773499 766.010132,433.832123 
	C762.777710,456.510132 758.246216,478.886230 751.264099,500.758423 
	C742.355652,528.665039 730.386963,555.081909 715.523926,580.369629 
	C698.318298,609.642944 677.138000,635.695312 653.647888,659.950867 
	C646.157776,667.685059 637.594666,674.426514 629.204651,681.230286 
	C619.579712,689.035583 609.756042,696.618958 599.717407,703.882385 
	C593.893982,708.095886 587.495911,711.520020 581.324280,715.246155 
	C574.934265,719.104004 568.674377,723.226685 562.047546,726.629883 
	C554.871460,730.315308 547.397461,733.447632 539.945251,736.562378 
	C528.322876,741.420105 516.783325,746.567200 504.884247,750.644897 
	C493.589905,754.515381 481.968536,757.558472 470.324829,760.245483 
	C459.398407,762.766846 448.262756,764.392883 437.203094,766.320740 
	C431.486755,767.317139 425.735474,768.113342 420.000000,769.000000 
	C420.000000,769.000000 419.500000,769.000000 419.062378,768.704712 
	C417.416504,768.606262 416.208252,768.803162 415.000000,769.000000 
	C392.979095,769.000000 370.958221,769.000000 348.260193,768.646729 
	C345.004791,767.935791 342.405151,767.690430 339.851746,767.202759 
	C320.797516,763.563599 301.633453,760.396362 282.734924,756.071411 
	C259.629913,750.783875 237.563171,742.004089 216.553604,731.287903 
	C198.485748,722.072205 180.929764,711.500916 164.345490,699.827026 
	C147.586655,688.030334 131.948639,674.542664 116.512665,661.005432 
	C108.384537,653.877136 101.447670,645.301819 94.490273,636.948975 
	C85.050125,625.615356 75.530914,614.271484 67.079216,602.207947 
	C53.268066,582.494690 41.444172,561.511292 32.116745,539.300232 
	C26.434107,525.768494 21.976381,511.722290 17.090385,497.622986 
	C15.119152,489.883057 13.025990,482.427368 10.983136,474.973114 
	C11.033442,474.974579 11.034404,475.075256 10.904507,474.895203 
	C10.599640,474.472290 10.463067,474.209473 10.186207,473.550964 
	C8.247008,463.573547 6.440509,453.979980 4.740810,444.367584 
	C3.424603,436.923981 2.241998,429.456726 1.000001,422.000000 
	C1.000000,421.250000 1.000000,420.500000 1.295392,419.182922 
	C1.393856,417.410553 1.196928,416.205292 1.000000,415.000000 
	C1.000000,394.645782 1.000000,374.291534 1.292548,353.228241 
	C1.694316,350.804108 1.803535,349.089050 1.940207,346.918823 
	C2.612185,342.268555 3.454095,338.092804 3.868062,333.875061 
	C5.987962,312.276337 11.120461,291.323242 17.690521,270.728668 
	C24.916779,248.077209 33.153072,225.810593 45.575737,205.349533 
	C53.708515,191.954254 61.491737,178.335968 69.966583,165.161758 
	C81.488701,147.250549 95.644409,131.331223 110.390404,116.115829 
	C121.134651,105.029572 132.913162,94.740829 145.254410,85.457649 
	C161.650589,73.124336 178.623703,61.425533 196.150848,50.773613 
	C208.345078,43.362709 221.585098,37.398586 234.902344,32.176533 
	C252.942825,25.102392 271.220306,18.277758 289.924774,13.354671 
	C307.581543,8.707342 325.917969,6.633234 343.965515,3.485067 
	C349.292755,2.555796 354.654205,1.822892 360.000000,1.000000 
	C363.030609,1.000000 366.061188,1.000000 369.795044,1.341112 
	C374.332184,1.454816 378.166107,1.227408 382.000000,1.000000 
	C383.066681,1.000000 384.133331,1.000000 385.755066,1.401285 
	C390.206757,1.535046 394.103394,1.267523 398.000000,1.000000 
	C399.388885,1.000000 400.777802,1.000000 402.766785,1.292438 
	C404.577911,1.389919 405.788971,1.194961 407.000000,1.000002 
	C407.444458,1.000000 407.888885,1.000000 408.843811,1.368426 
	C419.620819,3.146862 429.920044,4.355321 440.145691,6.016790 
	C453.586761,8.200700 467.095581,10.203662 480.338013,13.299314 
	C490.829102,15.751788 501.112366,19.334627 511.219360,23.130514 
	C525.179504,28.373524 539.148010,33.734913 552.625610,40.080635 
	C564.694336,45.763031 576.546753,52.167389 587.710449,59.454529 
	C610.597717,74.394302 632.873047,90.314323 651.843079,110.191475 
	C664.377930,123.325676 676.665771,136.760788 688.159180,150.801941 
	C696.482727,160.970520 703.753784,172.085831 710.705933,183.268921 
	C718.325806,195.525970 725.833618,207.972122 731.972229,221.003860 
	C742.380188,243.099167 751.505249,265.770508 756.457886,289.875092 
	C758.949341,302.000763 761.797363,314.053375 764.262268,326.184113 
	C765.730652,333.410858 766.768555,340.725098 768.000000,348.000000 
M330.920105,275.500000 
	C330.920105,327.904297 330.920105,380.308594 330.920105,433.141357 
	C316.855499,431.978149 304.245880,427.441803 295.626282,416.036011 
	C288.850983,407.070648 283.499390,397.019196 277.637543,387.375916 
	C267.210052,370.221680 254.539490,355.260651 236.962494,344.967224 
	C218.131012,333.939148 195.126129,339.356293 183.691956,357.559814 
	C172.308823,375.682068 177.499359,399.067200 195.415604,411.208374 
	C198.680115,413.420624 201.683533,416.157471 204.373260,419.055237 
	C218.487701,434.261444 227.951111,452.240936 235.429596,471.428284 
	C241.573883,487.192474 246.988098,503.358337 254.566422,518.420166 
	C267.188477,543.506348 285.591431,563.796265 310.143951,578.091064 
	C319.435883,583.500916 328.609375,589.114197 337.836700,594.635010 
	C375.882751,617.398315 416.917175,624.119751 460.176331,616.028015 
	C529.729126,603.018005 585.626648,541.350098 586.846741,463.736023 
	C587.320740,433.583679 586.991394,403.417603 586.913635,373.258087 
	C586.867798,355.489838 574.034790,339.314575 556.746216,334.945465 
	C546.789001,332.429169 537.324463,334.006927 527.741699,339.169312 
	C528.400635,323.000000 522.976257,310.098053 509.988190,301.199249 
	C496.659912,292.067352 482.666168,292.015930 468.230560,299.836090 
	C465.675781,286.086029 458.865021,275.544556 446.545929,269.042480 
	C434.139038,262.494080 421.709625,263.791809 409.118408,269.974152 
	C409.118408,267.371277 409.119354,265.544952 409.118286,263.718597 
	C409.102539,237.058228 409.382446,210.393372 408.976471,183.738937 
	C408.654144,162.577148 388.545868,144.039871 366.760529,146.423828 
	C344.356628,148.875504 330.948273,164.879059 330.927002,187.519958 
	C330.899780,216.513290 330.920197,245.506653 330.920105,275.500000 
M210.610657,313.546448 
	C216.724655,311.736755 219.253372,308.734009 219.041763,303.534851 
	C218.808838,297.811890 216.105499,295.712524 205.588593,293.537781 
	C213.541718,285.653687 221.213226,278.103790 228.819794,270.488983 
	C233.927414,265.375854 234.466476,259.827240 230.400803,255.584335 
	C226.234955,251.236877 220.448792,251.751144 215.126480,257.024689 
	C208.858276,263.235474 202.645920,269.502563 196.397354,275.733246 
	C194.958023,277.168427 193.469849,278.554596 191.575775,280.375092 
	C191.320938,278.895111 191.191452,278.430359 191.167358,277.960266 
	C190.777100,270.347412 187.593857,266.611359 181.527954,266.666962 
	C175.548080,266.721802 172.017715,271.160309 171.991928,278.732117 
	C171.965836,286.390808 171.959869,294.049774 171.991577,301.708435 
	C172.025604,309.925964 175.638931,313.656342 183.785980,313.720551 
	C192.442734,313.788727 201.100677,313.705536 210.610657,313.546448 
M257.338928,214.838531 
	C253.573486,218.599930 249.771759,222.325851 246.051498,226.131424 
	C241.073395,231.223679 240.570633,236.922684 244.651428,241.014816 
	C248.919693,245.294968 254.351517,244.892654 259.542816,239.767838 
	C266.407562,232.990997 273.182739,226.123535 280.029694,219.328552 
	C280.967499,218.397873 282.096954,217.660309 283.599487,216.466385 
	C283.725372,218.089584 283.786438,218.748291 283.826080,219.408264 
	C284.218323,225.937241 287.832367,229.948944 293.309479,229.930252 
	C298.980042,229.910904 302.918701,225.531754 302.978058,218.914673 
	C303.055634,210.266785 303.101990,201.615097 302.929779,192.969650 
	C302.809631,186.937592 299.146393,183.054184 293.450745,182.958618 
	C283.973175,182.799591 274.488770,182.805573 265.011414,182.974716 
	C259.913177,183.065689 256.200470,186.903061 255.942352,191.757584 
	C255.667572,196.925568 259.062592,201.148514 264.176575,201.914764 
	C265.696320,202.142471 267.242065,202.196548 268.775909,202.330200 
	C269.040436,202.778427 269.304962,203.226654 269.569489,203.674896 
	C265.659607,207.229736 261.749695,210.784576 257.338928,214.838531 
z"/>
<path fill="#1A1A1C" opacity="1.000000" stroke="none" 
	d="
M397.539368,1.000000 
	C394.103394,1.267523 390.206757,1.535046 386.155090,1.401285 
	C389.692902,1.000000 393.385834,1.000000 397.539368,1.000000 
z"/>
<path fill="#1A1A1C" opacity="1.000000" stroke="none" 
	d="
M381.539368,1.000000 
	C378.166107,1.227408 374.332184,1.454816 370.249146,1.341112 
	C373.692902,1.000000 377.385834,1.000000 381.539368,1.000000 
z"/>
<path fill="#9C9B9F" opacity="1.000000" stroke="none" 
	d="
M1.000000,347.428467 
	C1.000000,347.000000 1.438381,347.228149 1.675568,347.301086 
	C1.803535,349.089050 1.694316,350.804108 1.292548,352.759583 
	C1.000000,351.285645 1.000000,349.571289 1.000000,347.428467 
z"/>
<path fill="#A5A7A9" opacity="1.000000" stroke="none" 
	d="
M768.000000,423.583344 
	C768.000000,424.000000 767.555664,423.838318 767.324829,423.784424 
	C767.196899,422.298737 767.299744,420.866943 767.701294,419.217590 
	C768.000000,420.388885 768.000000,421.777802 768.000000,423.583344 
z"/>
<path fill="#8E8E8C" opacity="1.000000" stroke="none" 
	d="
M406.600006,1.000002 
	C405.788971,1.194961 404.577911,1.389919 403.183441,1.292438 
	C404.066681,1.000000 405.133331,1.000000 406.600006,1.000002 
z"/>
<path fill="#4C4D4C" opacity="1.000000" stroke="none" 
	d="
M1.000000,415.400024 
	C1.196928,416.205292 1.393856,417.410553 1.295392,418.807922 
	C1.000000,417.933350 1.000000,416.866669 1.000000,415.400024 
z"/>
<path fill="#626264" opacity="1.000000" stroke="none" 
	d="
M415.399994,769.000000 
	C416.208252,768.803162 417.416504,768.606262 418.812378,768.704712 
	C417.933319,769.000000 416.866669,769.000000 415.399994,769.000000 
z"/>
<path fill="#FFFEFF" opacity="1.000000" stroke="none" 
	d="
M330.920105,275.000000 
	C330.920197,245.506653 330.899780,216.513290 330.927002,187.519958 
	C330.948273,164.879059 344.356628,148.875504 366.760529,146.423828 
	C388.545868,144.039871 408.654144,162.577148 408.976471,183.738937 
	C409.382446,210.393372 409.102539,237.058228 409.118286,263.718597 
	C409.119354,265.544952 409.118408,267.371277 409.118408,269.974152 
	C421.709625,263.791809 434.139038,262.494080 446.545929,269.042480 
	C458.865021,275.544556 465.675781,286.086029 468.230560,299.836090 
	C482.666168,292.015930 496.659912,292.067352 509.988190,301.199249 
	C522.976257,310.098053 528.400635,323.000000 527.741699,339.169312 
	C537.324463,334.006927 546.789001,332.429169 556.746216,334.945465 
	C574.034790,339.314575 586.867798,355.489838 586.913635,373.258087 
	C586.991394,403.417603 587.320740,433.583679 586.846741,463.736023 
	C585.626648,541.350098 529.729126,603.018005 460.176331,616.028015 
	C416.917175,624.119751 375.882751,617.398315 337.836700,594.635010 
	C328.609375,589.114197 319.435883,583.500916 310.143951,578.091064 
	C285.591431,563.796265 267.188477,543.506348 254.566422,518.420166 
	C246.988098,503.358337 241.573883,487.192474 235.429596,471.428284 
	C227.951111,452.240936 218.487701,434.261444 204.373260,419.055237 
	C201.683533,416.157471 198.680115,413.420624 195.415604,411.208374 
	C177.499359,399.067200 172.308823,375.682068 183.691956,357.559814 
	C195.126129,339.356293 218.131012,333.939148 236.962494,344.967224 
	C254.539490,355.260651 267.210052,370.221680 277.637543,387.375916 
	C283.499390,397.019196 288.850983,407.070648 295.626282,416.036011 
	C304.245880,427.441803 316.855499,431.978149 330.920105,433.141357 
	C330.920105,380.308594 330.920105,327.904297 330.920105,275.000000 
z"/>
<path fill="#FEFAFC" opacity="1.000000" stroke="none" 
	d="
M210.184387,313.617432 
	C201.100677,313.705536 192.442734,313.788727 183.785980,313.720551 
	C175.638931,313.656342 172.025604,309.925964 171.991577,301.708435 
	C171.959869,294.049774 171.965836,286.390808 171.991928,278.732117 
	C172.017715,271.160309 175.548080,266.721802 181.527954,266.666962 
	C187.593857,266.611359 190.777100,270.347412 191.167358,277.960266 
	C191.191452,278.430359 191.320938,278.895111 191.575775,280.375092 
	C193.469849,278.554596 194.958023,277.168427 196.397354,275.733246 
	C202.645920,269.502563 208.858276,263.235474 215.126480,257.024689 
	C220.448792,251.751144 226.234955,251.236877 230.400803,255.584335 
	C234.466476,259.827240 233.927414,265.375854 228.819794,270.488983 
	C221.213226,278.103790 213.541718,285.653687 205.588593,293.537781 
	C216.105499,295.712524 218.808838,297.811890 219.041763,303.534851 
	C219.253372,308.734009 216.724655,311.736755 210.184387,313.617432 
z"/>
<path fill="#FEFCFD" opacity="1.000000" stroke="none" 
	d="
M257.589355,214.588974 
	C261.749695,210.784576 265.659607,207.229736 269.569489,203.674896 
	C269.304962,203.226654 269.040436,202.778427 268.775909,202.330200 
	C267.242065,202.196548 265.696320,202.142471 264.176575,201.914764 
	C259.062592,201.148514 255.667572,196.925568 255.942352,191.757584 
	C256.200470,186.903061 259.913177,183.065689 265.011414,182.974716 
	C274.488770,182.805573 283.973175,182.799591 293.450745,182.958618 
	C299.146393,183.054184 302.809631,186.937592 302.929779,192.969650 
	C303.101990,201.615097 303.055634,210.266785 302.978058,218.914673 
	C302.918701,225.531754 298.980042,229.910904 293.309479,229.930252 
	C287.832367,229.948944 284.218323,225.937241 283.826080,219.408264 
	C283.786438,218.748291 283.725372,218.089584 283.599487,216.466385 
	C282.096954,217.660309 280.967499,218.397873 280.029694,219.328552 
	C273.182739,226.123535 266.407562,232.990997 259.542816,239.767838 
	C254.351517,244.892654 248.919693,245.294968 244.651428,241.014816 
	C240.570633,236.922684 241.073395,231.223679 246.051498,226.131424 
	C249.771759,222.325851 253.573486,218.599930 257.589355,214.588974 
z"/>
<path fill="#492137" opacity="1.000000" stroke="none" 
	d="
M17.090382,497.622986 
	C14.891123,490.539520 12.813793,483.171906 10.834647,475.387939 
	C13.025990,482.427368 15.119152,489.883057 17.090382,497.622986 
z"/>
<path fill="#492137" opacity="1.000000" stroke="none" 
	d="
M10.904507,474.895203 
	C10.712110,474.951111 10.531960,474.717346 10.429423,474.150330 
	C10.463067,474.209473 10.599640,474.472290 10.904507,474.895203 
z"/>
</svg>