<svg version="1.1" id="Layer_1" xmlns="http://www.w3.org/2000/svg" xmlns:xlink="http://www.w3.org/1999/xlink" x="0px" y="0px"
	 width="100%" viewBox="0 0 767 768" enable-background="new 0 0 767 768" xml:space="preserve">
<path fill="#D8006D" opacity="1.000000" stroke="none" 
	d="
M768.000000,348.000000 
	C768.000000,371.354218 768.000000,394.708466 767.701294,418.748840 
	C767.299683,420.866852 767.196838,422.298645 767.061768,424.172791 
	C766.694397,427.686157 766.445129,430.769440 766.010254,433.826324 
	C762.785583,456.492218 758.199280,478.838257 751.286194,500.717102 
	C743.838318,524.288025 734.568848,547.076111 722.250977,568.484131 
	C714.382202,582.159851 705.880798,595.520325 696.889587,608.485718 
	C689.785278,618.730225 681.708801,628.330566 673.679138,637.893860 
	C667.009644,645.837280 660.026062,653.554749 652.718750,660.912598 
	C647.067200,666.603271 640.795471,671.697693 634.625183,676.848572 
	C627.204346,683.043579 619.818848,689.319458 612.012634,695.003540 
	C603.974792,700.856323 595.524170,706.157837 587.115356,711.481323 
	C578.929932,716.663452 570.755615,721.916992 562.226196,726.485107 
	C555.271912,730.209717 547.844482,733.073486 540.548584,736.132385 
	C528.691711,741.103271 516.953247,746.447754 504.823914,750.651062 
	C493.552521,754.557007 481.925232,757.565735 470.288818,760.250732 
	C459.370758,762.769836 448.243713,764.394714 437.192627,766.321228 
	C431.479706,767.317139 425.731995,768.113464 420.000000,769.000000 
	C419.250000,769.000000 418.500000,769.000000 417.165741,768.699463 
	C415.387665,768.599304 414.193817,768.799622 413.000000,769.000000 
	C391.645782,769.000000 370.291534,769.000000 348.260254,768.646606 
	C328.167267,764.888611 308.609833,762.130615 289.370148,757.920654 
	C263.462250,752.251648 238.717361,742.645813 215.174362,730.659607 
	C197.540543,721.681885 180.482254,711.237488 164.300369,699.838196 
	C147.942749,688.315063 132.599869,675.244202 117.553162,662.009277 
	C109.057190,654.536255 101.719063,645.644104 94.460419,636.892639 
	C84.952354,625.429260 75.674423,613.736267 66.950676,601.669861 
	C52.927521,582.273499 41.477585,561.301880 32.134132,539.305603 
	C26.395741,525.796387 21.978834,511.725739 17.090471,497.622955 
	C15.711843,491.153717 14.293471,484.946808 12.658636,478.797485 
	C12.192326,477.043488 11.097606,475.456512 10.134449,473.360779 
	C8.222680,463.442841 6.412798,453.966858 4.729830,444.468353 
	C3.405372,436.993286 2.237451,429.490479 1.000001,422.000000 
	C1.000000,421.250000 1.000000,420.500000 1.295433,419.182953 
	C1.393909,417.410614 1.196952,416.205292 0.999998,415.000000 
	C1.000000,394.645782 1.000000,374.291534 1.292591,353.228302 
	C1.694404,350.804169 1.803625,349.089081 1.940310,346.918823 
	C2.612306,342.268158 3.453602,338.091980 3.868296,333.873871 
	C5.991981,312.272705 11.123255,291.317108 17.694553,270.718689 
	C24.922180,248.062912 33.165184,225.796555 45.587578,205.331467 
	C53.719799,191.934158 60.872940,177.823837 70.121819,165.252060 
	C82.667252,148.199326 96.110680,131.677261 110.478752,116.138741 
	C120.938438,104.827011 132.947144,94.716812 145.290924,85.434967 
	C161.690964,73.103012 178.685837,61.437412 196.199097,50.754250 
	C207.958740,43.580811 220.767517,37.859375 233.630478,32.826374 
	C252.114365,25.594009 270.780823,18.478569 289.918091,13.368155 
	C307.555664,8.658221 325.912872,6.633756 343.963226,3.484488 
	C349.291138,2.554919 354.653442,1.822673 360.000000,1.000000 
	C363.030609,1.000000 366.061188,1.000000 369.795044,1.341111 
	C374.332184,1.454814 378.166107,1.227407 382.000000,1.000000 
	C383.066681,1.000000 384.133331,1.000000 385.755127,1.401272 
	C390.206818,1.535030 394.103424,1.267515 398.000000,1.000000 
	C399.388885,1.000000 400.777802,1.000000 402.766785,1.292489 
	C404.577911,1.389985 405.788940,1.194992 407.000000,1.000000 
	C407.444458,1.000000 407.888885,1.000000 408.843750,1.368463 
	C419.619049,3.146877 429.916595,4.355771 440.140717,6.016545 
	C453.579987,8.199581 467.087341,10.200049 480.327820,13.295313 
	C490.817383,15.747488 501.098328,19.332817 511.203766,23.128780 
	C525.161682,28.371866 539.127625,33.733337 552.603882,40.077030 
	C564.671021,45.757427 576.522400,52.158039 587.686584,59.440262 
	C610.577087,74.371338 632.844238,90.297615 651.816589,110.167633 
	C664.352722,123.296898 676.893127,136.547424 688.076050,150.806824 
	C698.479431,164.072235 707.351135,178.578629 716.391296,192.858948 
	C722.124756,201.915878 727.569153,211.267075 732.026978,220.997696 
	C742.200745,243.205154 751.506836,265.783020 756.461487,289.882965 
	C758.953918,302.006683 761.798279,314.058289 764.262207,326.187439 
	C765.730042,333.413208 766.768494,340.726227 768.000000,348.000000 
M498.574402,295.784302 
	C487.951508,292.357391 478.013336,294.735504 468.189911,299.777405 
	C465.675781,286.054138 458.889313,275.637390 446.774567,269.158081 
	C434.360168,262.518494 421.876709,263.633240 409.118347,270.064606 
	C409.118347,267.573059 409.119385,265.776031 409.118195,263.979004 
	C409.100311,237.153870 409.366089,210.324585 408.975647,183.504868 
	C408.653198,161.357544 386.162659,143.066208 364.565796,146.741623 
	C344.095093,150.225388 330.962311,165.532745 330.940826,186.246048 
	C330.884644,240.396545 330.920807,294.547150 330.920135,348.697693 
	C330.920105,350.390045 330.920135,352.082397 330.920135,354.623688 
	C324.026489,345.249054 318.179718,336.588196 311.611755,328.513977 
	C297.911285,311.671570 273.745697,309.084259 257.141205,322.292114 
	C239.853546,336.043396 237.076645,359.841187 250.505554,377.495148 
	C253.294815,381.162018 255.794968,385.177002 257.706177,389.361389 
	C266.093719,407.725250 269.911560,427.193359 271.068390,447.258575 
	C272.139099,465.830048 271.748383,484.497803 275.999847,502.829376 
	C283.337524,534.467896 297.209900,562.449219 322.637329,583.284668 
	C362.375763,615.846619 408.855927,625.448242 458.166351,616.272400 
	C532.382507,602.461914 582.968628,543.172302 586.558044,467.768951 
	C588.085388,435.683777 587.333557,403.460114 586.749573,371.315125 
	C586.370911,350.469482 567.814880,333.478973 546.934326,334.040649 
	C540.573303,334.211731 534.268311,336.464966 527.919189,337.768433 
	C527.843567,317.736694 519.078735,303.146973 498.574402,295.784302 
M221.919937,277.419861 
	C224.623428,274.704895 227.421722,272.076813 230.008667,269.254974 
	C234.111374,264.779694 234.135025,259.305511 230.243729,255.419937 
	C226.481033,251.662796 220.708786,251.689056 216.393570,255.803543 
	C211.089615,260.860779 205.938141,266.082611 200.836731,271.345734 
	C198.000015,274.272400 195.399292,277.427826 192.692200,280.480164 
	C192.241333,280.148590 191.790466,279.816986 191.339600,279.485413 
	C191.277649,278.889801 191.191269,278.295532 191.157455,277.698334 
	C190.729874,270.146057 187.440735,266.485657 181.255783,266.690308 
	C175.598190,266.877441 172.040817,271.171204 171.999176,278.017181 
	C171.949509,286.180634 171.928726,294.345032 172.000107,302.508118 
	C172.063004,309.701935 175.839264,313.533325 183.099579,313.713257 
	C188.427673,313.845306 193.763107,313.809937 199.092728,313.711853 
	C203.404617,313.632477 207.786697,313.773956 212.002686,313.041077 
	C216.661835,312.231171 219.001419,308.787872 219.018295,304.059326 
	C219.035156,299.329712 216.650803,296.207245 212.079132,294.937103 
	C210.213715,294.418884 208.262497,294.209442 204.974319,293.607697 
	C210.895126,287.959869 216.157623,282.940002 221.919937,277.419861 
M284.720886,224.368042 
	C287.029907,228.686859 290.639954,230.804733 295.420837,229.620880 
	C300.083221,228.466354 302.841217,225.103912 302.923035,220.227539 
	C303.079620,210.900055 303.136139,201.562805 302.877808,192.239471 
	C302.722382,186.630951 298.799164,183.016022 293.192108,182.941391 
	C283.863220,182.817200 274.529449,182.805847 265.201477,182.965363 
	C259.805634,183.057632 256.063934,186.955872 255.934937,192.091690 
	C255.804657,197.278091 259.278259,201.283142 264.535339,201.933105 
	C265.917572,202.103989 267.321045,202.102646 269.579224,202.228592 
	C267.855621,204.115479 266.813568,205.344635 265.679993,206.482697 
	C259.095428,213.093338 252.408447,219.604843 245.946274,226.332565 
	C244.292374,228.054443 242.712021,230.290939 242.175781,232.547195 
	C241.154312,236.845169 242.937515,240.415482 246.856857,242.633499 
	C251.287048,245.140594 255.280045,243.926880 258.665131,240.616791 
	C265.812134,233.628082 272.816345,226.493500 279.908997,219.448761 
	C280.869263,218.494949 282.001404,217.714157 283.466827,216.515564 
	C283.802582,219.471558 284.043304,221.591019 284.720886,224.368042 
z"/>
<path fill="#1A1A1C" opacity="1.000000" stroke="none" 
	d="
M397.539368,1.000000 
	C394.103424,1.267515 390.206818,1.535030 386.155121,1.401272 
	C389.692902,1.000000 393.385834,1.000000 397.539368,1.000000 
z"/>
<path fill="#1A1A1C" opacity="1.000000" stroke="none" 
	d="
M381.539368,1.000000 
	C378.166107,1.227407 374.332184,1.454814 370.249146,1.341111 
	C373.692902,1.000000 377.385834,1.000000 381.539368,1.000000 
z"/>
<path fill="#9C9B9F" opacity="1.000000" stroke="none" 
	d="
M1.000000,347.428467 
	C1.000000,347.000000 1.438417,347.228180 1.675632,347.301086 
	C1.803625,349.089081 1.694404,350.804169 1.292591,352.759644 
	C1.000000,351.285645 1.000000,349.571289 1.000000,347.428467 
z"/>
<path fill="#A5A7A9" opacity="1.000000" stroke="none" 
	d="
M768.000000,423.583344 
	C768.000000,424.000000 767.555664,423.838287 767.324829,423.784363 
	C767.196838,422.298645 767.299683,420.866852 767.701294,419.217529 
	C768.000000,420.388885 768.000000,421.777802 768.000000,423.583344 
z"/>
<path fill="#8E8E8C" opacity="1.000000" stroke="none" 
	d="
M406.600006,1.000000 
	C405.788940,1.194992 404.577911,1.389985 403.183411,1.292489 
	C404.066681,1.000000 405.133331,1.000000 406.600006,1.000000 
z"/>
<path fill="#4C4D4C" opacity="1.000000" stroke="none" 
	d="
M0.999998,415.400024 
	C1.196952,416.205292 1.393909,417.410614 1.295433,418.807953 
	C1.000000,417.933350 1.000000,416.866669 0.999998,415.400024 
z"/>
<path fill="#2A1620" opacity="1.000000" stroke="none" 
	d="
M413.399994,769.000000 
	C414.193817,768.799622 415.387665,768.599304 416.790741,768.699463 
	C415.933319,769.000000 414.866669,769.000000 413.399994,769.000000 
z"/>
<path fill="#FFFFFF" opacity="1.000000" stroke="none" 
	d="
M498.964478,295.894653 
	C519.078735,303.146973 527.843567,317.736694 527.919189,337.768433 
	C534.268311,336.464966 540.573303,334.211731 546.934326,334.040649 
	C567.814880,333.478973 586.370911,350.469482 586.749573,371.315125 
	C587.333557,403.460114 588.085388,435.683777 586.558044,467.768951 
	C582.968628,543.172302 532.382507,602.461914 458.166351,616.272400 
	C408.855927,625.448242 362.375763,615.846619 322.637329,583.284668 
	C297.209900,562.449219 283.337524,534.467896 275.999847,502.829376 
	C271.748383,484.497803 272.139099,465.830048 271.068390,447.258575 
	C269.911560,427.193359 266.093719,407.725250 257.706177,389.361389 
	C255.794968,385.177002 253.294815,381.162018 250.505554,377.495148 
	C237.076645,359.841187 239.853546,336.043396 257.141205,322.292114 
	C273.745697,309.084259 297.911285,311.671570 311.611755,328.513977 
	C318.179718,336.588196 324.026489,345.249054 330.920135,354.623688 
	C330.920135,352.082397 330.920105,350.390045 330.920135,348.697693 
	C330.920807,294.547150 330.884644,240.396545 330.940826,186.246048 
	C330.962311,165.532745 344.095093,150.225388 364.565796,146.741623 
	C386.162659,143.066208 408.653198,161.357544 408.975647,183.504868 
	C409.366089,210.324585 409.100311,237.153870 409.118195,263.979004 
	C409.119385,265.776031 409.118347,267.573059 409.118347,270.064606 
	C421.876709,263.633240 434.360168,262.518494 446.774567,269.158081 
	C458.889313,275.637390 465.675781,286.054138 468.189911,299.777405 
	C478.013336,294.735504 487.951508,292.357391 498.964478,295.894653 
z"/>
<path fill="#FEFAFC" opacity="1.000000" stroke="none" 
	d="
M221.670044,277.669983 
	C216.157623,282.940002 210.895126,287.959869 204.974319,293.607697 
	C208.262497,294.209442 210.213715,294.418884 212.079132,294.937103 
	C216.650803,296.207245 219.035156,299.329712 219.018295,304.059326 
	C219.001419,308.787872 216.661835,312.231171 212.002686,313.041077 
	C207.786697,313.773956 203.404617,313.632477 199.092728,313.711853 
	C193.763107,313.809937 188.427673,313.845306 183.099579,313.713257 
	C175.839264,313.533325 172.063004,309.701935 172.000107,302.508118 
	C171.928726,294.345032 171.949509,286.180634 171.999176,278.017181 
	C172.040817,271.171204 175.598190,266.877441 181.255783,266.690308 
	C187.440735,266.485657 190.729874,270.146057 191.157455,277.698334 
	C191.191269,278.295532 191.277649,278.889801 191.339600,279.485413 
	C191.790466,279.816986 192.241333,280.148590 192.692200,280.480164 
	C195.399292,277.427826 198.000015,274.272400 200.836731,271.345734 
	C205.938141,266.082611 211.089615,260.860779 216.393570,255.803543 
	C220.708786,251.689056 226.481033,251.662796 230.243729,255.419937 
	C234.135025,259.305511 234.111374,264.779694 230.008667,269.254974 
	C227.421722,272.076813 224.623428,274.704895 221.670044,277.669983 
z"/>
<path fill="#FEFCFD" opacity="1.000000" stroke="none" 
	d="
M284.502441,224.039246 
	C284.043304,221.591019 283.802582,219.471558 283.466827,216.515564 
	C282.001404,217.714157 280.869263,218.494949 279.908997,219.448761 
	C272.816345,226.493500 265.812134,233.628082 258.665131,240.616791 
	C255.280045,243.926880 251.287048,245.140594 246.856857,242.633499 
	C242.937515,240.415482 241.154312,236.845169 242.175781,232.547195 
	C242.712021,230.290939 244.292374,228.054443 245.946274,226.332565 
	C252.408447,219.604843 259.095428,213.093338 265.679993,206.482697 
	C266.813568,205.344635 267.855621,204.115479 269.579224,202.228592 
	C267.321045,202.102646 265.917572,202.103989 264.535339,201.933105 
	C259.278259,201.283142 255.804657,197.278091 255.934937,192.091690 
	C256.063934,186.955872 259.805634,183.057632 265.201477,182.965363 
	C274.529449,182.805847 283.863220,182.817200 293.192108,182.941391 
	C298.799164,183.016022 302.722382,186.630951 302.877808,192.239471 
	C303.136139,201.562805 303.079620,210.900055 302.923035,220.227539 
	C302.841217,225.103912 300.083221,228.466354 295.420837,229.620880 
	C290.639954,230.804733 287.029907,228.686859 284.502441,224.039246 
z"/>
<path fill="#492137" opacity="1.000000" stroke="none" 
	d="
M17.090473,497.622955 
	C14.799910,490.074707 12.631276,482.242279 10.376844,474.101379 
	C11.097606,475.456512 12.192326,477.043488 12.658636,478.797485 
	C14.293471,484.946808 15.711843,491.153717 17.090473,497.622955 
z"/>
</svg>