<svg width="544" height="53" viewBox="0 0 544 53" fill="none" xmlns="http://www.w3.org/2000/svg">
<path d="M259.53 27.5091C254.456 26.5099 252.866 25.6959 252.866 24.0608C252.866 22.1127 255.445 20.8244 258.657 20.8244C262.36 20.8244 264.558 22.5604 264.528 24.8272V24.934H268.606V24.802C268.606 20.1958 264.872 17.1699 258.682 17.1699C252.81 17.1699 248.7 20.095 248.7 24.0563C248.7 28.8226 252.979 29.9864 258.509 31.1517C264.327 32.3749 264.929 33.457 264.929 35.1175C264.929 37.1277 262.636 38.5984 258.649 38.5984C255.979 38.5984 251.968 37.709 251.968 33.7699V33.1887H248V33.8144C248 38.8683 251.696 42.3152 258.519 42.3152C264.878 42.3152 269.052 39.2983 269.052 34.7543C269.052 29.5224 265.021 28.5898 259.53 27.5091Z" fill="white"/>
<path d="M500.633 17.7539L494.803 34.8758L489.834 20.5692H486.301L481.265 34.8653L475.73 17.7539H471.553L479.489 41.6895H482.929L488.034 26.9664L493.056 41.5472L493.107 41.6955H496.45L504.778 17.7598L500.633 17.7539Z" fill="white"/>
<path d="M345.034 17.1576C343.508 17.0914 341.988 17.3851 340.594 18.0153C339.2 18.6455 337.971 19.5949 337.003 20.7883C336.248 19.6217 335.205 18.6736 333.977 18.037C332.75 17.4005 331.379 17.0974 330 17.1576C328.787 17.1372 327.582 17.3644 326.458 17.8255C325.334 18.2866 324.313 18.9721 323.458 19.841L323.289 17.7654H319.59V41.6966H323.497V25.9905C323.497 23.3427 326.542 20.8877 329.611 20.8877C332.859 20.8877 334.552 22.5392 334.552 25.5399V41.6995H338.467V25.9905C338.467 22.7512 341.579 20.8877 344.648 20.8877C347.896 20.8877 349.604 22.686 349.604 25.5399V41.6995H353.512V25.1173C353.512 18.9737 348.205 17.1576 345.034 17.1576Z" fill="white"/>
<path d="M398.805 33.4618C398.805 36.1097 395.761 38.5646 392.691 38.5646C389.443 38.5646 387.419 36.9132 387.419 33.9125V17.7617H383.504V34.1779C383.504 37.1147 385.569 42.2977 392.302 42.2977C393.523 42.2891 394.73 42.0358 395.853 41.5522C396.976 41.0687 397.993 40.3646 398.845 39.4809L399.013 41.6914H402.712V17.7617H398.805V33.4618Z" fill="white"/>
<path d="M275.562 27.9937C275.824 26.067 276.754 24.2961 278.185 22.9949C279.616 21.6937 281.457 20.9463 283.382 20.8849C285.311 20.92 287.163 21.6592 288.595 22.9658C290.027 24.2725 290.943 26.0582 291.173 27.9937H275.562ZM283.364 17.1934C280.141 17.291 277.082 18.6479 274.83 20.9785C272.578 23.309 271.309 26.4313 271.291 29.6876C271.273 32.9441 272.507 36.0805 274.733 38.4364C276.959 40.7923 280.003 42.1838 283.225 42.318C285.569 42.322 287.863 41.6271 289.818 40.3198C291.773 39.0128 293.303 37.1518 294.215 34.9704L290.568 33.697L290.342 34.1033C289.605 35.6499 288.39 36.9127 286.879 37.7008C285.37 38.4892 283.647 38.7604 281.971 38.4737C280.295 38.1869 278.757 37.3578 277.588 36.1111C276.419 34.8644 275.684 33.2679 275.492 31.5621H295.207C295.279 30.9559 295.316 30.3461 295.318 29.7356C295.352 28.1185 295.07 26.5104 294.487 25.0038C293.904 23.4972 293.032 22.1218 291.921 20.9565C290.81 19.7911 289.483 18.8588 288.014 18.213C286.546 17.5672 284.965 17.2207 283.364 17.1934Z" fill="white"/>
<path d="M508.64 27.9918C508.902 26.0649 509.83 24.2941 511.263 22.9929C512.694 21.6918 514.534 20.9443 516.46 20.8829C518.389 20.9181 520.241 21.6572 521.672 22.9638C523.105 24.2705 524.021 26.0563 524.25 27.9918H508.64ZM516.444 17.1914C513.222 17.2894 510.162 18.6468 507.91 20.9776C505.66 23.3084 504.391 26.4308 504.373 29.6871C504.356 32.9436 505.59 36.0797 507.815 38.4354C510.042 40.791 513.086 42.1821 516.308 42.3159C518.653 42.3201 520.946 41.625 522.901 40.3179C524.856 39.0108 526.385 37.1499 527.298 34.9685L523.652 33.695L523.425 34.1012C522.689 35.6499 521.474 36.9146 519.964 37.7044C518.453 38.4943 516.728 38.7662 515.05 38.4793C513.373 38.1924 511.835 37.3621 510.665 36.1141C509.496 34.8658 508.761 33.2674 508.57 31.5602H528.286C528.358 30.954 528.395 30.3442 528.397 29.7337C528.431 28.1164 528.148 26.5084 527.564 25.0021C526.979 23.4957 526.108 22.1204 524.997 20.9552C523.887 19.7899 522.559 18.8577 521.09 18.2118C519.622 17.5659 518.042 17.2192 516.44 17.1914" fill="white"/>
<path d="M540.092 7.29277V41.6876H544V6L540.092 7.29277Z" fill="white"/>
<path d="M531.51 41.6935H535.418V6L531.51 7.29277V41.6935Z" fill="white"/>
<path d="M306.137 36.4191L299.128 17.7554H294.812L304.023 42.3241L300.364 52.1799H304.561L317.547 17.7539H313.189L306.137 36.4191Z" fill="white"/>
<path d="M368.471 38.3445C367.368 38.3482 366.275 38.1252 365.26 37.6889C364.245 37.2526 363.328 36.6121 362.565 35.8067C361.803 35.0013 361.211 34.0475 360.825 33.0035C360.439 31.9595 360.267 30.8471 360.32 29.734C360.271 28.6218 360.446 27.5114 360.833 26.4693C361.221 25.4273 361.813 24.4753 362.575 23.6709C363.337 22.8665 364.252 22.2263 365.266 21.7889C366.279 21.3515 367.37 21.126 368.472 21.126C369.574 21.126 370.665 21.3515 371.678 21.7889C372.692 22.2263 373.607 22.8665 374.369 23.6709C375.131 24.4753 375.723 25.4273 376.111 26.4693C376.498 27.5114 376.673 28.6218 376.624 29.734C376.677 30.8471 376.506 31.9595 376.119 33.0035C375.734 34.0475 375.141 35.0013 374.379 35.8067C373.616 36.6121 372.7 37.2526 371.684 37.6889C370.669 38.1252 369.576 38.3482 368.473 38.3445H368.471ZM368.473 17.1087C365.985 17.037 363.534 17.7164 361.431 19.0601C359.328 20.4038 357.67 22.3506 356.668 24.6514C355.667 26.9521 355.368 29.5024 355.81 31.9758C356.252 34.449 357.414 36.7329 359.148 38.5353C360.883 40.3376 363.11 41.5764 365.545 42.0931C367.98 42.6099 370.513 42.381 372.819 41.436C375.124 40.4908 377.098 38.8725 378.488 36.7878C379.878 34.7033 380.621 32.2472 380.621 29.734C380.663 28.0942 380.381 26.4626 379.789 24.9349C379.198 23.4071 378.311 22.0142 377.179 20.8379C376.047 19.6616 374.694 18.7258 373.199 18.0853C371.704 17.4449 370.097 17.1128 368.473 17.1087Z" fill="white"/>
<path d="M459.688 38.3445C458.586 38.3482 457.493 38.1252 456.477 37.6889C455.462 37.2526 454.544 36.6121 453.783 35.8067C453.02 35.0013 452.428 34.0475 452.042 33.0035C451.655 31.9595 451.484 30.8471 451.537 29.734C451.488 28.6218 451.663 27.5114 452.049 26.4693C452.438 25.4273 453.03 24.4753 453.793 23.6709C454.554 22.8665 455.47 22.2263 456.483 21.7889C457.497 21.3515 458.588 21.126 459.688 21.126C460.791 21.126 461.882 21.3515 462.895 21.7889C463.909 22.2263 464.823 22.8665 465.586 23.6709C466.347 24.4753 466.941 25.4273 467.327 26.4693C467.715 27.5114 467.89 28.6218 467.842 29.734C467.894 30.8471 467.723 31.9595 467.337 33.0035C466.951 34.0475 466.359 35.0013 465.596 35.8067C464.833 36.6121 463.916 37.2526 462.901 37.6889C461.886 38.1252 460.793 38.3482 459.69 38.3445H459.688ZM459.69 17.1087C457.202 17.037 454.75 17.7164 452.647 19.0601C450.545 20.4038 448.887 22.3506 447.885 24.6514C446.884 26.9521 446.585 29.5024 447.027 31.9758C447.468 34.449 448.631 36.7329 450.364 38.5353C452.1 40.3376 454.326 41.5764 456.763 42.0931C459.197 42.6099 461.731 42.381 464.035 41.436C466.341 40.4908 468.315 38.8725 469.705 36.7878C471.095 34.7033 471.837 32.2472 471.839 29.734C471.88 28.0942 471.598 26.4626 471.006 24.9349C470.416 23.4071 469.527 22.0142 468.395 20.8379C467.263 19.6616 465.91 18.7258 464.415 18.0853C462.921 17.4449 461.313 17.1128 459.69 17.1087Z" fill="white"/>
<path d="M433.566 38.3796C429.504 38.3796 426.253 34.8793 426.253 29.711C426.253 24.626 429.502 21.0427 433.566 21.0427C437.629 21.0427 441.172 24.924 441.172 29.711C441.172 34.4982 437.629 38.3796 433.566 38.3796ZM433.523 17.1362C432.113 17.1562 430.722 17.4702 429.438 18.0585C428.153 18.6468 427.003 19.4967 426.059 20.555L425.746 17.7871H422.223V24.1457C422.223 24.1457 422.129 35.2854 422.223 35.3803V52.093H426.052V38.8525C426.978 39.9516 428.128 40.8363 429.423 41.4458C430.719 42.0556 432.129 42.3759 433.558 42.3854C435.15 42.3373 436.717 41.9721 438.169 41.3111C439.621 40.6501 440.93 39.7059 442.02 38.533C443.109 37.36 443.959 35.9812 444.52 34.4757C445.081 32.9702 445.343 31.3677 445.289 29.7601C445.289 22.7921 440.237 17.1348 433.519 17.1348" fill="white"/>
<path d="M410.433 19.8459L410.262 17.7703H406.562V41.7014H410.47V25.9866C410.47 23.3387 413.514 20.8836 416.584 20.8836C417.574 20.8892 418.56 21.0186 419.52 21.2691V17.6221C418.698 17.3419 417.839 17.188 416.971 17.1654C415.759 17.1441 414.555 17.3705 413.431 17.8312C412.308 18.2918 411.288 18.9771 410.433 19.8459Z" fill="white"/>
<path d="M2.3 49.636V18.218H4.554V22.772H4.646C6.256 19.736 8.97 17.712 12.972 17.712C18.492 17.712 22.586 22.174 22.586 30.086C22.586 37.17 18.906 42.506 12.788 42.506C8.832 42.506 6.348 40.804 4.646 38.09H4.554V49.636H2.3ZM12.696 40.62C17.802 40.62 20.286 35.79 20.286 30.132C20.286 23.784 17.526 19.644 12.65 19.644C7.36 19.644 4.324 24.198 4.324 30.224C4.324 36.526 7.314 40.62 12.696 40.62ZM36.9207 42.598C30.2507 42.598 26.2487 37.308 26.2487 30.132C26.2487 22.956 30.2507 17.712 36.9207 17.712C43.6368 17.712 47.5928 22.956 47.5928 30.132C47.5928 37.308 43.6368 42.598 36.9207 42.598ZM36.9207 40.666C42.3947 40.666 45.2927 35.928 45.2927 30.132C45.2927 24.336 42.3947 19.598 36.9207 19.598C31.4467 19.598 28.5487 24.336 28.5487 30.132C28.5487 35.928 31.4467 40.666 36.9207 40.666ZM56.8398 42L50.0778 18.218H52.4238L56.4718 32.938C57.2078 35.56 58.1738 39.93 58.1738 39.93H58.2658C58.2658 39.93 59.3238 35.652 59.9678 33.26L64.0618 18.218H66.5918L70.5478 33.26C71.1458 35.606 72.1578 39.93 72.1578 39.93H72.2498C72.2498 39.93 73.3998 35.514 74.1358 32.938L78.5058 18.218H80.7598L73.4918 42H70.7778L66.6378 26.268C65.9938 23.83 65.3498 20.61 65.3498 20.61H65.2578C65.2578 20.61 64.5678 23.83 63.9238 26.268L59.6458 42H56.8398ZM103.56 30.362H85.5744C85.6204 36.066 88.1964 40.62 94.0384 40.62C98.3164 40.62 100.294 38.136 101.26 34.916H103.422C102.456 39.332 99.3284 42.598 94.0384 42.598C87.0464 42.598 83.2744 37.446 83.2744 30.132C83.2744 22.818 87.3684 17.712 93.8544 17.712C96.4304 17.712 98.5464 18.54 100.11 20.012C102.732 22.45 103.606 25.854 103.56 30.362ZM101.26 28.522C101.122 23.83 99.0984 19.644 93.8544 19.644C88.7024 19.644 86.0804 23.508 85.6204 28.522H101.26ZM110.654 18.218V22.91H110.746C111.574 21.254 112.678 19.966 114.104 19.138C115.53 18.31 116.726 18.08 118.474 18.08V20.334C117.14 20.288 116.082 20.472 115.116 20.886C112.586 22.036 110.654 24.75 110.654 28.246V42H108.4V18.218H110.654ZM140.641 30.362H122.655C122.701 36.066 125.277 40.62 131.119 40.62C135.397 40.62 137.375 38.136 138.341 34.916H140.503C139.537 39.332 136.409 42.598 131.119 42.598C124.127 42.598 120.355 37.446 120.355 30.132C120.355 22.818 124.449 17.712 130.935 17.712C133.511 17.712 135.627 18.54 137.191 20.012C139.813 22.45 140.687 25.854 140.641 30.362ZM138.341 28.522C138.203 23.83 136.179 19.644 130.935 19.644C125.783 19.644 123.161 23.508 122.701 28.522H138.341ZM154.358 42.598C148.01 42.598 144.33 37.262 144.33 30.178C144.33 22.266 148.792 17.712 154.312 17.712C158.13 17.712 160.844 19.506 162.362 22.542H162.454V9.11H164.708V42H162.454V38.044H162.362C160.614 40.988 158.084 42.598 154.358 42.598ZM154.45 40.712C159.602 40.712 162.684 36.526 162.684 30.224C162.684 24.198 159.786 19.644 154.496 19.644C149.62 19.644 146.63 23.876 146.63 30.224C146.63 35.928 149.114 40.712 154.45 40.712ZM198.741 42.598C194.785 42.598 192.393 40.988 190.599 38.09H190.507V42H188.253V9.11H190.507V22.772H190.599C192.209 19.782 194.923 17.712 198.925 17.712C204.445 17.712 208.539 22.266 208.539 30.178C208.539 37.262 204.859 42.598 198.741 42.598ZM198.649 40.712C203.755 40.712 206.239 35.882 206.239 30.224C206.239 23.876 203.479 19.644 198.603 19.644C193.313 19.644 190.277 24.198 190.277 30.224C190.277 36.526 193.267 40.712 198.649 40.712ZM214.794 49.866C213.966 49.866 213.506 49.728 213 49.59V47.566H213.092C213.46 47.658 213.966 47.796 214.978 47.796C216.956 47.796 218.382 46.876 219.256 44.346L219.946 42.368L210.838 18.218H213.184L218.98 33.95C219.854 36.296 221.05 39.884 221.05 39.884H221.142C221.142 39.884 222.246 36.342 223.074 33.95L228.594 18.218H230.894L221.326 44.852C219.946 48.716 218.014 49.866 214.794 49.866Z" fill="white"/>
</svg>
