<svg width="22" height="23" viewBox="0 0 22 23" fill="none" xmlns="http://www.w3.org/2000/svg">
<g clip-path="url(#clip0_34_2181)">
<path d="M20.1687 4.9063C19.3632 4.50479 18.5431 4.13265 17.6176 3.90741C16.9052 3.73359 16.4106 3.79724 15.7129 3.89027C14.5696 4.04207 13.2989 3.82662 12.2241 3.52548C11.0759 3.19987 10.0036 2.74694 9.00957 2.20343C8.28489 1.80681 7.6361 1.22413 6.91142 0.785889C8.17716 0.279101 9.55798 0 11.0049 0C14.8291 0 18.1954 1.94636 20.1687 4.9063ZM21.6768 8.28489C21.1382 8.37302 20.5947 8.37792 20.0438 8.37792C19.1674 8.37547 18.379 8.31916 17.5075 8.17227C15.6541 7.85644 14.2121 7.33252 12.5865 6.63966C11.0832 6.00067 9.32784 5.99332 7.7022 5.63833C6.95304 5.47429 6.50746 5.37147 5.7387 5.34209C4.48275 5.29802 3.09459 5.17561 1.94636 4.74716C1.54485 5.3225 1.19964 5.93946 0.915647 6.58825C2.22301 6.69842 3.45204 6.98487 4.39461 7.67282C4.68106 7.88582 4.90385 8.16982 5.24171 8.3363C5.95415 8.68885 7.10238 8.65457 7.91275 8.66926C8.42199 8.67906 8.99243 8.60561 9.49922 8.66682C10.2288 8.7525 11.0588 9.05119 11.781 9.21278C13.8742 9.68039 15.9063 9.97908 18.0877 9.91542C18.7952 9.89584 19.4367 9.69018 20.154 9.6657C20.8297 9.64367 20.9473 9.72201 21.4222 10.0403C21.6083 10.1651 21.8017 10.2753 22 10.3683C21.9584 9.65346 21.8507 8.95571 21.6768 8.28489ZM19.5983 12.6917C18.6581 12.7774 17.8404 13.1936 16.8636 13.1177C13.556 12.8705 10.6475 11.3477 7.32028 11.0661C4.84754 10.858 2.42377 11.3354 0 11.5509C0.0783441 13.1789 0.511685 14.714 1.21923 16.0826C2.02715 15.9675 3.21211 16.1536 3.92945 16.1805C5.25885 16.2344 6.88694 16.4572 8.19185 16.2295C8.80147 16.1217 9.37926 15.9381 10.0354 15.8818C12.6966 15.6517 15.5635 15.9528 18.1513 15.3505C19.1674 15.1106 19.8529 14.6161 20.7318 14.195C21.0207 14.0579 21.3243 13.955 21.6401 13.8816C21.7503 13.4776 21.8384 13.0639 21.8996 12.6428C21.1358 12.6501 20.3523 12.6158 19.5983 12.6917ZM19.4636 16.9933C18.264 17.0252 17.6666 17.1574 16.7167 17.625C16.063 17.9432 15.069 18.1709 14.3125 18.3399C13.1814 18.592 11.9793 18.7365 10.836 18.9593C9.93746 19.138 9.00712 19.2849 8.07923 19.2433C7.32517 19.209 6.62252 19.0841 5.91743 19.3436C5.44491 19.5175 4.98709 19.728 4.52437 19.9239C6.34342 21.2484 8.58113 22.0318 11.0049 22.0318C14.8952 22.0318 18.3129 20.0169 20.2715 16.9737C20.0022 16.9688 19.7329 16.986 19.4636 16.9933Z" fill="#D8006E"/>
</g>
<defs>
<clipPath id="clip0_34_2181">
<rect width="22" height="22.0318" fill="white"/>
</clipPath>
</defs>
</svg>
