<svg width="22" height="23" viewBox="0 0 22 23" fill="none" xmlns="http://www.w3.org/2000/svg">
<path fill-rule="evenodd" clip-rule="evenodd" d="M11.2378 21.9975C17.2031 21.871 22 16.9957 22 11C22 10.8258 21.996 10.6526 21.9879 10.4804C21.6175 11.4604 20.9929 12.1536 19.9545 12.1536C17.7454 12.1536 14 7.01618 14 4.65363C14 2.77099 16.3783 2.93628 18.4624 3.08111C18.5246 3.08544 18.5866 3.08974 18.6482 3.09398C16.6687 1.17863 13.972 0 11 0C10.1044 0 9.2337 0.107043 8.40015 0.309034C8.52726 0.573403 8.34367 0.998334 8.10596 1.5485C7.82162 2.20662 7.45985 3.04394 7.45985 4C7.45985 6.36255 6.21444 8.5 4.0053 8.5C2.35992 8.5 2.05604 6.60544 2.00811 4.66235C0.743115 6.45384 0 8.64014 0 11C0 13.3577 0.74175 15.5421 2.00462 17.3327C2.16597 14.4454 6.51909 14 9.5 14C12.5376 14 13 15.4624 13 18.5C13 20.0943 12.3216 21.2547 11.2378 21.9975Z" fill="#D8006E"/>
</svg>
