<svg width="22" height="23" viewBox="0 0 22 23" fill="none" xmlns="http://www.w3.org/2000/svg">
<path fill-rule="evenodd" clip-rule="evenodd" d="M15.2721 2.15595C15.5481 2.80734 15.7137 3.64642 15.7137 4.41925C15.7137 5.30249 15.5481 6.05324 15.2721 6.71567C15.2169 6.82608 15.1065 6.90336 14.9851 6.88128C13.7044 6.68255 12.4678 6.13053 11.7392 5.40186C11.695 5.35769 11.6287 5.32457 11.5515 5.32457H10.4474C10.3812 5.32457 10.3149 5.34665 10.2597 5.40186C9.53106 6.13053 8.29452 6.68255 7.01383 6.88128C6.89238 6.89232 6.77094 6.82608 6.72678 6.71567C6.45076 6.05324 6.28516 5.30249 6.28516 4.41925C6.28516 3.64642 6.45076 2.80734 6.72678 2.15595C6.77094 2.04555 6.89238 1.99035 7.01383 2.00139C8.29452 2.21116 9.53106 2.76318 10.2708 3.49185C10.3149 3.53601 10.3812 3.56913 10.4585 3.56913H11.5515C11.6177 3.56913 11.684 3.54705 11.7392 3.49185C12.4678 2.76318 13.7154 2.20012 14.9851 2.00139C15.1065 1.99035 15.2279 2.04555 15.2721 2.15595ZM12.5778 15.1225C11.7698 16.1206 10.244 16.1095 9.45069 15.0998L1.0404 4.39575C0.373027 5.81479 0 7.39963 0 9.0716C0 15.1467 4.92487 20.0716 11 20.0716C17.0751 20.0716 22 15.1467 22 9.0716C22 7.49271 21.6673 5.99151 21.0683 4.63427L12.5778 15.1225Z" fill="#D8006E"/>
</svg>
