<?xml version="1.0" encoding="utf-8"?>
<!-- Generator: Adobe Illustrator 28.3.0, SVG Export Plug-In . SVG Version: 6.00 Build 0)  -->
<svg version="1.1" id="Layer_2_00000039843384572620763310000017864078636859077026_"
	 xmlns="http://www.w3.org/2000/svg" xmlns:xlink="http://www.w3.org/1999/xlink" x="0px" y="0px" viewBox="0 0 35.3 29.2"
	 style="enable-background:new 0 0 35.3 29.2;" xml:space="preserve">
<style type="text/css">
	.st0{fill:#00A7AD;}
	.st1{fill:#FFFFFF;}
	.st2{fill:none;stroke:#00A7AD;stroke-width:2.52;stroke-miterlimit:10;}
</style>
<g id="logo">
	<g>
		<path class="st0" d="M30,13.8c0.6-0.5,1.5-5.1-0.8-8.3s-7-3.6-7.7-3.2c-0.6,0.5-1.5,5.1,0.8,8.3S29.3,14.2,30,13.8z"/>
		<path class="st0" d="M33.8,20c1.2,0,1.9-1.3,1.3-2.3c-2.5-4-9.1-10.8-17-10.8C8.2,6.9,0.2,17.6,0,20L33.8,20L33.8,20z"/>
		<path class="st0" d="M0,20c1.8,2.2,2.9,3.6,5.5,4.1c2.6,0.5,4.7,0.2,7.4-0.1s6.8-1,9.4-0.5c1.6,0.3,3.6,1.1,4.9,2.4
			c-0.9-2.2-2.5-3.6-5-4.1s-5.4,0-9,0.3c-3.6,0.4-5.6,0.7-7.9,0.3C2.9,22,1.9,21.5,0,20"/>
		<ellipse class="st1" cx="27.4" cy="14.1" rx="1.3" ry="1.3"/>
	</g>
	<line class="st2" x1="4.9" y1="0.9" x2="30.4" y2="28.4"/>
</g>
</svg>
