<?xml version="1.0" encoding="utf-8"?>
<!-- Generator: Adobe Illustrator 28.3.0, SVG Export Plug-In . SVG Version: 6.00 Build 0)  -->
<svg version="1.1" id="Layer_2_00000047045693329670751130000016023880163914530988_"
	 xmlns="http://www.w3.org/2000/svg" xmlns:xlink="http://www.w3.org/1999/xlink" x="0px" y="0px" viewBox="0 0 20.9 22.4"
	 style="enable-background:new 0 0 20.9 22.4;" xml:space="preserve">
<style type="text/css">
	.st0{fill:#00A7AD;}
	.st1{fill:#FFFFFF;}
</style>
<g id="logo">
	<g>
		<circle class="st0" cx="10.4" cy="11.9" r="10.4"/>
		<circle class="st1" cx="5.4" cy="9.8" r="1.1"/>
		<circle class="st1" cx="15.2" cy="9.8" r="1.1"/>
		<path class="st1" d="M11.4,11.3c0,0.6-0.5,1.1-1.2,1.1s-1.1-0.5-1.1-1.2S11.5,10.6,11.4,11.3L11.4,11.3z"/>
		<path class="st0" d="M1.5,6.6C0.3,3.9,0.2,0.8,0.7,0.3S3.2,0,7.4,2C6.3,4.6,4.1,6.6,1.5,6.6"/>
		<path class="st0" d="M19.4,6.6c1.2-2.8,1.3-5.9,0.9-6.4s-2.6-0.3-6.9,1.7C14.5,4.6,16.8,6.6,19.4,6.6"/>
	</g>
</g>
</svg>
