<?xml version="1.0" encoding="utf-8"?>
<!-- Generator: Adobe Illustrator 28.3.0, SVG Export Plug-In . SVG Version: 6.00 Build 0)  -->
<svg version="1.1" id="Layer_2_00000146479989305951110860000012388904259283999369_"
	 xmlns="http://www.w3.org/2000/svg" xmlns:xlink="http://www.w3.org/1999/xlink" x="0px" y="0px" viewBox="0 0 32.5 19"
	 style="enable-background:new 0 0 32.5 19;" xml:space="preserve">
<style type="text/css">
	.st0{fill:#00A7AD;}
</style>
<g id="logo">
	<g>
		<path class="st0" d="M27.7,5.5C25.9,7.2,21.3,8.4,16,8.4S6.2,7.2,4.3,5.5L4.2,5.3l0.1-0.2C5,2.9,10,1.3,16,1.3s11,1.6,11.8,3.8
			l0.1,0.2L27.7,5.5C27.7,5.5,27.7,5.5,27.7,5.5z M19.2,13.8c-0.2,0.5-0.7,0.7-1,0.6s-0.5-0.7-0.2-1.1c0.2-0.5,0.7-0.7,1-0.6
			C19.3,12.8,19.4,13.3,19.2,13.8L19.2,13.8L19.2,13.8z M16.4,11.4c0.2-0.6,0.8-0.9,1.2-0.8c0.4,0.2,0.6,0.8,0.4,1.4
			c-0.2,0.6-0.8,0.9-1.2,0.8C16.3,12.6,16.2,12,16.4,11.4L16.4,11.4z M18.4,16.2c-0.5,1-1.3,0.2-2.3,0.2c-1,0-2.1,0.9-2.5-0.3
			c-0.2-0.8,0.5-1,1.1-1.6c0.6-0.7,0.6-1.4,1.5-1.4c0.9,0,0.8,0.7,1.3,1.4C17.9,15.1,18.7,15.5,18.4,16.2L18.4,16.2L18.4,16.2z
			 M14.8,10.6c0.5-0.1,0.9,0.4,1,1c0.1,0.6-0.2,1.2-0.7,1.2c-0.5,0.1-0.9-0.4-1-1C14.1,11.2,14.4,10.6,14.8,10.6L14.8,10.6
			L14.8,10.6z M13,13.8c-0.2-0.5-0.2-1,0.2-1.2c0.3-0.2,0.8,0,1.1,0.5c0.2,0.5,0.2,1-0.2,1.2C13.7,14.5,13.2,14.3,13,13.8L13,13.8
			L13,13.8z M29.4,4.8C28.5,1.9,23.4,0,15.9,0S3.4,1.4,2.4,4.8L0,13.2C0,16.4,7.3,19,16.3,19s16.3-2.6,16.3-5.8L29.4,4.8L29.4,4.8
			L29.4,4.8z"/>
		<path class="st0" d="M16,4c-4.2,0-7.7,1-8.8,2.3c2,0.9,5.2,1.5,8.8,1.5s6.8-0.6,8.8-1.5C23.7,5,20.2,4,16,4L16,4z"/>
	</g>
</g>
</svg>
