<?xml version="1.0" encoding="utf-8"?>
<!-- Generator: Adobe Illustrator 28.3.0, SVG Export Plug-In . SVG Version: 6.00 Build 0)  -->
<svg version="1.1" id="Layer_2_00000161597664084014758940000009942407487063997352_"
	 xmlns="http://www.w3.org/2000/svg" xmlns:xlink="http://www.w3.org/1999/xlink" x="0px" y="0px" viewBox="0 0 27.4 29.2"
	 style="enable-background:new 0 0 27.4 29.2;" xml:space="preserve">
<style type="text/css">
	.st0{fill:none;stroke:#00A7AD;stroke-width:2.52;stroke-miterlimit:10;}
	.st1{fill:#00A7AD;}
</style>
<g id="logo">
	<line class="st0" x1="0.9" y1="0.9" x2="26.5" y2="28.4"/>
	<g>
		<path class="st1" d="M26.6,6.3L26.6,6.3v16.6h-4.1V10.4C22.5,8.2,24.3,6.3,26.6,6.3z"/>
		<path class="st1" d="M19.4,6.3L19.4,6.3v16.6h-4.1V10.4C15.3,8.2,17.1,6.3,19.4,6.3z"/>
		<path class="st1" d="M12.1,6.3L12.1,6.3v16.6H8V10.4C8,8.2,9.8,6.3,12.1,6.3z"/>
		<path class="st1" d="M4.9,6.3L4.9,6.3v16.6H0.8V10.4C0.8,8.2,2.6,6.3,4.9,6.3z"/>
		<rect x="4.7" y="10.2" class="st1" width="19.9" height="2.4"/>
		<rect x="4.7" y="16.5" class="st1" width="19.9" height="2.4"/>
	</g>
</g>
</svg>
