<?xml version="1.0" encoding="UTF-8"?>
<svg id="Layer_2" data-name="Layer 2" xmlns="http://www.w3.org/2000/svg" viewBox="0 0 32.58 21.29">
  <defs>
    <style>
      .cls-1 {
        fill: #c3006c;
      }
    </style>
  </defs>
  <g id="logo">
    <path class="cls-1" d="M25.83,8.83h0s0,0,.01,0c0,0,0,0-.01,0h0ZM11.66,15.77l10.82-2.06c.67-.13,1.35.2,1.63.82.89,1.89,3.03,2.97,5.18,2.4,2.13-.57,3.53-2.66,3.25-4.85-.22-1.69-1.34-3.02-2.8-3.58-.32-.12-.4-.55-.15-.78,1.15-1.06,1.71-2.71,1.29-4.36C30.34,1.21,28.27-.22,26.08.03c-2.21.25-3.81,2.05-3.94,4.13-.04.68-.55,1.23-1.22,1.36l-10.82,2.06c-.67.13-1.35-.2-1.63-.82-.89-1.89-3.03-2.97-5.18-2.4C1.15,4.94-.25,7.03.04,9.22c.22,1.69,1.34,3.02,2.8,3.58.32.12.4.55.15.78-1.15,1.06-1.71,2.71-1.29,4.36.54,2.14,2.61,3.57,4.8,3.31,2.21-.25,3.81-2.05,3.94-4.13.04-.68.55-1.23,1.22-1.36h0Z"/>
  </g>
</svg>