<?xml version="1.0" encoding="UTF-8"?>
<svg id="Layer_2" data-name="Layer 2" xmlns="http://www.w3.org/2000/svg" viewBox="0 0 31.1 31.1">
  <defs>
    <style>
      .cls-1 {
        fill: #c3006c;
      }
    </style>
  </defs>
  <g id="logo">
    <g>
      <circle class="cls-1" cx="15.55" cy="15.55" r="3.17"/>
      <path class="cls-1" d="M15.55,0c-.62.06-3.29,2.5-3.29,5.51s2.67,5.45,3.29,5.51c.62-.06,3.29-2.5,3.29-5.51,0-3.01-2.67-5.45-3.29-5.51Z"/>
      <path class="cls-1" d="M4.55,4.55c-.39.48-.55,4.09,1.57,6.22,2.13,2.13,5.74,1.97,6.22,1.57.39-.48.55-4.09-1.57-6.22-2.13-2.13-5.74-1.97-6.22-1.57Z"/>
      <path class="cls-1" d="M0,15.55c.06.62,2.5,3.29,5.51,3.29,3.01,0,5.45-2.67,5.51-3.29-.06-.62-2.5-3.29-5.51-3.29-3.01,0-5.45,2.67-5.51,3.29Z"/>
      <path class="cls-1" d="M4.55,26.54c.48.39,4.09.55,6.22-1.57,2.13-2.13,1.97-5.74,1.57-6.22-.48-.39-4.09-.55-6.22,1.57-2.13,2.13-1.97,5.74-1.57,6.22Z"/>
      <path class="cls-1" d="M15.55,31.1c.62-.06,3.29-2.5,3.29-5.51,0-3.01-2.67-5.45-3.29-5.51-.62.06-3.29,2.5-3.29,5.51,0,3.01,2.67,5.45,3.29,5.51Z"/>
      <path class="cls-1" d="M26.54,26.54c.39-.48.55-4.09-1.57-6.22-2.13-2.13-5.74-1.97-6.22-1.57-.39.48-.55,4.09,1.57,6.22,2.13,2.13,5.74,1.97,6.22,1.57Z"/>
      <path class="cls-1" d="M31.1,15.55c-.06-.62-2.5-3.29-5.51-3.29-3.01,0-5.45,2.67-5.51,3.29.06.62,2.5,3.29,5.51,3.29,3.01,0,5.45-2.67,5.51-3.29Z"/>
      <path class="cls-1" d="M26.54,4.55c-.48-.39-4.09-.55-6.22,1.57-2.13,2.13-1.97,5.74-1.57,6.22.48.39,4.09.55,6.22-1.57,2.13-2.13,1.97-5.74,1.57-6.22Z"/>
    </g>
  </g>
</svg>