<?xml version="1.0" encoding="UTF-8"?>
<svg id="Layer_2" data-name="Layer 2" xmlns="http://www.w3.org/2000/svg" viewBox="0 0 35.26 18.84">
  <defs>
    <style>
      .cls-1 {
        fill: #c3006c;
      }

      .cls-2 {
        fill: #fff;
      }
    </style>
  </defs>
  <g id="logo">
    <g>
      <path class="cls-1" d="M35.26,9.42c-.16-1.61-6.56-8.61-14.45-8.61-7.89,0-14.29,7-14.45,8.61.16,1.61,6.56,8.61,14.45,8.61,7.89,0,14.29-7,14.45-8.61Z"/>
      <g>
        <path class="cls-1" d="M10,10c.49-.59.69-5.09-1.96-7.74C5.39-.39.89-.19.3.3c-.49.59-.69,5.09,1.96,7.74,2.65,2.65,7.15,2.45,7.74,1.96Z"/>
        <path class="cls-1" d="M10,8.84c.49.59.69,5.09-1.96,7.74-2.65,2.65-7.15,2.45-7.74,1.96-.49-.59-.69-5.09,1.96-7.74,2.65-2.65,7.15-2.45,7.74-1.96Z"/>
      </g>
      <ellipse class="cls-2" cx="28.27" cy="7.56" rx="1.43" ry="1.44"/>
      <path class="cls-2" d="M23.06,1.6c-.68,1.36-1.11,2.16-1.11,3.66,0,1.51.26,2.59.56,3.96.3,1.37.81,3.49.81,5,0,.91-.15,2.15-.53,3.06.74-.86,1.14-1.96,1.14-3.4,0-1.44-.35-2.91-.74-4.81-.39-1.9-.65-2.89-.65-4.22,0-1.33.1-1.95.51-3.24"/>
    </g>
  </g>
</svg>