<?xml version="1.0" encoding="utf-8"?>
<!-- Generator: Adobe Illustrator 28.3.0, SVG Export Plug-In . SVG Version: 6.00 Build 0)  -->
<svg version="1.1" id="Layer_2_00000008109047201329470280000015525162560985294520_"
	 xmlns="http://www.w3.org/2000/svg" xmlns:xlink="http://www.w3.org/1999/xlink" x="0px" y="0px" viewBox="0 0 35.3 23.7"
	 style="enable-background:new 0 0 35.3 23.7;" xml:space="preserve">
<style type="text/css">
	.st0{fill:#C3006C;}
	.st1{fill:#FFFFFF;}
</style>
<g id="logo">
	<g>
		<path class="st0" d="M30,11.6c0.6-0.5,1.5-5.1-0.8-8.3s-7-3.6-7.7-3.2c-0.6,0.5-1.5,5.1,0.8,8.3S29.3,12,30,11.6L30,11.6z"/>
		<path class="st0" d="M33.8,17.8c1.2,0,1.9-1.3,1.3-2.3c-2.5-4-9.1-10.8-17-10.8C8.2,4.7,0.2,15.4,0,17.8L33.8,17.8L33.8,17.8z"/>
		<path class="st0" d="M0,17.8c1.8,2.2,2.9,3.6,5.5,4.1s4.7,0.2,7.4-0.1s6.8-1,9.4-0.5c1.6,0.3,3.6,1.1,4.9,2.4
			c-0.9-2.2-2.5-3.6-5-4.1s-5.4,0-9,0.3c-3.6,0.4-5.6,0.7-7.9,0.3C2.9,19.8,1.9,19.3,0,17.8"/>
		<ellipse class="st1" cx="27.4" cy="11.9" rx="1.3" ry="1.3"/>
	</g>
</g>
</svg>
