<?xml version="1.0" encoding="UTF-8"?>
<svg id="Layer_2" data-name="Layer 2" xmlns="http://www.w3.org/2000/svg" viewBox="0 0 328.59 189.13">
  <defs>
    <style>
      .cls-1, .cls-2 {
        fill: #264078;
      }

      .cls-1, .cls-2, .cls-3, .cls-4 {
        stroke-width: 0px;
      }

      .cls-1, .cls-4 {
        fill-rule: evenodd;
      }

      .cls-3, .cls-4 {
        fill: #d8006e;
      }
    </style>
  </defs>
  <g id="logo">
    <g>
      <g>
        <g>
          <path class="cls-3" d="M41.09,118.64c-2.48-3.18-8.56-5.02-13.93-5.02-7.92,0-13.72,5.23-13.72,13.15,0,9.97,6.08,14.71,14,14.71,5.23,0,11.03-1.98,13.44-4.53h.35v5.02c0,6.29-6.29,11.1-15.84,11.1-13.37,0-25.39-9.62-25.39-25.04,0-14.22,9.97-26.03,26.24-26.03,9.55,0,15.21,4.74,15.21,11.6v5.02h-.35Z"/>
          <path class="cls-3" d="M62.66,153.01c-7.5,0-16.62-3.54-16.62-12.38s6.22-13.01,20.37-13.01h1.91v-1.63c0-3.18-2.48-3.96-7.78-3.96-7.28,0-9.97,1.7-12.73,4.24h-.35v-4.74c0-4.81,5.02-9.62,16.12-9.62s17.75,5.45,17.75,16.9v6.01c0,14.14-4.53,18.18-18.67,18.18ZM68.6,135.97h-2.69c-5.09,0-7.14,1.27-7.14,3.89,0,2.48,1.56,3.75,5.3,3.75,2.4,0,4.53-1.2,4.53-4.74v-2.9Z"/>
          <path class="cls-3" d="M91.8,106.2c1.77-1.34,4.17-2.62,7-2.62h1.41v9.48h11.39v4.74c0,3.32-3.54,5.87-6.58,5.87h-4.81v14.07c0,2.62,1.63,4.17,4.24,4.17,3.18,0,4.67-.28,6.08-.85h.35v5.23c0,3.25-2.97,6.22-9.97,6.22s-13.79-3.18-13.79-13.86v-24.12c0-3.54,2.05-6.37,4.67-8.34Z"/>
        </g>
        <g>
          <path class="cls-2" d="M156.95,118.64c-2.48-3.18-8.56-5.02-13.93-5.02-7.92,0-13.72,5.23-13.72,13.15,0,9.97,6.08,14.71,14,14.71,5.23,0,11.03-1.98,13.44-4.53h.35v5.02c0,6.29-6.29,11.1-15.84,11.1-13.37,0-25.39-9.62-25.39-25.04,0-14.22,9.97-26.03,26.24-26.03,9.55,0,15.21,4.74,15.21,11.6v5.02h-.35Z"/>
          <path class="cls-2" d="M197.33,151.95c-7.07,0-8.27-3.32-8.27-8.13v-13.01c0-5.52-1.98-7.99-5.8-7.99-5.23,0-6.51,2.76-6.51,8.27v20.86h-4.53c-6.44,0-8.91-2.69-8.91-8.13v-44.2h4.31c5.59,0,8.77,2.69,8.77,7.71v10.04c1.98-3.11,5.23-5.45,11.39-5.45,7.85,0,14.71,6.08,14.71,16.62v23.41h-5.16Z"/>
          <path class="cls-2" d="M226.68,137.31h-5.8c.78,3.89,3.96,5.73,9.55,5.73,6.22,0,10.11-.99,12.31-2.48h.5v3.11c0,4.95-4.03,9.41-15.13,9.41-13.44,0-20.51-9.05-20.51-19.8,0-11.81,7.99-21.43,20.01-21.43,10.18,0,18.1,5.73,18.1,15.63,0,7.78-5.87,9.83-19.02,9.83ZM227.6,121.9c-4.74,0-6.72,3.04-7.07,6.79h5.23c6.37,0,7.5-.99,7.5-2.69,0-1.98-1.77-4.1-5.66-4.1Z"/>
          <path class="cls-2" d="M281.99,125.79c-1.2-1.27-4.88-2.69-8.63-2.69-6.58,0-10.25,3.32-10.25,8.77,0,6.65,3.68,9.76,9.62,9.76,4.17,0,7.07-.85,9.41-2.19h.14v4.03c0,5.16-5.3,9.34-12.38,9.34-11.81,0-20.23-7.99-20.23-20.16,0-11.1,7.71-20.65,21.43-20.65,6.15,0,11.25,4.03,11.25,9.05v4.74h-.35Z"/>
          <path class="cls-2" d="M301.79,107.47v22.14c3.18-4.74,6.44-9.83,10.25-13.93,1.7-1.84,3.04-2.62,7.14-2.62h9.41v.35c-2.4,2.48-10.96,12.45-14.5,17.54,2.26,3.39,4.6,7.14,7.28,10.25,2.9,3.32,4.03,3.68,7,4.38-.5,4.31-3.4,6.72-8.2,6.72-1.98,0-5.3-.78-6.93-2.69-4.38-5.09-7.78-10.61-11.46-16.19v18.53h-5.3c-4.95,0-8.13-3.25-8.13-7.92v-44.41h5.16c6.08,0,8.27,3.96,8.27,7.85Z"/>
        </g>
      </g>
      <path class="cls-1" d="M217.6,36.85c-.77-1.99-2.46-2.63-4.1-3.25-.54-.21-1.16-.44-1.89-.76-3.24-1.4-5.29-3.25-7.46-5.21-2.71-2.45-5.5-4.96-10.26-6.32-.49-5.14-1.55-12.4-2.73-16.81-.42-1.59-2.51-1.97-3.45-.62-1.98,2.84-4.16,6.8-5.69,10.41-1.77-4.38-4.12-9.62-7.5-13.09-.73-.75-1.73-1.23-2.78-1.19-1.18.04-2.21.62-2.84,1.53l.03-.09-.14.27c-.09.16-.18.32-.25.49l-33.69,62.11-7.3-8.68c-4.69-5.87-13.55-5.72-19.43-1.03l23.77,31.14c1.33,1.87,4.16,1.71,5.27-.3L172.59,8.4c1.93,3.1,3.47,6.98,4.69,10.04,1.51,3.81,2.27,5.72,3.71,6.7,1.36.94,2.99.99,4.86,1.06.86.03,1.84.07,2.94.18,5.76.6,8.24,2.83,11.38,5.67,2.32,2.09,4.95,4.47,9.09,6.26,1.03.45,1.85.75,2.47.99l.27.42c-.05.66-.14,1.55-.23,2.33-.21,1.96-.66,6.05-1.71,8.05-1.31,2.5-3.77,3.54-6.61,4.74-4.48,1.9-10.06,4.26-10.96,13l-.02.15v19.14h0c3.29,0,5.95-2.67,5.95-5.95v-12.88c.58-5.12,3.28-6.26,7.34-7.99,3.4-1.44,7.26-3.07,9.56-7.45,1.46-2.77,1.98-6.71,2.36-10.18.31-2.83.48-4.39-.08-5.83Z"/>
      <g>
        <path class="cls-4" d="M207.76,47.48c-5.49-1.5-13.83-.46-18.78,3.07,4.84-4.84,12.48-5.71,19.03-3.94.23.06.36.31.29.54l-.02.06c-.07.21-.3.33-.51.27Z"/>
        <path class="cls-4" d="M208.25,45.8c-4.53-2.1-11.79-2.77-16.55-.73,4.94-3.16,11.75-2.72,16.92-.04.18.1.27.31.2.51h0c-.08.25-.35.37-.57.26Z"/>
      </g>
      <path class="cls-4" d="M207.3,49.14c-5.01-.31-12.6,1.75-16.29,5.44,3.38-4.73,10.57-6.79,16.36-6.28.27.02.44.3.36.55h0c-.06.18-.24.3-.43.29Z"/>
      <path class="cls-1" d="M187.6,32.03c.83,3.39,2.5,5.47,4.89,6.55-.03-.09-1.65-4.76,2.91-6.5,1.74,4.55-2.81,6.47-2.89,6.5,2.1.94,4.75,1.11,7.88.69-1.14-6.84-6.39-9.29-12.77-7.24Z"/>
      <g>
        <path class="cls-2" d="M8.6,181.62c-1.41,0-2.56-.24-3.39-.68v7.83h-1.59c-1.12,0-2.44-.74-2.44-2.88v-16.48c1.12-.41,3.8-.94,5.24-.94h2.27c3.91,0,6.71,2.24,6.71,6.27,0,4.27-2.94,6.89-6.8,6.89ZM8.19,171.88h-1.3c-.5,0-1.21.18-1.68.27v5.71c.71.21,1.82.35,2.86.35,2.06,0,3.18-1.18,3.18-3.12,0-2.3-.94-3.21-3.06-3.21Z"/>
        <path class="cls-2" d="M25.09,189.04h-.8c-3.77,0-6.36-2.12-6.36-5.03s2.06-4.97,7.89-4.97h1.38v-.21c0-2.24-1.06-2.91-3.41-2.91-2.86,0-4.44,1.09-5.03,1.82h-.15v-1.27c0-1.77,1.59-3.89,5.77-3.89,3.53,0,6.71,1.65,6.71,7.12v3.65c0,3.36-2.47,5.68-6,5.68ZM27.23,181.86h-1.41c-3,0-3.86.71-3.86,2s1,1.97,2.74,1.97,2.53-.82,2.53-2.44v-1.53Z"/>
        <path class="cls-2" d="M44.39,176.74c-.59-.24-1.27-.47-2.3-.47-1.77,0-2.74.97-2.74,3.39v9.12h-1.09c-1.77,0-2.89-.88-2.89-2.53v-7.3c0-3.18,1.68-6.21,5.86-6.21,2.44,0,3.3,1.38,3.3,2.59v1.41h-.15Z"/>
        <path class="cls-2" d="M54.37,189.04h-.8c-3.77,0-6.36-2.12-6.36-5.03s2.06-4.97,7.89-4.97h1.38v-.21c0-2.24-1.06-2.91-3.41-2.91-2.86,0-4.44,1.09-5.03,1.82h-.15v-1.27c0-1.77,1.59-3.89,5.77-3.89,3.53,0,6.71,1.65,6.71,7.12v3.65c0,3.36-2.47,5.68-6,5.68ZM56.52,181.86h-1.41c-3,0-3.86.71-3.86,2s1,1.97,2.74,1.97,2.53-.82,2.53-2.44v-1.53Z"/>
        <path class="cls-2" d="M69.46,189.13c-2.91,0-5.09-1.5-5.09-3.12v-1.8h.15c.85.79,2.89,1.5,4.77,1.5s2.88-.56,2.88-1.74c0-.91-.56-1.35-3.3-1.74-3.36-.47-4.97-1.8-4.97-4.21,0-2.97,2.68-5.5,6.74-5.5,3.59,0,5.06,1.85,5.06,3.39v1.5h-.15c-.82-.82-2.65-1.47-4.53-1.47-2.41,0-3.18.74-3.18,1.77,0,.79.47,1.12,3.18,1.56,3.3.53,5.06,1.97,5.06,4.5,0,3.36-2.35,5.36-6.62,5.36Z"/>
        <path class="cls-2" d="M82.77,171.76c-1.27,0-2.3-1.06-2.3-2.33s1.03-2.3,2.3-2.3,2.33,1.03,2.33,2.3-1.06,2.33-2.33,2.33ZM85.56,188.92c-3.06,0-4.74-1.74-4.74-4.95v-10.74h1.12c1.77,0,2.83.94,2.83,2.94v7.42c0,1.59.68,2.09,2.41,2.09h.74v.85c0,1.71-.68,2.38-2.35,2.38Z"/>
        <path class="cls-2" d="M92.59,170.38c.53-.62,1.24-1.09,1.85-1.09h.91v3.59h5.5v1.62c0,.82-.74,1.88-2.36,1.88h-3.15v6.21c0,2.06.91,2.86,2.5,2.86,1.27,0,2.24-.18,2.86-.56h.15v1.41c0,1.62-1.18,2.65-3.47,2.65-4,0-5.95-2.18-5.95-5.89v-9.54c0-1.56.29-2.15,1.15-3.15Z"/>
        <path class="cls-2" d="M110.34,182.54h-2.59c.29,2,2.12,3.27,4.44,3.27,1.65,0,3.59-.32,4.86-1.5h.15v1.24c0,2.03-1.38,3.59-5.74,3.59-3.94,0-7.8-3.12-7.8-7.98,0-5.3,3.24-8.62,7.77-8.62,3.3,0,6.36,2.36,6.36,6.15,0,2.91-2.21,3.86-7.45,3.86ZM111.08,175.82c-1.91,0-3.24,1.56-3.33,3.38l-.03.53h1.77c3.74,0,4.59-.41,4.59-1.53,0-1.59-1.18-2.38-3-2.38Z"/>
        <path class="cls-2" d="M143.01,188.92c-1.29,0-2.41-.5-2.94-1.8l-1.5-3.65c-.91-2.21-1.77-2.36-2.83-2.53-.88-.15-1.59-.26-2-.26v8.09h-1.29c-1.8,0-2.74-1.09-2.74-2.71v-16.9c.85-.32,3.68-.74,5.18-.74h2.24c4,0,6.62,2.41,6.62,5.8,0,2.74-1.8,5-4.15,5.36,1.09.44,2,1.65,2.5,2.83l1.62,3.77c.5,1.18,1,1.74,1.24,2.09-.47.5-.82.65-1.94.65ZM135.53,171.91c-.38,0-1.35.09-1.8.21v5.33c.88.18,1.8.18,2.88.18,1.65,0,3.03-.94,3.03-2.74,0-2.44-1.24-2.97-3-2.97h-1.12Z"/>
        <path class="cls-2" d="M151.07,171.76c-1.27,0-2.3-1.06-2.3-2.33s1.03-2.3,2.3-2.3,2.33,1.03,2.33,2.3-1.06,2.33-2.33,2.33ZM153.87,188.92c-3.06,0-4.74-1.74-4.74-4.95v-10.74h1.12c1.77,0,2.83.94,2.83,2.94v7.42c0,1.59.68,2.09,2.41,2.09h.74v.85c0,1.71-.68,2.38-2.35,2.38Z"/>
        <path class="cls-2" d="M164.4,189.13c-2.91,0-5.09-1.5-5.09-3.12v-1.8h.15c.85.79,2.89,1.5,4.77,1.5s2.88-.56,2.88-1.74c0-.91-.56-1.35-3.3-1.74-3.36-.47-4.97-1.8-4.97-4.21,0-2.97,2.68-5.5,6.74-5.5,3.59,0,5.06,1.85,5.06,3.39v1.5h-.15c-.82-.82-2.65-1.47-4.53-1.47-2.41,0-3.18.74-3.18,1.77,0,.79.47,1.12,3.18,1.56,3.3.53,5.06,1.97,5.06,4.5,0,3.36-2.35,5.36-6.62,5.36Z"/>
        <path class="cls-2" d="M179.38,170.2v9.48c2.33-3.12,3.53-4.5,4.86-5.77.94-.88,1.88-1.03,3.15-1.03h2.27v.15c-1.12.94-4.8,5.12-6.45,7.21,1.27,1.56,2.5,3.18,3.92,4.62,1.44,1.44,2.09,1.74,3.06,2.06-.41,1.27-1.06,1.94-2.68,1.94-.88,0-1.91-.41-2.59-1.09-2.03-2.09-3.8-4.44-5.53-6.77v7.77h-1.35c-1.77,0-2.62-.97-2.62-2.8v-18.4h1.27c1.91,0,2.71,1.09,2.71,2.62Z"/>
        <path class="cls-2" d="M215.43,188.78c-1.68,0-2.56-.97-2.71-1.94-.18-1.32-.35-2.35-.56-3.21h-8.04c-.41,1.71-.76,3.44-1.06,5.15h-1.56c-1.32,0-1.85-.71-1.85-1.94,0-2.91,3.77-14.78,6.86-18.22h1.65c1.62,0,2.71.88,3.27,1.85,1.82,3.27,4.86,11.95,5.65,18.31h-1.65ZM208.13,172.32c-1.18,2.09-2.44,5.3-3.12,8.1h6.24c-.68-2.83-2.06-6.21-3.12-8.1Z"/>
        <path class="cls-2" d="M225.12,189.13c-2.91,0-5.09-1.5-5.09-3.12v-1.8h.15c.85.79,2.89,1.5,4.77,1.5s2.88-.56,2.88-1.74c0-.91-.56-1.35-3.3-1.74-3.36-.47-4.97-1.8-4.97-4.21,0-2.97,2.68-5.5,6.74-5.5,3.59,0,5.06,1.85,5.06,3.39v1.5h-.15c-.82-.82-2.65-1.47-4.53-1.47-2.41,0-3.18.74-3.18,1.77,0,.79.47,1.12,3.18,1.56,3.3.53,5.06,1.97,5.06,4.5,0,3.36-2.35,5.36-6.62,5.36Z"/>
        <path class="cls-2" d="M240.77,189.13c-2.91,0-5.09-1.5-5.09-3.12v-1.8h.15c.85.79,2.89,1.5,4.77,1.5s2.88-.56,2.88-1.74c0-.91-.56-1.35-3.3-1.74-3.36-.47-4.97-1.8-4.97-4.21,0-2.97,2.68-5.5,6.74-5.5,3.59,0,5.06,1.85,5.06,3.39v1.5h-.15c-.82-.82-2.65-1.47-4.53-1.47-2.41,0-3.18.74-3.18,1.77,0,.79.47,1.12,3.18,1.56,3.3.53,5.06,1.97,5.06,4.5,0,3.36-2.35,5.36-6.62,5.36Z"/>
        <path class="cls-2" d="M257.58,182.54h-2.59c.29,2,2.12,3.27,4.44,3.27,1.65,0,3.59-.32,4.86-1.5h.15v1.24c0,2.03-1.38,3.59-5.74,3.59-3.94,0-7.8-3.12-7.8-7.98,0-5.3,3.24-8.62,7.77-8.62,3.3,0,6.36,2.36,6.36,6.15,0,2.91-2.21,3.86-7.45,3.86ZM258.31,175.82c-1.91,0-3.24,1.56-3.33,3.38l-.03.53h1.77c3.74,0,4.59-.41,4.59-1.53,0-1.59-1.18-2.38-3-2.38Z"/>
        <path class="cls-2" d="M274.03,189.13c-2.91,0-5.09-1.5-5.09-3.12v-1.8h.15c.85.79,2.89,1.5,4.77,1.5s2.88-.56,2.88-1.74c0-.91-.56-1.35-3.3-1.74-3.36-.47-4.97-1.8-4.97-4.21,0-2.97,2.68-5.5,6.74-5.5,3.59,0,5.06,1.85,5.06,3.39v1.5h-.15c-.82-.82-2.65-1.47-4.53-1.47-2.41,0-3.18.74-3.18,1.77,0,.79.47,1.12,3.18,1.56,3.3.53,5.06,1.97,5.06,4.5,0,3.36-2.35,5.36-6.62,5.36Z"/>
        <path class="cls-2" d="M289.68,189.13c-2.91,0-5.09-1.5-5.09-3.12v-1.8h.15c.85.79,2.89,1.5,4.77,1.5s2.88-.56,2.88-1.74c0-.91-.56-1.35-3.3-1.74-3.36-.47-4.97-1.8-4.97-4.21,0-2.97,2.68-5.5,6.74-5.5,3.59,0,5.06,1.85,5.06,3.39v1.5h-.15c-.82-.82-2.65-1.47-4.53-1.47-2.41,0-3.18.74-3.18,1.77,0,.79.47,1.12,3.18,1.56,3.3.53,5.06,1.97,5.06,4.5,0,3.36-2.35,5.36-6.62,5.36Z"/>
        <path class="cls-2" d="M307.67,172.53c4.77,0,7.51,3.83,7.51,8.04,0,4.77-2.74,8.57-7.86,8.57-4.77,0-7.51-3.8-7.51-8.01,0-4.77,2.74-8.6,7.86-8.6ZM307.31,176.06c-2.27,0-3.41,1.88-3.41,4.5,0,3.15,1.15,5.03,3.77,5.03,2.3,0,3.41-1.88,3.41-4.47,0-3.18-1.18-5.06-3.77-5.06Z"/>
        <path class="cls-2" d="M328.44,176.74c-.59-.24-1.27-.47-2.3-.47-1.77,0-2.74.97-2.74,3.39v9.12h-1.09c-1.77,0-2.89-.88-2.89-2.53v-7.3c0-3.18,1.68-6.21,5.86-6.21,2.44,0,3.3,1.38,3.3,2.59v1.41h-.15Z"/>
      </g>
    </g>
  </g>
</svg>