<?xml version="1.0" encoding="UTF-8"?>
<svg id="Layer_2" data-name="Layer 2" xmlns="http://www.w3.org/2000/svg" viewBox="0 0 333.61 212.12">
  <defs>
    <style>
      .cls-1, .cls-2 {
        fill: #264078;
      }

      .cls-1, .cls-2, .cls-3, .cls-4 {
        stroke-width: 0px;
      }

      .cls-1, .cls-4 {
        fill-rule: evenodd;
      }

      .cls-3, .cls-4 {
        fill: #bf3068;
      }
    </style>
  </defs>
  <g id="logo">
    <g>
      <g>
        <g>
          <g>
            <path class="cls-3" d="M46.11,118.64c-2.48-3.18-8.56-5.02-13.93-5.02-7.92,0-13.72,5.23-13.72,13.15,0,9.97,6.08,14.71,14,14.71,5.23,0,11.03-1.98,13.44-4.53h.35v5.02c0,6.29-6.29,11.1-15.84,11.1-13.37,0-25.39-9.62-25.39-25.04,0-14.22,9.97-26.03,26.24-26.03,9.55,0,15.21,4.74,15.21,11.6v5.02h-.35Z"/>
            <path class="cls-3" d="M67.68,153.01c-7.5,0-16.62-3.54-16.62-12.38s6.22-13.01,20.37-13.01h1.91v-1.63c0-3.18-2.48-3.96-7.78-3.96-7.28,0-9.97,1.7-12.73,4.24h-.35v-4.74c0-4.81,5.02-9.62,16.12-9.62s17.75,5.45,17.75,16.9v6.01c0,14.14-4.53,18.18-18.67,18.18ZM73.62,135.97h-2.69c-5.09,0-7.14,1.27-7.14,3.89,0,2.48,1.56,3.75,5.3,3.75,2.4,0,4.53-1.2,4.53-4.74v-2.9Z"/>
            <path class="cls-3" d="M96.82,106.2c1.77-1.34,4.17-2.62,7-2.62h1.41v9.48h11.39v4.74c0,3.32-3.54,5.87-6.58,5.87h-4.81v14.07c0,2.62,1.63,4.17,4.24,4.17,3.18,0,4.67-.28,6.08-.85h.35v5.23c0,3.25-2.97,6.22-9.97,6.22s-13.79-3.18-13.79-13.86v-24.12c0-3.54,2.05-6.37,4.67-8.34Z"/>
          </g>
          <g>
            <path class="cls-2" d="M161.97,118.64c-2.48-3.18-8.56-5.02-13.93-5.02-7.92,0-13.72,5.23-13.72,13.15,0,9.97,6.08,14.71,14,14.71,5.23,0,11.03-1.98,13.44-4.53h.35v5.02c0,6.29-6.29,11.1-15.84,11.1-13.37,0-25.39-9.62-25.39-25.04,0-14.22,9.97-26.03,26.24-26.03,9.55,0,15.21,4.74,15.21,11.6v5.02h-.35Z"/>
            <path class="cls-2" d="M202.35,151.95c-7.07,0-8.27-3.32-8.27-8.13v-13.01c0-5.52-1.98-7.99-5.8-7.99-5.23,0-6.51,2.76-6.51,8.27v20.86h-4.53c-6.44,0-8.91-2.69-8.91-8.13v-44.2h4.31c5.59,0,8.77,2.69,8.77,7.71v10.04c1.98-3.11,5.23-5.45,11.39-5.45,7.85,0,14.71,6.08,14.71,16.62v23.41h-5.16Z"/>
            <path class="cls-2" d="M231.7,137.31h-5.8c.78,3.89,3.96,5.73,9.55,5.73,6.22,0,10.11-.99,12.31-2.48h.5v3.11c0,4.95-4.03,9.41-15.13,9.41-13.44,0-20.51-9.05-20.51-19.8,0-11.81,7.99-21.43,20.01-21.43,10.18,0,18.1,5.73,18.1,15.63,0,7.78-5.87,9.83-19.02,9.83ZM232.62,121.9c-4.74,0-6.72,3.04-7.07,6.79h5.23c6.37,0,7.5-.99,7.5-2.69,0-1.98-1.77-4.1-5.66-4.1Z"/>
            <path class="cls-2" d="M287.01,125.79c-1.2-1.27-4.88-2.69-8.63-2.69-6.58,0-10.25,3.32-10.25,8.77,0,6.65,3.68,9.76,9.62,9.76,4.17,0,7.07-.85,9.41-2.19h.14v4.03c0,5.16-5.3,9.34-12.38,9.34-11.81,0-20.23-7.99-20.23-20.16,0-11.1,7.71-20.65,21.43-20.65,6.15,0,11.25,4.03,11.25,9.05v4.74h-.35Z"/>
            <path class="cls-2" d="M306.81,107.47v22.14c3.18-4.74,6.44-9.83,10.25-13.93,1.7-1.84,3.04-2.62,7.14-2.62h9.41v.35c-2.4,2.48-10.96,12.45-14.5,17.54,2.26,3.39,4.6,7.14,7.28,10.25,2.9,3.32,4.03,3.68,7,4.38-.5,4.31-3.4,6.72-8.2,6.72-1.98,0-5.3-.78-6.93-2.69-4.38-5.09-7.78-10.61-11.46-16.19v18.53h-5.3c-4.95,0-8.13-3.25-8.13-7.92v-44.41h5.16c6.08,0,8.27,3.96,8.27,7.85Z"/>
          </g>
        </g>
        <path class="cls-1" d="M222.63,36.85c-.77-1.99-2.46-2.63-4.1-3.25-.54-.21-1.16-.44-1.89-.76-3.24-1.4-5.29-3.25-7.46-5.21-2.71-2.45-5.5-4.96-10.26-6.32-.49-5.14-1.55-12.4-2.73-16.81-.42-1.59-2.51-1.97-3.45-.62-1.98,2.84-4.16,6.8-5.69,10.41-1.77-4.38-4.12-9.62-7.5-13.09-.73-.75-1.73-1.23-2.78-1.19-1.18.04-2.21.62-2.84,1.53l.03-.09-.14.27c-.09.16-.18.32-.25.49l-33.69,62.11-7.3-8.68c-4.69-5.87-13.55-5.72-19.43-1.03l23.77,31.14c1.33,1.87,4.16,1.71,5.27-.3L177.61,8.4c1.93,3.1,3.47,6.98,4.69,10.04,1.51,3.81,2.27,5.72,3.71,6.7,1.36.94,2.99.99,4.86,1.06.86.03,1.84.07,2.94.18,5.76.6,8.24,2.83,11.38,5.67,2.32,2.09,4.95,4.47,9.09,6.26,1.03.45,1.85.75,2.47.99l.27.42c-.05.66-.14,1.55-.23,2.33-.21,1.96-.66,6.05-1.71,8.05-1.31,2.5-3.77,3.54-6.61,4.74-4.48,1.9-10.06,4.26-10.96,13l-.02.15v19.14h0c3.29,0,5.95-2.67,5.95-5.95v-12.88c.58-5.12,3.28-6.26,7.34-7.99,3.4-1.44,7.26-3.07,9.56-7.45,1.46-2.77,1.98-6.71,2.36-10.18.31-2.83.48-4.39-.08-5.83Z"/>
        <g>
          <path class="cls-4" d="M212.78,47.48c-5.49-1.5-13.83-.46-18.78,3.07,4.84-4.84,12.48-5.71,19.03-3.94.23.06.36.31.29.54l-.02.06c-.07.21-.3.33-.51.27Z"/>
          <path class="cls-4" d="M213.27,45.8c-4.53-2.1-11.79-2.77-16.55-.73,4.94-3.16,11.75-2.72,16.92-.04.18.1.27.31.2.51h0c-.08.25-.35.37-.57.26Z"/>
        </g>
        <path class="cls-4" d="M212.32,49.14c-5.01-.31-12.6,1.75-16.29,5.44,3.38-4.73,10.57-6.79,16.36-6.28.27.02.44.3.36.55h0c-.06.18-.24.3-.43.29Z"/>
        <path class="cls-1" d="M192.62,32.03c.83,3.39,2.5,5.47,4.89,6.55-.03-.09-1.65-4.76,2.91-6.5,1.74,4.55-2.81,6.47-2.89,6.5,2.1.94,4.75,1.11,7.88.69-1.14-6.84-6.39-9.29-12.77-7.24Z"/>
      </g>
      <g>
        <path class="cls-2" d="M6.34,180c-1.21,0-2.19-.19-2.9-.55v6.38h-1.36c-.96,0-2.09-.6-2.09-2.35v-13.44c.96-.34,3.25-.77,4.48-.77h1.94c3.35,0,5.74,1.82,5.74,5.11,0,3.48-2.52,5.62-5.82,5.62ZM5.99,172.05h-1.11c-.43,0-1.03.14-1.43.22v4.66c.6.17,1.56.29,2.44.29,1.76,0,2.72-.96,2.72-2.54,0-1.87-.81-2.62-2.62-2.62Z"/>
        <path class="cls-2" d="M19.71,172.58c4.08,0,6.42,3.12,6.42,6.55,0,3.89-2.34,6.98-6.72,6.98-4.08,0-6.42-3.1-6.42-6.53,0-3.89,2.34-7.01,6.72-7.01ZM19.41,175.46c-1.94,0-2.92,1.54-2.92,3.67,0,2.57.98,4.1,3.22,4.1,1.96,0,2.92-1.54,2.92-3.65,0-2.59-1.01-4.13-3.22-4.13Z"/>
        <path class="cls-2" d="M32.57,186.12c-2.49,0-4.36-1.22-4.36-2.54v-1.46h.13c.73.65,2.47,1.22,4.08,1.22s2.47-.46,2.47-1.42c0-.74-.48-1.1-2.82-1.42-2.87-.38-4.25-1.46-4.25-3.43,0-2.42,2.29-4.49,5.77-4.49,3.07,0,4.33,1.51,4.33,2.76v1.22h-.13c-.71-.67-2.27-1.2-3.88-1.2-2.07,0-2.72.6-2.72,1.44,0,.65.4.91,2.72,1.27,2.82.43,4.33,1.61,4.33,3.67,0,2.74-2.01,4.37-5.67,4.37Z"/>
        <path class="cls-2" d="M46.54,186.12c-3.35,0-5.99-2.11-5.99-5.88v-7.37h.63c1.94,0,2.79.79,2.79,2.3v4.75c0,2.38,1.21,3.34,2.74,3.34,1.38,0,2.37-.91,2.37-3.12v-7.27h.6c1.96,0,2.79.79,2.79,2.3v4.85c0,4.03-1.99,6.1-5.94,6.1ZM48.33,170.4c-.83.34-1.99.58-2.9.58h-1.13v-.12c.55-.82,1.16-1.61,1.89-2.23.81-.7,1.41-1.15,2.39-1.15.83,0,1.41.36,1.41,1.22,0,.7-.63,1.3-1.66,1.7Z"/>
        <path class="cls-2" d="M61.14,186.12c-3.58,0-6.32-2.98-6.32-6.53,0-4.25,2.17-7.01,6.12-7.01,1.36,0,2.84.91,3.37,2.04v-6.07h1.03c1.61,0,2.32.89,2.32,2.18v9.12c0,3.77-1.86,6.26-6.52,6.26ZM60.96,175.3c-1.71,0-2.82,1.58-2.82,3.67,0,2.69,1.46,4.44,3.4,4.44s2.72-1.34,2.72-3.7c0-3.24-1.49-4.42-3.3-4.42Z"/>
        <path class="cls-2" d="M75.71,180.74h-2.22c.25,1.63,1.81,2.67,3.8,2.67,1.41,0,3.07-.26,4.15-1.22h.13v1.01c0,1.66-1.18,2.93-4.91,2.93-3.37,0-6.67-2.54-6.67-6.5,0-4.32,2.77-7.03,6.65-7.03,2.82,0,5.44,1.92,5.44,5.02,0,2.38-1.89,3.14-6.37,3.14ZM76.34,175.27c-1.64,0-2.77,1.27-2.84,2.76l-.03.43h1.51c3.2,0,3.93-.34,3.93-1.25,0-1.3-1.01-1.94-2.57-1.94Z"/>
        <path class="cls-2" d="M95.42,185.83c-1.51,0-2.47-.91-2.47-2.11v-5.14c0-2.18-1.01-3.14-2.74-3.14-1.46,0-2.47,1.06-2.47,2.9v7.49h-1.01c-1.43,0-2.37-.91-2.37-2.11v-5.59c0-2.74,1.89-5.54,6.12-5.54,3.2,0,5.84,2.04,5.84,5.71v7.54h-.91Z"/>
        <path class="cls-2" d="M101.38,171.96c-1.08,0-1.96-.86-1.96-1.9s.88-1.87,1.96-1.87,1.99.84,1.99,1.87-.91,1.9-1.99,1.9ZM103.78,185.95c-2.62,0-4.05-1.42-4.05-4.03v-8.76h.96c1.51,0,2.42.77,2.42,2.4v6.05c0,1.3.58,1.7,2.06,1.7h.63v.7c0,1.39-.58,1.94-2.01,1.94Z"/>
        <path class="cls-2" d="M112.46,180.74h-2.22c.25,1.63,1.81,2.67,3.8,2.67,1.41,0,3.07-.26,4.15-1.22h.13v1.01c0,1.66-1.18,2.93-4.91,2.93-3.37,0-6.67-2.54-6.67-6.5,0-4.32,2.77-7.03,6.65-7.03,2.82,0,5.44,1.92,5.44,5.02,0,2.38-1.89,3.14-6.37,3.14ZM113.09,175.27c-1.64,0-2.77,1.27-2.84,2.76l-.03.43h1.51c3.2,0,3.93-.34,3.93-1.25,0-1.3-1.01-1.94-2.57-1.94Z"/>
        <path class="cls-2" d="M134.11,176.02c-.5-.19-1.08-.38-1.96-.38-1.51,0-2.34.79-2.34,2.76v7.44h-.93c-1.51,0-2.47-.72-2.47-2.06v-5.95c0-2.59,1.43-5.06,5.01-5.06,2.09,0,2.82,1.13,2.82,2.11v1.15h-.13Z"/>
        <path class="cls-2" d="M137.91,171.96c-1.08,0-1.96-.86-1.96-1.9s.88-1.87,1.96-1.87,1.99.84,1.99,1.87-.91,1.9-1.99,1.9ZM140.3,185.95c-2.62,0-4.05-1.42-4.05-4.03v-8.76h.96c1.51,0,2.42.77,2.42,2.4v6.05c0,1.3.58,1.7,2.06,1.7h.63v.7c0,1.39-.58,1.94-2.01,1.94Z"/>
        <path class="cls-2" d="M152.23,185.83h-6.62c-1.56,0-2.32-.7-2.32-1.7s.78-2.23,2.06-3.55l3.42-3.55c.4-.43.93-1.03,1.16-1.46h-6.67v-.98c0-.96.73-1.7,2.24-1.7h6.17c1.59,0,2.12.91,2.12,1.66,0,1.01-.55,2.21-1.74,3.43l-3.4,3.5c-.48.5-.98,1.08-1.28,1.61h6.6v1.25c0,.79-.88,1.51-1.74,1.51Z"/>
        <path class="cls-2" d="M158.39,171.96c-1.08,0-1.96-.86-1.96-1.9s.88-1.87,1.96-1.87,1.99.84,1.99,1.87-.91,1.9-1.99,1.9ZM160.79,185.95c-2.62,0-4.05-1.42-4.05-4.03v-8.76h.96c1.51,0,2.42.77,2.42,2.4v6.05c0,1.3.58,1.7,2.06,1.7h.63v.7c0,1.39-.58,1.94-2.01,1.94Z"/>
        <path class="cls-2" d="M167.91,170.69v7.73c1.99-2.54,3.02-3.67,4.15-4.7.81-.72,1.61-.84,2.69-.84h1.94v.12c-.96.77-4.1,4.18-5.51,5.88,1.08,1.27,2.14,2.59,3.35,3.77,1.23,1.18,1.79,1.42,2.62,1.68-.35,1.03-.91,1.58-2.29,1.58-.76,0-1.64-.34-2.22-.89-1.74-1.7-3.25-3.62-4.73-5.52v6.34h-1.16c-1.51,0-2.24-.79-2.24-2.28v-15h1.08c1.64,0,2.32.89,2.32,2.14Z"/>
        <path class="cls-2" d="M183.99,186.05h-.68c-3.22,0-5.44-1.73-5.44-4.1s1.76-4.06,6.75-4.06h1.18v-.17c0-1.82-.91-2.38-2.92-2.38-2.44,0-3.8.89-4.31,1.49h-.13v-1.03c0-1.44,1.36-3.17,4.93-3.17,3.02,0,5.74,1.34,5.74,5.81v2.98c0,2.74-2.11,4.63-5.14,4.63ZM185.83,180.19h-1.21c-2.57,0-3.3.58-3.3,1.63s.86,1.61,2.34,1.61,2.17-.67,2.17-1.99v-1.25Z"/>
        <path class="cls-2" d="M203.62,186.12c-1.51,0-2.74-.82-3.42-1.92v5.71h-1.06c-1.21,0-2.37-.84-2.37-2.23v-7.83c0-4.3,2.01-7.27,6.8-7.27,3.6,0,6.17,3.12,6.17,6.38,0,4.15-2.17,7.15-6.12,7.15ZM203.05,175.44c-1.86,0-2.9,1.54-2.9,3.77,0,2.59,1.33,4.06,3.35,4.06,1.64,0,2.77-1.39,2.77-3.46,0-3.05-1.06-4.37-3.22-4.37Z"/>
        <path class="cls-2" d="M217.59,186.05h-.68c-3.22,0-5.44-1.73-5.44-4.1s1.76-4.06,6.75-4.06h1.18v-.17c0-1.82-.91-2.38-2.92-2.38-2.44,0-3.8.89-4.31,1.49h-.13v-1.03c0-1.44,1.36-3.17,4.93-3.17,3.02,0,5.74,1.34,5.74,5.81v2.98c0,2.74-2.11,4.63-5.14,4.63ZM219.43,180.19h-1.21c-2.57,0-3.3.58-3.3,1.63s.86,1.61,2.34,1.61,2.17-.67,2.17-1.99v-1.25Z"/>
        <path class="cls-2" d="M232.8,176.02c-.5-.19-1.08-.38-1.96-.38-1.51,0-2.34.79-2.34,2.76v7.44h-.93c-1.51,0-2.47-.72-2.47-2.06v-5.95c0-2.59,1.43-5.06,5.01-5.06,2.09,0,2.82,1.13,2.82,2.11v1.15h-.13Z"/>
        <path class="cls-2" d="M240.02,186.05h-.68c-3.22,0-5.44-1.73-5.44-4.1s1.76-4.06,6.75-4.06h1.18v-.17c0-1.82-.91-2.38-2.92-2.38-2.44,0-3.8.89-4.3,1.49h-.13v-1.03c0-1.44,1.36-3.17,4.93-3.17,3.02,0,5.74,1.34,5.74,5.81v2.98c0,2.74-2.11,4.63-5.14,4.63ZM241.86,180.19h-1.21c-2.57,0-3.3.58-3.3,1.63s.86,1.61,2.34,1.61,2.17-.67,2.17-1.99v-1.25Z"/>
        <path class="cls-2" d="M255.85,185.83h-6.62c-1.56,0-2.32-.7-2.32-1.7s.78-2.23,2.06-3.55l3.42-3.55c.4-.43.93-1.03,1.16-1.46h-6.67v-.98c0-.96.73-1.7,2.24-1.7h6.17c1.59,0,2.12.91,2.12,1.66,0,1.01-.55,2.21-1.74,3.43l-3.4,3.5c-.48.5-.98,1.08-1.28,1.61h6.6v1.25c0,.79-.88,1.51-1.74,1.51Z"/>
        <path class="cls-2" d="M262.02,171.96c-1.08,0-1.96-.86-1.96-1.9s.88-1.87,1.96-1.87,1.99.84,1.99,1.87-.91,1.9-1.99,1.9ZM264.41,185.95c-2.62,0-4.05-1.42-4.05-4.03v-8.76h.96c1.51,0,2.42.77,2.42,2.4v6.05c0,1.3.58,1.7,2.06,1.7h.63v.7c0,1.39-.58,1.94-2.01,1.94Z"/>
        <path class="cls-2" d="M269.12,170.83c.45-.5,1.06-.89,1.59-.89h.78v2.93h4.71v1.32c0,.67-.63,1.54-2.01,1.54h-2.69v5.06c0,1.68.78,2.33,2.14,2.33,1.08,0,1.91-.14,2.44-.46h.13v1.15c0,1.32-1.01,2.16-2.97,2.16-3.42,0-5.08-1.78-5.08-4.8v-7.78c0-1.27.25-1.75.98-2.57Z"/>
        <path class="cls-2" d="M283.41,186.05h-.68c-3.22,0-5.44-1.73-5.44-4.1s1.76-4.06,6.75-4.06h1.18v-.17c0-1.82-.91-2.38-2.92-2.38-2.44,0-3.8.89-4.3,1.49h-.13v-1.03c0-1.44,1.36-3.17,4.93-3.17,3.02,0,5.74,1.34,5.74,5.81v2.98c0,2.74-2.11,4.63-5.14,4.63ZM285.25,180.19h-1.21c-2.57,0-3.3.58-3.3,1.63s.86,1.61,2.34,1.61,2.17-.67,2.17-1.99v-1.25ZM284.82,170.4c-.83.34-1.99.58-2.9.58h-1.13v-.12c.55-.82,1.16-1.61,1.89-2.23.81-.7,1.41-1.15,2.39-1.15.83,0,1.41.36,1.41,1.22,0,.7-.63,1.3-1.66,1.7Z"/>
        <path class="cls-2" d="M298.62,176.02c-.5-.19-1.08-.38-1.96-.38-1.51,0-2.34.79-2.34,2.76v7.44h-.93c-1.51,0-2.47-.72-2.47-2.06v-5.95c0-2.59,1.43-5.06,5.01-5.06,2.09,0,2.82,1.13,2.82,2.11v1.15h-.13Z"/>
        <path class="cls-2" d="M311.38,185.83c-1.51,0-2.47-.91-2.47-2.11v-5.14c0-2.18-1.01-3.14-2.74-3.14-1.46,0-2.47,1.06-2.47,2.9v7.49h-1.01c-1.43,0-2.37-.91-2.37-2.11v-5.59c0-2.74,1.89-5.54,6.12-5.54,3.2,0,5.84,2.04,5.84,5.71v7.54h-.91Z"/>
        <path class="cls-2" d="M320.34,180.74h-2.22c.25,1.63,1.81,2.67,3.8,2.67,1.41,0,3.07-.26,4.15-1.22h.13v1.01c0,1.66-1.18,2.93-4.91,2.93-3.37,0-6.67-2.54-6.67-6.5,0-4.32,2.77-7.03,6.65-7.03,2.82,0,5.44,1.92,5.44,5.02,0,2.38-1.89,3.14-6.37,3.14ZM320.97,175.27c-1.64,0-2.77,1.27-2.84,2.76l-.03.43h1.51c3.2,0,3.93-.34,3.93-1.25,0-1.3-1.01-1.94-2.57-1.94Z"/>
        <path class="cls-2" d="M328.44,190.03c-1.33,0-2.19-.67-2.19-1.46v-1.18c.48,0,1.38-.07,1.64-.1.96-.07,1.76-.62,1.76-1.87v-12.26h.96c1.51,0,2.42.77,2.42,2.23v10.34c0,2.71-1.94,4.3-4.58,4.3ZM331.41,171.91c-1.08,0-1.99-.86-1.99-1.9s.91-1.87,1.99-1.87,1.94.84,1.94,1.87-.86,1.9-1.94,1.9Z"/>
        <path class="cls-2" d="M126.06,197.96c-1.08,0-1.96-.86-1.96-1.9s.88-1.87,1.96-1.87,1.99.84,1.99,1.87-.91,1.9-1.99,1.9ZM128.46,211.95c-2.62,0-4.05-1.42-4.05-4.03v-8.76h.96c1.51,0,2.42.77,2.42,2.4v6.05c0,1.3.58,1.7,2.06,1.7h.63v.7c0,1.39-.58,1.94-2.01,1.94Z"/>
        <path class="cls-2" d="M143.11,211.83c-1.51,0-2.47-.91-2.47-2.11v-5.14c0-2.18-1.01-3.14-2.74-3.14-1.46,0-2.47,1.06-2.47,2.9v7.49h-1.01c-1.43,0-2.37-.91-2.37-2.11v-5.59c0-2.74,1.89-5.54,6.12-5.54,3.2,0,5.84,2.04,5.84,5.71v7.54h-.91Z"/>
        <path class="cls-2" d="M154.76,197.43c-.53-.17-1.13-.29-1.96-.29-1.38,0-2.42.46-2.42,2.18v1.15h3.88v.89c0,1.15-1.28,1.82-2.42,1.82h-1.46v8.64h-1.36c-1.08,0-2.04-.79-2.04-1.92v-10.85c0-1.82,1.33-4.75,5.29-4.75,1.46,0,2.59.77,2.59,2.04v1.08h-.1Z"/>
        <path class="cls-2" d="M161.03,206.74h-2.22c.25,1.63,1.81,2.67,3.8,2.67,1.41,0,3.07-.26,4.15-1.22h.13v1.01c0,1.66-1.18,2.93-4.91,2.93-3.37,0-6.67-2.54-6.67-6.5,0-4.32,2.77-7.03,6.65-7.03,2.82,0,5.44,1.92,5.44,5.02,0,2.38-1.89,3.14-6.37,3.14ZM161.65,201.27c-1.64,0-2.77,1.27-2.84,2.76l-.03.43h1.51c3.2,0,3.93-.34,3.93-1.25,0-1.3-1.01-1.94-2.57-1.94Z"/>
        <path class="cls-2" d="M173.21,196.69v7.73c1.99-2.54,3.02-3.67,4.15-4.7.81-.72,1.61-.84,2.69-.84h1.94v.12c-.96.77-4.1,4.18-5.51,5.88,1.08,1.27,2.14,2.59,3.35,3.77,1.23,1.18,1.79,1.42,2.62,1.68-.35,1.03-.91,1.58-2.29,1.58-.76,0-1.64-.34-2.22-.89-1.74-1.7-3.25-3.62-4.73-5.52v6.34h-1.16c-1.51,0-2.24-.79-2.24-2.28v-15h1.08c1.64,0,2.32.89,2.32,2.14Z"/>
        <path class="cls-2" d="M193.55,203.05c-.45-.74-1.74-1.34-3.68-1.34s-3.7,1.51-3.7,3.43c0,2.35,1.46,3.96,3.75,3.96,1.94,0,3.1-.6,3.58-1.2h.13v1.49c0,1.56-1.59,2.69-4.03,2.69-3.73,0-6.95-2.76-6.95-6.46s2.69-6.86,7.33-6.86c2.17,0,3.7,1.25,3.7,2.78v1.51h-.12Z"/>
        <path class="cls-2" d="M197.9,197.96c-1.08,0-1.96-.86-1.96-1.9s.88-1.87,1.96-1.87,1.99.84,1.99,1.87-.91,1.9-1.99,1.9ZM200.29,211.95c-2.62,0-4.05-1.42-4.05-4.03v-8.76h.96c1.51,0,2.42.77,2.42,2.4v6.05c0,1.3.58,1.7,2.06,1.7h.63v.7c0,1.39-.58,1.94-2.01,1.94Z"/>
        <path class="cls-2" d="M208.97,206.74h-2.22c.25,1.63,1.81,2.67,3.8,2.67,1.41,0,3.07-.26,4.15-1.22h.13v1.01c0,1.66-1.18,2.93-4.91,2.93-3.37,0-6.67-2.54-6.67-6.5,0-4.32,2.77-7.03,6.65-7.03,2.82,0,5.44,1.92,5.44,5.02,0,2.38-1.89,3.14-6.37,3.14ZM209.6,201.27c-1.64,0-2.77,1.27-2.84,2.76l-.03.43h1.51c3.2,0,3.93-.34,3.93-1.25,0-1.3-1.01-1.94-2.57-1.94Z"/>
      </g>
    </g>
  </g>
</svg>