<?xml version="1.0" encoding="UTF-8"?>
<svg id="Layer_2" xmlns="http://www.w3.org/2000/svg" viewBox="0 0 36.53 36.53">
  <defs>
    <style>
      .cls-1 {
        fill: #c3006c;
      }

      .cls-2 {
        fill: #fff;
      }
    </style>
  </defs>
  <g id="logo">
    <g>
      <circle class="cls-1" cx="18.26" cy="18.26" r="18.26"/>
      <g>
        <path class="cls-2" d="M19.77,14.6h0c.22-.22.58-.21.78.03.94,1.1,1.44,2.35,1.44,3.64h0c0,1.3-.49,2.55-1.43,3.64-.2.24-.56.25-.78.03h0c-.2-.2-.21-.51-.03-.73.77-.9,1.17-1.9,1.17-2.93h0c0-1.04-.41-2.05-1.19-2.96-.18-.21-.17-.53.03-.73h0Z"/>
        <path class="cls-2" d="M22.06,23.13c2.71-3,2.71-6.73,0-9.73-.19-.21-.18-.54.02-.74h0c.22-.22.57-.21.77.02,1.52,1.67,2.31,3.59,2.31,5.59s-.8,3.91-2.31,5.59c-.21.23-.56.23-.77.02h0c-.2-.2-.21-.53-.02-.74h0Z"/>
        <path class="cls-2" d="M24.24,25.21c3.98-4.28,4-9.64.05-13.89-.2-.21-.19-.54.02-.74h0c.22-.22.57-.21.77.02,2.12,2.28,3.23,4.9,3.23,7.62v.05c-.01,2.73-1.15,5.37-3.28,7.67-.21.22-.56.23-.77.02h0c-.2-.2-.21-.53-.01-.74h0Z"/>
        <path class="cls-2" d="M18.38,11.76v12.68c0,.25-.11.5-.31.65-.15.12-.33.18-.52.18-.11,0-.23-.02-.34-.07l-5.03-3.31h-3.15c-.45,0-.82-.37-.82-.82v-5.47c0-.45.37-.82.82-.82h3.12l5-3.76c.27-.14.58-.13.84.04.23.15.37.42.37.7h0Z"/>
      </g>
    </g>
  </g>
</svg>