<?xml version="1.0" encoding="UTF-8"?>
<svg id="Layer_2" data-name="Layer 2" xmlns="http://www.w3.org/2000/svg" viewBox="0 0 328.59 189.89">
  <defs>
    <style>
      .cls-1, .cls-2, .cls-3, .cls-4 {
        stroke-width: 0px;
      }

      .cls-1, .cls-3 {
        fill-rule: evenodd;
      }

      .cls-1, .cls-4 {
        fill: #fff;
      }

      .cls-2 {
        fill: #d8006e;
      }

      .cls-3 {
        fill: #bf3068;
      }
    </style>
  </defs>
  <g id="logo">
    <g>
      <g>
        <g>
          <g>
            <path class="cls-2" d="M41.09,118.64c-2.48-3.18-8.56-5.02-13.93-5.02-7.92,0-13.72,5.23-13.72,13.15,0,9.97,6.08,14.71,14,14.71,5.23,0,11.03-1.98,13.44-4.53h.35v5.02c0,6.29-6.29,11.1-15.84,11.1-13.37,0-25.39-9.62-25.39-25.04,0-14.22,9.97-26.03,26.24-26.03,9.55,0,15.21,4.74,15.21,11.6v5.02h-.35Z"/>
            <path class="cls-2" d="M62.66,153.01c-7.5,0-16.62-3.54-16.62-12.38s6.22-13.01,20.37-13.01h1.91v-1.63c0-3.18-2.48-3.96-7.78-3.96-7.28,0-9.97,1.7-12.73,4.24h-.35v-4.74c0-4.81,5.02-9.62,16.12-9.62s17.75,5.45,17.75,16.9v6.01c0,14.14-4.53,18.18-18.67,18.18ZM68.6,135.97h-2.69c-5.09,0-7.14,1.27-7.14,3.89,0,2.48,1.56,3.75,5.3,3.75,2.4,0,4.53-1.2,4.53-4.74v-2.9Z"/>
            <path class="cls-2" d="M91.8,106.2c1.77-1.34,4.17-2.62,7-2.62h1.41v9.48h11.39v4.74c0,3.32-3.54,5.87-6.58,5.87h-4.81v14.07c0,2.62,1.63,4.17,4.24,4.17,3.18,0,4.67-.28,6.08-.85h.35v5.23c0,3.25-2.97,6.22-9.97,6.22s-13.79-3.18-13.79-13.86v-24.12c0-3.54,2.05-6.37,4.67-8.34Z"/>
          </g>
          <g>
            <path class="cls-4" d="M156.95,118.64c-2.48-3.18-8.56-5.02-13.93-5.02-7.92,0-13.72,5.23-13.72,13.15,0,9.97,6.08,14.71,14,14.71,5.23,0,11.03-1.98,13.44-4.53h.35v5.02c0,6.29-6.29,11.1-15.84,11.1-13.37,0-25.39-9.62-25.39-25.04,0-14.22,9.97-26.03,26.24-26.03,9.55,0,15.21,4.74,15.21,11.6v5.02h-.35Z"/>
            <path class="cls-4" d="M197.33,151.95c-7.07,0-8.27-3.32-8.27-8.13v-13.01c0-5.52-1.98-7.99-5.8-7.99-5.23,0-6.51,2.76-6.51,8.27v20.86h-4.53c-6.44,0-8.91-2.69-8.91-8.13v-44.2h4.31c5.59,0,8.77,2.69,8.77,7.71v10.04c1.98-3.11,5.23-5.45,11.39-5.45,7.85,0,14.71,6.08,14.71,16.62v23.41h-5.16Z"/>
            <path class="cls-4" d="M226.68,137.31h-5.8c.78,3.89,3.96,5.73,9.55,5.73,6.22,0,10.11-.99,12.31-2.48h.5v3.11c0,4.95-4.03,9.41-15.13,9.41-13.44,0-20.51-9.05-20.51-19.8,0-11.81,7.99-21.43,20.01-21.43,10.18,0,18.1,5.73,18.1,15.63,0,7.78-5.87,9.83-19.02,9.83ZM227.6,121.9c-4.74,0-6.72,3.04-7.07,6.79h5.23c6.37,0,7.5-.99,7.5-2.69,0-1.98-1.77-4.1-5.66-4.1Z"/>
            <path class="cls-4" d="M281.99,125.79c-1.2-1.27-4.88-2.69-8.63-2.69-6.58,0-10.25,3.32-10.25,8.77,0,6.65,3.68,9.76,9.62,9.76,4.17,0,7.07-.85,9.41-2.19h.14v4.03c0,5.16-5.3,9.34-12.38,9.34-11.81,0-20.23-7.99-20.23-20.16,0-11.1,7.71-20.65,21.43-20.65,6.15,0,11.25,4.03,11.25,9.05v4.74h-.35Z"/>
            <path class="cls-4" d="M301.79,107.47v22.14c3.18-4.74,6.44-9.83,10.25-13.93,1.7-1.84,3.04-2.62,7.14-2.62h9.41v.35c-2.4,2.48-10.96,12.45-14.5,17.54,2.26,3.39,4.6,7.14,7.28,10.25,2.9,3.32,4.03,3.68,7,4.38-.5,4.31-3.4,6.72-8.2,6.72-1.98,0-5.3-.78-6.93-2.69-4.38-5.09-7.78-10.61-11.46-16.19v18.53h-5.3c-4.95,0-8.13-3.25-8.13-7.92v-44.41h5.16c6.08,0,8.27,3.96,8.27,7.85Z"/>
          </g>
        </g>
        <path class="cls-1" d="M217.6,36.85c-.77-1.99-2.46-2.63-4.1-3.25-.54-.21-1.16-.44-1.89-.76-3.24-1.4-5.29-3.25-7.46-5.21-2.71-2.45-5.5-4.96-10.26-6.32-.49-5.14-1.55-12.4-2.73-16.81-.42-1.59-2.51-1.97-3.45-.62-1.98,2.84-4.16,6.8-5.69,10.41-1.77-4.38-4.12-9.62-7.5-13.09-.73-.75-1.73-1.23-2.78-1.19-1.18.04-2.21.62-2.84,1.53l.03-.09-.14.27c-.09.16-.18.32-.25.49l-33.69,62.11-7.3-8.68c-4.69-5.87-13.55-5.72-19.43-1.03l23.77,31.14c1.33,1.87,4.16,1.71,5.27-.3L172.59,8.4c1.93,3.1,3.47,6.98,4.69,10.04,1.51,3.81,2.27,5.72,3.71,6.7,1.36.94,2.99.99,4.86,1.06.86.03,1.84.07,2.94.18,5.76.6,8.24,2.83,11.38,5.67,2.32,2.09,4.95,4.47,9.09,6.26,1.03.45,1.85.75,2.47.99l.27.42c-.05.66-.14,1.55-.23,2.33-.21,1.96-.66,6.05-1.71,8.05-1.31,2.5-3.77,3.54-6.61,4.74-4.48,1.9-10.06,4.26-10.96,13l-.02.15v19.14h0c3.29,0,5.95-2.67,5.95-5.95v-12.88c.58-5.12,3.28-6.26,7.34-7.99,3.4-1.44,7.26-3.07,9.56-7.45,1.46-2.77,1.98-6.71,2.36-10.18.31-2.83.48-4.39-.08-5.83Z"/>
        <g>
          <path class="cls-3" d="M207.76,47.48c-5.49-1.5-13.83-.46-18.78,3.07,4.84-4.84,12.48-5.71,19.03-3.94.23.06.36.31.29.54l-.02.06c-.07.21-.3.33-.51.27Z"/>
          <path class="cls-3" d="M208.25,45.8c-4.53-2.1-11.79-2.77-16.55-.73,4.94-3.16,11.75-2.72,16.92-.04.18.1.27.31.2.51h0c-.08.25-.35.37-.57.26Z"/>
        </g>
        <path class="cls-3" d="M207.3,49.14c-5.01-.31-12.6,1.75-16.29,5.44,3.38-4.73,10.57-6.79,16.36-6.28.27.02.44.3.36.55h0c-.06.18-.24.3-.43.29Z"/>
        <path class="cls-1" d="M187.6,32.03c.83,3.39,2.5,5.47,4.89,6.55-.03-.09-1.65-4.76,2.91-6.5,1.74,4.55-2.81,6.47-2.89,6.5,2.1.94,4.75,1.11,7.88.69-1.14-6.84-6.39-9.29-12.77-7.24Z"/>
      </g>
      <g>
        <path class="cls-4" d="M13.52,183.91c-.03,1.32-.73,2.04-3.75,2.04h-1.84c-4.2,0-6.42-2.21-6.42-6.41v-3.05c0-1.56.13-3.31.33-4.63.28-1.97,1.23-2.47,2.64-2.47h9.01v1.1c0,1.15-.73,1.73-2.32,1.73h-5.92c-.18,1.2-.25,2.81-.25,3.84h6.65v1.18c0,1.08-.71,1.51-2.09,1.51h-4.56v.96c0,2.86.98,3.41,3.65,3.41h1.11c1.26,0,2.54-.1,3.78-.36l-.02,1.15ZM9.57,167.28c-.83.34-1.99.58-2.9.58h-1.13v-.12c.55-.82,1.16-1.61,1.89-2.23.81-.7,1.41-1.15,2.39-1.15.83,0,1.41.36,1.41,1.22,0,.7-.63,1.3-1.66,1.7Z"/>
        <path class="cls-4" d="M25.27,178.51c-.91,2.38-2.42,5.5-3.93,7.46h-.65c-1.01,0-1.54-.34-2.22-1.3-1.84-2.66-4.15-8.3-4.46-11.81h1.81c1.16,0,1.89.84,2.01,1.54.48,2.4,1.16,4.9,2.59,7.56,1.28-2.42,2.47-5.86,2.97-9.1h1.44c1.16,0,1.59.48,1.59,1.54,0,.38-.33,1.94-1.16,4.1Z"/>
        <path class="cls-4" d="M33.66,186.05h-.68c-3.22,0-5.44-1.73-5.44-4.1s1.76-4.06,6.75-4.06h1.18v-.17c0-1.82-.91-2.38-2.92-2.38-2.44,0-3.8.89-4.31,1.49h-.13v-1.03c0-1.44,1.36-3.17,4.93-3.17,3.02,0,5.74,1.34,5.74,5.81v2.98c0,2.74-2.11,4.63-5.14,4.63ZM35.49,180.19h-1.21c-2.57,0-3.3.58-3.3,1.63s.86,1.61,2.34,1.61,2.17-.67,2.17-1.99v-1.25Z"/>
        <path class="cls-4" d="M45.59,185.95c-2.79,0-4.3-1.42-4.3-4.03v-13.37h.96c1.69,0,2.42.94,2.42,2.16v10.9c0,1.3.71,1.7,2.29,1.7h.91v.7c0,1.39-.78,1.94-2.27,1.94Z"/>
        <path class="cls-4" d="M55.05,186.12c-3.35,0-5.99-2.11-5.99-5.88v-7.37h.63c1.94,0,2.79.79,2.79,2.3v4.75c0,2.38,1.21,3.34,2.74,3.34,1.38,0,2.37-.91,2.37-3.12v-7.27h.6c1.96,0,2.79.79,2.79,2.3v4.85c0,4.03-1.99,6.1-5.94,6.1Z"/>
        <path class="cls-4" d="M69.04,180.74h-2.22c.25,1.63,1.81,2.67,3.8,2.67,1.41,0,3.07-.26,4.15-1.22h.13v1.01c0,1.66-1.18,2.93-4.91,2.93-3.37,0-6.67-2.54-6.67-6.5,0-4.32,2.77-7.03,6.65-7.03,2.82,0,5.44,1.92,5.44,5.02,0,2.38-1.89,3.14-6.37,3.14ZM69.67,175.27c-1.64,0-2.77,1.27-2.84,2.76l-.03.43h1.51c3.2,0,3.93-.34,3.93-1.25,0-1.3-1.01-1.94-2.57-1.94Z"/>
        <path class="cls-4" d="M86.03,185.83h-6.62c-1.56,0-2.32-.7-2.32-1.7s.78-2.23,2.06-3.55l3.42-3.55c.4-.43.93-1.03,1.16-1.46h-6.67v-.98c0-.96.73-1.7,2.24-1.7h6.17c1.59,0,2.12.91,2.12,1.66,0,1.01-.55,2.21-1.74,3.43l-3.4,3.5c-.48.5-.98,1.08-1.28,1.61h6.6v1.25c0,.79-.88,1.51-1.74,1.51Z"/>
        <path class="cls-4" d="M99.83,185.95c-2.79,0-4.3-1.42-4.3-4.03v-13.37h.96c1.69,0,2.42.94,2.42,2.16v10.9c0,1.3.71,1.7,2.29,1.7h.91v.7c0,1.39-.78,1.94-2.27,1.94Z"/>
        <path class="cls-4" d="M108.38,180.74h-2.22c.25,1.63,1.81,2.67,3.8,2.67,1.41,0,3.07-.26,4.15-1.22h.13v1.01c0,1.66-1.18,2.93-4.91,2.93-3.37,0-6.67-2.54-6.67-6.5,0-4.32,2.77-7.03,6.65-7.03,2.82,0,5.44,1.92,5.44,5.02,0,2.38-1.89,3.14-6.37,3.14ZM109.01,175.27c-1.64,0-2.77,1.27-2.84,2.76l-.03.43h1.51c3.2,0,3.93-.34,3.93-1.25,0-1.3-1.01-1.94-2.57-1.94Z"/>
        <path class="cls-4" d="M133.71,185.95c-1.11,0-2.06-.41-2.52-1.46l-1.28-2.98c-.78-1.8-1.51-1.92-2.42-2.06-.76-.12-1.36-.22-1.71-.22v6.6h-1.11c-1.54,0-2.34-.89-2.34-2.21v-13.78c.73-.26,3.15-.6,4.43-.6h1.91c3.42,0,5.66,1.97,5.66,4.73,0,2.23-1.54,4.08-3.55,4.37.93.36,1.71,1.34,2.14,2.3l1.38,3.07c.43.96.86,1.42,1.06,1.7-.4.41-.7.53-1.66.53ZM127.31,172.08c-.33,0-1.16.07-1.54.17v4.34c.75.14,1.54.14,2.47.14,1.41,0,2.59-.77,2.59-2.23,0-1.99-1.06-2.42-2.57-2.42h-.96Z"/>
        <path class="cls-4" d="M139.29,171.96c-1.08,0-1.96-.86-1.96-1.9s.88-1.87,1.96-1.87,1.99.84,1.99,1.87-.91,1.9-1.99,1.9ZM141.68,185.95c-2.62,0-4.05-1.42-4.05-4.03v-8.76h.96c1.51,0,2.42.77,2.42,2.4v6.05c0,1.3.58,1.7,2.06,1.7h.63v.7c0,1.39-.58,1.94-2.01,1.94Z"/>
        <path class="cls-4" d="M149.38,186.12c-2.49,0-4.36-1.22-4.36-2.54v-1.46h.13c.73.65,2.47,1.22,4.08,1.22s2.47-.46,2.47-1.42c0-.74-.48-1.1-2.82-1.42-2.87-.38-4.26-1.46-4.26-3.43,0-2.42,2.29-4.49,5.77-4.49,3.07,0,4.33,1.51,4.33,2.76v1.22h-.13c-.71-.67-2.27-1.2-3.88-1.2-2.07,0-2.72.6-2.72,1.44,0,.65.4.91,2.72,1.27,2.82.43,4.33,1.61,4.33,3.67,0,2.74-2.01,4.37-5.67,4.37Z"/>
        <path class="cls-4" d="M169.67,179.11v10.78h-1.11c-1.41-.02-2.24-.67-2.24-2.14v-3.31c-.55,1.06-1.94,1.68-3.3,1.68-3.4,0-6.29-2.57-6.29-6.38,0-4.08,2.77-7.15,6.9-7.15,3.9,0,6.04,2.47,6.04,6.53ZM160.11,179.16c0,2.66,1.18,4.1,3.27,4.1,1.89,0,2.95-1.08,2.95-3.77s-1.08-4.06-3.12-4.06c-1.54,0-3.1,1.37-3.1,3.72Z"/>
        <path class="cls-4" d="M178.63,186.12c-3.35,0-5.99-2.11-5.99-5.88v-7.37h.63c1.94,0,2.79.79,2.79,2.3v4.75c0,2.38,1.21,3.34,2.74,3.34,1.38,0,2.37-.91,2.37-3.12v-7.27h.6c1.96,0,2.79.79,2.79,2.3v4.85c0,4.03-1.99,6.1-5.94,6.1Z"/>
        <path class="cls-4" d="M192.63,180.74h-2.22c.25,1.63,1.81,2.67,3.8,2.67,1.41,0,3.07-.26,4.15-1.22h.13v1.01c0,1.66-1.18,2.93-4.91,2.93-3.37,0-6.67-2.54-6.67-6.5,0-4.32,2.77-7.03,6.65-7.03,2.82,0,5.44,1.92,5.44,5.02,0,2.38-1.89,3.14-6.37,3.14ZM193.26,175.27c-1.64,0-2.77,1.27-2.84,2.76l-.03.43h1.51c3.2,0,3.93-.34,3.93-1.25,0-1.3-1.01-1.94-2.57-1.94Z"/>
        <path class="cls-4" d="M212.91,180c-1.21,0-2.19-.19-2.9-.55v6.38h-1.36c-.96,0-2.09-.6-2.09-2.35v-13.44c.96-.34,3.25-.77,4.48-.77h1.94c3.35,0,5.74,1.82,5.74,5.11,0,3.48-2.52,5.62-5.82,5.62ZM212.56,172.06h-1.11c-.43,0-1.03.14-1.43.22v4.66c.6.17,1.56.29,2.44.29,1.76,0,2.72-.96,2.72-2.54,0-1.87-.81-2.62-2.62-2.62Z"/>
        <path class="cls-4" d="M225.7,186.05h-.68c-3.22,0-5.44-1.73-5.44-4.1s1.76-4.06,6.75-4.06h1.18v-.17c0-1.82-.91-2.38-2.92-2.38-2.44,0-3.8.89-4.3,1.49h-.13v-1.03c0-1.44,1.36-3.17,4.93-3.17,3.02,0,5.74,1.34,5.74,5.81v2.98c0,2.74-2.11,4.63-5.14,4.63ZM227.54,180.19h-1.21c-2.57,0-3.3.58-3.3,1.63s.86,1.61,2.34,1.61,2.17-.67,2.17-1.99v-1.25Z"/>
        <path class="cls-4" d="M240.9,176.02c-.5-.19-1.08-.38-1.96-.38-1.51,0-2.34.79-2.34,2.76v7.44h-.93c-1.51,0-2.47-.72-2.47-2.06v-5.95c0-2.59,1.43-5.06,5.01-5.06,2.09,0,2.82,1.13,2.82,2.11v1.15h-.13Z"/>
        <path class="cls-4" d="M248.13,186.05h-.68c-3.22,0-5.44-1.73-5.44-4.1s1.76-4.06,6.75-4.06h1.18v-.17c0-1.82-.91-2.38-2.92-2.38-2.44,0-3.8.89-4.31,1.49h-.13v-1.03c0-1.44,1.36-3.17,4.93-3.17,3.02,0,5.74,1.34,5.74,5.81v2.98c0,2.74-2.11,4.63-5.14,4.63ZM249.96,180.19h-1.21c-2.57,0-3.3.58-3.3,1.63s.86,1.61,2.34,1.61,2.17-.67,2.17-1.99v-1.25Z"/>
        <path class="cls-4" d="M259.73,186.12c-2.49,0-4.36-1.22-4.36-2.54v-1.46h.13c.73.65,2.47,1.22,4.08,1.22s2.47-.46,2.47-1.42c0-.74-.48-1.1-2.82-1.42-2.87-.38-4.26-1.46-4.26-3.43,0-2.42,2.29-4.49,5.77-4.49,3.07,0,4.33,1.51,4.33,2.76v1.22h-.13c-.71-.67-2.27-1.2-3.88-1.2-2.07,0-2.72.6-2.72,1.44,0,.65.4.91,2.72,1.27,2.82.43,4.33,1.61,4.33,3.67,0,2.74-2.01,4.37-5.67,4.37Z"/>
        <path class="cls-4" d="M269.8,171.96c-1.08,0-1.96-.86-1.96-1.9s.88-1.87,1.96-1.87,1.99.84,1.99,1.87-.91,1.9-1.99,1.9ZM272.19,185.95c-2.62,0-4.05-1.42-4.05-4.03v-8.76h.96c1.51,0,2.42.77,2.42,2.4v6.05c0,1.3.58,1.7,2.06,1.7h.63v.7c0,1.39-.58,1.94-2.01,1.94Z"/>
        <path class="cls-4" d="M276.89,170.83c.45-.5,1.06-.89,1.59-.89h.78v2.93h4.71v1.32c0,.67-.63,1.54-2.01,1.54h-2.69v5.06c0,1.68.78,2.33,2.14,2.33,1.08,0,1.91-.14,2.44-.46h.13v1.15c0,1.32-1.01,2.16-2.97,2.16-3.42,0-5.09-1.78-5.09-4.8v-7.78c0-1.27.25-1.75.98-2.57Z"/>
        <path class="cls-4" d="M291.19,186.05h-.68c-3.22,0-5.44-1.73-5.44-4.1s1.76-4.06,6.75-4.06h1.18v-.17c0-1.82-.91-2.38-2.92-2.38-2.44,0-3.8.89-4.31,1.49h-.13v-1.03c0-1.44,1.36-3.17,4.93-3.17,3.02,0,5.74,1.34,5.74,5.81v2.98c0,2.74-2.11,4.63-5.14,4.63ZM293.03,180.19h-1.21c-2.57,0-3.3.58-3.3,1.63s.86,1.61,2.34,1.61,2.17-.67,2.17-1.99v-1.25Z"/>
        <path class="cls-4" d="M300.78,171.96c-1.08,0-1.96-.86-1.96-1.9s.88-1.87,1.96-1.87,1.99.84,1.99,1.87-.91,1.9-1.99,1.9ZM303.17,185.95c-2.62,0-4.05-1.42-4.05-4.03v-8.76h.96c1.51,0,2.42.77,2.42,2.4v6.05c0,1.3.58,1.7,2.06,1.7h.63v.7c0,1.39-.58,1.94-2.01,1.94Z"/>
        <path class="cls-4" d="M314.47,176.02c-.5-.19-1.08-.38-1.96-.38-1.51,0-2.34.79-2.34,2.76v7.44h-.93c-1.51,0-2.47-.72-2.47-2.06v-5.95c0-2.59,1.43-5.06,5.01-5.06,2.09,0,2.82,1.13,2.82,2.11v1.15h-.13Z"/>
        <path class="cls-4" d="M321.27,180.74h-2.22c.25,1.63,1.81,2.67,3.8,2.67,1.41,0,3.07-.26,4.15-1.22h.13v1.01c0,1.66-1.18,2.93-4.91,2.93-3.37,0-6.67-2.54-6.67-6.5,0-4.32,2.77-7.03,6.65-7.03,2.82,0,5.44,1.92,5.44,5.02,0,2.38-1.89,3.14-6.37,3.14ZM321.9,175.27c-1.64,0-2.77,1.27-2.84,2.76l-.03.43h1.51c3.2,0,3.93-.34,3.93-1.25,0-1.3-1.01-1.94-2.57-1.94Z"/>
      </g>
    </g>
  </g>
</svg>