<?xml version="1.0" encoding="UTF-8"?>
<svg id="Layer_2" data-name="Layer 2" xmlns="http://www.w3.org/2000/svg" viewBox="0 0 328.59 189.17">
  <defs>
    <style>
      .cls-1, .cls-2, .cls-3, .cls-4 {
        stroke-width: 0px;
      }

      .cls-1, .cls-3 {
        fill-rule: evenodd;
      }

      .cls-1, .cls-4 {
        fill: #fff;
      }

      .cls-2, .cls-3 {
        fill: #bf3068;
      }
    </style>
  </defs>
  <g id="logo">
    <g>
      <g>
        <g>
          <g>
            <path class="cls-2" d="M41.09,118.64c-2.48-3.18-8.56-5.02-13.93-5.02-7.92,0-13.72,5.23-13.72,13.15,0,9.97,6.08,14.71,14,14.71,5.23,0,11.03-1.98,13.44-4.53h.35v5.02c0,6.29-6.29,11.1-15.84,11.1-13.37,0-25.39-9.62-25.39-25.04,0-14.22,9.97-26.03,26.24-26.03,9.55,0,15.21,4.74,15.21,11.6v5.02h-.35Z"/>
            <path class="cls-2" d="M62.66,153.01c-7.5,0-16.62-3.54-16.62-12.38s6.22-13.01,20.37-13.01h1.91v-1.63c0-3.18-2.48-3.96-7.78-3.96-7.28,0-9.97,1.7-12.73,4.24h-.35v-4.74c0-4.81,5.02-9.62,16.12-9.62s17.75,5.45,17.75,16.9v6.01c0,14.14-4.53,18.18-18.67,18.18ZM68.6,135.97h-2.69c-5.09,0-7.14,1.27-7.14,3.89,0,2.48,1.56,3.75,5.3,3.75,2.4,0,4.53-1.2,4.53-4.74v-2.9Z"/>
            <path class="cls-2" d="M91.8,106.2c1.77-1.34,4.17-2.62,7-2.62h1.41v9.48h11.39v4.74c0,3.32-3.54,5.87-6.58,5.87h-4.81v14.07c0,2.62,1.63,4.17,4.24,4.17,3.18,0,4.67-.28,6.08-.85h.35v5.23c0,3.25-2.97,6.22-9.97,6.22s-13.79-3.18-13.79-13.86v-24.12c0-3.54,2.05-6.37,4.67-8.34Z"/>
          </g>
          <g>
            <path class="cls-4" d="M156.95,118.64c-2.48-3.18-8.56-5.02-13.93-5.02-7.92,0-13.72,5.23-13.72,13.15,0,9.97,6.08,14.71,14,14.71,5.23,0,11.03-1.98,13.44-4.53h.35v5.02c0,6.29-6.29,11.1-15.84,11.1-13.37,0-25.39-9.62-25.39-25.04,0-14.22,9.97-26.03,26.24-26.03,9.55,0,15.21,4.74,15.21,11.6v5.02h-.35Z"/>
            <path class="cls-4" d="M197.33,151.95c-7.07,0-8.27-3.32-8.27-8.13v-13.01c0-5.52-1.98-7.99-5.8-7.99-5.23,0-6.51,2.76-6.51,8.27v20.86h-4.53c-6.44,0-8.91-2.69-8.91-8.13v-44.2h4.31c5.59,0,8.77,2.69,8.77,7.71v10.04c1.98-3.11,5.23-5.45,11.39-5.45,7.85,0,14.71,6.08,14.71,16.62v23.41h-5.16Z"/>
            <path class="cls-4" d="M226.68,137.31h-5.8c.78,3.89,3.96,5.73,9.55,5.73,6.22,0,10.11-.99,12.31-2.48h.5v3.11c0,4.95-4.03,9.41-15.13,9.41-13.44,0-20.51-9.05-20.51-19.8,0-11.81,7.99-21.43,20.01-21.43,10.18,0,18.1,5.73,18.1,15.63,0,7.78-5.87,9.83-19.02,9.83ZM227.6,121.9c-4.74,0-6.72,3.04-7.07,6.79h5.23c6.37,0,7.5-.99,7.5-2.69,0-1.98-1.77-4.1-5.66-4.1Z"/>
            <path class="cls-4" d="M281.99,125.79c-1.2-1.27-4.88-2.69-8.63-2.69-6.58,0-10.25,3.32-10.25,8.77,0,6.65,3.68,9.76,9.62,9.76,4.17,0,7.07-.85,9.41-2.19h.14v4.03c0,5.16-5.3,9.34-12.38,9.34-11.81,0-20.23-7.99-20.23-20.16,0-11.1,7.71-20.65,21.43-20.65,6.15,0,11.25,4.03,11.25,9.05v4.74h-.35Z"/>
            <path class="cls-4" d="M301.79,107.47v22.14c3.18-4.74,6.44-9.83,10.25-13.93,1.7-1.84,3.04-2.62,7.14-2.62h9.41v.35c-2.4,2.48-10.96,12.45-14.5,17.54,2.26,3.39,4.6,7.14,7.28,10.25,2.9,3.32,4.03,3.68,7,4.38-.5,4.31-3.4,6.72-8.2,6.72-1.98,0-5.3-.78-6.93-2.69-4.38-5.09-7.78-10.61-11.46-16.19v18.53h-5.3c-4.95,0-8.13-3.25-8.13-7.92v-44.41h5.16c6.08,0,8.27,3.96,8.27,7.85Z"/>
          </g>
        </g>
        <path class="cls-1" d="M217.6,36.85c-.77-1.99-2.46-2.63-4.1-3.25-.54-.21-1.16-.44-1.89-.76-3.24-1.4-5.29-3.25-7.46-5.21-2.71-2.45-5.5-4.96-10.26-6.32-.49-5.14-1.55-12.4-2.73-16.81-.42-1.59-2.51-1.97-3.45-.62-1.98,2.84-4.16,6.8-5.69,10.41-1.77-4.38-4.12-9.62-7.5-13.09-.73-.75-1.73-1.23-2.78-1.19-1.18.04-2.21.62-2.84,1.53l.03-.09-.14.27c-.09.16-.18.32-.25.49l-33.69,62.11-7.3-8.68c-4.69-5.87-13.55-5.72-19.43-1.03l23.77,31.14c1.33,1.87,4.16,1.71,5.27-.3L172.59,8.4c1.93,3.1,3.47,6.98,4.69,10.04,1.51,3.81,2.27,5.72,3.71,6.7,1.36.94,2.99.99,4.86,1.06.86.03,1.84.07,2.94.18,5.76.6,8.24,2.83,11.38,5.67,2.32,2.09,4.95,4.47,9.09,6.26,1.03.45,1.85.75,2.47.99l.27.42c-.05.66-.14,1.55-.23,2.33-.21,1.96-.66,6.05-1.71,8.05-1.31,2.5-3.77,3.54-6.61,4.74-4.48,1.9-10.06,4.26-10.96,13l-.02.15v19.14h0c3.29,0,5.95-2.67,5.95-5.95v-12.88c.58-5.12,3.28-6.26,7.34-7.99,3.4-1.44,7.26-3.07,9.56-7.45,1.46-2.77,1.98-6.71,2.36-10.18.31-2.83.48-4.39-.08-5.83Z"/>
        <g>
          <path class="cls-3" d="M207.76,47.48c-5.49-1.5-13.83-.46-18.78,3.07,4.84-4.84,12.48-5.71,19.03-3.94.23.06.36.31.29.54l-.02.06c-.07.21-.3.33-.51.27Z"/>
          <path class="cls-3" d="M208.25,45.8c-4.53-2.1-11.79-2.77-16.55-.73,4.94-3.16,11.75-2.72,16.92-.04.18.1.27.31.2.51h0c-.08.25-.35.37-.57.26Z"/>
        </g>
        <path class="cls-3" d="M207.3,49.14c-5.01-.31-12.6,1.75-16.29,5.44,3.38-4.73,10.57-6.79,16.36-6.28.27.02.44.3.36.55h0c-.06.18-.24.3-.43.29Z"/>
        <path class="cls-1" d="M187.6,32.03c.83,3.39,2.5,5.47,4.89,6.55-.03-.09-1.65-4.76,2.91-6.5,1.74,4.55-2.81,6.47-2.89,6.5,2.1.94,4.75,1.11,7.88.69-1.14-6.84-6.39-9.29-12.77-7.24Z"/>
      </g>
      <g>
        <path class="cls-4" d="M13.16,182.31c-.97,0-1.86-.06-2.57-.28v6.69h-2.43c-1.43,0-3-.98-3-3.3v-15.48c1.49-.34,4-.81,5.88-.81h2.2c4.08,0,7.25,2.24,7.25,6.27s-3.26,6.92-7.34,6.92ZM12.76,173.32h-1.08c-.26,0-.83.08-1.08.14v4.31c.6.2,1.29.25,2.06.25,1.71,0,2.43-.78,2.43-2.18,0-2.02-.91-2.52-2.31-2.52Z"/>
        <path class="cls-4" d="M28.02,189.14c-3.03,0-6.71-1.4-6.71-4.9s2.51-5.15,8.23-5.15h.77v-.64c0-1.26-1-1.57-3.14-1.57-2.94,0-4.03.67-5.14,1.68h-.14v-1.88c0-1.9,2.03-3.81,6.51-3.81s7.17,2.16,7.17,6.69v2.38c0,5.6-1.83,7.2-7.54,7.2ZM30.42,182.39h-1.09c-2.06,0-2.88.5-2.88,1.54,0,.98.63,1.48,2.14,1.48.97,0,1.83-.48,1.83-1.88v-1.15Z"/>
        <path class="cls-4" d="M47.65,177.3c-.69-.25-1.2-.31-1.91-.31-1.31,0-2.34.64-2.34,2.52v9.21h-1.49c-2.34,0-3.77-1.06-3.77-3.64v-6.69c0-3.11,2.14-5.57,5.71-5.57,2.71,0,3.97,1.09,3.97,2.52v1.96h-.17Z"/>
        <path class="cls-4" d="M55.33,189.14c-3.03,0-6.71-1.4-6.71-4.9s2.51-5.15,8.23-5.15h.77v-.64c0-1.26-1-1.57-3.14-1.57-2.94,0-4.03.67-5.14,1.68h-.14v-1.88c0-1.9,2.03-3.81,6.51-3.81s7.17,2.16,7.17,6.69v2.38c0,5.6-1.83,7.2-7.54,7.2ZM57.73,182.39h-1.09c-2.06,0-2.88.5-2.88,1.54,0,.98.63,1.48,2.14,1.48.97,0,1.83-.48,1.83-1.88v-1.15Z"/>
        <path class="cls-4" d="M71.16,189.17c-4.28,0-5.83-1.54-5.83-3.78v-1.54h.14c1.03.76,2.6,1.34,4.83,1.34,1.97,0,2.6-.45,2.6-1.2,0-.7-.37-.98-3.63-1.43-2.83-.39-4.31-1.65-4.31-4.12,0-3.7,3.57-5.57,7.17-5.57s5.6,1.37,5.6,3.67v1.6h-.14c-1.06-.76-2.71-1.29-4.83-1.29s-2.68.53-2.68,1.18c0,.59.34.78,3.63,1.32,2.63.42,4.4,1.82,4.4,4.42,0,3.3-2.63,5.4-6.94,5.4Z"/>
        <path class="cls-4" d="M83.39,172.45c-1.57,0-2.86-1.18-2.86-2.63s1.29-2.63,2.86-2.63,2.83,1.18,2.83,2.63-1.26,2.63-2.83,2.63ZM85.96,188.94c-2.88,0-5.14-1.4-5.14-5.04v-10.11h1.34c3.08,0,4.08.87,4.08,3.67v5.66c0,1.37.66,1.79,2.17,1.79h.66v1.57c0,1.85-1.43,2.46-3.11,2.46Z"/>
        <path class="cls-4" d="M97.87,182.92h-2.34c.31,1.54,1.6,2.27,3.86,2.27,2.51,0,4.08-.39,4.97-.98h.2v1.23c0,1.96-1.63,3.72-6.11,3.72-5.43,0-8.28-3.58-8.28-7.84,0-4.68,3.23-8.48,8.08-8.48,4.11,0,7.31,2.27,7.31,6.19,0,3.08-2.37,3.89-7.68,3.89ZM98.24,176.82c-1.91,0-2.71,1.2-2.86,2.69h2.11c2.57,0,3.03-.39,3.03-1.06,0-.78-.71-1.62-2.29-1.62Z"/>
        <path class="cls-4" d="M109.76,170.6c.71-.53,1.69-1.04,2.83-1.04h.57v3.75h4.6v1.88c0,1.32-1.43,2.32-2.66,2.32h-1.94v5.57c0,1.04.66,1.65,1.71,1.65,1.29,0,1.88-.11,2.46-.34h.14v2.07c0,1.29-1.2,2.46-4.03,2.46s-5.57-1.26-5.57-5.49v-9.55c0-1.4.83-2.52,1.89-3.3Z"/>
        <path class="cls-4" d="M126.62,182.92h-2.34c.31,1.54,1.6,2.27,3.86,2.27,2.51,0,4.08-.39,4.97-.98h.2v1.23c0,1.96-1.63,3.72-6.11,3.72-5.43,0-8.28-3.58-8.28-7.84,0-4.68,3.23-8.48,8.08-8.48,4.11,0,7.31,2.27,7.31,6.19,0,3.08-2.37,3.89-7.68,3.89ZM126.99,176.82c-1.91,0-2.71,1.2-2.86,2.69h2.11c2.57,0,3.03-.39,3.03-1.06,0-.78-.71-1.62-2.29-1.62Z"/>
        <path class="cls-4" d="M150.01,188.72c-2.4,0-3.14-.78-3.14-3.14v-5.4c0-2.07-.71-3-2.54-3-1.57,0-2.43,1.04-2.43,2.91v8.62h-1.83c-2.31,0-3.6-.9-3.6-3.14v-5.4c0-4.42,3-7.31,8-7.31,5.57,0,7.83,2.88,7.83,7.45v8.4h-2.29Z"/>
        <path class="cls-4" d="M170.82,177.3c-.69-.25-1.2-.31-1.91-.31-1.31,0-2.34.64-2.34,2.52v9.21h-1.49c-2.34,0-3.77-1.06-3.77-3.64v-6.69c0-3.11,2.14-5.57,5.71-5.57,2.71,0,3.97,1.09,3.97,2.52v1.96h-.17Z"/>
        <path class="cls-4" d="M175.13,172.45c-1.57,0-2.86-1.18-2.86-2.63s1.29-2.63,2.86-2.63,2.83,1.18,2.83,2.63-1.26,2.63-2.83,2.63ZM177.7,188.94c-2.89,0-5.14-1.4-5.14-5.04v-10.11h1.34c3.09,0,4.08.87,4.08,3.67v5.66c0,1.37.66,1.79,2.17,1.79h.66v1.57c0,1.85-1.43,2.46-3.11,2.46Z"/>
        <path class="cls-4" d="M188.1,189.17c-4.28,0-5.83-1.54-5.83-3.78v-1.54h.14c1.03.76,2.6,1.34,4.83,1.34,1.97,0,2.6-.45,2.6-1.2,0-.7-.37-.98-3.63-1.43-2.83-.39-4.31-1.65-4.31-4.12,0-3.7,3.57-5.57,7.17-5.57s5.6,1.37,5.6,3.67v1.6h-.14c-1.06-.76-2.71-1.29-4.83-1.29s-2.68.53-2.68,1.18c0,.59.34.78,3.63,1.32,2.63.42,4.4,1.82,4.4,4.42,0,3.3-2.63,5.4-6.94,5.4Z"/>
        <path class="cls-4" d="M200.33,172.45c-1.57,0-2.86-1.18-2.86-2.63s1.29-2.63,2.86-2.63,2.83,1.18,2.83,2.63-1.26,2.63-2.83,2.63ZM202.9,188.94c-2.88,0-5.14-1.4-5.14-5.04v-10.11h1.34c3.08,0,4.08.87,4.08,3.67v5.66c0,1.37.66,1.79,2.17,1.79h.66v1.57c0,1.85-1.43,2.46-3.11,2.46Z"/>
        <path class="cls-4" d="M220.16,178.36c-.49-.5-1.97-1.06-3.48-1.06-2.66,0-4.14,1.32-4.14,3.47,0,2.63,1.48,3.86,3.88,3.86,1.68,0,2.86-.34,3.8-.87h.06v1.6c0,2.04-2.14,3.7-5,3.7-4.77,0-8.17-3.16-8.17-7.98,0-4.4,3.11-8.18,8.66-8.18,2.49,0,4.54,1.6,4.54,3.58v1.88h-.14Z"/>
        <path class="cls-4" d="M230.36,172.9c4.28,0,8.14,3.19,8.14,7.95,0,5.04-3.11,8.29-8.54,8.29-4.48,0-8.14-3.25-8.14-7.78,0-5.1,3.6-8.46,8.54-8.46ZM230.01,177.1c-1.49,0-2.83,1.54-2.83,3.64,0,2.97,1.2,4.26,3.11,4.26,1.71,0,2.83-1.54,2.83-3.67,0-2.77-1.23-4.23-3.11-4.23Z"/>
        <path class="cls-4" d="M242.82,170.6c.71-.53,1.69-1.04,2.83-1.04h.57v3.75h4.6v1.88c0,1.32-1.43,2.32-2.66,2.32h-1.94v5.57c0,1.04.66,1.65,1.71,1.65,1.29,0,1.88-.11,2.46-.34h.14v2.07c0,1.29-1.2,2.46-4.03,2.46s-5.57-1.26-5.57-5.49v-9.55c0-1.4.83-2.52,1.89-3.3Z"/>
        <path class="cls-4" d="M259.67,182.92h-2.34c.31,1.54,1.6,2.27,3.86,2.27,2.51,0,4.08-.39,4.97-.98h.2v1.23c0,1.96-1.63,3.72-6.11,3.72-5.43,0-8.28-3.58-8.28-7.84,0-4.68,3.23-8.48,8.08-8.48,4.11,0,7.31,2.27,7.31,6.19,0,3.08-2.37,3.89-7.68,3.89ZM260.04,176.82c-1.91,0-2.71,1.2-2.86,2.69h2.11c2.57,0,3.03-.39,3.03-1.06,0-.78-.71-1.62-2.29-1.62Z"/>
        <path class="cls-4" d="M275.39,189.17c-4.28,0-5.83-1.54-5.83-3.78v-1.54h.14c1.03.76,2.6,1.34,4.83,1.34,1.97,0,2.6-.45,2.6-1.2,0-.7-.37-.98-3.63-1.43-2.83-.39-4.31-1.65-4.31-4.12,0-3.7,3.57-5.57,7.17-5.57s5.6,1.37,5.6,3.67v1.6h-.14c-1.06-.76-2.71-1.29-4.83-1.29s-2.68.53-2.68,1.18c0,.59.34.78,3.63,1.32,2.63.42,4.4,1.82,4.4,4.42,0,3.3-2.63,5.4-6.94,5.4Z"/>
        <path class="cls-4" d="M286.64,170.6c.71-.53,1.69-1.04,2.83-1.04h.57v3.75h4.6v1.88c0,1.32-1.43,2.32-2.66,2.32h-1.94v5.57c0,1.04.66,1.65,1.71,1.65,1.29,0,1.88-.11,2.46-.34h.14v2.07c0,1.29-1.2,2.46-4.03,2.46s-5.57-1.26-5.57-5.49v-9.55c0-1.4.83-2.52,1.89-3.3Z"/>
        <path class="cls-4" d="M303.5,182.92h-2.34c.31,1.54,1.6,2.27,3.86,2.27,2.51,0,4.08-.39,4.97-.98h.2v1.23c0,1.96-1.63,3.72-6.11,3.72-5.43,0-8.28-3.58-8.28-7.84,0-4.68,3.23-8.48,8.08-8.48,4.11,0,7.31,2.27,7.31,6.19,0,3.08-2.37,3.89-7.68,3.89ZM303.87,176.82c-1.91,0-2.71,1.2-2.86,2.69h2.11c2.57,0,3.03-.39,3.03-1.06,0-.78-.71-1.62-2.29-1.62Z"/>
        <path class="cls-4" d="M323.01,177.3c-.69-.25-1.2-.31-1.91-.31-1.31,0-2.34.64-2.34,2.52v9.21h-1.49c-2.34,0-3.77-1.06-3.77-3.64v-6.69c0-3.11,2.14-5.57,5.71-5.57,2.71,0,3.97,1.09,3.97,2.52v1.96h-.17Z"/>
      </g>
    </g>
  </g>
</svg>