<?xml version="1.0" encoding="UTF-8"?>
<svg id="Layer_2" data-name="Layer 2" xmlns="http://www.w3.org/2000/svg" viewBox="0 0 474.46 273.09">
  <defs>
    <style>
      .cls-1, .cls-2, .cls-3, .cls-4 {
        stroke-width: 0px;
      }

      .cls-1, .cls-3 {
        fill-rule: evenodd;
      }

      .cls-1, .cls-4 {
        fill: #fff;
      }

      .cls-2, .cls-3 {
        fill: #d40069;
      }
    </style>
  </defs>
  <g id="Layer_1-2" data-name="Layer 1">
    <g>
      <g>
        <g>
          <path class="cls-2" d="M59.33,171.31c-3.57-4.6-12.36-7.25-20.12-7.25-11.44,0-19.81,7.56-19.81,18.99,0,14.4,8.78,21.24,20.22,21.24,7.56,0,15.93-2.86,19.4-6.54h.51v7.25c0,9.09-9.09,16.03-22.87,16.03-19.3,0-36.66-13.89-36.66-36.15,0-20.53,14.4-37.58,37.88-37.58,13.79,0,21.96,6.84,21.96,16.75v7.25h-.51Z"/>
          <path class="cls-2" d="M90.47,220.94c-10.82,0-24-5.11-24-17.87s8.99-18.79,29.41-18.79h2.76v-2.35c0-4.6-3.57-5.72-11.23-5.72-10.52,0-14.4,2.45-18.38,6.13h-.51v-6.84c0-6.94,7.25-13.89,23.28-13.89s25.63,7.86,25.63,24.41v8.68c0,20.42-6.54,26.24-26.96,26.24ZM99.05,196.33h-3.88c-7.35,0-10.31,1.84-10.31,5.62,0,3.57,2.25,5.41,7.66,5.41,3.47,0,6.54-1.74,6.54-6.84v-4.19Z"/>
          <path class="cls-2" d="M132.54,153.34c2.55-1.94,6.03-3.78,10.11-3.78h2.04v13.68h16.44v6.84c0,4.8-5.11,8.48-9.5,8.48h-6.94v20.32c0,3.78,2.35,6.02,6.13,6.02,4.6,0,6.74-.41,8.78-1.23h.51v7.56c0,4.7-4.29,8.99-14.4,8.99s-19.91-4.6-19.91-20.02v-34.82c0-5.11,2.96-9.19,6.74-12.05Z"/>
        </g>
        <g>
          <path class="cls-4" d="M226.63,171.31c-3.57-4.6-12.36-7.25-20.12-7.25-11.44,0-19.81,7.56-19.81,18.99,0,14.4,8.78,21.24,20.22,21.24,7.56,0,15.93-2.86,19.4-6.54h.51v7.25c0,9.09-9.09,16.03-22.87,16.03-19.3,0-36.66-13.89-36.66-36.15,0-20.53,14.4-37.58,37.88-37.58,13.79,0,21.96,6.84,21.96,16.75v7.25h-.51Z"/>
          <path class="cls-4" d="M284.93,219.41c-10.21,0-11.95-4.8-11.95-11.74v-18.79c0-7.97-2.86-11.54-8.37-11.54-7.56,0-9.39,3.98-9.39,11.95v30.12h-6.54c-9.29,0-12.87-3.88-12.87-11.74v-63.82h6.23c8.07,0,12.66,3.88,12.66,11.13v14.5c2.86-4.49,7.56-7.86,16.44-7.86,11.33,0,21.24,8.78,21.24,24v33.8h-7.45Z"/>
          <path class="cls-4" d="M327.31,198.27h-8.37c1.12,5.62,5.72,8.27,13.79,8.27,8.99,0,14.6-1.43,17.77-3.57h.72v4.49c0,7.15-5.82,13.58-21.85,13.58-19.4,0-29.61-13.07-29.61-28.59,0-17.05,11.54-30.94,28.9-30.94,14.7,0,26.14,8.27,26.14,22.57,0,11.23-8.48,14.19-27.47,14.19ZM328.64,176.01c-6.84,0-9.7,4.39-10.21,9.8h7.56c9.19,0,10.82-1.43,10.82-3.88,0-2.86-2.55-5.92-8.17-5.92Z"/>
          <path class="cls-4" d="M407.16,181.62c-1.74-1.84-7.05-3.88-12.46-3.88-9.5,0-14.81,4.8-14.81,12.66,0,9.6,5.31,14.09,13.89,14.09,6.03,0,10.21-1.23,13.58-3.17h.2v5.82c0,7.45-7.66,13.48-17.87,13.48-17.05,0-29.21-11.54-29.21-29.1,0-16.03,11.13-29.82,30.94-29.82,8.88,0,16.24,5.82,16.24,13.07v6.84h-.51Z"/>
          <path class="cls-4" d="M435.76,155.18v31.96c4.6-6.84,9.29-14.19,14.81-20.12,2.45-2.66,4.39-3.78,10.31-3.78h13.58v.51c-3.47,3.57-15.83,17.97-20.93,25.32,3.27,4.9,6.64,10.31,10.52,14.81,4.19,4.8,5.82,5.31,10.11,6.33-.72,6.23-4.9,9.7-11.85,9.7-2.86,0-7.66-1.12-10.01-3.88-6.33-7.35-11.23-15.32-16.54-23.38v26.75h-7.66c-7.15,0-11.74-4.7-11.74-11.44v-64.13h7.45c8.78,0,11.95,5.72,11.95,11.33Z"/>
        </g>
      </g>
      <path class="cls-1" d="M314.2,53.21c-1.11-2.87-3.55-3.8-5.92-4.7-.78-.3-1.67-.64-2.73-1.09-4.68-2.02-7.64-4.69-10.77-7.52-3.92-3.54-7.94-7.16-14.82-9.13-.71-7.42-2.24-17.91-3.94-24.27-.61-2.29-3.62-2.84-4.98-.89-2.85,4.1-6,9.82-8.21,15.03-2.56-6.32-5.95-13.89-10.83-18.9-1.06-1.08-2.5-1.78-4.01-1.73-1.7.06-3.19.9-4.1,2.21l.04-.13-.2.39c-.14.22-.26.46-.36.71l-48.65,89.69-10.53-12.53c-6.78-8.48-19.57-8.26-28.05-1.49l34.32,44.96c1.92,2.7,6.01,2.47,7.61-.44L249.21,12.13c2.79,4.47,5.01,10.07,6.77,14.49,2.18,5.5,3.28,8.26,5.35,9.68,1.97,1.35,4.31,1.44,7.02,1.53,1.24.04,2.65.1,4.25.26,8.32.86,11.9,4.09,16.43,8.18,3.35,3.02,7.15,6.45,13.12,9.03,1.49.64,2.67,1.08,3.57,1.42l.39.61c-.07.95-.21,2.24-.33,3.36-.31,2.84-.95,8.74-2.47,11.63-1.9,3.61-5.44,5.11-9.54,6.85-6.47,2.74-14.52,6.15-15.82,18.78l-.02.22v27.64h0c4.75,0,8.6-3.85,8.6-8.6v-18.6c.83-7.4,4.73-9.05,10.6-11.53,4.91-2.08,10.48-4.44,13.8-10.76,2.1-4,2.86-9.68,3.41-14.7.45-4.08.69-6.33-.12-8.42Z"/>
      <g>
        <path class="cls-3" d="M299.98,68.56c-7.93-2.17-19.96-.67-27.12,4.43,6.99-6.98,18.02-8.25,27.47-5.69.34.09.52.45.41.78l-.03.08c-.1.31-.43.48-.74.39Z"/>
        <path class="cls-3" d="M300.7,66.13c-6.54-3.03-17.03-4-23.89-1.06,7.13-4.57,16.97-3.93,24.43-.05.26.14.39.45.29.73v.02c-.12.34-.5.51-.83.36Z"/>
      </g>
      <path class="cls-3" d="M299.32,70.95c-7.24-.45-18.2,2.52-23.53,7.86,4.87-6.83,15.26-9.81,23.63-9.07.39.03.64.43.51.8h0c-.09.26-.34.43-.62.41Z"/>
      <path class="cls-1" d="M270.87,46.25c1.2,4.9,3.61,7.9,7.06,9.45-.05-.13-2.38-6.87,4.2-9.38,2.52,6.57-4.05,9.34-4.18,9.39,3.03,1.36,6.85,1.6,11.37.99-1.65-9.88-9.22-13.42-18.45-10.45Z"/>
      <g>
        <path class="cls-4" d="M12.42,262.25c-2.04,0-3.7-.34-4.89-.98v11.31h-2.29c-1.62,0-3.53-1.06-3.53-4.17v-23.8c1.62-.6,5.48-1.36,7.57-1.36h3.27c5.65,0,9.69,3.23,9.69,9.05,0,6.16-4.25,9.95-9.82,9.95ZM11.83,248.18h-1.87c-.72,0-1.74.26-2.42.38v8.25c1.02.3,2.64.51,4.12.51,2.98,0,4.59-1.7,4.59-4.5,0-3.32-1.36-4.63-4.42-4.63Z"/>
        <path class="cls-4" d="M36.22,272.96h-1.15c-5.44,0-9.18-3.06-9.18-7.27s2.98-7.18,11.39-7.18h2v-.3c0-3.23-1.53-4.21-4.93-4.21-4.12,0-6.42,1.57-7.27,2.64h-.21v-1.83c0-2.55,2.29-5.61,8.33-5.61,5.1,0,9.69,2.38,9.69,10.29v5.27c0,4.85-3.57,8.2-8.67,8.2ZM39.32,262.59h-2.04c-4.34,0-5.57,1.02-5.57,2.89s1.45,2.85,3.95,2.85,3.66-1.19,3.66-3.53v-2.21Z"/>
        <path class="cls-4" d="M64.1,255.19c-.85-.34-1.83-.68-3.32-.68-2.55,0-3.95,1.4-3.95,4.89v13.18h-1.57c-2.55,0-4.17-1.28-4.17-3.66v-10.54c0-4.59,2.42-8.97,8.46-8.97,3.53,0,4.76,2,4.76,3.74v2.04h-.21Z"/>
        <path class="cls-4" d="M78.5,272.96h-1.15c-5.44,0-9.18-3.06-9.18-7.27s2.98-7.18,11.39-7.18h2v-.3c0-3.23-1.53-4.21-4.93-4.21-4.12,0-6.42,1.57-7.27,2.64h-.21v-1.83c0-2.55,2.29-5.61,8.33-5.61,5.1,0,9.69,2.38,9.69,10.29v5.27c0,4.85-3.57,8.2-8.67,8.2ZM81.6,262.59h-2.04c-4.34,0-5.57,1.02-5.57,2.89s1.45,2.85,3.95,2.85,3.66-1.19,3.66-3.53v-2.21Z"/>
        <path class="cls-4" d="M100.3,273.09c-4.21,0-7.35-2.17-7.35-4.51v-2.59h.21c1.23,1.15,4.17,2.17,6.89,2.17s4.16-.81,4.16-2.51c0-1.32-.81-1.95-4.76-2.51-4.85-.68-7.18-2.59-7.18-6.08,0-4.29,3.87-7.95,9.73-7.95,5.19,0,7.31,2.68,7.31,4.89v2.17h-.21c-1.19-1.19-3.83-2.12-6.55-2.12-3.49,0-4.59,1.06-4.59,2.55,0,1.15.68,1.62,4.59,2.25,4.76.77,7.31,2.85,7.31,6.5,0,4.85-3.4,7.74-9.56,7.74Z"/>
        <path class="cls-4" d="M119.51,248.01c-1.83,0-3.32-1.53-3.32-3.36s1.49-3.32,3.32-3.32,3.36,1.49,3.36,3.32-1.53,3.36-3.36,3.36ZM123.54,272.79c-4.42,0-6.84-2.51-6.84-7.14v-15.51h1.61c2.55,0,4.08,1.36,4.08,4.25v10.71c0,2.29.98,3.02,3.48,3.02h1.06v1.23c0,2.47-.98,3.44-3.4,3.44Z"/>
        <path class="cls-4" d="M133.7,246.01c.77-.89,1.78-1.57,2.68-1.57h1.32v5.19h7.95v2.34c0,1.19-1.06,2.72-3.4,2.72h-4.55v8.97c0,2.97,1.32,4.12,3.61,4.12,1.83,0,3.23-.26,4.12-.81h.21v2.04c0,2.34-1.7,3.83-5.02,3.83-5.78,0-8.59-3.15-8.59-8.5v-13.77c0-2.25.43-3.1,1.66-4.55Z"/>
        <path class="cls-4" d="M159.32,263.57h-3.74c.43,2.89,3.06,4.72,6.42,4.72,2.38,0,5.19-.47,7.01-2.17h.21v1.78c0,2.93-2,5.19-8.29,5.19-5.7,0-11.26-4.51-11.26-11.52,0-7.65,4.68-12.45,11.22-12.45,4.76,0,9.18,3.4,9.18,8.88,0,4.21-3.19,5.57-10.75,5.57ZM160.39,253.88c-2.76,0-4.67,2.25-4.8,4.89l-.04.77h2.55c5.4,0,6.63-.6,6.63-2.21,0-2.29-1.7-3.44-4.34-3.44Z"/>
        <path class="cls-4" d="M206.49,272.79c-1.87,0-3.48-.72-4.25-2.59l-2.17-5.27c-1.32-3.19-2.55-3.4-4.08-3.66-1.28-.21-2.29-.38-2.89-.38v11.69h-1.87c-2.59,0-3.95-1.57-3.95-3.91v-24.4c1.23-.47,5.31-1.06,7.48-1.06h3.23c5.78,0,9.56,3.48,9.56,8.37,0,3.95-2.59,7.23-5.99,7.74,1.57.64,2.89,2.38,3.61,4.08l2.34,5.44c.72,1.7,1.45,2.51,1.78,3.02-.68.72-1.19.93-2.81.93ZM195.7,248.22c-.55,0-1.95.13-2.59.3v7.69c1.27.26,2.59.26,4.16.26,2.38,0,4.38-1.36,4.38-3.95,0-3.53-1.78-4.29-4.33-4.29h-1.62Z"/>
        <path class="cls-4" d="M218.13,248.01c-1.83,0-3.32-1.53-3.32-3.36s1.49-3.32,3.32-3.32,3.36,1.49,3.36,3.32-1.53,3.36-3.36,3.36ZM222.17,272.79c-4.42,0-6.84-2.51-6.84-7.14v-15.51h1.61c2.55,0,4.08,1.36,4.08,4.25v10.71c0,2.29.98,3.02,3.48,3.02h1.06v1.23c0,2.47-.98,3.44-3.4,3.44Z"/>
        <path class="cls-4" d="M237.38,273.09c-4.21,0-7.35-2.17-7.35-4.51v-2.59h.21c1.23,1.15,4.17,2.17,6.89,2.17s4.16-.81,4.16-2.51c0-1.32-.81-1.95-4.76-2.51-4.85-.68-7.18-2.59-7.18-6.08,0-4.29,3.87-7.95,9.73-7.95,5.19,0,7.31,2.68,7.31,4.89v2.17h-.21c-1.19-1.19-3.83-2.12-6.55-2.12-3.49,0-4.59,1.06-4.59,2.55,0,1.15.68,1.62,4.59,2.25,4.76.77,7.31,2.85,7.31,6.5,0,4.85-3.4,7.74-9.56,7.74Z"/>
        <path class="cls-4" d="M259.01,245.76v13.69c3.36-4.51,5.1-6.5,7.01-8.33,1.36-1.28,2.72-1.49,4.55-1.49h3.27v.21c-1.61,1.36-6.93,7.4-9.31,10.41,1.83,2.25,3.61,4.59,5.65,6.67,2.08,2.08,3.02,2.51,4.42,2.98-.6,1.83-1.53,2.81-3.87,2.81-1.28,0-2.76-.6-3.74-1.57-2.93-3.02-5.48-6.42-7.99-9.78v11.22h-1.95c-2.55,0-3.78-1.4-3.78-4.04v-26.56h1.83c2.76,0,3.91,1.57,3.91,3.78Z"/>
        <path class="cls-4" d="M311.07,272.58c-2.42,0-3.7-1.4-3.91-2.81-.26-1.91-.51-3.4-.81-4.63h-11.6c-.59,2.47-1.1,4.97-1.53,7.44h-2.25c-1.91,0-2.68-1.02-2.68-2.81,0-4.21,5.44-21.34,9.9-26.31h2.38c2.34,0,3.91,1.28,4.72,2.68,2.64,4.72,7.01,17.26,8.16,26.44h-2.38ZM300.53,248.82c-1.7,3.02-3.53,7.65-4.5,11.69h9.01c-.98-4.08-2.98-8.97-4.51-11.69Z"/>
        <path class="cls-4" d="M325.05,273.09c-4.21,0-7.35-2.17-7.35-4.51v-2.59h.21c1.23,1.15,4.17,2.17,6.89,2.17s4.16-.81,4.16-2.51c0-1.32-.81-1.95-4.76-2.51-4.85-.68-7.18-2.59-7.18-6.08,0-4.29,3.87-7.95,9.73-7.95,5.19,0,7.31,2.68,7.31,4.89v2.17h-.21c-1.19-1.19-3.83-2.12-6.55-2.12-3.49,0-4.59,1.06-4.59,2.55,0,1.15.68,1.62,4.59,2.25,4.76.77,7.31,2.85,7.31,6.5,0,4.85-3.4,7.74-9.56,7.74Z"/>
        <path class="cls-4" d="M347.65,273.09c-4.21,0-7.35-2.17-7.35-4.51v-2.59h.21c1.23,1.15,4.17,2.17,6.89,2.17s4.16-.81,4.16-2.51c0-1.32-.81-1.95-4.76-2.51-4.85-.68-7.18-2.59-7.18-6.08,0-4.29,3.87-7.95,9.73-7.95,5.19,0,7.31,2.68,7.31,4.89v2.17h-.21c-1.19-1.19-3.83-2.12-6.55-2.12-3.49,0-4.59,1.06-4.59,2.55,0,1.15.68,1.62,4.59,2.25,4.76.77,7.31,2.85,7.31,6.5,0,4.85-3.4,7.74-9.56,7.74Z"/>
        <path class="cls-4" d="M371.92,263.57h-3.74c.43,2.89,3.06,4.72,6.42,4.72,2.38,0,5.19-.47,7.01-2.17h.21v1.78c0,2.93-2,5.19-8.29,5.19-5.7,0-11.26-4.51-11.26-11.52,0-7.65,4.68-12.45,11.22-12.45,4.76,0,9.18,3.4,9.18,8.88,0,4.21-3.19,5.57-10.75,5.57ZM372.98,253.88c-2.76,0-4.67,2.25-4.8,4.89l-.04.77h2.55c5.4,0,6.63-.6,6.63-2.21,0-2.29-1.7-3.44-4.34-3.44Z"/>
        <path class="cls-4" d="M395.67,273.09c-4.21,0-7.35-2.17-7.35-4.51v-2.59h.21c1.23,1.15,4.17,2.17,6.89,2.17s4.16-.81,4.16-2.51c0-1.32-.81-1.95-4.76-2.51-4.85-.68-7.18-2.59-7.18-6.08,0-4.29,3.87-7.95,9.73-7.95,5.19,0,7.31,2.68,7.31,4.89v2.17h-.21c-1.19-1.19-3.83-2.12-6.55-2.12-3.49,0-4.59,1.06-4.59,2.55,0,1.15.68,1.62,4.59,2.25,4.76.77,7.31,2.85,7.31,6.5,0,4.85-3.4,7.74-9.56,7.74Z"/>
        <path class="cls-4" d="M418.28,273.09c-4.21,0-7.35-2.17-7.35-4.51v-2.59h.21c1.23,1.15,4.17,2.17,6.89,2.17s4.16-.81,4.16-2.51c0-1.32-.81-1.95-4.76-2.51-4.85-.68-7.18-2.59-7.18-6.08,0-4.29,3.87-7.95,9.73-7.95,5.19,0,7.31,2.68,7.31,4.89v2.17h-.21c-1.19-1.19-3.83-2.12-6.55-2.12-3.49,0-4.59,1.06-4.59,2.55,0,1.15.68,1.62,4.59,2.25,4.76.77,7.31,2.85,7.31,6.5,0,4.85-3.4,7.74-9.56,7.74Z"/>
        <path class="cls-4" d="M444.24,249.12c6.88,0,10.84,5.53,10.84,11.6,0,6.89-3.95,12.37-11.35,12.37-6.89,0-10.84-5.48-10.84-11.56,0-6.89,3.95-12.41,11.35-12.41ZM443.73,254.22c-3.27,0-4.93,2.72-4.93,6.5,0,4.55,1.66,7.27,5.44,7.27,3.31,0,4.93-2.72,4.93-6.46,0-4.59-1.7-7.31-5.44-7.31Z"/>
        <path class="cls-4" d="M474.25,255.19c-.85-.34-1.83-.68-3.32-.68-2.55,0-3.95,1.4-3.95,4.89v13.18h-1.57c-2.55,0-4.17-1.28-4.17-3.66v-10.54c0-4.59,2.42-8.97,8.46-8.97,3.53,0,4.76,2,4.76,3.74v2.04h-.21Z"/>
      </g>
    </g>
  </g>
</svg>