<?xml version="1.0" encoding="UTF-8"?>
<svg id="Layer_2" data-name="Layer 2" xmlns="http://www.w3.org/2000/svg" viewBox="0 0 366.51 609.67">
  <defs>
    <style>
      .cls-1, .cls-2 {
        fill: none;
      }

      .cls-2 {
        stroke: #fff;
        stroke-miterlimit: 10;
        stroke-width: 7.97px;
      }

      .cls-3 {
        fill: #328034;
      }

      .cls-4 {
        fill: #80a11d;
      }

      .cls-5 {
        fill: #575756;
      }

      .cls-6 {
        fill: #fff;
      }
    </style>
  </defs>
  <g id="logo">
    <g>
      <path class="cls-6" d="M59.58,553.65h-.75l-.58,2.96h2.02v.75c0,1-.63,1.6-1.75,1.6h-.73l-.88,4.49h-1c-.97,0-1.34-.51-1.34-1.38,0-.19.02-.39.07-.61l.49-2.5h-2.55l-.87,4.49h-1c-.97,0-1.34-.51-1.34-1.38,0-.19.02-.41.07-.63l.49-2.48h-2.19v-.78c0-1,.63-1.58,1.75-1.58h.9l.56-2.96h-2.14v-.75c0-1,.63-1.6,1.75-1.6h.85l.88-4.47h.75c1.02,0,1.55.51,1.55,1.48,0,.15-.02.29-.05.46l-.49,2.53h2.55l.87-4.47h.75c.97,0,1.55.53,1.55,1.43,0,.17,0,.36-.05.58l-.46,2.45h2.04v.78c0,1-.63,1.58-1.75,1.58ZM53.61,553.65l-.56,2.96h2.55l.58-2.96h-2.58Z"/>
      <path class="cls-6" d="M80.5,557.17c-.97,2.77-2.19,5.17-3.04,6.44h-.53c-1.02,0-1.8-.95-2.24-1.75-.8-1.46-1.8-3.89-2.16-5.88-.41,1.99-1.94,6.05-3.11,7.63h-.44c-.97,0-1.9-.97-2.33-1.75-1.9-3.35-3.16-7.14-3.74-11.51h1.75c1.12,0,1.77.85,1.89,1.58.39,2.24,1,4.71,2.09,7.09,1.19-2.6,1.85-5.42,2.48-8.19h1.07c1,0,1.99.41,2.31,1.85.39,1.77,1.19,4.49,2.11,6.34,1.24-2.75,1.94-5.78,2.45-8.75h1.36c.92,0,1.58.41,1.58,1.41,0,.51-.54,2.77-1.51,5.49Z"/>
      <path class="cls-6" d="M88.86,558.31h-2.14c.24,1.65,1.75,2.7,3.67,2.7,1.36,0,2.96-.27,4.01-1.24h.12v1.02c0,1.68-1.14,2.96-4.74,2.96-3.25,0-6.44-2.57-6.44-6.58,0-4.37,2.67-7.12,6.41-7.12,2.72,0,5.25,1.94,5.25,5.08,0,2.4-1.82,3.18-6.15,3.18ZM89.47,552.77c-1.58,0-2.67,1.29-2.74,2.79l-.02.44h1.46c3.08,0,3.79-.34,3.79-1.26,0-1.31-.97-1.97-2.48-1.97Z"/>
      <path class="cls-6" d="M101.47,563.75c-2.41,0-4.2-1.24-4.2-2.57v-1.48h.12c.71.66,2.38,1.24,3.94,1.24s2.38-.46,2.38-1.43c0-.75-.46-1.12-2.72-1.43-2.77-.39-4.11-1.48-4.11-3.47,0-2.45,2.21-4.54,5.56-4.54,2.96,0,4.18,1.53,4.18,2.79v1.24h-.12c-.68-.68-2.19-1.21-3.74-1.21-1.99,0-2.62.61-2.62,1.46,0,.66.39.92,2.62,1.29,2.72.44,4.18,1.63,4.18,3.72,0,2.77-1.94,4.42-5.46,4.42Z"/>
      <path class="cls-6" d="M116.08,563.75c-1.46,0-2.65-.83-3.3-1.94v5.78h-1.02c-1.17,0-2.28-.85-2.28-2.26v-7.92c0-4.35,1.94-7.36,6.56-7.36,3.47,0,5.95,3.16,5.95,6.46,0,4.2-2.09,7.24-5.9,7.24ZM115.52,552.94c-1.8,0-2.79,1.55-2.79,3.81,0,2.62,1.29,4.11,3.23,4.11,1.58,0,2.67-1.41,2.67-3.5,0-3.08-1.02-4.42-3.11-4.42Z"/>
      <path class="cls-6" d="M129.44,558.31h-2.14c.24,1.65,1.75,2.7,3.67,2.7,1.36,0,2.96-.27,4.01-1.24h.12v1.02c0,1.68-1.14,2.96-4.74,2.96-3.25,0-6.44-2.57-6.44-6.58,0-4.37,2.67-7.12,6.41-7.12,2.72,0,5.25,1.94,5.25,5.08,0,2.4-1.82,3.18-6.15,3.18ZM130.05,552.77c-1.58,0-2.67,1.29-2.74,2.79l-.02.44h1.46c3.08,0,3.79-.34,3.79-1.26,0-1.31-.97-1.97-2.48-1.97Z"/>
      <path class="cls-6" d="M143.41,563.68h-.66c-3.11,0-5.25-1.75-5.25-4.15s1.7-4.11,6.51-4.11h1.14v-.17c0-1.85-.88-2.4-2.82-2.4-2.36,0-3.67.9-4.15,1.51h-.12v-1.04c0-1.46,1.31-3.21,4.76-3.21,2.91,0,5.54,1.36,5.54,5.88v3.01c0,2.77-2.04,4.69-4.96,4.69ZM145.18,557.75h-1.17c-2.48,0-3.18.58-3.18,1.65s.83,1.63,2.26,1.63,2.09-.68,2.09-2.02v-1.26Z"/>
      <path class="cls-6" d="M154.34,548.13v7.82c1.92-2.58,2.92-3.72,4.01-4.76.78-.73,1.55-.85,2.6-.85h1.87v.12c-.92.78-3.96,4.23-5.32,5.95,1.04,1.29,2.07,2.62,3.23,3.81,1.19,1.19,1.72,1.43,2.53,1.7-.34,1.04-.87,1.6-2.21,1.6-.73,0-1.58-.34-2.14-.9-1.68-1.72-3.13-3.67-4.57-5.59v6.41h-1.12c-1.46,0-2.16-.8-2.16-2.31v-15.18h1.04c1.58,0,2.23.9,2.23,2.16Z"/>
      <path class="cls-6" d="M174.75,554.57c-.44-.75-1.68-1.36-3.55-1.36s-3.57,1.53-3.57,3.47c0,2.38,1.41,4.01,3.62,4.01,1.87,0,2.99-.61,3.45-1.21h.12v1.51c0,1.58-1.53,2.72-3.89,2.72-3.6,0-6.71-2.79-6.71-6.54s2.6-6.95,7.07-6.95c2.09,0,3.57,1.26,3.57,2.82v1.53h-.12Z"/>
      <path class="cls-6" d="M182.55,563.68h-.66c-3.11,0-5.25-1.75-5.25-4.15s1.7-4.11,6.51-4.11h1.14v-.17c0-1.85-.88-2.4-2.82-2.4-2.36,0-3.67.9-4.15,1.51h-.12v-1.04c0-1.46,1.31-3.21,4.76-3.21,2.91,0,5.54,1.36,5.54,5.88v3.01c0,2.77-2.04,4.69-4.96,4.69ZM184.33,557.75h-1.17c-2.48,0-3.18.58-3.18,1.65s.83,1.63,2.26,1.63,2.09-.68,2.09-2.02v-1.26Z"/>
      <path class="cls-6" d="M191.15,548.28c.44-.51,1.02-.9,1.53-.9h.75v2.96h4.54v1.34c0,.68-.61,1.55-1.94,1.55h-2.6v5.12c0,1.7.75,2.36,2.06,2.36,1.04,0,1.85-.15,2.36-.46h.12v1.17c0,1.34-.97,2.19-2.87,2.19-3.3,0-4.91-1.8-4.91-4.86v-7.87c0-1.29.24-1.77.95-2.6Z"/>
    </g>
    <g>
      <path class="cls-6" d="M259.75,529.66h85.97v26.13c0,16.28-13.19,29.47-29.47,29.47h-56.5c-15.35,0-27.8-12.45-27.8-27.8h0c0-15.35,12.45-27.8,27.8-27.8Z"/>
      <g id="Layer_1-2" data-name="Layer 1-2">
        <g>
          <path class="cls-3" d="M274.82,569.72c-2.72,2.02-6.16,3.13-9.83,2.87-8.08-.56-14.17-7.47-13.6-15.45.38-5.45,3.78-9.99,8.47-12.14-5.68,1.79-9.96,6.84-10.4,13.07-.57,8.15,5.65,15.21,13.9,15.78,4.42.3,8.52-1.32,11.47-4.14"/>
          <path class="cls-4" d="M251.78,568.89c-2.38-3.2-3.67-7.24-3.38-11.55.65-9.49,8.78-16.64,18.15-15.98,6.41.45,11.74,4.44,14.26,9.95-2.1-6.67-8.04-11.7-15.35-12.21-9.57-.67-17.87,6.63-18.54,16.32-.36,5.19,1.55,10.01,4.86,13.47"/>
          <polygon class="cls-3" points="255.53 557.13 257.88 557.13 259.33 563.15 259.37 563.15 262.52 557.13 264.73 557.13 260.14 565.73 257.84 565.73 255.53 557.13"/>
          <path class="cls-3" d="M265.59,562.15c-.04,1.25.81,2.01,1.99,2.01,1.06,0,1.81-.49,2.43-1.15l1.36,1.15c-1.16,1.22-2.48,1.69-3.82,1.69-2.55,0-4.33-1.78-3.96-4.44.37-2.66,2.66-4.44,5.21-4.44,2.36,0,3.73,1.66,3.31,4.6l-.07.58h-6.45ZM270.13,560.57c.16-1.23-.53-2.01-1.85-2.01-1.25,0-2.15.79-2.48,2.01h4.33Z"/>
          <path class="cls-3" d="M272.4,558.98l.25-1.8h1.74l.35-2.45h2.11l-.35,2.45h2.59v1.8h-2.84l-.51,3.7c-.12.84.05,1.37.99,1.37.37,0,1.44-.42,1.74-.62l-.8,2.13c-.48.21-1.23.28-1.73.28-2.24,0-2.62-1-2.34-2.99l.55-3.88h-1.74Z"/>
          <path class="cls-3" d="M297.17,559.13c-.19-.47-.46-.86-.81-1.19-.35-.33-.78-.58-1.29-.76-.51-.18-1.09-.26-1.73-.26-.74,0-1.42.14-2.03.4-.61.27-1.15.64-1.6,1.11-.45.47-.8,1.02-1.05,1.65-.25.63-.37,1.31-.37,2.03,0,.57.09,1.09.28,1.55.19.46.46.86.82,1.19.36.33.79.58,1.31.76.51.18,1.1.26,1.75.26.74,0,1.42-.13,2.03-.4.17-.07.32-.15.48-.24l-.43,2.68h1.83l.91-5.72c.13-.48.2-.98.2-1.5,0-.57-.1-1.09-.28-1.55M295.18,562.04c-.13.39-.31.73-.55,1.04-.24.3-.54.54-.89.72-.35.18-.74.27-1.19.27-.35,0-.66-.06-.93-.17-.27-.11-.5-.27-.68-.46-.19-.19-.32-.42-.42-.68-.1-.26-.15-.54-.15-.84,0-.41.07-.81.2-1.19.13-.39.32-.73.57-1.03.25-.3.54-.54.89-.73.35-.18.74-.28,1.17-.28.34,0,.65.06.93.17.27.11.5.27.68.46.18.19.32.42.41.68s.14.54.14.84l-.19,1.2h0Z"/>
          <path class="cls-3" d="M286.99,557.94c-.35-.33-.78-.58-1.29-.76-.51-.18-1.09-.26-1.73-.26-.74,0-1.42.14-2.03.4-.61.27-1.15.64-1.6,1.11-.45.47-.8,1.02-1.05,1.65-.25.63-.37,1.31-.37,2.03,0,.57.09,1.09.28,1.55.19.47.46.86.82,1.19.36.33.79.58,1.31.76.51.18,1.1.26,1.75.26.74,0,1.42-.13,2.03-.4.61-.27,1.14-.64,1.58-1.11.44-.47.79-1.02,1.03-1.65.25-.63.37-1.31.37-2.03,0-.57-.1-1.09-.28-1.55-.19-.46-.46-.86-.81-1.19M285.81,562.04c-.13.39-.31.73-.55,1.04-.24.3-.54.54-.88.72-.35.18-.74.27-1.19.27-.35,0-.66-.06-.93-.17-.27-.11-.5-.27-.68-.46-.18-.19-.32-.42-.42-.68-.1-.26-.14-.54-.14-.84,0-.41.07-.81.2-1.19.13-.38.32-.73.57-1.03.24-.3.54-.54.89-.73.35-.18.74-.28,1.17-.28.35,0,.65.06.93.17.27.11.5.26.68.46.18.19.32.42.41.68.1.26.14.54.14.84,0,.41-.06.81-.19,1.2"/>
          <path class="cls-3" d="M303.09,562.32c-.04.22-.1.43-.17.64-.07.21-.18.41-.32.58-.14.17-.32.31-.54.42-.22.11-.5.16-.84.16-.26,0-.48-.04-.66-.11-.18-.07-.33-.17-.44-.29-.11-.13-.19-.27-.25-.43-.05-.16-.08-.33-.08-.51,0-.07,0-.15,0-.24,0-.09.01-.17.03-.25l.91-5.17h-1.99l-.94,5.35c-.02.12-.03.25-.04.37-.01.13-.02.25-.02.36,0,.41.08.78.24,1.11.16.33.38.61.67.84.29.23.65.41,1.06.53.41.12.88.19,1.39.19.59,0,1.1-.08,1.55-.24.45-.16.84-.39,1.16-.67.32-.29.59-.64.79-1.05.2-.41.35-.87.43-1.38l.94-5.39h-1.97l-.93,5.19h0Z"/>
          <path class="cls-3" d="M316.97,557.63c-.29-.23-.65-.41-1.06-.53-.41-.12-.88-.19-1.39-.19-.59,0-1.1.08-1.55.24-.45.16-.84.38-1.16.67-.32.29-.59.64-.79,1.05-.2.41-.34.87-.43,1.38l-.94,5.39h1.97l.93-5.19c.04-.22.1-.43.17-.64.07-.21.18-.4.32-.58.14-.17.32-.31.54-.42.22-.11.5-.16.84-.16.26,0,.48.04.66.11.18.07.33.17.44.29.11.12.19.27.25.43.05.16.08.33.08.5,0,.07,0,.15,0,.24,0,.09-.01.17-.03.25l-.91,5.17h1.99l.94-5.35c.02-.12.03-.24.04-.37.01-.13.02-.25.02-.36,0-.41-.08-.78-.23-1.11-.16-.33-.38-.61-.67-.84"/>
          <path class="cls-3" d="M327.16,559.13c-.19-.47-.46-.86-.81-1.19-.35-.33-.79-.58-1.29-.76-.51-.18-1.09-.26-1.73-.26-.74,0-1.41.14-2.03.4-.61.27-1.15.64-1.6,1.11-.45.47-.8,1.02-1.05,1.65-.25.63-.37,1.31-.37,2.03,0,.57.09,1.09.28,1.55.19.46.46.86.82,1.19.36.33.79.58,1.31.76.51.18,1.1.26,1.75.26.74,0,1.41-.13,2.03-.4.61-.27,1.14-.64,1.58-1.11.44-.47.78-1.02,1.03-1.65.24-.63.37-1.31.37-2.03,0-.57-.1-1.09-.28-1.55M325.17,562.04c-.13.39-.31.73-.55,1.04-.24.3-.54.54-.88.72-.35.18-.74.27-1.19.27-.35,0-.66-.06-.93-.17-.27-.11-.5-.27-.68-.46-.19-.19-.32-.42-.42-.68-.1-.26-.14-.54-.14-.84,0-.41.07-.81.2-1.19.13-.39.32-.73.57-1.03.25-.3.54-.54.89-.73s.74-.28,1.17-.28c.34,0,.65.06.93.17.27.11.5.27.68.46.18.19.32.42.41.68.1.26.15.54.15.84,0,.41-.07.81-.19,1.2"/>
          <polygon class="cls-3" points="328.76 557.13 327.26 565.65 332.6 565.65 332.91 563.91 329.57 563.91 330.77 557.13 328.76 557.13"/>
          <polygon class="cls-3" points="308.02 557.13 306.68 557.13 306.37 558.88 307.71 558.88 306.51 565.65 308.52 565.65 310.03 557.13 308.02 557.13"/>
          <path class="cls-3" d="M309.3,555.37c.77,0,1.4-.63,1.4-1.4s-.63-1.4-1.4-1.4-1.4.63-1.4,1.4.63,1.4,1.4,1.4"/>
          <path class="cls-5" d="M280.95,572.74l-.21-.63h-1.23l-.21.63h-.5l1.14-3.12h.38l1.14,3.12h-.5ZM280.13,570.33l-.49,1.38h.96l-.47-1.38Z"/>
          <path class="cls-5" d="M282.82,572.77c-.34,0-.6-.11-.8-.31-.3-.31-.31-.62-.31-1.27s.01-.96.31-1.27c.2-.2.46-.32.8-.32.57,0,1,.34,1.11.96h-.48c-.07-.32-.28-.54-.63-.54-.19,0-.35.07-.46.19-.16.17-.19.35-.19.97s.03.8.19.97c.11.12.27.19.46.19.35,0,.56-.22.64-.54h.47c-.11.62-.54.96-1.11.96"/>
          <polygon class="cls-5" points="286.25 572.74 286.25 571.38 284.99 571.38 284.99 572.74 284.51 572.74 284.51 569.63 284.99 569.63 284.99 570.96 286.25 570.96 286.25 569.63 286.73 569.63 286.73 572.74 286.25 572.74"/>
          <rect class="cls-5" x="287.5" y="569.63" width=".47" height="3.12"/>
          <polygon class="cls-5" points="288.74 572.74 288.74 569.63 290.73 569.63 290.73 570.05 289.21 570.05 289.21 570.96 290.51 570.96 290.51 571.38 289.21 571.38 289.21 572.32 290.73 572.32 290.73 572.74 288.74 572.74"/>
          <polygon class="cls-5" points="292.34 572.74 291.97 572.74 290.95 569.63 291.44 569.63 292.16 571.89 292.87 569.63 293.37 569.63 292.34 572.74"/>
          <polygon class="cls-5" points="293.76 572.74 293.76 569.63 295.75 569.63 295.75 570.05 294.23 570.05 294.23 570.96 295.53 570.96 295.53 571.38 294.23 571.38 294.23 572.32 295.75 572.32 295.75 572.74 293.76 572.74"/>
          <polygon class="cls-5" points="299.64 572.74 299.64 570.66 298.92 572.18 298.57 572.18 297.83 570.66 297.83 572.74 297.36 572.74 297.36 569.63 297.83 569.63 298.74 571.56 299.64 569.63 300.11 569.63 300.11 572.74 299.64 572.74"/>
          <path class="cls-5" d="M302.69,572.45c-.2.2-.46.32-.8.32s-.6-.11-.81-.32c-.31-.31-.32-.62-.32-1.27s0-.96.32-1.27c.2-.2.46-.32.81-.32s.6.11.8.32c.31.31.31.62.31,1.27s0,.96-.31,1.27M302.35,570.21c-.12-.12-.28-.19-.46-.19s-.35.07-.46.19c-.15.17-.18.35-.18.97s.03.8.18.97c.12.12.28.2.46.2s.35-.07.46-.2c.16-.16.18-.35.18-.97s-.03-.81-.18-.97"/>
          <path class="cls-5" d="M305.38,572.74l-.66-1.31h-.59v1.31h-.47v-3.12h1.21c.59,0,.97.38.97.91,0,.45-.27.73-.62.83l.72,1.38h-.55,0ZM304.83,570.05h-.7v.98h.7c.31,0,.53-.18.53-.49s-.21-.49-.53-.49"/>
          <polygon class="cls-5" points="306.48 572.74 306.48 569.63 308.47 569.63 308.47 570.05 306.96 570.05 306.96 570.96 308.25 570.96 308.25 571.38 306.96 571.38 306.96 572.32 308.47 572.32 308.47 572.74 306.48 572.74"/>
          <polygon class="cls-3" points="311.14 570.05 311.14 572.74 310.67 572.74 310.67 570.05 309.81 570.05 309.81 569.63 312 569.63 312 570.05 311.14 570.05"/>
          <path class="cls-3" d="M314.22,572.45c-.2.2-.46.32-.81.32s-.6-.11-.8-.32c-.31-.31-.31-.62-.31-1.27s0-.96.31-1.27c.2-.2.46-.32.8-.32s.6.11.81.32c.31.31.31.62.31,1.27s0,.96-.31,1.27M313.88,570.21c-.12-.12-.28-.19-.46-.19s-.35.07-.46.19c-.15.17-.18.35-.18.97s.03.8.18.97c.12.12.28.2.46.2s.35-.07.46-.2c.16-.16.18-.35.18-.97s-.03-.81-.18-.97"/>
          <path class="cls-3" d="M317.05,572.41c-.23.25-.53.35-.86.35s-.6-.11-.81-.31c-.3-.31-.32-.62-.32-1.27s.01-.96.32-1.27c.2-.2.46-.31.81-.31.66,0,1.04.43,1.13.96h-.47c-.08-.34-.31-.54-.66-.54-.19,0-.35.07-.46.19-.15.17-.18.35-.18.97s.03.8.18.97c.12.12.28.19.46.19.21,0,.39-.08.51-.22.11-.13.15-.29.15-.49v-.17h-.66v-.4h1.14v.48c0,.41-.07.66-.28.88"/>
          <polygon class="cls-3" points="317.99 572.74 317.99 569.63 319.98 569.63 319.98 570.05 318.46 570.05 318.46 570.96 319.75 570.96 319.75 571.38 318.46 571.38 318.46 572.32 319.98 572.32 319.98 572.74 317.99 572.74"/>
          <polygon class="cls-3" points="321.64 570.05 321.64 572.74 321.16 572.74 321.16 570.05 320.31 570.05 320.31 569.63 322.49 569.63 322.49 570.05 321.64 570.05"/>
          <polygon class="cls-3" points="324.73 572.74 324.73 571.38 323.46 571.38 323.46 572.74 322.99 572.74 322.99 569.63 323.46 569.63 323.46 570.96 324.73 570.96 324.73 569.63 325.2 569.63 325.2 572.74 324.73 572.74"/>
          <polygon class="cls-3" points="325.97 572.74 325.97 569.63 327.96 569.63 327.96 570.05 326.44 570.05 326.44 570.96 327.74 570.96 327.74 571.38 326.44 571.38 326.44 572.32 327.96 572.32 327.96 572.74 325.97 572.74"/>
          <path class="cls-3" d="M330.29,572.74l-.66-1.31h-.59v1.31h-.47v-3.12h1.21c.59,0,.97.38.97.91,0,.45-.27.73-.62.83l.72,1.38h-.55,0ZM329.74,570.05h-.7v.98h.7c.31,0,.53-.18.53-.49s-.21-.49-.53-.49"/>
        </g>
      </g>
    </g>
    <path class="cls-2" d="M51.19,584.16h264.13c16.87,0,30.54-13.67,30.54-30.54V42.29c-3.17-23.78-8.98-35.5-14.17-37.81-.76-.36-1.78-.5-3.07-.5-11.72,0-43.71,14.53-72.38,38.31H111.49C82.83,18.52,50.83,3.98,39.08,3.98c-1.22,0-2.24.13-3.04.5-5.21,2.31-12.18,14.03-15.38,37.81v511.33c0,16.87,13.67,30.54,30.54,30.54Z"/>
    <rect class="cls-1" y="589.08" width="366.51" height="20.6"/>
  </g>
</svg>