<?xml version="1.0" encoding="UTF-8"?>
<svg id="Layer_2" data-name="Layer 2" xmlns="http://www.w3.org/2000/svg" viewBox="0 0 360.79 609.68">
  <defs>
    <style>
      .cls-1 {
        isolation: isolate;
      }

      .cls-2 {
        stroke: #fff;
        stroke-miterlimit: 10;
        stroke-width: 7.97px;
      }

      .cls-2, .cls-3 {
        fill: none;
      }

      .cls-3, .cls-4, .cls-5, .cls-6, .cls-7 {
        stroke-width: 0px;
      }

      .cls-4 {
        fill: #585857;
      }

      .cls-5 {
        fill: #859d3c;
      }

      .cls-6 {
        fill: #4a7d40;
      }

      .cls-7 {
        fill: #fff;
      }
    </style>
  </defs>
  <g id="logo">
    <g id="logo-2" data-name="logo">
      <g class="cls-1">
        <g class="cls-1">
          <path class="cls-7" d="M56.43,556.19h-.56l-.43,2.2h1.49v.56c0,.74-.47,1.19-1.3,1.19h-.54l-.65,3.33h-.74c-.72,0-.99-.38-.99-1.03,0-.14.02-.29.05-.45l.36-1.85h-1.89l-.65,3.33h-.74c-.72,0-.99-.38-.99-1.03,0-.14.02-.31.05-.47l.36-1.84h-1.62v-.58c0-.74.47-1.17,1.3-1.17h.67l.41-2.2h-1.58v-.56c0-.74.47-1.19,1.3-1.19h.63l.65-3.31h.56c.76,0,1.15.38,1.15,1.1,0,.11-.02.22-.04.34l-.36,1.87h1.89l.65-3.31h.56c.72,0,1.15.4,1.15,1.06,0,.13,0,.27-.04.43l-.34,1.82h1.51v.58c0,.74-.47,1.17-1.3,1.17ZM52,556.19l-.41,2.2h1.89l.43-2.2h-1.91Z"/>
        </g>
        <g class="cls-1">
          <path class="cls-7" d="M67.36,551.91c0,.58-.42,1.28-1.36,1.28h-3.69v3.06h4.32v.74c0,.79-.61,1.22-1.15,1.22h-3.08v5.26h-1c-.87,0-1.4-.47-1.4-1.44v-8.98c0-1.53.59-1.91,1.99-1.91h5.37v.77Z"/>
          <path class="cls-7" d="M71.76,559.65h-1.54c.17,1.22,1.26,2,2.64,2,.98,0,2.13-.2,2.89-.92h.09v.76c0,1.24-.82,2.2-3.41,2.2-2.34,0-4.63-1.91-4.63-4.88,0-3.24,1.92-5.28,4.62-5.28,1.96,0,3.78,1.44,3.78,3.76,0,1.78-1.31,2.36-4.42,2.36ZM72.2,555.54c-1.14,0-1.92.95-1.98,2.07l-.02.32h1.05c2.22,0,2.73-.25,2.73-.94,0-.97-.7-1.46-1.78-1.46ZM73.6,551.89c-.58.25-1.38.43-2.01.43h-.79v-.09c.38-.61.8-1.21,1.31-1.67.56-.52.98-.86,1.66-.86.58,0,.98.27.98.92,0,.52-.44.97-1.15,1.28Z"/>
          <path class="cls-7" d="M81.06,563.55c-1.94,0-2.99-1.06-2.99-3.02v-10.03h.67c1.17,0,1.68.7,1.68,1.62v8.17c0,.97.49,1.28,1.59,1.28h.63v.52c0,1.04-.54,1.46-1.57,1.46Z"/>
          <path class="cls-7" d="M85.14,553.06c-.75,0-1.36-.65-1.36-1.42s.61-1.41,1.36-1.41,1.38.63,1.38,1.41-.63,1.42-1.38,1.42ZM86.8,563.55c-1.82,0-2.82-1.06-2.82-3.02v-6.57h.67c1.05,0,1.68.58,1.68,1.8v4.54c0,.97.4,1.28,1.43,1.28h.44v.52c0,1.04-.4,1.46-1.4,1.46Z"/>
          <path class="cls-7" d="M97.19,563.46c-1.05,0-1.71-.68-1.71-1.58v-3.85c0-1.64-.7-2.36-1.91-2.36-1.01,0-1.71.79-1.71,2.18v5.62h-.7c-1,0-1.64-.68-1.64-1.58v-4.2c0-2.05,1.31-4.16,4.25-4.16,2.22,0,4.06,1.53,4.06,4.29v5.65h-.63Z"/>
          <path class="cls-7" d="M102.94,563.68c-1.73,0-3.03-.92-3.03-1.91v-1.1h.09c.51.49,1.71.92,2.83.92s1.71-.34,1.71-1.06c0-.56-.33-.83-1.96-1.06-1.99-.29-2.96-1.1-2.96-2.58,0-1.82,1.59-3.37,4-3.37,2.13,0,3.01,1.13,3.01,2.07v.92h-.09c-.49-.5-1.57-.9-2.69-.9-1.43,0-1.89.45-1.89,1.08,0,.49.28.68,1.89.95,1.96.32,3.01,1.21,3.01,2.75,0,2.05-1.4,3.28-3.93,3.28Z"/>
          <path class="cls-7" d="M117.33,563.68c-1.05,0-1.91-.61-2.38-1.44v4.29h-.73c-.84,0-1.64-.63-1.64-1.67v-5.87c0-3.22,1.4-5.46,4.72-5.46,2.5,0,4.28,2.34,4.28,4.79,0,3.12-1.5,5.37-4.25,5.37ZM116.93,555.67c-1.29,0-2.01,1.15-2.01,2.83,0,1.94.93,3.04,2.33,3.04,1.14,0,1.92-1.04,1.92-2.59,0-2.29-.74-3.28-2.24-3.28Z"/>
          <path class="cls-7" d="M127.65,553.53c2.83,0,4.46,2.34,4.46,4.92,0,2.92-1.63,5.24-4.67,5.24-2.83,0-4.46-2.32-4.46-4.9,0-2.92,1.63-5.26,4.67-5.26ZM127.44,555.69c-1.35,0-2.03,1.15-2.03,2.75,0,1.93.68,3.08,2.24,3.08,1.36,0,2.03-1.15,2.03-2.74,0-1.94-.7-3.1-2.24-3.1Z"/>
          <path class="cls-7" d="M138.1,563.68c-2.33,0-4.16-1.58-4.16-4.41v-5.53h.44c1.35,0,1.94.59,1.94,1.73v3.56c0,1.78.84,2.5,1.91,2.5.96,0,1.64-.68,1.64-2.34v-5.46h.42c1.36,0,1.94.59,1.94,1.73v3.64c0,3.03-1.38,4.57-4.13,4.57Z"/>
          <path class="cls-7" d="M149.85,556.1c-.35-.14-.75-.29-1.36-.29-1.05,0-1.63.59-1.63,2.07v5.58h-.65c-1.05,0-1.71-.54-1.71-1.55v-4.46c0-1.94,1-3.8,3.48-3.8,1.45,0,1.96.85,1.96,1.58v.86h-.09Z"/>
          <path class="cls-7" d="M158.21,563.55c-1.94,0-2.99-1.06-2.99-3.02v-10.03h.67c1.17,0,1.68.7,1.68,1.62v8.17c0,.97.49,1.28,1.59,1.28h.63v.52c0,1.04-.54,1.46-1.57,1.46Z"/>
          <path class="cls-7" d="M161.01,555.63h-.47v-.11c.47-.45.8-1.33.8-1.85,0-.34-.09-.61-.28-.81-.26-.27-.47-.49-.47-1.04,0-.74.58-1.33,1.36-1.33.91,0,1.5.72,1.5,2.05,0,1.58-1.1,3.1-2.45,3.1Z"/>
          <path class="cls-7" d="M169.21,563.63h-.47c-2.24,0-3.78-1.3-3.78-3.08s1.22-3.04,4.69-3.04h.82v-.13c0-1.37-.63-1.78-2.03-1.78-1.7,0-2.64.67-2.99,1.12h-.09v-.77c0-1.08.94-2.38,3.43-2.38,2.1,0,3.99,1.01,3.99,4.36v2.23c0,2.05-1.47,3.47-3.57,3.47ZM170.48,559.23h-.84c-1.78,0-2.29.43-2.29,1.22s.59,1.21,1.63,1.21,1.5-.5,1.5-1.49v-.94Z"/>
          <path class="cls-7" d="M178.79,563.68c-2.33,0-4.16-1.58-4.16-4.41v-5.53h.44c1.35,0,1.94.59,1.94,1.73v3.56c0,1.78.84,2.5,1.91,2.5.96,0,1.64-.68,1.64-2.34v-5.46h.42c1.36,0,1.94.59,1.94,1.73v3.64c0,3.03-1.38,4.57-4.13,4.57Z"/>
          <path class="cls-7" d="M185.96,552.21c.31-.38.73-.67,1.1-.67h.54v2.2h3.27v.99c0,.5-.44,1.15-1.4,1.15h-1.87v3.8c0,1.26.54,1.75,1.49,1.75.75,0,1.33-.11,1.7-.34h.09v.86c0,.99-.7,1.62-2.06,1.62-2.38,0-3.53-1.33-3.53-3.6v-5.83c0-.95.17-1.31.68-1.93Z"/>
          <path class="cls-7" d="M197.62,556.1c-.35-.14-.75-.29-1.36-.29-1.05,0-1.63.59-1.63,2.07v5.58h-.65c-1.05,0-1.71-.54-1.71-1.55v-4.46c0-1.94,1-3.8,3.48-3.8,1.45,0,1.96.85,1.96,1.58v.86h-.09Z"/>
          <path class="cls-7" d="M202.55,559.65h-1.54c.17,1.22,1.26,2,2.64,2,.98,0,2.13-.2,2.89-.92h.09v.76c0,1.24-.82,2.2-3.41,2.2-2.34,0-4.63-1.91-4.63-4.88,0-3.24,1.92-5.28,4.62-5.28,1.96,0,3.78,1.44,3.78,3.76,0,1.78-1.31,2.36-4.42,2.36ZM202.99,555.54c-1.14,0-1.92.95-1.98,2.07l-.02.32h1.05c2.22,0,2.73-.25,2.73-.94,0-.97-.7-1.46-1.78-1.46Z"/>
        </g>
      </g>
      <g>
        <path class="cls-7" d="M258.54,529.66h85.97v26.13c0,16.28-13.19,29.47-29.47,29.47h-56.5c-15.35,0-27.8-12.45-27.8-27.8h0c0-15.35,12.45-27.8,27.8-27.8Z"/>
        <g id="Layer_1-2" data-name="Layer 1-2">
          <g>
            <path class="cls-6" d="M273.61,569.72c-2.72,2.02-6.16,3.13-9.83,2.87-8.08-.56-14.17-7.47-13.6-15.45.38-5.45,3.78-9.99,8.47-12.14-5.68,1.79-9.96,6.84-10.4,13.07-.57,8.15,5.65,15.21,13.9,15.78,4.42.3,8.52-1.32,11.47-4.14"/>
            <path class="cls-5" d="M250.57,568.9c-2.38-3.2-3.67-7.24-3.38-11.55.65-9.49,8.78-16.64,18.15-15.98,6.41.45,11.74,4.44,14.26,9.95-2.1-6.67-8.04-11.7-15.35-12.21-9.57-.67-17.87,6.63-18.54,16.32-.36,5.19,1.55,10.01,4.86,13.47"/>
            <polygon class="cls-6" points="254.33 557.14 256.68 557.14 258.13 563.16 258.16 563.16 261.32 557.14 263.52 557.14 258.93 565.73 256.64 565.73 254.33 557.14"/>
            <path class="cls-6" d="M264.38,562.16c-.04,1.25.81,2.01,1.99,2.01,1.06,0,1.81-.49,2.43-1.15l1.36,1.15c-1.16,1.22-2.48,1.69-3.82,1.69-2.55,0-4.33-1.78-3.96-4.44s2.66-4.44,5.21-4.44c2.36,0,3.73,1.66,3.31,4.6l-.07.58h-6.45,0ZM268.93,560.58c.16-1.23-.53-2.01-1.85-2.01-1.25,0-2.15.79-2.48,2.01h4.33Z"/>
            <path class="cls-6" d="M271.2,558.98l.25-1.8h1.74l.35-2.45h2.11l-.35,2.45h2.59v1.8h-2.84l-.51,3.7c-.12.84.05,1.37.99,1.37.37,0,1.44-.42,1.74-.62l-.8,2.13c-.48.21-1.23.28-1.73.28-2.24,0-2.62-1-2.34-2.99l.55-3.88h-1.75Z"/>
            <path class="cls-6" d="M295.96,559.14c-.19-.47-.46-.86-.81-1.19s-.78-.58-1.29-.76-1.09-.26-1.73-.26c-.74,0-1.42.14-2.03.4-.61.27-1.15.64-1.6,1.11s-.8,1.02-1.05,1.65-.37,1.31-.37,2.03c0,.57.09,1.09.28,1.55.19.46.46.86.82,1.19.36.33.79.58,1.31.76.51.18,1.1.26,1.75.26.74,0,1.42-.13,2.03-.4.17-.07.32-.15.48-.24l-.43,2.68h1.83l.91-5.72c.13-.48.2-.98.2-1.5,0-.57-.1-1.09-.28-1.55M293.97,562.04c-.13.39-.31.73-.55,1.04-.24.3-.54.54-.89.72s-.74.27-1.19.27c-.35,0-.66-.06-.93-.17s-.5-.27-.68-.46c-.19-.19-.32-.42-.42-.68s-.15-.54-.15-.84c0-.41.07-.81.2-1.19.13-.39.32-.73.57-1.03.25-.3.54-.54.89-.73.35-.18.74-.28,1.17-.28.34,0,.65.06.93.17.27.11.5.27.68.46s.32.42.41.68.14.54.14.84l-.19,1.2h0Z"/>
            <path class="cls-6" d="M285.78,557.95c-.35-.33-.78-.58-1.29-.76s-1.09-.26-1.73-.26c-.74,0-1.42.14-2.03.4-.61.27-1.15.64-1.6,1.11s-.8,1.02-1.05,1.65-.37,1.31-.37,2.03c0,.57.09,1.09.28,1.55.19.47.46.86.82,1.19.36.33.79.58,1.31.76.51.18,1.1.26,1.75.26.74,0,1.42-.13,2.03-.4s1.14-.64,1.58-1.11c.44-.47.79-1.02,1.03-1.65.25-.63.37-1.31.37-2.03,0-.57-.1-1.09-.28-1.55-.19-.46-.46-.86-.81-1.19M284.6,562.04c-.13.39-.31.73-.55,1.04-.24.3-.54.54-.88.72-.35.18-.74.27-1.19.27-.35,0-.66-.06-.93-.17s-.5-.27-.68-.46-.32-.42-.42-.68-.14-.54-.14-.84c0-.41.07-.81.2-1.19s.32-.73.57-1.03c.24-.3.54-.54.89-.73.35-.18.74-.28,1.17-.28.35,0,.65.06.93.17.27.11.5.26.68.46.18.19.32.42.41.68.1.26.14.54.14.84,0,.41-.06.81-.19,1.2"/>
            <path class="cls-6" d="M301.88,562.33c-.04.22-.1.43-.17.64s-.18.41-.32.58c-.14.17-.32.31-.54.42s-.5.16-.84.16c-.26,0-.48-.04-.66-.11s-.33-.17-.44-.29c-.11-.13-.19-.27-.25-.43-.05-.16-.08-.33-.08-.51v-.24c0-.09.01-.17.03-.25l.91-5.17h-1.99l-.94,5.35c-.02.12-.03.25-.04.37-.01.13-.02.25-.02.36,0,.41.08.78.24,1.11.16.33.38.61.67.84.29.23.65.41,1.06.53.41.12.88.19,1.39.19.59,0,1.1-.08,1.55-.24.45-.16.84-.39,1.16-.67.32-.29.59-.64.79-1.05s.35-.87.43-1.38l.94-5.39h-1.97l-.93,5.19h.02Z"/>
            <path class="cls-6" d="M315.77,557.64c-.29-.23-.65-.41-1.06-.53-.41-.12-.88-.19-1.39-.19-.59,0-1.1.08-1.55.24-.45.16-.84.38-1.16.67s-.59.64-.79,1.05-.34.87-.43,1.38l-.94,5.39h1.97l.93-5.19c.04-.22.1-.43.17-.64s.18-.4.32-.58c.14-.17.32-.31.54-.42s.5-.16.84-.16c.26,0,.48.04.66.11s.33.17.44.29c.11.12.19.27.25.43.05.16.08.33.08.5v.24c0,.09-.01.17-.03.25l-.91,5.17h1.99l.94-5.35c.02-.12.03-.24.04-.37s.02-.25.02-.36c0-.41-.08-.78-.23-1.11-.16-.33-.38-.61-.67-.84"/>
            <path class="cls-6" d="M325.96,559.14c-.19-.47-.46-.86-.81-1.19s-.79-.58-1.29-.76c-.51-.18-1.09-.26-1.73-.26-.74,0-1.41.14-2.03.4-.61.27-1.15.64-1.6,1.11s-.8,1.02-1.05,1.65-.37,1.31-.37,2.03c0,.57.09,1.09.28,1.55.19.46.46.86.82,1.19.36.33.79.58,1.31.76.51.18,1.1.26,1.75.26.74,0,1.41-.13,2.03-.4.61-.27,1.14-.64,1.58-1.11.44-.47.78-1.02,1.03-1.65.24-.63.37-1.31.37-2.03,0-.57-.1-1.09-.28-1.55M323.97,562.04c-.13.39-.31.73-.55,1.04-.24.3-.54.54-.88.72-.35.18-.74.27-1.19.27-.35,0-.66-.06-.93-.17s-.5-.27-.68-.46c-.19-.19-.32-.42-.42-.68s-.14-.54-.14-.84c0-.41.07-.81.2-1.19.13-.39.32-.73.57-1.03.25-.3.54-.54.89-.73s.74-.28,1.17-.28c.34,0,.65.06.93.17.27.11.5.27.68.46s.32.42.41.68c.1.26.15.54.15.84,0,.41-.07.81-.19,1.2"/>
            <polygon class="cls-6" points="327.56 557.14 326.05 565.66 331.39 565.66 331.71 563.91 328.36 563.91 329.57 557.14 327.56 557.14"/>
            <polygon class="cls-6" points="306.81 557.14 305.47 557.14 305.17 558.89 306.5 558.89 305.3 565.66 307.32 565.66 308.82 557.14 306.81 557.14"/>
            <path class="cls-6" d="M308.09,555.37c.77,0,1.4-.63,1.4-1.4s-.63-1.4-1.4-1.4-1.4.63-1.4,1.4.63,1.4,1.4,1.4"/>
            <path class="cls-4" d="M279.75,572.74l-.21-.63h-1.23l-.21.63h-.5l1.14-3.12h.38l1.14,3.12h-.51ZM278.93,570.34l-.49,1.38h.96l-.47-1.38Z"/>
            <path class="cls-4" d="M281.61,572.78c-.34,0-.6-.11-.8-.31-.3-.31-.31-.62-.31-1.27s.01-.96.31-1.27c.2-.2.46-.32.8-.32.57,0,1,.34,1.11.96h-.48c-.07-.32-.28-.54-.63-.54-.19,0-.35.07-.46.19-.16.17-.19.35-.19.97s.03.8.19.97c.11.12.27.19.46.19.35,0,.56-.22.64-.54h.47c-.11.62-.54.96-1.11.96"/>
            <polygon class="cls-4" points="285.05 572.74 285.05 571.39 283.78 571.39 283.78 572.74 283.31 572.74 283.31 569.64 283.78 569.64 283.78 570.97 285.05 570.97 285.05 569.64 285.52 569.64 285.52 572.74 285.05 572.74"/>
            <rect class="cls-4" x="286.29" y="569.64" width=".47" height="3.12"/>
            <polygon class="cls-4" points="287.53 572.74 287.53 569.64 289.52 569.64 289.52 570.05 288.01 570.05 288.01 570.97 289.3 570.97 289.3 571.39 288.01 571.39 288.01 572.33 289.52 572.33 289.52 572.74 287.53 572.74"/>
            <polygon class="cls-4" points="291.14 572.74 290.77 572.74 289.74 569.64 290.23 569.64 290.95 571.9 291.67 569.64 292.17 569.64 291.14 572.74"/>
            <polygon class="cls-4" points="292.55 572.74 292.55 569.64 294.55 569.64 294.55 570.05 293.03 570.05 293.03 570.97 294.32 570.97 294.32 571.39 293.03 571.39 293.03 572.33 294.55 572.33 294.55 572.74 292.55 572.74"/>
            <polygon class="cls-4" points="298.43 572.74 298.43 570.66 297.71 572.18 297.37 572.18 296.63 570.66 296.63 572.74 296.16 572.74 296.16 569.64 296.63 569.64 297.54 571.56 298.43 569.64 298.9 569.64 298.9 572.74 298.43 572.74"/>
            <path class="cls-4" d="M301.48,572.46c-.2.2-.46.32-.8.32s-.6-.11-.81-.32c-.31-.31-.32-.62-.32-1.27s0-.96.32-1.27c.2-.2.46-.32.81-.32s.6.11.8.32c.31.31.31.62.31,1.27s0,.96-.31,1.27M301.14,570.22c-.12-.12-.28-.19-.46-.19s-.35.07-.46.19c-.15.17-.18.35-.18.97s.03.8.18.97c.12.12.28.2.46.2s.35-.07.46-.2c.16-.16.18-.35.18-.97s-.03-.81-.18-.97"/>
            <path class="cls-4" d="M304.18,572.74l-.66-1.31h-.59v1.31h-.47v-3.12h1.21c.59,0,.97.38.97.91,0,.45-.27.73-.62.83l.72,1.38h-.56ZM303.63,570.05h-.7v.98h.7c.31,0,.53-.18.53-.49s-.21-.49-.53-.49"/>
            <polygon class="cls-4" points="305.28 572.74 305.28 569.64 307.27 569.64 307.27 570.05 305.75 570.05 305.75 570.97 307.05 570.97 307.05 571.39 305.75 571.39 305.75 572.33 307.27 572.33 307.27 572.74 305.28 572.74"/>
            <polygon class="cls-6" points="309.94 570.05 309.94 572.74 309.46 572.74 309.46 570.05 308.6 570.05 308.6 569.64 310.79 569.64 310.79 570.05 309.94 570.05"/>
            <path class="cls-6" d="M313.01,572.46c-.2.2-.46.32-.81.32s-.6-.11-.8-.32c-.31-.31-.31-.62-.31-1.27s0-.96.31-1.27c.2-.2.46-.32.8-.32s.6.11.81.32c.31.31.31.62.31,1.27s0,.96-.31,1.27M312.67,570.22c-.12-.12-.28-.19-.46-.19s-.35.07-.46.19c-.15.17-.18.35-.18.97s.03.8.18.97c.12.12.28.2.46.2s.35-.07.46-.2c.16-.16.18-.35.18-.97s-.03-.81-.18-.97"/>
            <path class="cls-6" d="M315.85,572.41c-.23.25-.53.35-.86.35s-.6-.11-.81-.31c-.3-.31-.32-.62-.32-1.27s.01-.96.32-1.27c.2-.2.46-.31.81-.31.66,0,1.04.43,1.13.96h-.47c-.08-.34-.31-.54-.66-.54-.19,0-.35.07-.46.19-.15.17-.18.35-.18.97s.03.8.18.97c.12.12.28.19.46.19.21,0,.39-.08.51-.22.11-.13.15-.29.15-.49v-.17h-.66v-.4h1.14v.48c0,.41-.07.66-.28.88"/>
            <polygon class="cls-6" points="316.78 572.74 316.78 569.64 318.77 569.64 318.77 570.05 317.25 570.05 317.25 570.97 318.55 570.97 318.55 571.39 317.25 571.39 317.25 572.33 318.77 572.33 318.77 572.74 316.78 572.74"/>
            <polygon class="cls-6" points="320.43 570.05 320.43 572.74 319.96 572.74 319.96 570.05 319.1 570.05 319.1 569.64 321.29 569.64 321.29 570.05 320.43 570.05"/>
            <polygon class="cls-6" points="323.52 572.74 323.52 571.39 322.26 571.39 322.26 572.74 321.78 572.74 321.78 569.64 322.26 569.64 322.26 570.97 323.52 570.97 323.52 569.64 323.99 569.64 323.99 572.74 323.52 572.74"/>
            <polygon class="cls-6" points="324.77 572.74 324.77 569.64 326.76 569.64 326.76 570.05 325.24 570.05 325.24 570.97 326.53 570.97 326.53 571.39 325.24 571.39 325.24 572.33 326.76 572.33 326.76 572.74 324.77 572.74"/>
            <path class="cls-6" d="M329.08,572.74l-.66-1.31h-.59v1.31h-.47v-3.12h1.21c.59,0,.97.38.97.91,0,.45-.27.73-.62.83l.72,1.38h-.56ZM328.53,570.05h-.7v.98h.7c.31,0,.53-.18.53-.49s-.21-.49-.53-.49"/>
          </g>
        </g>
      </g>
      <path class="cls-2" d="M51.19,584.16h264.13c16.87,0,30.54-13.67,30.54-30.54V42.3c-3.17-23.78-8.98-35.5-14.17-37.81-.76-.36-1.78-.5-3.07-.5-11.72,0-43.71,14.53-72.38,38.31H111.49C82.83,18.53,50.83,3.99,39.08,3.99c-1.22,0-2.24.13-3.04.5-5.21,2.31-12.18,14.03-15.38,37.81v511.33c0,16.87,13.67,30.54,30.54,30.54h-.01Z"/>
      <rect class="cls-3" y="591.1" width="360.79" height="18.58"/>
    </g>
  </g>
</svg>