<?xml version="1.0" encoding="UTF-8"?>
<svg id="Layer_2" xmlns="http://www.w3.org/2000/svg" viewBox="0 0 51.23 51.23">
  <defs>
    <style>
      .cls-1 {
        fill: #eacc4c;
      }

      .cls-2 {
        fill: #2f487a;
      }

      .cls-3 {
        fill: #fff;
      }

      .cls-4 {
        opacity: .8;
      }
    </style>
  </defs>
  <g id="logo">
    <g>
      <g class="cls-4">
        <circle class="cls-3" cx="25.61" cy="25.61" r="25.61"/>
      </g>
      <g>
        <path class="cls-1" d="M43,34.26c-.07-.13-.19-.19-.33-.19-.35,0-.86.41-1.32.8-.29.25-.5.72-.7,1.17-.09.21-.19.42-.29.61-.32.59-1.14,1.32-2.03,1.52-.62.14-.98.31-1.33.48-.21.1-.43.21-.71.3-.11.04-.24.09-.38.14-.81.31-2.17.83-3.51.83-.12,0-.23,0-.34-.01-1.81-.13-2.78-1.69-3.12-2.36-.49-.99-1.6-2.94-2.4-4.01-.8-1.07-2.01-1.79-3.69-2.2-.73-.18-1.76-.2-2.66-.2-.32,0-.64,0-.96,0-.31,0-.63,0-.93,0-.54,0-1.24,0-1.79-.08-1.63-.21-2.26-.81-2.87-1.84-.57-.98.11-3.14.3-3.62.09-.22.3-.66.58-1.22.37-.77.84-1.72,1.22-2.6.68-1.56.77-2.59.82-3.78.04-.96.28-2.04.46-2.83.05-.22.09-.41.12-.57.14-.68.34-1.72,1.64-3.15.8-.89,1.62-1.32,2.5-1.32.31,0,.63.05.97.16.96.29,2.12,2.3,2.59,3.31.38.81,1.66,2.6,2.31,3.37.66.78,2.73,2.61,3.44,3.12.75.53,1.27.76,1.75.76.21,0,.33-.09.4-.17.18-.21.15-.54.14-.62v-.3c0-.36-.07-.64-.42-1.12-.07-.1-.15-.21-.23-.32-.3-.43-.67-.97-1.34-1.64-.76-.76-1.58-2.16-2.23-3.29l-.17-.3c-.28-.48-.59-1.1-.91-1.76-.45-.92-.92-1.87-1.38-2.55-.84-1.26-1.95-1.77-3.6-2.23-.63-.18-1.2-.26-1.76-.26-1.19,0-2.29.39-3.45,1.24-1.44,1.04-2.26,2.54-3.05,3.98-.2.37-.41.75-.62,1.1-.63,1.07-.78,2.66-.93,4.21-.1,1.05-.19,2.03-.42,2.86-.33,1.17-.89,2.3-1.44,3.39-.42.83-.81,1.61-1.06,2.34-.55,1.63-.47,4.23.94,6.35,1.39,2.08,4.33,2.9,5.46,2.95.18,0,.43.01.74.01.38,0,.83,0,1.31-.01.56,0,1.13-.01,1.7-.01.73,0,1.31.01,1.77.04,1.59.09,2.41,1.44,3.12,2.83.66,1.3,1.56,3.07,3.68,4.44.97.63,2.14.95,3.46.95,1.02,0,2.16-.18,3.48-.56,2.3-.66,5.16-3.06,5.94-3.86.65-.67.66-1.4.66-1.99,0-.23,0-.46.04-.65.06-.32.3-.57.51-.8.24-.25.48-.51.32-.8Z"/>
        <g>
          <path class="cls-2" d="M12.14,22.83c.14,0,.25-.11.25-.25s-.11-.25-.25-.25-.25.11-.25.25.11.25.25.25Z"/>
          <path class="cls-2" d="M14.68,21.99c-.14,0-.25.11-.25.25s.11.25.25.25.25-.11.25-.25-.11-.25-.25-.25Z"/>
          <circle class="cls-2" cx="13.09" cy="20.89" r=".25"/>
          <path class="cls-2" d="M14.26,20.25c0,.14.11.25.25.25s.25-.11.25-.25-.11-.25-.25-.25-.25.11-.25.25Z"/>
          <circle class="cls-2" cx="13.86" cy="18.36" r=".25"/>
          <circle class="cls-2" cx="15.54" cy="17.47" r=".25"/>
          <path class="cls-2" d="M14.2,16.09c.14,0,.25-.11.25-.25s-.11-.25-.25-.25-.25.11-.25.25.11.25.25.25Z"/>
          <circle class="cls-2" cx="15.54" cy="15.75" r=".25"/>
          <path class="cls-2" d="M13.7,14.23c.14,0,.25-.11.25-.25s-.11-.25-.25-.25-.25.11-.25.25.11.25.25.25Z"/>
          <circle class="cls-2" cx="15.81" cy="19.39" r=".25"/>
          <circle class="cls-2" cx="13.02" cy="19.72" r=".25"/>
          <circle class="cls-2" cx="15.98" cy="13.9" r=".25"/>
          <circle class="cls-2" cx="15.09" cy="12.62" r=".25"/>
          <circle class="cls-2" cx="17.47" cy="12.62" r=".25"/>
          <circle class="cls-2" cx="16.15" cy="11.98" r=".25"/>
          <circle class="cls-2" cx="16.31" cy="10.14" r=".25"/>
          <circle class="cls-2" cx="17.47" cy="10.02" r=".25"/>
          <path class="cls-2" d="M18.09,8.27c-.14,0-.25.11-.25.25s.11.25.25.25.25-.11.25-.25-.11-.25-.25-.25Z"/>
          <circle class="cls-2" cx="19.07" cy="9.98" r=".25"/>
          <circle class="cls-2" cx="19.59" cy="6.98" r=".25"/>
          <circle class="cls-2" cx="20.85" cy="8.1" r=".25"/>
          <path class="cls-2" d="M23.17,8.98c-.14,0-.25.11-.25.25s.11.25.25.25.25-.11.25-.25-.11-.25-.25-.25Z"/>
          <path class="cls-2" d="M25.68,9.93c.14,0,.25-.11.25-.25s-.11-.25-.25-.25-.25.11-.25.25.11.25.25.25Z"/>
          <path class="cls-2" d="M25.51,12.54c-.14,0-.25.11-.25.25s.11.25.25.25.25-.11.25-.25-.11-.25-.25-.25Z"/>
          <path class="cls-2" d="M26.74,15.3c.14,0,.25-.11.25-.25s-.11-.25-.25-.25-.25.11-.25.25.11.25.25.25Z"/>
          <path class="cls-2" d="M29.13,16c0-.14-.11-.25-.25-.25s-.25.11-.25.25.11.25.25.25.25-.11.25-.25Z"/>
          <path class="cls-2" d="M30.07,18.27c-.14,0-.25.11-.25.25s.11.25.25.25.25-.11.25-.25-.11-.25-.25-.25Z"/>
          <path class="cls-2" d="M12.92,24.68c.14,0,.25-.11.25-.25s-.11-.25-.25-.25-.25.11-.25.25.11.25.25.25Z"/>
          <path class="cls-2" d="M10.64,26.11c0-.14-.11-.25-.25-.25s-.25.11-.25.25.11.25.25.25.25-.11.25-.25Z"/>
          <path class="cls-2" d="M13.43,26.89c0-.14-.11-.25-.25-.25s-.25.11-.25.25.11.25.25.25.25-.11.25-.25Z"/>
          <path class="cls-2" d="M11.86,26.13c.14,0,.25-.11.25-.25s-.11-.25-.25-.25-.25.11-.25.25.11.25.25.25Z"/>
          <path class="cls-2" d="M11.15,28.17c-.14,0-.25.11-.25.25s.11.25.25.25.25-.11.25-.25-.11-.25-.25-.25Z"/>
          <path class="cls-2" d="M12.75,29.23c-.14,0-.25.11-.25.25s.11.25.25.25.25-.11.25-.25-.11-.25-.25-.25Z"/>
          <circle class="cls-2" cx="10.55" cy="30.03" r=".25"/>
          <path class="cls-2" d="M12.16,27.22c0-.14-.11-.25-.25-.25s-.25.11-.25.25.11.25.25.25.25-.11.25-.25Z"/>
          <path class="cls-2" d="M12.31,30.84c-.14,0-.25.11-.25.25s.11.25.25.25.25-.11.25-.25-.11-.25-.25-.25Z"/>
          <circle class="cls-2" cx="14.2" cy="31.7" r=".25"/>
          <path class="cls-2" d="M13.54,32.89c-.14,0-.25.11-.25.25s.11.25.25.25.25-.11.25-.25-.11-.25-.25-.25Z"/>
          <path class="cls-2" d="M17.14,31.78c-.14,0-.25.11-.25.25s.11.25.25.25.25-.11.25-.25-.11-.25-.25-.25Z"/>
          <path class="cls-2" d="M16.15,32.89c-.14,0-.25.11-.25.25s.11.25.25.25.25-.11.25-.25-.11-.25-.25-.25Z"/>
          <path class="cls-2" d="M20,31.28c-.14,0-.25.11-.25.25s.11.25.25.25.25-.11.25-.25-.11-.25-.25-.25Z"/>
          <path class="cls-2" d="M19.07,32.89c-.14,0-.25.11-.25.25s.11.25.25.25.25-.11.25-.25-.11-.25-.25-.25Z"/>
          <path class="cls-2" d="M20.55,33.44c-.14,0-.25.11-.25.25s.11.25.25.25.25-.11.25-.25-.11-.25-.25-.25Z"/>
          <path class="cls-2" d="M22.76,32.12c-.14,0-.25.11-.25.25s.11.25.25.25.25-.11.25-.25-.11-.25-.25-.25Z"/>
          <path class="cls-2" d="M23.76,34.09c-.14,0-.25.11-.25.25s.11.25.25.25.25-.11.25-.25-.11-.25-.25-.25Z"/>
          <path class="cls-2" d="M26.9,34.53c-.14,0-.25.11-.25.25s.11.25.25.25.25-.11.25-.25-.11-.25-.25-.25Z"/>
          <path class="cls-2" d="M26.46,38.9c-.14,0-.25.11-.25.25s.11.25.25.25.25-.11.25-.25-.11-.25-.25-.25Z"/>
          <path class="cls-2" d="M26.31,36.94c0-.14-.11-.25-.25-.25s-.25.11-.25.25.11.25.25.25.25-.11.25-.25Z"/>
          <path class="cls-2" d="M28.4,38.73c-.14,0-.25.11-.25.25s.11.25.25.25.25-.11.25-.25-.11-.25-.25-.25Z"/>
          <path class="cls-2" d="M29.1,40.6c-.14,0-.25.11-.25.25s.11.25.25.25.25-.11.25-.25-.11-.25-.25-.25Z"/>
          <path class="cls-2" d="M31.4,40.44c-.14,0-.25.11-.25.25s.11.25.25.25.25-.11.25-.25-.11-.25-.25-.25Z"/>
          <path class="cls-2" d="M34.53,41.46c-.14,0-.25.11-.25.25s.11.25.25.25.25-.11.25-.25-.11-.25-.25-.25Z"/>
          <path class="cls-2" d="M37.28,38.9c-.14,0-.25.11-.25.25s.11.25.25.25.25-.11.25-.25-.11-.25-.25-.25Z"/>
          <path class="cls-2" d="M40.71,37.89c-.14,0-.25.11-.25.25s.11.25.25.25.25-.11.25-.25-.11-.25-.25-.25Z"/>
        </g>
      </g>
    </g>
  </g>
</svg>