<?xml version="1.0" encoding="UTF-8"?>
<svg id="Layer_2" xmlns="http://www.w3.org/2000/svg" viewBox="0 0 51.23 51.23">
  <defs>
    <style>
      .cls-1 {
        fill: #bf3068;
      }

      .cls-2 {
        fill: #fff;
      }

      .cls-3 {
        opacity: .8;
      }

      .cls-4 {
        fill: #2f4174;
      }
    </style>
  </defs>
  <g id="logo">
    <g>
      <g class="cls-3">
        <circle class="cls-2" cx="25.61" cy="25.61" r="25.61"/>
      </g>
      <g>
        <path class="cls-4" d="M21.42,11.57s-.04,0-.06-.01l-2.23-.91c-.09-.04-.13-.14-.09-.22.04-.09.14-.13.22-.09l2.23.91c.09.04.13.14.09.22-.03.07-.09.11-.16.11"/>
        <path class="cls-4" d="M21.05,8.53s-.07,0-.1-.03l-1.79-1.23c-.08-.05-.1-.16-.04-.24.05-.08.16-.1.24-.04l1.79,1.23c.08.05.1.16.04.24-.03.05-.09.07-.14.07"/>
        <path class="cls-4" d="M22.11,11.36s-.09-.02-.13-.06c-.06-.07-.06-.18.01-.24l1.4-1.24c.07-.06.18-.06.24.01.06.07.06.18-.01.24l-1.4,1.24s-.07.04-.11.04"/>
        <path class="cls-4" d="M21.12,8.61s-.07-.01-.1-.03c-.08-.06-.09-.16-.04-.24l1.25-1.74c.05-.08.16-.09.24-.04s.09.16.04.24l-1.25,1.74s-.09.07-.14.07"/>
        <path class="cls-4" d="M29.69,11.57c-.07,0-.13-.04-.16-.11-.04-.09,0-.19.09-.22l2.23-.91c.09-.04.19,0,.22.09.04.09,0,.19-.09.22l-2.23.91s-.04.01-.06.01"/>
        <path class="cls-4" d="M30.06,8.53c-.05,0-.11-.03-.14-.07-.05-.08-.03-.18.04-.24l1.79-1.23c.08-.05.18-.03.24.04.05.08.03.18-.04.24l-1.79,1.23s-.06.03-.1.03"/>
        <path class="cls-4" d="M29,11.36s-.08-.01-.11-.04l-1.4-1.24c-.07-.06-.08-.17-.01-.24.06-.07.17-.08.24-.01l1.4,1.24c.07.06.08.17.01.24-.03.04-.08.06-.13.06"/>
        <path class="cls-4" d="M29.99,8.61c-.05,0-.11-.02-.14-.07l-1.25-1.74c-.05-.08-.04-.18.04-.24s.18-.04.24.04l1.25,1.74c.05.08.04.18-.04.24-.03.02-.07.03-.1.03"/>
        <path class="cls-4" d="M33.32,17.1c-.08,0-.16-.06-.17-.15-.01-.09.05-.18.14-.19l2.39-.34c.09-.01.18.05.19.15.01.09-.05.18-.15.19l-2.39.34s-.02,0-.02,0"/>
        <path class="cls-4" d="M34.12,14.35c-.07,0-.13-.04-.16-.11-.03-.09.01-.19.1-.22l2.03-.76c.09-.03.19.01.22.1.03.09-.01.19-.1.22l-2.03.76s-.04.01-.06.01"/>
        <path class="cls-4" d="M32.91,16.14c-.08,0-.15-.05-.17-.13l-.86-3.38c-.02-.09.03-.18.12-.21.09-.02.18.03.21.12l.86,3.38c.02.09-.03.18-.12.21-.01,0-.03,0-.04,0"/>
        <path class="cls-4" d="M34.71,13.11c-.07,0-.13-.04-.16-.11l-.79-1.99c-.03-.09,0-.19.1-.22.09-.03.19,0,.22.1l.79,1.99c.03.09,0,.19-.1.22-.02,0-.04.01-.06.01"/>
        <path class="cls-4" d="M17.72,17.1s-.02,0-.02,0l-2.39-.34c-.09-.01-.16-.1-.15-.19.01-.09.1-.16.19-.15l2.39.34c.09.01.16.1.15.19-.01.09-.09.15-.17.15"/>
        <path class="cls-4" d="M16.92,14.35s-.04,0-.06-.01l-2.03-.76c-.09-.03-.13-.13-.1-.22.03-.09.13-.13.22-.1l2.03.76c.09.03.13.13.1.22-.03.07-.09.11-.16.11"/>
        <path class="cls-4" d="M18.13,16.14s-.03,0-.04,0c-.09-.02-.15-.12-.12-.21l.86-3.38c.02-.09.12-.15.21-.12.09.02.15.12.12.21l-.86,3.38c-.02.08-.09.13-.17.13"/>
        <path class="cls-4" d="M16.33,13.11s-.04,0-.06-.01c-.09-.03-.13-.13-.1-.22l.79-1.99c.03-.09.13-.13.22-.1.09.03.13.13.1.22l-.79,1.99c-.03.07-.09.11-.16.11"/>
        <path class="cls-4" d="M16.06,34.4s-.08-.01-.11-.04l-1.8-1.61c-.07-.06-.08-.17-.01-.24.06-.07.17-.08.24-.01l1.8,1.61c.07.06.08.17.01.24-.03.04-.08.06-.13.06"/>
        <path class="cls-4" d="M12.7,35.21s-.06,0-.08-.02l-1.89-1.07c-.08-.05-.11-.15-.06-.23.05-.08.15-.11.23-.06l1.89,1.07c.08.05.11.15.06.23-.03.06-.09.09-.15.09"/>
        <path class="cls-4" d="M14.11,36.59s-.07-.01-.1-.03c-.08-.05-.09-.16-.04-.24l2.03-2.83c.05-.08.16-.09.24-.04.08.05.09.16.04.24l-2.03,2.83s-.09.07-.14.07"/>
        <path class="cls-4" d="M10.88,36.73s-.1-.02-.13-.06c-.06-.07-.05-.18.02-.24l1.75-1.48c.07-.06.18-.05.24.02.06.07.05.18-.02.24l-1.75,1.48s-.07.04-.11.04"/>
        <path class="cls-4" d="M35.24,34.4s-.09-.02-.13-.06c-.06-.07-.06-.18.01-.24l1.8-1.61c.07-.06.18-.06.24.01.06.07.06.18-.01.24l-1.8,1.61s-.07.04-.11.04"/>
        <path class="cls-4" d="M38.6,35.21c-.06,0-.12-.03-.15-.09-.05-.08-.02-.19.06-.23l1.89-1.07c.08-.05.19-.02.23.06.05.08.02.19-.06.23l-1.89,1.07s-.06.02-.08.02"/>
        <path class="cls-4" d="M37.19,36.59c-.05,0-.11-.02-.14-.07l-2.03-2.83c-.05-.08-.04-.18.04-.24.08-.06.18-.04.24.04l2.03,2.83c.05.08.04.18-.04.24-.03.02-.07.03-.1.03"/>
        <path class="cls-4" d="M40.42,36.73s-.08-.01-.11-.04l-1.74-1.48c-.07-.06-.08-.17-.02-.24.06-.07.17-.08.24-.02l1.74,1.48c.07.06.08.17.02.24-.03.04-.08.06-.13.06"/>
        <path class="cls-4" d="M21.56,44.36c-.08,0-.15-.06-.17-.14-.02-.09.05-.18.14-.2,1.73-.3,3.03-2.99,3.04-3.02.04-.08.14-.12.23-.08.09.04.12.14.08.23-.06.12-1.39,2.87-3.29,3.21-.01,0-.02,0-.03,0"/>
        <path class="cls-4" d="M28.3,44.25s-.03,0-.04,0c-1.52-.4-1.81-3.04-1.82-3.15,0-.09.06-.18.15-.19.09-.01.18.06.19.15,0,.03.28,2.52,1.57,2.86.09.02.15.12.12.21-.02.08-.09.13-.16.13"/>
        <path class="cls-4" d="M38.47,27.99c-.89,0-1.44-.38-1.92-.72-.44-.31-.82-.57-1.41-.57-1.29,0-3.08,1.02-3.1,1.03-.08.05-.19.02-.23-.06-.05-.08-.02-.19.06-.23.08-.04,1.89-1.08,3.27-1.08.7,0,1.16.32,1.6.63.46.32.94.66,1.73.66.68,0,.91-.52.92-.54.04-.09.14-.13.22-.09.09.04.13.14.09.22-.01.03-.32.75-1.23.75"/>
        <path class="cls-4" d="M19.67,27.59c-.65,0-1.4-.06-1.99-.3-.65-.26-.96-.72-1.26-1.18-.31-.47-.63-.96-1.37-1.25-.63-.25-1.04.15-1.05.17-.07.07-.17.07-.24,0-.07-.07-.07-.17,0-.24.02-.02.58-.58,1.42-.24.83.33,1.2.88,1.53,1.38.3.45.55.83,1.1,1.05,1.2.47,3.24.18,3.26.18.09-.01.18.05.19.14.01.09-.05.18-.14.19-.05,0-.67.1-1.44.1"/>
        <path class="cls-1" d="M33.72,29.71c-.08-1.1-.37-1.96-.75-2.58.83-.94,1.37-2.49,1.37-4.25,0-1.31-.3-2.5-.79-3.41.59-5.19,2.49-7.52,1.96-7.85-.51-.31-1.64,1.01-3.74,6.18-.08-.03-.17-.05-.25-.06-.21-.44-.48-.83-.8-1.14-1.22-6.18.37-9.43-.27-9.64-.63-.2-1.52,1.75-2.38,8.89-.15.04-.3.1-.45.17-.14-2.28-1-4.03-2.04-4.03s-1.9,1.75-2.04,4.03c-.16-.08-.32-.14-.48-.18-.86-7.14-1.75-9.08-2.38-8.88-.65.21.95,3.47-.28,9.68-.3.3-.56.67-.75,1.09-.12.02-.23.05-.34.1-2.11-5.19-3.25-6.53-3.76-6.21-.53.33,1.42,2.71,1.98,8.02-.44.89-.7,2.02-.7,3.24,0,1.83.58,3.43,1.46,4.35-.36.61-.62,1.44-.69,2.48,0,0,0,0,0,.01-.03.17-.05.35-.06.52-.79,4.91-7.03,4.23-6.93,4.92.07.52,4.26.9,7.49-1.06.12.26.25.5.39.71-.42,2.59-.94,4.46.3,6.49,1.77,2.88,4.16.44,6.8.44s5.03,2.44,6.8-.44c1.24-2.02.72-3.9.3-6.49.16-.23.3-.49.43-.78,3.25,2.04,7.53,1.66,7.61,1.13.1-.72-6.59.04-6.99-5.46"/>
        <path class="cls-4" d="M25.49,20.04l-.05.17c-.53,1.92.1,6.07.13,6.25l.11.72.06-.72c.45-5.42-.12-6.24-.15-6.27l-.1-.14Z"/>
        <path class="cls-4" d="M20.5,20.16c-.1,0-.23.05-.26.36v.09s.09,0,.09,0h0c.48,0,.52.93.54,1.54v.22s.04.02.04.02c1.22.82,1.73,2.94,1.47,3.93,0,.04-.01.07-.02.09-.06-.07-.14-.26-.19-.37-.03-.07-.06-.14-.09-.19l-.03-.05h-.06c-.32.03-.35.24-.35.33.01.33.48.86.76.86,0,0,.02,0,.03,0,.23,0,.5-.13.53-.71.11-1.68-1.8-6.07-2.47-6.12"/>
        <path class="cls-4" d="M30.9,20.52c-.03-.31-.16-.36-.26-.35-.68.06-2.58,4.44-2.47,6.12.04.57.3.7.53.7,0,0,.02,0,.03,0,.28,0,.74-.53.76-.86,0-.09-.02-.3-.35-.33h-.06s-.03.05-.03.05c-.03.06-.06.12-.09.19-.05.11-.14.29-.19.37,0-.02-.01-.05-.02-.1-.26-.98.25-3.1,1.47-3.92l.04-.02v-.22c.03-.61.07-1.53.55-1.53h.1s-.01-.09-.01-.09Z"/>
      </g>
    </g>
  </g>
</svg>