<?xml version="1.0" encoding="UTF-8"?>
<svg id="Layer_2" xmlns="http://www.w3.org/2000/svg" viewBox="0 0 49.69 49.69">
  <defs>
    <style>
      .cls-1 {
        fill: #fff;
        opacity: .8;
      }

      .cls-2 {
        fill: #4fa6ae;
      }

      .cls-3 {
        fill: #2f4174;
      }
    </style>
  </defs>
  <g id="logo">
    <g>
      <path class="cls-1" d="M24.84,0C11.14,0,0,11.14,0,24.84s11.14,24.84,24.84,24.84,24.84-11.14,24.84-24.84S38.54,0,24.84,0"/>
      <path class="cls-3" d="M29.07,14.42c0-.88-.83-1.6-1.85-1.6s-1.85.72-1.85,1.6.83,1.6,1.85,1.6,1.85-.72,1.85-1.6"/>
      <path class="cls-3" d="M21.16,19.47c0-.88-.83-1.6-1.85-1.6s-1.85.72-1.85,1.6.83,1.6,1.85,1.6,1.85-.72,1.85-1.6"/>
      <path class="cls-3" d="M15.37,26.12c0-.88-.83-1.6-1.85-1.6s-1.85.72-1.85,1.6.83,1.6,1.85,1.6,1.85-.72,1.85-1.6"/>
      <path class="cls-3" d="M16.69,33.95c0-.88-.83-1.6-1.85-1.6s-1.85.72-1.85,1.6.83,1.6,1.85,1.6,1.85-.72,1.85-1.6"/>
      <path class="cls-3" d="M22.75,42.44c0-.88-.83-1.6-1.85-1.6s-1.85.72-1.85,1.6.83,1.6,1.85,1.6,1.85-.72,1.85-1.6"/>
      <path class="cls-3" d="M31.24,37.65c0-.88-.83-1.6-1.85-1.6s-1.85.72-1.85,1.6.83,1.6,1.85,1.6,1.85-.72,1.85-1.6"/>
      <path class="cls-2" d="M37.07,6.8c-.07-.1-.17-.2-.3-.31,0,0-.36-.31-.93,0,0,0,.13-1.45-1.64-1.46,0,0,1.15.58.87,1.36,0,0-1.38-1.4-2.1-.92,0,0,1.4.56,1.2,1.16l-1.08.26s-.18-1.17-1.09-.92c-.91.25-1.69.99-1.74,1.41-.05.43-.4,1.3-.4,1.3l-1.95,1.44s-.68.47-1.13,1.1c-.45.63-.89,1.51-.14,2.29l1.31,1.67c.58.91,1.54.7,2.26.41.72-.29,1.34-.83,1.34-.83l1.87-1.54s.93-.13,1.36-.07c.43.06,1.33-.52,1.79-1.35.46-.82-.63-1.28-.63-1.28l.51-.98c.64-.05.84,1.44.84,1.44.64-.58-.39-2.26-.39-2.26.82-.07,1.11,1.18,1.11,1.18.41-1.73-1.03-1.95-1.03-1.95.43-.48.22-.9.22-.9-.07-.16-.15-.28-.23-.37"/>
      <path class="cls-2" d="M20.24,22.04c-1.54,1.56-4.17,6.16-6.7,3.32-2.59-2.18,1.53-5.15,2.74-6.79,2.09-2.44,6.11,1.09,3.96,3.48"/>
      <path class="cls-2" d="M14.96,26.61c.62,2.11,3.36,6.64-.35,7.46-3.16,1.21-3.76-3.84-4.61-5.69-1.12-3.01,3.92-4.82,4.96-1.77"/>
      <path class="cls-2" d="M18.36,34.57c1.51,2.12,6.33,6.12,2.51,8.48-3.06,2.58-5.7-2.84-7.36-4.57-2.42-2.93,2.51-6.91,4.86-3.91"/>
      <path class="cls-2" d="M22.31,39.56c2.5-.84,7.77-4.39,9.02.18,1.67,3.89-4.38,4.8-6.55,5.92-3.55,1.5-6.07-4.71-2.47-6.1"/>
      <path class="cls-2" d="M26.32,33.49c.87-3.02.86-10.62,6.44-8.7,5.16,1.02,1.91,7.57,1.56,10.46-.92,4.5-9.05,2.72-8-1.76"/>
      <path class="cls-2" d="M26.88,17.94c-1.81.87-5.48,4.02-6.78.8-1.56-2.66,2.9-3.96,4.44-5,2.55-1.46,4.93,2.8,2.34,4.2"/>
      <path class="cls-3" d="M31.84,8.1c-.35.27-.77.31-.94.09-.17-.22-.03-.62.32-.89.35-.27.77-.31.94-.09.17.22.03.62-.32.89"/>
      <path class="cls-3" d="M35.26,12.19c-.35.27-.77.31-.94.09-.17-.22-.03-.62.32-.89.35-.27.77-.31.94-.09.17.22.03.62-.32.89"/>
      <path class="cls-3" d="M35.55,7.8c-.27-.35-.31-.77-.09-.94.22-.17.62-.03.89.32.27.35.31.77.09.94-.22.17-.62.03-.89-.32"/>
    </g>
  </g>
</svg>