<?xml version="1.0" encoding="UTF-8"?>
<svg id="Layer_2" xmlns="http://www.w3.org/2000/svg" xmlns:xlink="http://www.w3.org/1999/xlink" viewBox="0 0 51.23 51.23">
  <defs>
    <style>
      .cls-1 {
        fill: none;
      }

      .cls-2 {
        fill: #fff;
        opacity: .8;
      }

      .cls-3 {
        fill: #bf3068;
      }

      .cls-4 {
        fill: #2f4174;
      }

      .cls-5 {
        clip-path: url(#clippath);
      }
    </style>
    <clipPath id="clippath">
      <path class="cls-1" d="M18.76,41.85s0,0,0,0c0,0,0,0,0,0M16.36,40.48s0,0,0,0c0,0,0,0,0,0M22.92,35.75h0,0s0,0,0,0M13.4,30.71h0,0s0,0,0,0M12.44,29.63h0,0s0,0,0,0M20.22,29.15h0s0,0,0,0h0ZM15.52,28.46c.15-.12.3-.24.45-.36.08.05.15.09.23.14.07.04.14.08.21.12-.16.04-.33.09-.49.14-.29.09-.57.19-.85.3.15-.11.31-.22.46-.34M16.47,25.88s0,0,0-.01c0,.02.02.04.03.05-.01-.01-.02-.03-.03-.04M22.76,12.71l-2.79.35c-1.56-.02-3.11.04-4.59.2-.19,0-.39.01-.6.04,0-.06,0-.12.02-.18.02-.13-.11-.23-.23-.19-.71.26-1.4.58-2.05.97-.2.12-.45.26-.7.42-.08.05-.17.09-.25.14-2.34,1.35-3.75,3.3-3.14,4.35.14.25.38.42.7.53,1.21.88,1.98,2.4,2.37,3.13.09.17.34.09.32-.1-.06-.54-.31-1.24-.58-1.87-.08-.19.17-.33.3-.17,0,0,.01.02.02.02.12.15.36.02.3-.16-.1-.29-.24-.59-.35-.86.5.17.98.34,1.43.51-.2.48-.26,1.32-.12,2.78.03.26.08.53.14.8v.05s.03.08.03.08c.2.72.51,1.45.87,2.07,0,0,0,0,0,0,.05.08.09.16.14.24,0,.01.01.02.02.04,0,0,0,.01.01.02.09.15.18.28.27.41.14.21.29.41.45.61.18.23.37.46.59.67-.07.01-.13.03-.2.04-.39.08-.76.18-1.14.29-.37.11-.75.22-1.09.4-.17.09-.34.18-.5.29-.08.05-.16.12-.22.22-.02.02-.03.05-.04.08l-.02.04s-.01.03-.02.05c0,.02-.01.03-.02.05,0,.02-.01.04-.01.06v.06s-.02.03-.02.03v.02s0,.02,0,.02l-.13.13c-.12.29-.21.56-.3.84-.09.28-.17.55-.25.83-.16.55-.31,1.1-.45,1.66l-.1.42-.1.42c-.07.28-.13.55-.2.83-.07.27-.14.55-.23.82-.04.13-.09.27-.14.39-.03.06-.06.13-.09.18-.04.06-.07.11-.13.15h0s-.02.03,0,.04c0,.02.03.02.04.01.07-.04.13-.09.18-.14.05-.06.09-.12.14-.18.08-.12.15-.25.22-.38.13-.26.24-.53.34-.8.1-.27.19-.54.28-.81.04-.14.09-.27.13-.41.04-.14.08-.27.12-.41.16-.55.3-1.1.46-1.64.08-.27.16-.54.26-.81.05-.13.1-.26.15-.39.03-.07.06-.14.09-.2h0s.05.03.05.03c.02,0,.03.02.05.02.02,0,.03.01.05.02.02,0,.03.01.05.02h.05s.06.03.09.03c.11.02.21,0,.31-.03.06-.02.12-.04.17-.06-.03.04-.06.08-.08.12-.01.03-.02.05-.04.08l-.02.05s0,.03-.01.05c0,.02,0,.03-.01.05,0,.02,0,.04,0,.06v.06s0,.03,0,.03v.02s0,.02,0,.02l-.12.14h0c-.09.3-.15.58-.21.86-.06.28-.11.57-.17.85-.11.56-.2,1.13-.28,1.69l-.06.42-.06.42c-.04.28-.08.56-.12.84-.04.28-.09.56-.15.83-.03.14-.06.27-.11.4-.02.07-.05.13-.07.19-.03.06-.06.12-.11.17h0s-.01.03,0,.04c0,.01.03.02.04,0,.07-.04.12-.1.16-.16.04-.06.08-.12.12-.19.07-.13.13-.27.18-.4.1-.27.18-.55.26-.83.07-.28.14-.56.2-.84.03-.14.06-.28.09-.42.03-.14.06-.28.08-.42.11-.56.19-1.12.3-1.68.05-.28.11-.55.18-.83.04-.14.07-.27.11-.4.02-.07.05-.14.07-.21h0s.06.03.06.03c.02,0,.04.01.05.02.02,0,.03.01.05.02.02,0,.03,0,.05.01h.05s.06.02.09.02c.11,0,.21-.02.3-.06.18-.07.36-.15.52-.25.34-.18.64-.42.95-.67.3-.24.6-.49.89-.76.14-.13.29-.27.42-.42l.1-.11s.07-.07.1-.11c.07-.08.13-.15.2-.24h0l.03-.14.03-.05s.02-.03.02-.04l.05-.09c.02-.05.04-.1.05-.15,0-.02.01-.04.01-.06v-.03s0-.03,0-.03c0-.04,0-.07,0-.1-.03-.11-.07-.22-.1-.33-.03-.11-.07-.21-.11-.32,0,0,0,0,0,0,.11.15.23.29.37.42.03.03.06.05.09.08.05.07.1.15.15.22.13.19.26.37.41.55.12.14.26.27.4.4-.08.13-.16.27-.24.4-.22.38-.42.76-.62,1.15-.19.39-.37.78-.54,1.18-.04.1-.08.2-.12.3-.04.1-.05.21-.02.34.03.13.09.27.14.4.04.13.05.25.03.36v.04c-.04.16-.06.31-.08.47l-.38,1.06c-.12.34-.08.71.07.84,0,0,0,.02,0,.03,0,0,0,0,0,0l-.37,1.02c-.1.27-.07.57.05.67-.1.57-.21,1.13-.28,1.71-.04.32-.08.65-.1.98,0,.17-.01.33,0,.5,0,.09,0,.17.02.26,0,.05.02.09.04.14.01.03.02.05.05.08.01.01.03.03.05.04.02.01.04.02.07.03.06.01.12-.02.13-.08.01-.05-.02-.11-.07-.13,0,0,0-.01-.01-.03,0-.03-.01-.06-.02-.1,0-.07,0-.15,0-.23,0-.16.02-.32.04-.47.02-.16.04-.32.06-.48.02-.16.05-.32.07-.48.09-.55.19-1.1.29-1.65h.02c.17.05.36-.23.39-.56l.08-1.09s0-.02,0-.03c.19-.02.39-.34.42-.71l.11-1.37c0-.09,0-.17,0-.25.05-.09.14-.17.25-.24.12-.07.26-.14.37-.21.11-.08.18-.17.21-.27.03-.1.07-.21.1-.31.07-.21.13-.42.19-.63.06-.21.11-.42.17-.64.1-.43.19-.86.24-1.31,0-.07.02-.14.02-.2l.07.04.08.05s.05.03.09.04c.07.02.15.03.25.02.01,0,.03,0,.04,0h.04s.06-.02.09-.02c.03,0,.06-.02.1-.03-.18.33-.35.67-.5,1-.18.4-.35.8-.5,1.2-.15.41-.29.81-.42,1.23-.03.1-.06.21-.09.31-.03.1-.03.22.02.34.04.12.12.26.17.38.05.13.08.25.06.35v.04c-.02.16-.03.32-.03.47l-.28,1.09c-.09.35-.02.72.15.83,0,0,0,.02,0,.03,0,0,0,0,0,0l-.27,1.05c-.07.28-.01.57.12.66-.05.57-.09,1.15-.12,1.73-.01.33-.02.66,0,.99,0,.17.02.33.04.5.01.08.03.17.05.26.01.04.03.09.05.14.01.02.03.05.05.08.01.01.03.03.05.04.02.01.05.02.07.02.06,0,.12-.04.12-.1,0-.05-.03-.11-.08-.12,0,0,0-.01-.01-.02-.01-.02-.02-.06-.03-.09-.02-.07-.02-.15-.03-.23-.01-.16-.01-.32,0-.48,0-.16,0-.32.02-.48,0-.16.02-.32.03-.48.04-.56.08-1.11.13-1.67h.02c.17.03.34-.27.33-.6l-.02-1.09s0-.02,0-.03c.19-.04.35-.38.34-.75l-.03-1.37c0-.09-.01-.17-.03-.24.04-.1.12-.19.23-.27.11-.08.24-.16.34-.25.1-.09.16-.18.19-.29.02-.11.05-.21.07-.32.05-.21.09-.43.13-.64.04-.22.07-.43.1-.65.06-.44.1-.88.12-1.33,0-.22,0-.45,0-.68,0-.06,0-.11-.01-.17,0-.06,0-.11-.01-.17-.01-.11-.03-.23-.05-.35l-.04-.14s.05-.07.07-.11c.02-.03.04-.07.05-.1.02-.03.03-.06.04-.09l.02-.04s.01-.03.01-.04c.04-.1.05-.18.05-.25,0-.03,0-.06-.02-.09l-.02-.09-.05-.18c-.06-.24-.13-.47-.22-.69-.09-.22-.2-.42-.33-.61-.13-.19-.27-.37-.41-.54-.17-.2-.34-.39-.52-.58,0-.02-.02-.03-.02-.05,0-.02-.02-.04-.03-.05.13-.21.25-.43.37-.67.04.12.09.24.14.36.06.16.13.31.2.47.03.08.07.15.1.23l.11.23.09.12.18.31.17.31c.12.21.23.41.36.61.13.2.27.38.43.56.08.09.16.17.24.26.04.04.08.08.12.13.04.04.08.08.12.13.17.17.34.33.51.49.18.16.36.31.56.45.19.14.39.28.59.42l.3.21.04.03s.02.02.04.02c.03.01.06.02.11.03.03,0,.07,0,.11,0,0,0,0,0,0,0-.19.33-.37.67-.54,1.01-.23.46-.43.92-.63,1.38-.2.47-.38.93-.56,1.41-.09.24-.17.47-.25.71-.04.12-.04.25-.02.39.01.07.03.14.07.22,0,.02.02.04.03.06l.02.03.02.03s.05.08.09.13l-.02.09c0,.15,0,.31-.01.47,0,.02-.01.04-.02.07l-.37,1.58c-.1.45-.02.9.18.98,0,.02-.01.04-.02.06l-.29,1.27c-.09.39,0,.78.18.79h.03c-.05.82-.08,1.63-.08,2.45,0,.43.01.86.06,1.29.02.22.05.43.1.65.03.11.06.21.11.32.02.05.05.11.09.16.03.05.08.1.13.14.04.03.1.02.13-.02.03-.04.02-.1-.02-.13h0c-.06-.05-.11-.13-.15-.22-.04-.09-.06-.19-.08-.29-.04-.2-.06-.41-.07-.62-.02-.42-.02-.84,0-1.27.04-.83.11-1.66.2-2.49.12-.12.22-.4.22-.69v-1.16c0-.07,0-.15.02-.22.18-.12.33-.5.32-.9v-1.61c0-.06-.01-.11-.02-.16.01-.1.02-.21.03-.31.05-.01.1-.03.14-.05h.03s.03-.03.03-.03c.02,0,.04-.02.06-.03.07-.04.13-.09.19-.14.11-.1.18-.21.22-.32.08-.24.16-.48.23-.72.15-.48.28-.97.41-1.46.12-.49.24-.98.33-1.48.06-.32.12-.64.16-.97.04.02.08.05.13.07l.32.18.04.02s.03.01.04.02c.03.01.07.02.11.01.03,0,.07,0,.11-.02-.16.35-.3.71-.44,1.06-.18.48-.34.96-.5,1.44-.15.48-.29.97-.42,1.45-.06.24-.13.49-.18.73-.02.12-.02.25.02.39.02.07.05.14.09.21.01.02.02.04.03.06l.02.03.02.03s.06.08.1.12v.09s0,0,0,0c.01.15.02.31.03.47,0,.02,0,.04-.01.07l-.22,1.61c-.06.46.07.9.27.96,0,.02,0,.04,0,.06l-.17,1.29c-.05.39.08.77.26.77h.03c.03.81.08,1.63.16,2.44.04.43.1.85.18,1.28.04.21.09.42.17.63.04.1.08.21.14.31.03.05.06.1.1.15.04.05.09.09.15.13.04.02.1.01.13-.03.03-.04.01-.1-.03-.13h0c-.07-.04-.12-.12-.17-.21-.04-.09-.08-.18-.11-.28-.06-.2-.1-.4-.13-.61-.06-.41-.1-.84-.12-1.26-.05-.83-.05-1.66-.05-2.5.11-.13.18-.42.15-.71l-.12-1.15c0-.08,0-.15,0-.23.17-.13.28-.53.23-.93l-.17-1.61c0-.06-.01-.11-.02-.16,0-.1,0-.21,0-.31.05-.02.09-.04.13-.06l.03-.02.03-.02s.04-.02.05-.04c.07-.05.13-.1.17-.15.1-.11.16-.22.19-.34.06-.25.11-.49.16-.74.1-.49.19-.99.27-1.49.08-.5.14-1,.19-1.51.05-.51.08-1.02.08-1.53l-.07-.26c.04-.08.07-.15.08-.21.02-.06.02-.11.02-.15,0-.04,0-.08-.02-.11,0-.02-.01-.03-.02-.04l-.02-.04-.18-.32c-.12-.21-.24-.42-.37-.63-.13-.2-.26-.4-.4-.59-.14-.19-.28-.38-.44-.56-.04-.05-.08-.09-.11-.13-.04-.04-.08-.09-.12-.13-.08-.09-.15-.18-.24-.26-.16-.17-.33-.33-.51-.48-.18-.15-.38-.28-.57-.42l-.15-.1c-.08-.1-.17-.19-.27-.29.07-.1.14-.2.21-.31,1.57,1.43,2.46,2.56,3.64,3.07.98,1.11,2.29,2.03,4.21,2.53.09,0,.18.01.27.02.37.15.78.23,1.15.28.4.05.8.04,1.2.02.21-.01.41-.05.62-.05.04,0,.07,0,.11,0,.05,0,.09,0,.14,0,.05,0,.07-.08.02-.1-.07-.03-.13-.07-.19-.13-.01-.01-.03-.03-.04-.05,1.24-.12,2.29-.38,3.21-.73.63-.16,1.27-.43,1.68-.63.04-.02.03-.07,0-.08-.04-.02-.09-.03-.14-.04.35-.21.67-.43.98-.66.33-.12.65-.27.96-.44.26-.15.51-.32.75-.5.11-.09.22-.19.33-.28.02-.01.22-.2.21-.23,0,0,0,0,0,0-.13-.02-.32-.04-.5-.09,1.07-1.06,1.98-2.09,3.09-2.73.9-.51.77-1.65-.14-2.99.05-.01.09-.03.14-.03.09-.02.13-.13.07-.2-.1-.11-.2-.25-.27-.32-.23-.23-.5-.42-.75-.63-.36-.3-.71-.59-1.07-.89-.05-.04-.09-.08-.14-.12.15-.08.3-.17.46-.19.06-.01.07-.09.02-.12-.71-.37-1.45-.67-2.18-1-.87-.6-1.84-1.17-2.9-1.69.09-.17.17-.34.19-.44,0-.04,0-.07-.02-.07-.44-.19-.94-.28-1.4-.4-.56-.15-1.13-.3-1.69-.44-.43-.11-.89-.2-1.35-.26-.51-.14-1.03-.26-1.55-.37-.39-.08-.77-.14-1.14-.19l.17-.44c.03-.08-.03-.16-.11-.16-.61.01-2.57-.18-3.42-.24-1.42-.2-2.99-.37-4.61-.48,0-.05.02-.11.03-.16.04-.16-.09-.32-.25-.32-.01,0-.02,0-.03,0"/>
    </clipPath>
  </defs>
  <g id="logo">
    <g>
      <circle class="cls-2" cx="25.61" cy="25.61" r="25.61"/>
      <g>
        <g>
          <path class="cls-3" d="M44.57,21.89s.09-.03.14-.03c.09-.02.13-.13.07-.2-.1-.11-.2-.24-.27-.32-.23-.23-.5-.42-.75-.63-.36-.3-.71-.59-1.07-.89-.05-.04-.09-.08-.14-.12.15-.08.3-.17.46-.19.06-.01.07-.09.02-.12-.71-.37-1.46-.67-2.19-1.01-.86-.59-1.83-1.17-2.89-1.68.09-.17.17-.34.19-.44,0-.04,0-.07-.02-.07-.44-.19-.94-.28-1.4-.4-.56-.15-1.13-.3-1.69-.44-.43-.11-.89-.2-1.35-.26-.51-.14-1.03-.26-1.55-.37-.39-.08-.77-.14-1.14-.19l.17-.44c.03-.08-.03-.16-.11-.16-.61.01-2.57-.18-3.42-.24-1.42-.2-2.99-.37-4.61-.48,0-.05.02-.11.03-.16.04-.17-.1-.34-.28-.31l-2.79.35c-1.56-.02-3.11.04-4.59.2-.19,0-.39.01-.6.04,0-.06,0-.12.02-.18.02-.13-.11-.23-.23-.19-.71.26-1.4.58-2.05.97-.2.12-.45.26-.7.42-.09.05-.17.09-.25.14-2.34,1.35-3.75,3.3-3.14,4.35.14.25.39.42.7.53,1.21.88,1.98,2.4,2.37,3.13.09.17.34.09.32-.1-.06-.54-.31-1.24-.58-1.87-.08-.19.17-.33.3-.17,0,0,.01.02.02.02.12.15.36.02.3-.16-.1-.29-.24-.59-.35-.86.5.17.98.34,1.43.51-.2.49-.26,1.32-.12,2.78.03.26.08.53.14.8v.05s.03.08.03.08c.19.72.51,1.45.87,2.07,0,0,0,0,0,0,.05.08.09.16.14.24,0,.01.01.02.02.04,0,0,0,.01.01.02.09.15.18.28.27.41.14.21.29.41.45.61.19.23.38.46.59.67-.07.01-.13.02-.2.04-.39.08-.76.18-1.14.29-.37.11-.75.22-1.09.4-.17.09-.34.18-.5.29-.08.05-.16.12-.22.22-.02.02-.03.05-.04.08l-.02.04s-.01.03-.02.05c0,.02-.01.03-.02.05,0,.02-.01.04-.01.06v.06s-.02.03-.02.03v.02s0,.02,0,.02l-.13.13h0c-.12.29-.21.56-.3.84-.09.28-.17.55-.25.83-.16.55-.31,1.1-.45,1.66l-.1.42-.1.42c-.07.28-.13.55-.2.83-.07.27-.14.55-.23.82-.04.13-.09.27-.14.39-.03.06-.06.13-.09.18-.04.06-.07.11-.13.15h0s-.02.03,0,.04c0,.02.03.02.04.01.07-.04.13-.09.18-.14.05-.06.09-.12.14-.18.08-.12.15-.25.22-.38.13-.26.24-.53.34-.8.1-.27.2-.54.28-.81.04-.14.09-.27.13-.41.04-.14.08-.27.12-.41.16-.55.3-1.1.46-1.64.08-.27.16-.54.26-.81.05-.13.1-.26.15-.39.03-.07.06-.14.09-.2h0s.05.03.05.03c.02,0,.03.02.05.02.02,0,.03.01.05.02.02,0,.03.01.05.02h.05s.06.03.09.03c.11.02.21,0,.31-.03.06-.02.12-.04.17-.06-.03.04-.06.08-.08.12-.01.03-.02.05-.04.08l-.02.05s0,.03-.01.05c0,.02,0,.03-.01.05,0,.02,0,.04,0,.06v.06s0,.03,0,.03v.02s0,.02,0,.02l-.12.14h0c-.09.3-.15.58-.21.86-.06.28-.11.57-.17.85-.11.56-.2,1.13-.28,1.69l-.06.42-.06.42c-.04.28-.08.56-.12.84-.04.28-.09.56-.15.83-.03.14-.06.27-.11.41-.02.07-.05.13-.07.19-.03.06-.06.12-.11.17h0s-.01.03,0,.04c0,.01.03.02.04,0,.07-.04.12-.1.16-.16.04-.06.08-.12.12-.19.07-.13.13-.27.18-.4.1-.27.18-.55.26-.83.07-.28.14-.56.2-.84.03-.14.06-.28.09-.42.03-.14.06-.28.08-.42.11-.56.19-1.12.3-1.68.05-.28.11-.55.18-.83.04-.14.07-.27.11-.4.02-.07.05-.14.07-.21h0s.06.03.06.03c.02,0,.04.01.05.02.02,0,.03.01.05.02.02,0,.03,0,.05.01h.05s.06.02.09.02c.11,0,.21-.02.3-.06.18-.07.36-.15.53-.25.34-.18.64-.42.95-.67.31-.24.6-.49.89-.76.14-.13.29-.27.42-.42l.1-.11s.07-.07.1-.11c.07-.08.13-.15.2-.24l.03-.14.03-.05s.02-.03.02-.04l.05-.09c.02-.05.04-.1.05-.15,0-.02.01-.04.01-.06v-.03s0-.03,0-.03c0-.04,0-.07,0-.1-.03-.11-.07-.22-.1-.33-.03-.11-.07-.21-.11-.32,0,0,0,0,0,0,.11.15.23.29.37.42.03.03.06.05.09.08.05.07.1.15.15.22.13.19.26.37.41.55.12.14.26.27.4.4-.08.13-.16.27-.24.4-.22.38-.42.76-.62,1.15-.19.39-.37.78-.54,1.18-.04.1-.08.2-.12.3-.04.1-.05.21-.02.34.03.13.09.27.13.4.04.13.05.25.03.36v.04c-.04.16-.06.31-.08.47l-.38,1.06c-.12.34-.08.71.07.84,0,0,0,.02,0,.03,0,0,0,0,0,0l-.37,1.02c-.1.27-.07.57.05.67-.1.57-.21,1.13-.28,1.71-.04.32-.08.65-.1.98,0,.17-.01.33,0,.5,0,.08,0,.17.02.26,0,.05.02.09.04.14.01.03.02.05.05.08.01.01.03.03.05.04.02.01.04.02.07.03.06.01.12-.02.13-.08.01-.06-.02-.12-.08-.13,0,0,.01,0,.01,0,0,0,0,0,0,0,0,0,0-.01-.01-.03,0-.03-.01-.06-.02-.1,0-.07,0-.15,0-.23,0-.16.02-.32.04-.47.02-.16.04-.32.06-.48.02-.16.05-.32.07-.48.09-.55.19-1.1.29-1.65h.02c.17.05.36-.23.39-.56l.08-1.09s0-.02,0-.03c.19-.02.39-.34.42-.71l.11-1.37c0-.09,0-.18,0-.25.05-.09.14-.17.25-.24.12-.07.26-.14.37-.21.11-.08.18-.17.21-.27.03-.1.07-.21.1-.31.07-.21.13-.42.19-.63.06-.21.11-.42.17-.64.1-.43.19-.86.24-1.31,0-.07.02-.14.02-.2l.07.04.08.05s.05.03.09.04c.07.02.15.03.25.02.01,0,.03,0,.04,0h.04s.06-.02.09-.02c.03,0,.06-.02.1-.03-.18.33-.35.67-.5,1-.18.4-.35.8-.5,1.2-.15.41-.29.81-.42,1.23-.03.1-.06.21-.1.31-.03.1-.03.22.02.34.04.12.12.26.17.38.05.13.08.25.06.35v.04c-.02.16-.03.32-.03.47l-.28,1.09c-.09.35-.02.72.15.83,0,0,0,.02,0,.03,0,0,0,0,0,0l-.27,1.05c-.07.28-.01.57.12.66-.05.57-.09,1.15-.12,1.73-.01.33-.02.66,0,.99,0,.17.02.33.04.5.01.08.03.17.05.26.01.04.03.09.05.14.01.02.03.05.05.08.01.01.03.03.05.04.02.01.05.02.07.02.06,0,.12-.04.12-.1,0-.06-.04-.12-.1-.12,0,0,.01,0,.01,0,0,0,0,0,0,0,0,0,0-.01-.01-.02-.01-.02-.02-.06-.03-.09-.01-.07-.02-.15-.03-.23-.01-.16-.01-.32,0-.48,0-.16,0-.32.02-.48,0-.16.02-.32.03-.48.04-.56.08-1.11.13-1.67h.02c.17.03.34-.27.33-.6l-.02-1.09s0-.02,0-.03c.19-.04.35-.38.34-.75l-.03-1.37c0-.09-.01-.17-.03-.24.04-.1.12-.19.23-.27.11-.08.24-.16.34-.25.1-.09.16-.18.19-.29.02-.11.05-.21.07-.32.05-.21.09-.43.13-.64.04-.22.07-.43.1-.65.06-.44.1-.88.12-1.33,0-.22,0-.45,0-.68,0-.06,0-.11-.01-.17,0-.06,0-.11-.01-.17-.01-.11-.03-.23-.05-.35h0s-.04-.14-.04-.14c.03-.04.05-.07.07-.11.02-.03.04-.07.05-.1.02-.03.03-.06.04-.09l.02-.04s.01-.03.01-.04c.04-.1.05-.18.05-.25,0-.04,0-.06-.02-.09l-.02-.09-.05-.18c-.06-.24-.13-.47-.22-.69-.09-.22-.2-.42-.33-.61-.13-.19-.27-.37-.41-.54-.17-.2-.34-.39-.52-.58,0-.02-.02-.03-.02-.05,0-.02-.02-.04-.03-.05.13-.21.25-.43.37-.67.04.12.09.24.14.36.06.16.13.31.19.47.03.08.07.15.1.23l.11.23.09.12.18.31.17.31c.12.21.23.41.36.61.13.2.27.38.43.56.08.09.16.17.24.26.04.04.08.08.12.13.04.04.08.08.12.13.17.17.34.33.51.49.18.16.36.31.56.45.19.14.39.28.59.42l.3.21.04.03s.03.02.04.02c.03.01.06.02.11.03.03,0,.07,0,.11,0,0,0,0,0,0,0-.19.33-.37.67-.54,1.01-.23.46-.43.92-.63,1.38-.2.47-.38.93-.56,1.41-.09.24-.17.47-.25.71-.04.12-.04.25-.02.39.01.07.03.14.07.22,0,.02.02.04.03.06l.02.03.02.03s.05.08.09.13l-.02.09h0c0,.15,0,.31-.01.47,0,.02-.01.04-.02.07l-.37,1.58c-.1.45-.02.9.18.98,0,.02-.01.04-.02.06l-.29,1.27c-.09.39,0,.78.18.79h.03c-.05.82-.08,1.63-.08,2.45,0,.43.01.86.06,1.29.02.22.05.43.1.65.03.11.06.21.11.32.02.05.05.11.09.16.03.05.08.1.13.14.04.03.1.02.13-.02.03-.04.02-.1-.02-.13h0c-.06-.05-.11-.13-.14-.22-.04-.09-.06-.19-.08-.29-.04-.2-.06-.41-.07-.62-.02-.42-.02-.84,0-1.27.04-.83.11-1.66.2-2.49.12-.12.22-.4.22-.69v-1.16c0-.07,0-.15.02-.22.18-.12.33-.5.32-.9v-1.61c0-.06-.01-.11-.02-.16.01-.1.02-.21.03-.31.05-.01.1-.03.14-.05h.03s.03-.03.03-.03c.02,0,.04-.02.06-.03.07-.04.13-.09.19-.14.11-.1.18-.21.22-.32.08-.24.16-.48.23-.72.15-.48.28-.97.41-1.46.12-.49.24-.98.33-1.48.06-.32.12-.64.16-.97.04.02.08.05.13.07l.32.18.04.02s.03.01.04.02c.03.01.07.02.11.01.03,0,.07,0,.11-.02-.16.35-.3.7-.44,1.06-.18.48-.34.95-.5,1.44-.15.48-.29.97-.42,1.46-.06.24-.13.49-.18.73-.02.12-.02.25.02.39.02.07.05.14.09.21.01.02.02.04.03.06l.02.03.02.03s.06.08.1.12v.09s0,0,0,0c.01.15.02.31.03.47,0,.02,0,.04-.01.07l-.22,1.61c-.06.46.07.9.27.96,0,.02,0,.04-.01.06l-.17,1.29c-.05.39.08.77.26.77h.03c.03.81.08,1.63.16,2.44.04.43.1.85.18,1.28.04.21.09.42.17.63.04.1.08.21.14.31.03.05.06.1.1.15.04.05.09.09.15.13.04.02.1.01.13-.03.03-.04.01-.1-.03-.13h0c-.07-.04-.12-.12-.17-.21-.04-.09-.08-.18-.11-.28-.06-.2-.1-.4-.13-.61-.06-.41-.1-.84-.12-1.26-.04-.83-.05-1.66-.05-2.5.11-.13.18-.42.15-.71l-.12-1.15c0-.08,0-.15,0-.23.17-.13.28-.53.23-.93l-.17-1.61c0-.06-.01-.11-.02-.16,0-.1,0-.21,0-.31.05-.02.09-.04.13-.06l.03-.02.03-.02s.04-.02.05-.04c.07-.05.13-.1.17-.15.1-.11.16-.22.19-.34.06-.25.11-.49.16-.74.1-.49.19-.99.27-1.49.08-.5.14-1,.19-1.51.05-.51.08-1.02.08-1.53l-.07-.26c.04-.08.07-.15.08-.21.02-.06.02-.11.02-.15,0-.04,0-.08-.02-.11,0-.02-.01-.03-.02-.04l-.02-.04-.18-.32c-.12-.21-.24-.42-.37-.63s-.26-.4-.4-.59c-.14-.19-.29-.38-.44-.56-.04-.05-.08-.09-.11-.13-.04-.04-.08-.09-.12-.13-.08-.09-.15-.18-.24-.26-.16-.17-.33-.33-.51-.48-.18-.15-.38-.28-.57-.42l-.15-.1c-.08-.1-.17-.19-.27-.29.07-.1.14-.2.21-.31,1.57,1.43,2.46,2.56,3.64,3.07.98,1.11,2.29,2.03,4.21,2.53.09,0,.18.01.27.02.37.15.78.23,1.15.28.4.04.8.04,1.2.02.21-.01.41-.05.62-.05.08,0,.17.02.25,0,.05,0,.07-.08.02-.1-.07-.03-.13-.07-.19-.13-.01-.01-.03-.03-.04-.05,1.24-.12,2.29-.38,3.21-.73.63-.16,1.27-.43,1.68-.63.04-.02.03-.07,0-.08-.04-.02-.09-.03-.14-.04.35-.21.67-.43.98-.66.33-.12.65-.27.96-.44.26-.15.51-.32.75-.5.11-.09.22-.19.33-.28.02-.01.22-.2.21-.23,0,0,0,0,0,0-.13-.02-.32-.04-.5-.09,1.07-1.06,1.98-2.09,3.09-2.73.9-.51.77-1.65-.14-2.99M12.44,29.63s0,0,0,0h0ZM20.22,29.15h0s0,0,0,0h0ZM22.92,35.75h0s0,0,0,0h0ZM24.87,36.51h0s0,0,0,0h0ZM16.47,25.88s0,0,0-.01c0,.02.02.04.03.05-.01-.01-.02-.03-.03-.04M13.4,30.71h0s0,0,0,0h0ZM15.91,28.49c-.29.09-.57.19-.85.3.15-.11.31-.22.46-.34.15-.12.3-.24.45-.36.08.05.15.09.23.14.07.04.14.08.21.12-.17.04-.33.09-.49.14M17.08,28.2h0s0,0,0,0"/>
          <path class="cls-4" d="M10.98,17.46c-.96.01-.96-1.5,0-1.49.96-.01.96,1.5,0,1.49"/>
        </g>
        <g class="cls-5">
          <path class="cls-4" d="M23.04,13.14s-.01,2.59-1.03,4.79c1.69-1.8,2.39-4.64,2.39-4.64"/>
          <path class="cls-4" d="M31.11,14.37s-.11.02-.12.08c-.13.48-.77,2.7-2.13,4.43,2.1-1.39,3.5-4.14,3.5-4.14"/>
          <path class="cls-4" d="M38.06,16.66s-.1,0-.13.05c-.21.4-1.26,2.24-2.83,3.49,2.17-.8,3.99-2.94,3.99-2.94"/>
          <path class="cls-4" d="M42.7,19.68s-.08-.02-.11,0c-.25.25-1.44,1.42-2.91,2.03,1.82-.13,3.67-1.36,3.67-1.36"/>
          <path class="cls-4" d="M44.68,21.9s-.05-.03-.09-.02c-.25.15-1.42.81-2.69.97,1.44.28,3.15-.29,3.15-.29"/>
          <path class="cls-4" d="M35.36,31.19s.02-.09-.02-.13c-.33-.27-2.36-2.4-3.24-4.11.34,2.17,2,4.29,2,4.29"/>
          <path class="cls-4" d="M40.04,29.28s-.02-.09-.07-.1c-.39-.11-2.95-1.16-4.36-2.3,1.12,1.74,3.36,2.93,3.36,2.93"/>
          <path class="cls-4" d="M42.33,26.92s-.04-.07-.08-.06c-.34.02-2.65-.12-4.07-.64,1.36,1.07,3.45,1.4,3.45,1.4"/>
        </g>
      </g>
    </g>
  </g>
</svg>