<?xml version="1.0" encoding="UTF-8"?>
<svg id="Layer_2" xmlns="http://www.w3.org/2000/svg" viewBox="0 0 51.23 51.23">
  <defs>
    <style>
      .cls-1 {
        fill: #eacc4c;
      }

      .cls-2 {
        fill: #2f487a;
      }

      .cls-3 {
        fill: #fff;
      }

      .cls-4 {
        opacity: .8;
      }
    </style>
  </defs>
  <g id="logo">
    <g>
      <g class="cls-4">
        <circle class="cls-3" cx="25.61" cy="25.61" r="25.61"/>
      </g>
      <g>
        <path class="cls-1" d="M44.02,33.22c-.64.1-1.72-1.76-2.18-3.21-.46-1.45-2.07-7.38-6.51-7.3-4.44.08-5.02,4.89-5.76,7.22-.75,2.32-2.61,7.92-9.83,9.08-7.22,1.16-10.99-5.3-10.37-10.66.62-5.36,4.44-7.51,7.63-7.88,3.19-.37,7.82.39,9.25-2.47,1.43-2.86-.21-5.31-2.59-5.41-2.38-.1-3.8,1.81-3.01,3.09.79,1.28,2.28,1.16,2.88.95.6-.21,1.64-1.3.87-2.28-.76-.98-1.89-.56-2.43-.17s.25,1.31-.21,1.2c-.62-.5-.68-.94-.58-1.33s.83-1.01,1.87-1.12c1.04-.12,2.13.14,2.9,1.31.51,1.2.65,2.08,0,3.34-.65,1.26-1.53,1.95-3.38,2.1-1.85.14-4.27-.98-5.25-3.32-.97-2.34.35-6.39,4.04-7.13,3.69-.75,5.62.46,7.13,2.03,1.51,1.58,2.72,5.1,1.16,7.94-1.56,2.84-2.65,4.21-5.1,5.06-2.45.85-5.25,0-6.99.83-1.74.83-3.67,2.41-3.05,5.23.62,2.82,3.71,3.71,4.98,3.67,1.26-.04,3.98-.95,5.25-4.54,1.26-3.59,1.76-4.96,3.3-7.17,1.54-2.21,3.71-4.02,8.05-3.4,4.33.62,5.85,3.69,6.64,5.23.79,1.53,1.76,4.15,1.85,5.85.08,1.7.08,3.17-.56,3.28Z"/>
        <path class="cls-2" d="M18.44,38.43c-2.18,0-4.18-.83-5.74-2.39-2.03-2.04-3.09-5.18-2.65-7.8.35-2.09,1.27-3.87,2.65-5.15,1.2-1.1,2.74-1.81,4.35-2,.14-.02.27.08.28.22.02.14-.08.27-.22.28-2.67.31-5.8,2.24-6.55,6.72-.42,2.47.59,5.43,2.51,7.36,1.25,1.26,3.43,2.66,6.72,2.13,6.22-.99,7.74-5.71,8.46-7.97l.07-.22c.04-.13.19-.21.32-.16.13.04.21.19.16.32l-.07.21c-.7,2.18-2.34,7.28-8.87,8.32-.48.08-.96.12-1.43.12Z"/>
        <path class="cls-2" d="M25.73,30.26s-.05,0-.08-.01c-.13-.05-.21-.19-.16-.32,1.15-3.41,1.63-4.82,2.97-6.86,2.46-3.72,5.49-3.74,7.56-3.43,4.01.6,5.51,3.66,6.23,5.12l.03.06c.06.13.01.28-.12.34-.13.06-.28.01-.34-.12l-.03-.06c-.74-1.5-2.1-4.28-5.85-4.84-4.03-.6-5.95,1.54-7.05,3.21-1.31,1.98-1.78,3.38-2.92,6.74-.04.11-.14.17-.24.17Z"/>
        <path class="cls-2" d="M18.42,16.57c-.1,0-.2-.06-.24-.16-.5-1.2-.38-2.8.3-4.08.66-1.24,1.78-2.07,3.16-2.35,3.16-.64,4.76.22,6.2,1.71.1.1.1.26,0,.36-.1.1-.26.1-.36,0-1.35-1.4-2.79-2.16-5.73-1.56-1.57.32-2.39,1.31-2.81,2.09-.61,1.15-.72,2.58-.28,3.64.05.13,0,.28-.14.33-.03.01-.07.02-.1.02Z"/>
      </g>
    </g>
  </g>
</svg>