<?xml version="1.0" encoding="UTF-8"?>
<svg id="Layer_2" xmlns="http://www.w3.org/2000/svg" viewBox="0 0 51.23 51.23">
  <defs>
    <style>
      .cls-1 {
        fill: #e39537;
      }

      .cls-2 {
        fill: #bf3068;
      }

      .cls-3 {
        fill: #fff;
      }

      .cls-4 {
        opacity: .8;
      }

      .cls-5 {
        fill: #2f4174;
      }
    </style>
  </defs>
  <g id="logo">
    <g>
      <g class="cls-4">
        <circle class="cls-3" cx="25.61" cy="25.61" r="25.61"/>
      </g>
      <g>
        <path class="cls-2" d="M46.06,25.08l-.94.43-.9.23-2.47,1.47-.12.03s0,0,0,.01l-.28.07h0s-.5.12-.5.12l-2.41.37h-.03s0,0,0,0l-.31-.12h0s-1.97-.8-1.97-.8l-.65-.54s0,0,0,0l-.27-.23h-.06s0-.02,0-.02l-1.31-.36-1.14-.41-.85-.15s0,0,0,.01l-.41-.07h0s-.11-.03-.11-.03l-1.09.27c-.06-.1-.12-.21-.18-.31l.71-.2.18-.58s.73.07,1.07.18c.2.07.38.09.59.13.16.02.34.05.55.1.08.02.15.03.22.03.17,0,.26-.06.33-.12.06-.04.11-.08.19-.08.12,0,.35.04.62.1.26.05.55.11.81.13.07,0,.16.01.25.01.56,0,1.4-.12,1.4-.13l.98-.74s.86-.69,1.03-.8c.17-.12.4-1.05.4-1.09,0-.02-.23-1.33-.23-2.06,0-.35-.04-.52-.11-.52-.03,0-.05.03-.07.04l-.62-1.35-.48-.36.12.54.4.52s-.06,1.08,0,1.37c.05.23.02.99,0,1.31,0,0,0,0,.01,0,0,.07,0,.11,0,.11l-.08.1h0s-.32.4-.32.4l-.74.95s0,0,0,0l-.06.07-.25.04h0s-.48.06-.48.06l-.86.34h-1.42s-.11-.04-.11-.04c0,0,0,0,0,.01l-.28-.09h0s-.46-.17-.46-.17h-1.49s-.97.22-.97.22c0,0,0,0,0,.01l-.28.06h0s-1.17.52-1.17.52c-.05-.07-.1-.13-.15-.2l.05-1.31s.18-.23.51-.62c.29-.34.21-.65.18-.73,0,0,0,0,0,0v-.02s0,0,0,0c0,0,0,0,0,.01.14.05.64.22.93.27.16.03.59.04,1.14.04s1.03-.02,1.26-.04c.35-.04,1-.46,1.44-.75h0s0-.01,0-.01c0,0,0,0,0,.01.03-.02.07-.04.1-.06.16-.11.28-.19.34-.22.16-.08.61-.62.94-1.01.15-.18.26-.31.32-.37.16-.16.27-.61.29-.68h0s0-.01,0-.01h0s0,0,0,0c0,0,0,0,0,0l.63-.62c.24-.24.7-.64.97-.86.29-.23.64-.75.97-1.26.34-.51,0-1.43,0-1.44l-.97-.97c-.09-.09-.29-.36-.48-.63-.2-.27-.4-.54-.49-.63-.17-.17-.51-.62-.51-.63l-.52-.12-.45-.51h-.52s-.05-.74-.05-.74c0,0,.05-.98-.17-1.6-.03-.08-.06-.12-.08-.12h-.02c-.12.14-.09,1.6-.08,1.67l.11.74s.46.64.63.75c.17.11.62,1.13.62,1.14l1.59,1.89s.01,0,.02,0l.22.27-.11.2h0s-.87,1.57-.87,1.57c0,0-.91.74-1.14.97h0s-.02.03-.02.03c-.1.09-.21.17-.32.23h0c-.1.05-.19.09-.28.13l-.11.05c-.23.11-.67.88-.92,1.38-.02.04-.02.06-.03.07-.01.02-.02.03-.03.05,0,0,0,0-.01.01,0,0,0,0,0,0-.1.15-.21.21-.31.25h0c-.07.01-.12.02-.15.02-.02,0-.03,0-.03,0-.02,0-1.67.06-2.35.23-.61.15-1.41.39-1.71.63,0,0,0,0,0,.01-.05.04-.11.07-.17.11h0c-.35.16-.85.28-.86.28-.03.04-.52.86-.58,1.04-.04.12-.31.33-.46.44-.62-.41-1.3-.65-2.04-.66-.77,0-1.48.25-2.13.68-.15-.1-.44-.33-.49-.45-.06-.17-.55-.99-.58-1.04,0,0-.51-.12-.86-.28h0c-.07-.03-.13-.07-.17-.11,0,0,0,0,0-.01-.3-.24-1.1-.47-1.71-.63-.68-.17-2.33-.23-2.35-.23,0,0-.01,0-.03,0-.03,0-.08,0-.15-.02h0c-.09-.03-.2-.1-.31-.24,0,0,0,0,0,0,0,0,0,0-.01-.01-.01-.02-.02-.03-.03-.05,0-.01,0-.03-.03-.07-.25-.49-.69-1.26-.92-1.38l-.11-.05c-.09-.04-.18-.09-.28-.14h0c-.11-.06-.22-.14-.32-.23l-.02-.03h0c-.23-.23-1.13-.97-1.14-.98l-.87-1.57h0s-.11-.2-.11-.2l.22-.27s.01,0,.02,0l1.59-1.89s.46-1.03.62-1.14c.17-.11.61-.72.63-.75l.11-.74c0-.06.04-1.53-.08-1.66h-.02s0-.01,0-.01c-.03,0-.05.04-.08.12-.23.62-.17,1.59-.17,1.6l-.05.73h-.52s-.45.51-.45.51l-.52.12s-.34.46-.51.63c-.09.09-.29.36-.49.63-.2.27-.4.54-.48.63l-.97.97s-.34.92,0,1.44c.34.51.69,1.03.97,1.26.27.22.73.62.97.86l.63.62s0,0,0,0c0,0,0,0,0,0h0s0,0,0,0h0c.02.08.12.53.29.69.05.05.17.19.32.37.33.39.78.93.94,1.01.06.03.19.11.34.22.03.02.06.04.1.06,0,0,0,0,0-.01,0,0,0,0,0,0h0c.44.3,1.09.72,1.44.75.24.03.72.04,1.26.04s.98-.02,1.14-.04c.29-.05.79-.22.93-.27,0,0,0,0,0-.01,0,0,.01,0,.02,0v.02s0,0,0,0c-.03.09-.11.39.18.73.34.39.51.62.51.62l.05,1.37c-.04.05-.08.1-.12.15l-1.21-.54h0s-.28-.06-.28-.06c0,0,0,0,0-.01l-.97-.22h-1.49s-.46.16-.46.16h0s-.28.1-.28.1c0,0,0,0,0-.01l-.11.04h-1.42s-.86-.34-.86-.34l-.48-.07h0s-.25-.03-.25-.03l-.06-.07s0,0,0,0l-.74-.95-.32-.4h0s-.08-.1-.08-.1c0,0,0-.04,0-.11,0,0,0,0,.01,0-.01-.32-.04-1.09,0-1.31.06-.28,0-1.33,0-1.37l.4-.52.12-.54-.48.36-.62,1.35s-.04-.04-.07-.04c-.08,0-.11.17-.11.52,0,.73-.23,2.04-.23,2.06,0,.04.23.98.4,1.09.17.11,1.02.79,1.03.8l.98.74s.85.13,1.4.13c.1,0,.18,0,.25-.01.25-.03.55-.08.81-.13.27-.05.5-.1.62-.1.08,0,.13.04.19.08.08.06.16.12.33.12.07,0,.14,0,.22-.03.22-.05.4-.08.55-.1.21-.03.39-.06.59-.13.34-.11,1.07-.17,1.07-.18l.18.58.76.22c-.06.1-.12.2-.17.3l-.98-.31-.11.02h0s-.42.05-.42.05c0,0,0,0,0-.01l-.86.1-1.16.34-1.33.28h0s-.06.01-.06.01l-.29.21s0,0,0,0l-.68.5-2.02.68h0s-.32.11-.32.11c0,0,0,0,0,0h-.03s-2.38-.5-2.38-.5l-.49-.15h0s-.28-.09-.28-.09c0,0,0,0,0-.01l-.11-.04-2.37-1.62-.88-.29-.91-.49-.68.37,1.16.3.95.51s.34.58.84.98c.18.14.36.31.55.47.34.3.67.58.9.71.36.2,1.11.6,1.46.67.36.06,2.79.48,2.8.48.02,0,1.58-.64,1.76-.73.06-.03.19-.12.36-.23.35-.23.83-.55,1.11-.66.41-.16,1.93-.69,1.94-.7l.81-.08.2.37h.04s0,0,0,0h0s0,.01,0,.01l.71.1-.44.5s-1.14.78-1.46.98c-.22.14-.68.3-1.02.43-.16.06-.29.1-.34.13-.16.08-1.39.84-1.4.85,0,0-.95,1.9-1.09,2.18-.14.28-.23,1-.28,1.35-.03.22,0,.59.04.98.02.21.04.42.05.61.02.54.25,1.07.25,1.07l-.12.92-.38.96.6-.28.12-.88.25-.75.09-2.46.03-.1s0,0,0,0l.08-.24h0l.14-.41.85-1.91.02-.02s0,0,0,0l.23-.16h0s1.49-1.05,1.49-1.05l.69-.22s0,0,0,0l.29-.09.04-.03h0s.77-.68.77-.68c-.47,1.37-.78,2.71-.92,3.73-.6,4.36,1.5,10.18,6.81,10.04,5.18-.14,7.46-5.51,6.81-10.04-.15-1.03-.47-2.38-.96-3.76l.6.51v.02s0,0,0-.01l.17.15h0s.04.03.04.03l.29.08s0,0,0,0l.69.2,1.52,1.01h0s.24.16.24.16c0,0,0,0,0,0l.03.02.9,1.88.15.41h0l.09.24s0,0,0,0l.04.1.15,2.45.27.75.15.88.61.26-.41-.95-.15-.91s.21-.54.22-1.08c0-.19.02-.41.03-.61.02-.39.05-.76.01-.98-.06-.35-.17-1.06-.32-1.34-.14-.27-1.14-2.14-1.14-2.15-.01,0-1.26-.74-1.42-.81-.05-.02-.18-.07-.34-.12-.34-.11-.81-.27-1.03-.4-.32-.19-1.48-.94-1.49-.95l-.43-.45.73-.05h0s0-.01,0-.01c0,0,0,0,0,.01h.04s.22-.36.22-.36l.8.13s1.49.63,1.89.82c.27.13.73.48,1.06.73.16.12.28.22.34.25.17.11,1.7.83,1.72.84,0,0,2.47-.27,2.82-.31.36-.04,1.13-.4,1.5-.57.24-.11.58-.37.94-.65.19-.15.39-.3.57-.43.52-.37.89-.92.9-.92l.98-.46,1.18-.23-.65-.41ZM39.37,21.96h0s0,0,0,0c0,0,0,0,0,0M11.9,21.95h0s0,0,0,0c0,0,0,0,0,0"/>
        <rect class="cls-5" x="25.12" y="15.29" width=".92" height="5.95"/>
        <path class="cls-2" d="M28.09,21.47s-.4-6.62-2.17-6.68l.11,6.62s1.48.17,1.83.63l.23-.57Z"/>
        <path class="cls-2" d="M23.17,21.47s.4-6.62,2.17-6.68l-.11,6.62s-1.48.17-1.83.63l-.23-.57Z"/>
        <polyline class="cls-1" points="16.47 20.8 16.48 20.79 16.47 20.79 16.47 20.8"/>
        <polyline class="cls-1" points="14.48 18.46 14.49 18.45 14.49 18.45 14.48 18.46"/>
        <path class="cls-1" d="M21.25,21.29l.02-.03s0,0-.01,0c0,0,0,.02,0,.02"/>
        <path class="cls-1" d="M19.12,28.85v-.02s-.01,0-.01,0c0,0,0,.01.01.02"/>
        <polygon class="cls-1" points="36.78 18.46 36.77 18.45 36.77 18.45 36.78 18.46"/>
        <path class="cls-1" d="M30.01,21.29s0-.01,0-.02c0,0,0,0-.01,0l.02.03Z"/>
        <polygon class="cls-1" points="34.79 20.8 34.79 20.79 34.78 20.79 34.79 20.8"/>
        <path class="cls-5" d="M15.7,10.8l.46-.05.11-.75c0-.06.04-1.53-.08-1.66h-.02s0-.01,0-.01c-.03,0-.22.04-.25.12-.23.62-.17,1.59-.17,1.6l-.04.75Z"/>
        <path class="cls-5" d="M12.35,19.32l.55-.15c0-.11,0-.19-.01-.2l.54-.69.16-.73-.65.49-.59,1.28Z"/>
        <path class="cls-5" d="M37.69,17.6l.16.73.54.7s0,.03,0,.07l.47.13-.52-1.13-.65-.49Z"/>
        <polygon class="cls-5" points="46.02 25.06 44.93 25.56 44.22 25.75 44.47 26.3 45.41 25.8 46.77 25.54 46.02 25.06"/>
        <polygon class="cls-5" points="7.24 24.94 6.4 24.63 5.29 24.03 4.46 24.49 5.88 24.86 6.9 25.41 7.24 24.94"/>
        <polygon class="cls-5" points="14.74 37.4 14.88 36.4 15.09 35.76 14.61 35.73 14.49 36.63 14.05 37.72 14.74 37.4"/>
        <polygon class="cls-5" points="36.42 35.58 36.68 36.31 36.84 37.25 37.49 37.53 37.06 36.52 36.91 35.6 36.42 35.58"/>
        <path class="cls-5" d="M35.55,10.8l-.46-.05-.11-.75c0-.06-.04-1.53.08-1.66h.02s0-.01,0-.01c.03,0,.22.04.25.12.23.62.17,1.59.17,1.6l.04.75Z"/>
      </g>
    </g>
  </g>
</svg>