<?xml version="1.0" encoding="UTF-8"?>
<svg id="Layer_2" data-name="Layer 2" xmlns="http://www.w3.org/2000/svg" viewBox="0 0 47.05 47.05">
  <defs>
    <style>
      .cls-1 {
        fill: #c3006c;
      }

      .cls-1, .cls-2, .cls-3 {
        stroke-width: 0px;
      }

      .cls-2 {
        fill: #264078;
      }

      .cls-3 {
        fill: #fff;
      }
    </style>
  </defs>
  <g id="logo">
    <g>
      <g>
        <circle class="cls-1" cx="23.53" cy="23.53" r="23.53"/>
        <g>
          <g>
            <path class="cls-3" d="M23.43,31.43c-4.16,0-7.53-3.37-7.53-7.53s3.37-7.53,7.53-7.53,7.53,3.37,7.53,7.53-3.37,7.53-7.53,7.53h0ZM34.73,13.55h-4.91s-.68-1.4-.68-1.4c-.54-1.12-1.67-1.83-2.91-1.83h-5.59c-1.24,0-2.38.71-2.91,1.83l-.68,1.4h-4.91c-2.07,0-3.77,1.69-3.77,3.76v13.18c0,2.07,1.69,3.77,3.77,3.77h22.59c2.07,0,3.77-1.69,3.77-3.77v-13.18c0-2.07-1.69-3.77-3.77-3.77h0Z"/>
            <path class="cls-3" d="M27.01,21.78l.05.03c.31-1.12.19-2.34,0-2.48-.17-.13-.85,0-2.11.75-.47-.18-.98-.28-1.52-.28s-1.04.1-1.51.28c-1.25-.76-1.92-.87-2.1-.75-.19.14-.32,1.36,0,2.48h.02c-.4.63-.63,1.39-.63,2.21,0,2.33,1.89,4.22,4.22,4.22s4.22-1.89,4.22-4.22c0-.82-.24-1.59-.64-2.24Z"/>
          </g>
          <path class="cls-2" d="M31.81,7.21c0,3.55-2.87,6.42-6.42,6.42h0c3.55,0,6.42,2.87,6.42,6.42h0c0-3.55,2.87-6.42,6.42-6.42-3.55,0-6.42-2.87-6.42-6.42Z"/>
        </g>
      </g>
      <path class="cls-2" d="M13.01,11.89h1.76c.43,0,.77.35.77.77v.89h-3.31v-.89c0-.43.35-.77.77-.77Z"/>
    </g>
  </g>
</svg>