<?xml version="1.0" encoding="UTF-8"?>
<svg id="Layer_2" xmlns="http://www.w3.org/2000/svg" viewBox="0 0 354.91 143.73">
  <defs>
    <style>
      .cls-1 {
        fill: #328034;
      }

      .cls-2 {
        fill: #80a11d;
      }

      .cls-3 {
        fill: #575756;
      }
    </style>
  </defs>
  <g id="logo">
    <g id="Layer_1-2">
      <g>
        <path class="cls-1" d="M115.27,126.5c-11.23,8.35-25.43,12.9-40.55,11.86-33.31-2.29-58.43-30.82-56.11-63.72,1.58-22.49,15.59-41.21,34.93-50.07-23.42,7.37-41.07,28.23-42.89,53.92-2.36,33.61,23.29,62.75,57.32,65.09,18.22,1.26,35.14-5.43,47.29-17.08"/>
        <path class="cls-2" d="M20.23,123.07c-9.81-13.19-15.14-29.87-13.92-47.63C9,36.31,42.51,6.8,81.17,9.52c26.43,1.86,48.41,18.31,58.81,41.03C131.33,23.05,106.82,2.31,76.65.18,37.16-2.6,2.93,27.54.18,67.51c-1.47,21.4,6.38,41.28,20.06,55.55"/>
        <polygon class="cls-1" points="35.72 74.57 45.41 74.57 51.4 99.41 51.55 99.41 64.56 74.57 73.66 74.57 54.73 110.06 45.26 110.06 35.72 74.57"/>
        <path class="cls-1" d="M77.21,95.28c-.14,5.16,3.34,8.28,8.21,8.28,4.36,0,7.48-2.04,10.03-4.72l5.6,4.72c-4.8,5.01-10.24,6.97-15.77,6.97-10.53,0-17.87-7.33-16.34-18.31,1.52-10.97,10.97-18.31,21.5-18.31,9.74,0,15.4,6.83,13.66,18.96l-.29,2.4h-26.59ZM95.95,88.74c.65-5.08-2.18-8.28-7.63-8.28-5.16,0-8.86,3.27-10.24,8.28h17.87Z"/>
        <path class="cls-1" d="M105.31,82.2l1.02-7.41h7.19l1.45-10.1h8.72l-1.45,10.1h10.69v7.41h-11.71l-2.11,15.26c-.51,3.48.22,5.67,4.07,5.67,1.53,0,5.93-1.75,7.16-2.54l-3.31,8.79c-1.96.87-5.09,1.16-7.12,1.16-9.23,0-10.82-4.14-9.66-12.35l2.25-15.99h-7.19Z"/>
        <path class="cls-1" d="M207.46,82.81c-.78-1.92-1.9-3.56-3.35-4.92-1.46-1.36-3.24-2.4-5.34-3.13-2.1-.73-4.48-1.09-7.12-1.09-3.05,0-5.84.56-8.37,1.66-2.54,1.11-4.73,2.63-6.58,4.57-1.86,1.94-3.3,4.21-4.32,6.81-1.03,2.6-1.54,5.39-1.54,8.37,0,2.35.39,4.49,1.17,6.41.77,1.92,1.9,3.56,3.38,4.92,1.48,1.36,3.27,2.4,5.39,3.13,2.12.73,4.52,1.09,7.2,1.09,3.05,0,5.84-.56,8.37-1.67.68-.29,1.33-.63,1.96-.99l-1.75,11.04h7.54l3.73-23.59c.54-1.97.81-4.03.81-6.19,0-2.35-.39-4.49-1.17-6.41M199.25,94.8c-.53,1.6-1.3,3.03-2.29,4.27-.99,1.24-2.21,2.24-3.65,2.98-1.43.75-3.07,1.12-4.89,1.12-1.46,0-2.74-.24-3.85-.7-1.11-.46-2.05-1.1-2.81-1.89-.76-.8-1.34-1.72-1.73-2.81-.4-1.07-.6-2.22-.6-3.45,0-1.69.27-3.33.82-4.92.54-1.59,1.32-3.01,2.34-4.25,1.01-1.24,2.24-2.24,3.68-3,1.44-.76,3.05-1.14,4.84-1.14,1.42,0,2.7.23,3.83.69,1.12.47,2.06,1.1,2.81,1.89.75.8,1.32,1.73,1.71,2.8.39,1.08.6,2.22.6,3.45l-.79,4.94h0Z"/>
        <path class="cls-1" d="M165.47,77.89c-1.46-1.36-3.24-2.4-5.34-3.13-2.11-.72-4.48-1.09-7.13-1.09-3.04,0-5.84.56-8.37,1.66-2.53,1.11-4.73,2.63-6.58,4.57-1.85,1.94-3.29,4.2-4.32,6.8-1.03,2.6-1.54,5.39-1.54,8.37,0,2.35.39,4.49,1.17,6.41.78,1.92,1.9,3.56,3.38,4.92,1.48,1.36,3.27,2.4,5.39,3.13,2.12.73,4.52,1.09,7.2,1.09,3.05,0,5.84-.55,8.37-1.66,2.53-1.11,4.71-2.63,6.53-4.57,1.82-1.94,3.24-4.2,4.25-6.81,1.01-2.6,1.52-5.38,1.52-8.37,0-2.35-.39-4.48-1.17-6.41-.78-1.91-1.9-3.56-3.35-4.91M160.61,94.8c-.53,1.6-1.3,3.03-2.29,4.27-.99,1.24-2.21,2.23-3.65,2.98-1.44.75-3.07,1.12-4.89,1.12-1.46,0-2.74-.23-3.85-.69-1.11-.47-2.05-1.1-2.81-1.89-.76-.79-1.34-1.73-1.74-2.81-.4-1.07-.59-2.22-.59-3.45,0-1.69.27-3.33.82-4.92.54-1.59,1.32-3.01,2.33-4.25,1.01-1.24,2.24-2.24,3.68-3,1.44-.76,3.05-1.15,4.84-1.15,1.42,0,2.7.23,3.82.7,1.12.46,2.07,1.09,2.81,1.89.75.8,1.32,1.73,1.71,2.8.4,1.08.6,2.23.6,3.46,0,1.69-.26,3.34-.79,4.94"/>
        <path class="cls-1" d="M231.89,95.97c-.16.9-.39,1.78-.69,2.65-.3.88-.74,1.67-1.32,2.39-.57.71-1.32,1.29-2.23,1.74-.91.45-2.06.68-3.45.68-1.06,0-1.97-.15-2.74-.45-.76-.29-1.37-.7-1.84-1.21-.46-.52-.8-1.1-1.02-1.77-.22-.66-.32-1.35-.32-2.09,0-.3,0-.63.02-1,.02-.36.06-.71.13-1.04l3.77-21.31h-8.2l-3.88,22.05c-.07.49-.12,1.01-.17,1.54-.05.52-.08,1.02-.08,1.49,0,1.69.33,3.21.97,4.57.65,1.36,1.57,2.51,2.78,3.45,1.21.94,2.66,1.67,4.37,2.19,1.71.51,3.61.77,5.74.77,2.42,0,4.55-.33,6.41-1,1.85-.66,3.45-1.59,4.79-2.77,1.34-1.19,2.42-2.64,3.25-4.35.83-1.71,1.43-3.6,1.79-5.68l3.87-22.25h-8.15l-3.82,21.4h0Z"/>
        <path class="cls-1" d="M289.15,76.63c-1.21-.94-2.66-1.67-4.37-2.19-1.7-.51-3.61-.76-5.74-.76-2.41,0-4.55.33-6.41.99-1.85.66-3.45,1.59-4.79,2.78-1.34,1.2-2.42,2.64-3.25,4.35-.83,1.7-1.42,3.6-1.79,5.68l-3.87,22.24h8.14l3.82-21.4c.17-.9.4-1.78.7-2.66.3-.88.74-1.67,1.32-2.39.58-.71,1.32-1.29,2.24-1.74.91-.44,2.06-.67,3.46-.67,1.06,0,1.97.15,2.73.45.76.29,1.37.7,1.83,1.22.47.51.8,1.1,1.02,1.76.22.66.33,1.36.33,2.08,0,.29-.01.62-.02.99-.02.37-.06.71-.13,1.04l-3.77,21.3h8.19l3.88-22.05c.06-.49.12-1.01.17-1.54.05-.53.08-1.03.08-1.49,0-1.69-.32-3.21-.97-4.57-.65-1.36-1.57-2.51-2.78-3.46"/>
        <path class="cls-1" d="M331.19,82.81c-.78-1.92-1.9-3.56-3.35-4.92-1.46-1.36-3.24-2.4-5.34-3.13-2.1-.73-4.48-1.09-7.13-1.09-3.04,0-5.83.56-8.37,1.66-2.53,1.11-4.72,2.63-6.58,4.57-1.85,1.94-3.29,4.21-4.32,6.81-1.03,2.6-1.53,5.39-1.53,8.37,0,2.35.38,4.49,1.16,6.41.78,1.92,1.9,3.56,3.38,4.92,1.48,1.36,3.27,2.4,5.39,3.13,2.12.73,4.52,1.09,7.2,1.09,3.04,0,5.83-.56,8.37-1.67,2.53-1.1,4.71-2.63,6.53-4.57,1.82-1.93,3.24-4.2,4.25-6.8,1.01-2.6,1.51-5.39,1.51-8.37,0-2.35-.39-4.49-1.17-6.41M322.97,94.81c-.53,1.6-1.29,3.03-2.29,4.27-.99,1.24-2.21,2.24-3.65,2.98-1.44.75-3.07,1.12-4.89,1.12-1.46,0-2.74-.24-3.85-.7-1.11-.46-2.04-1.1-2.81-1.89-.77-.8-1.34-1.72-1.74-2.81-.4-1.07-.6-2.22-.6-3.45,0-1.69.27-3.33.82-4.92.54-1.59,1.32-3.01,2.34-4.25,1.01-1.24,2.23-2.24,3.67-3,1.44-.76,3.06-1.14,4.84-1.14,1.42,0,2.7.23,3.82.69,1.13.47,2.06,1.1,2.81,1.89.75.8,1.32,1.73,1.71,2.8.4,1.08.6,2.22.6,3.45,0,1.69-.27,3.34-.8,4.94"/>
        <polygon class="cls-1" points="337.77 74.57 331.57 109.73 353.61 109.73 354.91 102.53 341.1 102.53 346.07 74.57 337.77 74.57"/>
        <polygon class="cls-1" points="252.21 74.57 246.69 74.57 245.43 81.77 250.94 81.77 246 109.73 254.3 109.73 260.5 74.57 252.21 74.57"/>
        <path class="cls-1" d="M257.49,67.3c3.19,0,5.77-2.58,5.77-5.77s-2.58-5.77-5.77-5.77-5.77,2.59-5.77,5.77,2.59,5.77,5.77,5.77"/>
        <path class="cls-3" d="M140.57,138.96l-.88-2.58h-5.07l-.88,2.58h-2.08l4.71-12.85h1.57l4.71,12.85h-2.08ZM137.2,129.01l-2,5.7h3.95l-1.95-5.7Z"/>
        <path class="cls-3" d="M148.27,139.06c-1.41,0-2.49-.47-3.32-1.3-1.25-1.26-1.3-2.54-1.3-5.23s.05-3.97,1.3-5.24c.83-.83,1.91-1.3,3.32-1.3,2.37,0,4.13,1.41,4.58,3.96h-1.99c-.29-1.32-1.17-2.22-2.6-2.22-.77,0-1.42.29-1.89.79-.65.69-.78,1.46-.78,4.01s.13,3.32.78,4.01c.47.51,1.12.79,1.89.79,1.42,0,2.33-.9,2.64-2.22h1.95c-.45,2.55-2.24,3.95-4.58,3.95"/>
        <polygon class="cls-3" points="162.44 138.96 162.44 133.34 157.22 133.34 157.22 138.96 155.27 138.96 155.27 126.1 157.22 126.1 157.22 131.59 162.44 131.59 162.44 126.1 164.39 126.1 164.39 138.96 162.44 138.96"/>
        <rect class="cls-3" x="167.57" y="126.1" width="1.95" height="12.85"/>
        <polygon class="cls-3" points="172.7 138.96 172.7 126.1 180.91 126.1 180.91 127.86 174.65 127.86 174.65 131.61 179.99 131.61 179.99 133.34 174.65 133.34 174.65 137.2 180.91 137.2 180.91 138.96 172.7 138.96"/>
        <polygon class="cls-3" points="187.55 138.96 186.04 138.96 181.81 126.1 183.84 126.1 186.8 135.45 189.76 126.1 191.82 126.1 187.55 138.96"/>
        <polygon class="cls-3" points="193.4 138.96 193.4 126.1 201.62 126.1 201.62 127.86 195.36 127.86 195.36 131.61 200.69 131.61 200.69 133.34 195.36 133.34 195.36 137.2 201.62 137.2 201.62 138.96 193.4 138.96"/>
        <polygon class="cls-3" points="217.65 138.96 217.65 130.36 214.69 136.63 213.25 136.63 210.21 130.36 210.21 138.96 208.26 138.96 208.26 126.1 210.21 126.1 213.97 134.1 217.65 126.1 219.6 126.1 219.6 138.96 217.65 138.96"/>
        <path class="cls-3" d="M230.23,137.77c-.83.83-1.91,1.3-3.32,1.3s-2.49-.47-3.32-1.3c-1.26-1.26-1.3-2.55-1.3-5.24s.03-3.97,1.3-5.23c.83-.83,1.91-1.3,3.32-1.3s2.49.47,3.32,1.3c1.26,1.26,1.3,2.54,1.3,5.23s-.03,3.97-1.3,5.24M228.83,128.52c-.48-.5-1.14-.79-1.91-.79s-1.43.29-1.92.79c-.63.68-.76,1.46-.76,4.01s.13,3.3.76,3.99c.48.51,1.14.81,1.92.81s1.42-.31,1.91-.81c.65-.67.76-1.44.76-3.99s-.11-3.34-.76-4.01"/>
        <path class="cls-3" d="M241.34,138.95l-2.71-5.41h-2.44v5.41h-1.95v-12.85h4.98c2.44,0,3.99,1.57,3.99,3.76,0,1.84-1.12,3.01-2.56,3.41l2.96,5.68h-2.27,0ZM239.08,127.85h-2.89v4.03h2.89c1.3,0,2.18-.74,2.18-2s-.88-2.02-2.18-2.02"/>
        <polygon class="cls-3" points="245.89 138.96 245.89 126.1 254.1 126.1 254.1 127.86 247.84 127.86 247.84 131.61 253.18 131.61 253.18 133.34 247.84 133.34 247.84 137.2 254.1 137.2 254.1 138.96 245.89 138.96"/>
        <polygon class="cls-1" points="265.1 127.86 265.1 138.96 263.15 138.96 263.15 127.86 259.61 127.86 259.61 126.1 268.63 126.1 268.63 127.86 265.1 127.86"/>
        <path class="cls-1" d="M277.79,137.77c-.83.83-1.91,1.3-3.32,1.3s-2.49-.47-3.32-1.3c-1.26-1.26-1.3-2.55-1.3-5.24s.03-3.97,1.3-5.23c.83-.83,1.91-1.3,3.32-1.3s2.49.47,3.32,1.3c1.26,1.26,1.3,2.54,1.3,5.23s-.04,3.97-1.3,5.24M276.38,128.52c-.49-.5-1.14-.79-1.92-.79s-1.42.29-1.91.79c-.63.68-.76,1.46-.76,4.01s.13,3.3.76,3.99c.49.51,1.14.81,1.91.81s1.43-.31,1.92-.81c.65-.67.75-1.44.75-3.99s-.11-3.34-.75-4.01"/>
        <path class="cls-1" d="M289.49,137.6c-.96,1.01-2.19,1.46-3.54,1.46s-2.49-.47-3.32-1.3c-1.25-1.27-1.3-2.55-1.3-5.24s.06-3.97,1.3-5.23c.83-.83,1.92-1.3,3.32-1.3,2.71,0,4.31,1.79,4.65,3.97h-1.95c-.32-1.41-1.26-2.24-2.71-2.24-.78,0-1.42.29-1.92.79-.63.69-.76,1.46-.76,4.01s.13,3.32.76,4c.49.51,1.14.8,1.92.8.85,0,1.6-.32,2.11-.92.47-.54.63-1.19.63-2.02v-.72h-2.74v-1.66h4.69v1.97c0,1.68-.31,2.71-1.15,3.63"/>
        <polygon class="cls-1" points="293.34 138.96 293.34 126.1 301.55 126.1 301.55 127.86 295.28 127.86 295.28 131.61 300.62 131.61 300.62 133.34 295.28 133.34 295.28 137.2 301.55 137.2 301.55 138.96 293.34 138.96"/>
        <polygon class="cls-1" points="308.39 127.86 308.39 138.96 306.44 138.96 306.44 127.86 302.9 127.86 302.9 126.1 311.93 126.1 311.93 127.86 308.39 127.86"/>
        <polygon class="cls-1" points="321.14 138.96 321.14 133.34 315.92 133.34 315.92 138.96 313.97 138.96 313.97 126.1 315.92 126.1 315.92 131.59 321.14 131.59 321.14 126.1 323.09 126.1 323.09 138.96 321.14 138.96"/>
        <polygon class="cls-1" points="326.27 138.96 326.27 126.1 334.48 126.1 334.48 127.86 328.22 127.86 328.22 131.61 333.56 131.61 333.56 133.34 328.22 133.34 328.22 137.2 334.48 137.2 334.48 138.96 326.27 138.96"/>
        <path class="cls-1" d="M344.07,138.95l-2.71-5.41h-2.44v5.41h-1.95v-12.85h4.98c2.43,0,3.99,1.57,3.99,3.76,0,1.84-1.12,3.01-2.56,3.41l2.96,5.68h-2.27,0ZM341.81,127.85h-2.89v4.03h2.89c1.3,0,2.18-.74,2.18-2s-.88-2.02-2.18-2.02"/>
      </g>
    </g>
  </g>
</svg>