<?xml version="1.0" encoding="UTF-8"?>
<svg id="Layer_2" data-name="Layer 2" xmlns="http://www.w3.org/2000/svg" viewBox="0 0 298.33 55.6">
  <defs>
    <style>
      .cls-1 {
        fill: #328034;
      }

      .cls-2 {
        fill: #80a11d;
      }

      .cls-3 {
        fill: #575756;
      }

      .cls-4, .cls-5 {
        fill: #fff;
      }

      .cls-5 {
        font-family: CoconPro-Regular, CoconPro;
        font-size: 24.3px;
      }

      .cls-6 {
        letter-spacing: .04em;
      }
    </style>
  </defs>
  <g id="logo">
    <text class="cls-5" transform="translate(0 33.8)"><tspan class="cls-6" x="0" y="0">#</tspan><tspan x="15.31" y="0">wespeakcat</tspan></text>
    <g>
      <path class="cls-4" d="M212.36,0h85.97v26.13c0,16.28-13.19,29.47-29.47,29.47h-56.5c-15.35,0-27.8-12.45-27.8-27.8h0c0-15.35,12.45-27.8,27.8-27.8Z"/>
      <g id="Layer_1-2" data-name="Layer 1-2">
        <g>
          <path class="cls-1" d="M227.43,40.06c-2.72,2.02-6.16,3.13-9.83,2.87-8.08-.56-14.17-7.47-13.6-15.45.38-5.45,3.78-9.99,8.47-12.14-5.68,1.79-9.96,6.84-10.4,13.07-.57,8.15,5.65,15.21,13.9,15.78,4.42.3,8.52-1.32,11.47-4.14"/>
          <path class="cls-2" d="M204.39,39.23c-2.38-3.2-3.67-7.24-3.38-11.55.65-9.49,8.78-16.64,18.15-15.98,6.41.45,11.74,4.44,14.26,9.95-2.1-6.67-8.04-11.7-15.35-12.21-9.57-.67-17.87,6.63-18.54,16.32-.36,5.19,1.55,10.01,4.86,13.47"/>
          <polygon class="cls-1" points="208.14 27.47 210.49 27.47 211.94 33.49 211.98 33.49 215.13 27.47 217.34 27.47 212.75 36.07 210.46 36.07 208.14 27.47"/>
          <path class="cls-1" d="M218.2,32.49c-.04,1.25.81,2.01,1.99,2.01,1.06,0,1.81-.49,2.43-1.15l1.36,1.15c-1.16,1.22-2.48,1.69-3.82,1.69-2.55,0-4.33-1.78-3.96-4.44.37-2.66,2.66-4.44,5.21-4.44,2.36,0,3.73,1.66,3.31,4.6l-.07.58h-6.45ZM222.74,30.9c.16-1.23-.53-2.01-1.85-2.01-1.25,0-2.15.79-2.48,2.01h4.33Z"/>
          <path class="cls-1" d="M225.01,29.32l.25-1.8h1.74l.35-2.45h2.11l-.35,2.45h2.59v1.8h-2.84l-.51,3.7c-.12.84.05,1.37.99,1.37.37,0,1.44-.42,1.74-.62l-.8,2.13c-.48.21-1.23.28-1.73.28-2.24,0-2.62-1-2.34-2.99l.55-3.88h-1.74Z"/>
          <path class="cls-1" d="M249.78,29.47c-.19-.47-.46-.86-.81-1.19-.35-.33-.78-.58-1.29-.76-.51-.18-1.09-.26-1.73-.26-.74,0-1.42.14-2.03.4-.61.27-1.15.64-1.6,1.11-.45.47-.8,1.02-1.05,1.65-.25.63-.37,1.31-.37,2.03,0,.57.09,1.09.28,1.55.19.46.46.86.82,1.19.36.33.79.58,1.31.76.51.18,1.1.26,1.75.26.74,0,1.42-.13,2.03-.4.17-.07.32-.15.48-.24l-.43,2.68h1.83l.91-5.72c.13-.48.2-.98.2-1.5,0-.57-.1-1.09-.28-1.55M247.79,32.37c-.13.39-.31.73-.55,1.04-.24.3-.54.54-.89.72-.35.18-.74.27-1.19.27-.35,0-.66-.06-.93-.17-.27-.11-.5-.27-.68-.46-.19-.19-.32-.42-.42-.68-.1-.26-.15-.54-.15-.84,0-.41.07-.81.2-1.19.13-.39.32-.73.57-1.03.25-.3.54-.54.89-.73.35-.18.74-.28,1.17-.28.34,0,.65.06.93.17.27.11.5.27.68.46.18.19.32.42.41.68s.14.54.14.84l-.19,1.2h0Z"/>
          <path class="cls-1" d="M239.6,28.27c-.35-.33-.78-.58-1.29-.76-.51-.18-1.09-.26-1.73-.26-.74,0-1.42.14-2.03.4-.61.27-1.15.64-1.6,1.11-.45.47-.8,1.02-1.05,1.65-.25.63-.37,1.31-.37,2.03,0,.57.09,1.09.28,1.55.19.47.46.86.82,1.19.36.33.79.58,1.31.76.51.18,1.1.26,1.75.26.74,0,1.42-.13,2.03-.4.61-.27,1.14-.64,1.58-1.11.44-.47.79-1.02,1.03-1.65.25-.63.37-1.31.37-2.03,0-.57-.1-1.09-.28-1.55-.19-.46-.46-.86-.81-1.19M238.42,32.37c-.13.39-.31.73-.55,1.04-.24.3-.54.54-.88.72-.35.18-.74.27-1.19.27-.35,0-.66-.06-.93-.17-.27-.11-.5-.27-.68-.46-.18-.19-.32-.42-.42-.68-.1-.26-.14-.54-.14-.84,0-.41.07-.81.2-1.19.13-.38.32-.73.57-1.03.24-.3.54-.54.89-.73.35-.18.74-.28,1.17-.28.35,0,.65.06.93.17.27.11.5.26.68.46.18.19.32.42.41.68.1.26.14.54.14.84,0,.41-.06.81-.19,1.2"/>
          <path class="cls-1" d="M255.7,32.66c-.04.22-.1.43-.17.64-.07.21-.18.41-.32.58-.14.17-.32.31-.54.42-.22.11-.5.16-.84.16-.26,0-.48-.04-.66-.11-.18-.07-.33-.17-.44-.29-.11-.13-.19-.27-.25-.43-.05-.16-.08-.33-.08-.51,0-.07,0-.15,0-.24,0-.09.01-.17.03-.25l.91-5.17h-1.99l-.94,5.35c-.02.12-.03.25-.04.37-.01.13-.02.25-.02.36,0,.41.08.78.24,1.11.16.33.38.61.67.84.29.23.65.41,1.06.53.41.12.88.19,1.39.19.59,0,1.1-.08,1.55-.24.45-.16.84-.39,1.16-.67.32-.29.59-.64.79-1.05.2-.41.35-.87.43-1.38l.94-5.39h-1.97l-.93,5.19h0Z"/>
          <path class="cls-1" d="M269.58,27.97c-.29-.23-.65-.41-1.06-.53-.41-.12-.88-.19-1.39-.19-.59,0-1.1.08-1.55.24-.45.16-.84.38-1.16.67-.32.29-.59.64-.79,1.05-.2.41-.34.87-.43,1.38l-.94,5.39h1.97l.93-5.19c.04-.22.1-.43.17-.64.07-.21.18-.4.32-.58.14-.17.32-.31.54-.42.22-.11.5-.16.84-.16.26,0,.48.04.66.11.18.07.33.17.44.29.11.12.19.27.25.43.05.16.08.33.08.5,0,.07,0,.15,0,.24,0,.09-.01.17-.03.25l-.91,5.17h1.99l.94-5.35c.02-.12.03-.24.04-.37.01-.13.02-.25.02-.36,0-.41-.08-.78-.23-1.11-.16-.33-.38-.61-.67-.84"/>
          <path class="cls-1" d="M279.77,29.47c-.19-.47-.46-.86-.81-1.19-.35-.33-.79-.58-1.29-.76-.51-.18-1.09-.26-1.73-.26-.74,0-1.41.14-2.03.4-.61.27-1.15.64-1.6,1.11-.45.47-.8,1.02-1.05,1.65-.25.63-.37,1.31-.37,2.03,0,.57.09,1.09.28,1.55.19.46.46.86.82,1.19.36.33.79.58,1.31.76.51.18,1.1.26,1.75.26.74,0,1.41-.13,2.03-.4.61-.27,1.14-.64,1.58-1.11.44-.47.78-1.02,1.03-1.65.24-.63.37-1.31.37-2.03,0-.57-.1-1.09-.28-1.55M277.78,32.37c-.13.39-.31.73-.55,1.04-.24.3-.54.54-.88.72-.35.18-.74.27-1.19.27-.35,0-.66-.06-.93-.17-.27-.11-.5-.27-.68-.46-.19-.19-.32-.42-.42-.68-.1-.26-.14-.54-.14-.84,0-.41.07-.81.2-1.19.13-.39.32-.73.57-1.03.25-.3.54-.54.89-.73s.74-.28,1.17-.28c.34,0,.65.06.93.17.27.11.5.27.68.46.18.19.32.42.41.68.1.26.15.54.15.84,0,.41-.07.81-.19,1.2"/>
          <polygon class="cls-1" points="281.37 27.47 279.87 35.99 285.21 35.99 285.53 34.25 282.18 34.25 283.38 27.47 281.37 27.47"/>
          <polygon class="cls-1" points="260.63 27.47 259.29 27.47 258.98 29.21 260.32 29.21 259.12 35.99 261.13 35.99 262.64 27.47 260.63 27.47"/>
          <path class="cls-1" d="M261.91,25.71c.77,0,1.4-.63,1.4-1.4s-.63-1.4-1.4-1.4-1.4.63-1.4,1.4.63,1.4,1.4,1.4"/>
          <path class="cls-3" d="M233.56,43.08l-.21-.63h-1.23l-.21.63h-.5l1.14-3.12h.38l1.14,3.12h-.5ZM232.74,40.67l-.49,1.38h.96l-.47-1.38Z"/>
          <path class="cls-3" d="M235.43,43.1c-.34,0-.6-.11-.8-.31-.3-.31-.31-.62-.31-1.27s.01-.96.31-1.27c.2-.2.46-.32.8-.32.57,0,1,.34,1.11.96h-.48c-.07-.32-.28-.54-.63-.54-.19,0-.35.07-.46.19-.16.17-.19.35-.19.97s.03.8.19.97c.11.12.27.19.46.19.35,0,.56-.22.64-.54h.47c-.11.62-.54.96-1.11.96"/>
          <polygon class="cls-3" points="238.86 43.08 238.86 41.72 237.6 41.72 237.6 43.08 237.13 43.08 237.13 39.96 237.6 39.96 237.6 41.29 238.86 41.29 238.86 39.96 239.34 39.96 239.34 43.08 238.86 43.08"/>
          <rect class="cls-3" x="240.11" y="39.96" width=".47" height="3.12"/>
          <polygon class="cls-3" points="241.35 43.08 241.35 39.96 243.34 39.96 243.34 40.39 241.82 40.39 241.82 41.3 243.12 41.3 243.12 41.72 241.82 41.72 241.82 42.65 243.34 42.65 243.34 43.08 241.35 43.08"/>
          <polygon class="cls-3" points="244.95 43.08 244.58 43.08 243.56 39.96 244.05 39.96 244.77 42.23 245.49 39.96 245.99 39.96 244.95 43.08"/>
          <polygon class="cls-3" points="246.37 43.08 246.37 39.96 248.36 39.96 248.36 40.39 246.84 40.39 246.84 41.3 248.14 41.3 248.14 41.72 246.84 41.72 246.84 42.65 248.36 42.65 248.36 43.08 246.37 43.08"/>
          <polygon class="cls-3" points="252.25 43.08 252.25 41 251.53 42.51 251.18 42.51 250.45 41 250.45 43.08 249.97 43.08 249.97 39.96 250.45 39.96 251.36 41.9 252.25 39.96 252.72 39.96 252.72 43.08 252.25 43.08"/>
          <path class="cls-3" d="M255.3,42.79c-.2.2-.46.32-.8.32s-.6-.11-.81-.32c-.31-.31-.32-.62-.32-1.27s0-.96.32-1.27c.2-.2.46-.32.81-.32s.6.11.8.32c.31.31.31.62.31,1.27s0,.96-.31,1.27M254.96,40.55c-.12-.12-.28-.19-.46-.19s-.35.07-.46.19c-.15.17-.18.35-.18.97s.03.8.18.97c.12.12.28.2.46.2s.35-.07.46-.2c.16-.16.18-.35.18-.97s-.03-.81-.18-.97"/>
          <path class="cls-3" d="M257.99,43.08l-.66-1.31h-.59v1.31h-.47v-3.12h1.21c.59,0,.97.38.97.91,0,.45-.27.73-.62.83l.72,1.38h-.55,0ZM257.44,40.39h-.7v.98h.7c.31,0,.53-.18.53-.49s-.21-.49-.53-.49"/>
          <polygon class="cls-3" points="259.09 43.08 259.09 39.96 261.09 39.96 261.09 40.39 259.57 40.39 259.57 41.3 260.86 41.3 260.86 41.72 259.57 41.72 259.57 42.65 261.09 42.65 261.09 43.08 259.09 43.08"/>
          <polygon class="cls-1" points="263.75 40.39 263.75 43.08 263.28 43.08 263.28 40.39 262.42 40.39 262.42 39.96 264.61 39.96 264.61 40.39 263.75 40.39"/>
          <path class="cls-1" d="M266.83,42.79c-.2.2-.46.32-.81.32s-.6-.11-.8-.32c-.31-.31-.31-.62-.31-1.27s0-.96.31-1.27c.2-.2.46-.32.8-.32s.6.11.81.32c.31.31.31.62.31,1.27s0,.96-.31,1.27M266.49,40.55c-.12-.12-.28-.19-.46-.19s-.35.07-.46.19c-.15.17-.18.35-.18.97s.03.8.18.97c.12.12.28.2.46.2s.35-.07.46-.2c.16-.16.18-.35.18-.97s-.03-.81-.18-.97"/>
          <path class="cls-1" d="M269.66,42.75c-.23.25-.53.35-.86.35s-.6-.11-.81-.31c-.3-.31-.32-.62-.32-1.27s.01-.96.32-1.27c.2-.2.46-.31.81-.31.66,0,1.04.43,1.13.96h-.47c-.08-.34-.31-.54-.66-.54-.19,0-.35.07-.46.19-.15.17-.18.35-.18.97s.03.8.18.97c.12.12.28.19.46.19.21,0,.39-.08.51-.22.11-.13.15-.29.15-.49v-.17h-.66v-.4h1.14v.48c0,.41-.07.66-.28.88"/>
          <polygon class="cls-1" points="270.6 43.08 270.6 39.96 272.59 39.96 272.59 40.39 271.07 40.39 271.07 41.3 272.36 41.3 272.36 41.72 271.07 41.72 271.07 42.65 272.59 42.65 272.59 43.08 270.6 43.08"/>
          <polygon class="cls-1" points="274.25 40.39 274.25 43.08 273.77 43.08 273.77 40.39 272.92 40.39 272.92 39.96 275.1 39.96 275.1 40.39 274.25 40.39"/>
          <polygon class="cls-1" points="277.34 43.08 277.34 41.72 276.07 41.72 276.07 43.08 275.6 43.08 275.6 39.96 276.07 39.96 276.07 41.29 277.34 41.29 277.34 39.96 277.81 39.96 277.81 43.08 277.34 43.08"/>
          <polygon class="cls-1" points="278.58 43.08 278.58 39.96 280.57 39.96 280.57 40.39 279.05 40.39 279.05 41.3 280.35 41.3 280.35 41.72 279.05 41.72 279.05 42.65 280.57 42.65 280.57 43.08 278.58 43.08"/>
          <path class="cls-1" d="M282.9,43.08l-.66-1.31h-.59v1.31h-.47v-3.12h1.21c.59,0,.97.38.97.91,0,.45-.27.73-.62.83l.72,1.38h-.55,0ZM282.35,40.39h-.7v.98h.7c.31,0,.53-.18.53-.49s-.21-.49-.53-.49"/>
        </g>
      </g>
    </g>
  </g>
</svg>